<svg xmlns="http://www.w3.org/2000/svg" fill-rule="evenodd" viewBox="0 0 246 68">
  <path fill="#fff" d="M145.18 44.735v16.332c0 1.423-.277 2.658-.83 3.703a5.637 5.637 0 01-2.32 2.396c-1.004.553-2.176.83-3.518.83-1.096 0-2.177-.246-3.242-.738-1.055-.491-1.906-1.193-2.551-2.105l1.029-1.121c.656.819 1.368 1.423 2.136 1.813a5.503 5.503 0 002.52.584c1.568 0 2.781-.466 3.641-1.398.861-.932 1.291-2.233 1.291-3.903v-1.936a5.88 5.88 0 01-2.151 1.829c-.86.43-1.864.645-3.012.645-1.29 0-2.416-.353-3.379-1.06-.963-.717-1.706-1.716-2.228-2.996-.513-1.281-.769-2.745-.769-4.394v-.323c0-1.711.256-3.201.769-4.471.512-1.28 1.249-2.264 2.212-2.95.963-.697 2.105-1.045 3.427-1.045 1.167 0 2.181.236 3.042.707.86.461 1.571 1.127 2.135 1.997l.077-2.396h1.721zM33.039 67.652c18.247 0 33.039-14.792 33.039-33.039 0-18.248-14.792-33.04-33.039-33.04S0 16.365 0 34.613C0 52.86 14.792 67.652 33.039 67.652zm51.919-1.574h-.787V0h.787v66.078zm-51.919-.629c17.031 0 30.837-13.806 30.837-30.836 0-17.031-13.806-30.837-30.837-30.837-17.03 0-30.836 13.806-30.836 30.837 0 17.03 13.806 30.836 30.836 30.836zm137.138-20.714h3.427v1.505h-3.427v11.062c0 1.066.19 1.793.569 2.182.389.379.916.569 1.582.569.369 0 .871-.057 1.506-.169l.077 1.536a4.396 4.396 0 01-.876.169 7.74 7.74 0 01-1.091.077c-1.147 0-2.038-.333-2.673-.999-.636-.666-.953-1.787-.953-3.365V46.24h-3.042v-1.505h3.042v-4.272h1.859v4.272zm18.991 4.655h-1.86a3 3 0 00-.506-1.659c-.339-.523-.835-.943-1.491-1.26-.645-.318-1.408-.477-2.289-.477-.912 0-1.67.139-2.274.415-.594.277-1.035.635-1.321 1.076-.287.44-.431.906-.431 1.398 0 .532.113.983.339 1.352.235.369.675.707 1.32 1.014.646.307 1.573.599 2.782.876 1.372.317 2.479.691 3.318 1.121.85.42 1.481.937 1.89 1.552.409.604.615 1.347.615 2.228a4.01 4.01 0 01-.769 2.412c-.502.707-1.218 1.255-2.15 1.644-.922.389-1.993.584-3.212.584-1.352 0-2.519-.225-3.502-.676-.984-.461-1.732-1.07-2.244-1.829-.512-.768-.768-1.592-.768-2.473h1.828c.082 1.198.574 2.069 1.475 2.612.912.532 1.982.799 3.211.799.902 0 1.675-.139 2.32-.415.645-.277 1.132-.64 1.46-1.091.338-.451.507-.942.507-1.475 0-.789-.318-1.48-.953-2.074-.635-.594-1.803-1.07-3.503-1.429-1.311-.277-2.386-.604-3.227-.983-.829-.379-1.464-.866-1.904-1.46-.441-.594-.661-1.337-.661-2.228 0-.829.241-1.587.722-2.274.482-.686 1.163-1.229 2.043-1.628.892-.41 1.921-.615 3.089-.615 1.26 0 2.35.215 3.272.646.932.419 1.644 1.008 2.136 1.766.492.748.738 1.598.738 2.551zm-81.431 11.969h-1.889V38.988h7.267c1.556 0 2.903.256 4.041.769 1.136.501 2.012 1.249 2.627 2.243.614.983.921 2.176.921 3.58 0 .973-.194 1.869-.584 2.688a5.92 5.92 0 01-1.628 2.105 6.688 6.688 0 01-2.427 1.26l5.608 9.526v.2h-2.028l-5.394-9.327h-6.514v9.327zm19.774 0h-1.828V44.735h1.828v16.624zm24.337 0h-1.844v-23.6h1.844v9.756a6.533 6.533 0 012.289-2.258c.932-.553 1.972-.83 3.119-.83 1.721 0 3.032.487 3.933 1.46.912.973 1.368 2.52 1.368 4.64v10.832h-1.844V50.527c0-1.639-.333-2.802-.999-3.488-.665-.686-1.639-1.029-2.919-1.029-1.198 0-2.222.379-3.073 1.137-.85.747-1.475 1.679-1.874 2.796v11.416zm-13.321-1.291c1.198 0 2.192-.271 2.981-.814.788-.553 1.398-1.306 1.828-2.259v-7.682c-.389-.973-.973-1.762-1.752-2.366-.768-.615-1.777-.922-3.026-.922-1.086 0-1.997.297-2.735.891-.737.594-1.286 1.409-1.644 2.443-.358 1.024-.538 2.202-.538 3.534v.323c0 1.321.18 2.499.538 3.533.358 1.035.901 1.849 1.629 2.443.727.584 1.633.876 2.719.876zM28.083 18.644a5.507 5.507 0 1111.013 0v27.532a5.507 5.507 0 11-11.013 0V18.644zM41.85 35.163a5.506 5.506 0 1111.013 0v11.013a5.508 5.508 0 01-11.013 0V35.163zm-27.533-5.506a5.506 5.506 0 1111.013 0v16.519a5.507 5.507 0 11-11.013 0V29.657zm98.798 10.945h-5.378v9.833h5.792c1.127 0 2.085-.221 2.874-.661.798-.451 1.398-1.045 1.797-1.782.41-.738.615-1.542.615-2.412 0-1.025-.221-1.911-.661-2.658-.441-.748-1.086-1.322-1.936-1.721-.85-.4-1.885-.599-3.103-.599zm13.489-1.921c.389 0 .697.118.922.353.236.236.353.533.353.891 0 .349-.117.641-.353.876-.225.226-.533.338-.922.338-.378 0-.686-.112-.921-.338a1.213 1.213 0 01-.338-.876c0-.358.112-.655.338-.891.235-.235.543-.353.921-.353zm45.94-26.264h-1.859c0-.583-.169-1.137-.508-1.659-.338-.522-.834-.942-1.49-1.26-.645-.317-1.409-.476-2.29-.476-.911 0-1.669.138-2.273.415-.594.276-1.034.635-1.322 1.075a2.52 2.52 0 00-.43 1.398c0 .533.113.984.338 1.352.236.369.676.707 1.322 1.014.645.308 1.572.6 2.781.876 1.372.318 2.479.692 3.318 1.122.85.42 1.48.937 1.89 1.552.41.604.615 1.347.615 2.227 0 .902-.256 1.706-.769 2.413-.502.706-1.219 1.254-2.151 1.644-.922.389-1.991.583-3.211.583-1.352 0-2.519-.225-3.503-.676-.983-.461-1.731-1.07-2.243-1.828-.512-.768-.768-1.593-.768-2.474h1.828c.082 1.199.574 2.069 1.475 2.612.912.533 1.982.799 3.211.799.902 0 1.675-.138 2.32-.415.646-.276 1.132-.64 1.46-1.09.338-.451.507-.943.507-1.475 0-.789-.317-1.48-.953-2.075-.635-.594-1.802-1.07-3.503-1.429-1.31-.276-2.387-.604-3.226-.983-.83-.379-1.465-.865-1.905-1.459-.441-.594-.661-1.337-.661-2.228 0-.83.241-1.588.722-2.274.482-.686 1.163-1.229 2.044-1.629.89-.409 1.92-.614 3.087-.614 1.261 0 2.352.215 3.274.645.931.42 1.643 1.009 2.135 1.767.491.748.738 1.598.738 2.55zm-50.826-3.411h-1.889c-.482-3.789-2.551-5.684-6.207-5.684-1.363 0-2.546.353-3.549 1.06-1.004.696-1.773 1.68-2.305 2.95-.533 1.27-.8 2.75-.8 4.44v2.827c0 1.649.257 3.119.769 4.41.512 1.28 1.26 2.284 2.244 3.011.983.717 2.155 1.076 3.517 1.076 1.947 0 3.427-.467 4.441-1.399 1.014-.942 1.644-2.371 1.89-4.286h1.889c-.235 2.304-1.059 4.097-2.473 5.377-1.403 1.27-3.319 1.905-5.747 1.905-1.679 0-3.154-.42-4.424-1.259-1.27-.84-2.253-2.023-2.95-3.55-.697-1.526-1.045-3.288-1.045-5.285v-2.796c0-2.008.348-3.77 1.045-5.285.697-1.527 1.69-2.71 2.98-3.55 1.291-.84 2.797-1.259 4.518-1.259 1.577 0 2.944.286 4.102.86a6.623 6.623 0 012.75 2.504c.676 1.086 1.091 2.397 1.244 3.933zm67.557 15.38h-1.767l-.046-2.105c-1.096 1.608-2.858 2.412-5.285 2.412-1.721 0-3.063-.502-4.025-1.505-.963-1.014-1.445-2.612-1.445-4.794V7.762h1.844v10.663c0 1.659.348 2.852 1.045 3.58.706.727 1.638 1.091 2.796 1.091 1.393 0 2.499-.292 3.318-.876.83-.594 1.404-1.398 1.722-2.412V7.762h1.843v16.624zm33.525-8.204v.353c0 1.219.241 2.335.722 3.349.482 1.004 1.152 1.798 2.013 2.382.86.584 1.843.876 2.949.876.994 0 1.87-.18 2.628-.538.758-.369 1.434-.948 2.028-1.736l1.167.875a6.811 6.811 0 01-2.365 2.151c-.963.533-2.141.799-3.535.799-1.423 0-2.703-.348-3.84-1.044-1.127-.697-2.013-1.665-2.658-2.904-.636-1.24-.953-2.643-.953-4.21v-.661c0-1.659.323-3.129.968-4.409.656-1.281 1.526-2.269 2.612-2.965a6.49 6.49 0 013.549-1.045c1.373 0 2.556.322 3.549.968.994.645 1.747 1.541 2.259 2.688.512 1.148.768 2.464.768 3.949v1.122H222.8zm-97.916-.354c0-1.608.307-3.047.922-4.317.614-1.27 1.479-2.264 2.596-2.981 1.127-.717 2.422-1.075 3.887-1.075 1.475 0 2.776.358 3.903 1.075 1.126.717 1.997 1.711 2.611 2.981.615 1.27.922 2.709.922 4.317v.492c0 1.608-.307 3.047-.922 4.317-.614 1.27-1.479 2.264-2.596 2.981-1.117.717-2.412 1.075-3.887 1.075s-2.776-.358-3.903-1.075c-1.126-.717-1.997-1.711-2.611-2.981-.615-1.27-.922-2.709-.922-4.317v-.492zm20.48 8.558h-1.844V7.762h1.767l.062 2.812c.594-.973 1.357-1.736 2.289-2.29.932-.553 1.977-.829 3.134-.829 1.721 0 3.032.486 3.933 1.459.912.973 1.368 2.52 1.368 4.64v10.832h-1.843V13.554c0-1.639-.334-2.801-.999-3.487-.666-.687-1.639-1.03-2.92-1.03-1.198 0-2.222.379-3.072 1.137-.851.748-1.475 1.68-1.875 2.797v11.415zm94.736 0h-1.844V7.762h1.798l.046 2.612c.461-.922 1.08-1.639 1.859-2.151.789-.512 1.726-.768 2.811-.768.216 0 .441.02.677.061.235.031.419.072.553.123l-.061 1.675a8.296 8.296 0 00-1.23-.108c-1.198 0-2.187.333-2.965.999-.779.666-1.327 1.572-1.644 2.719v11.462zm-44.28 0h-1.843V7.762h1.782l.046 2.689a6.168 6.168 0 012.228-2.197c.921-.533 1.976-.799 3.165-.799 1.259 0 2.314.261 3.165.783.85.523 1.454 1.332 1.813 2.428a6.338 6.338 0 012.289-2.336c.983-.583 2.115-.875 3.395-.875 1.783 0 3.135.491 4.057 1.475.921.983 1.382 2.525 1.382 4.624v10.832h-1.828V13.539c0-1.649-.349-2.812-1.045-3.488-.686-.676-1.669-1.014-2.95-1.014-.983 0-1.838.22-2.566.661-.716.43-1.275.978-1.674 1.644-.399.666-.63 1.347-.692 2.043v11.001h-1.843V13.385c0-1.567-.353-2.683-1.06-3.349-.697-.666-1.69-.999-2.981-.999s-2.336.369-3.134 1.106c-.789.738-1.358 1.675-1.706 2.812v11.431zm-69.092-8.066c0 1.239.214 2.376.645 3.411.44 1.034 1.08 1.859 1.92 2.473.85.615 1.859.922 3.027.922 1.157 0 2.156-.307 2.996-.922.84-.614 1.475-1.439 1.905-2.473.44-1.035.66-2.172.66-3.411v-.492c0-1.219-.22-2.345-.66-3.38-.44-1.034-1.086-1.864-1.936-2.489-.84-.625-1.839-.937-2.996-.937s-2.156.312-2.996.937c-.84.625-1.48 1.455-1.92 2.489-.431 1.035-.645 2.161-.645 3.38v.492zm101.357-7.298c-.922 0-1.757.23-2.504.691-.738.461-1.342 1.117-1.813 1.967-.471.84-.769 1.818-.892 2.934h9.941v-.199a6.79 6.79 0 00-.583-2.674 4.582 4.582 0 00-1.598-1.966c-.707-.502-1.558-.753-2.551-.753z"/>
</svg>
