<svg xmlns="http://www.w3.org/2000/svg" fill-rule="evenodd" stroke-linejoin="round" stroke-miterlimit="2" clip-rule="evenodd" viewBox="0 0 339 100">
  <g>
    <path d="M339 15a15 15 0 00-15-15H15A15 15 0 000 15v70a15 15 0 0015 15h309a15 15 0 0015-15V15z"/>
    <g fill="#fff">
      <path fill-rule="nonzero" d="M178.53 33.08a7.6 7.6 0 01-5.68-2.35 8 8 0 01-2.3-5.74c0-2.27.78-4.2 2.3-5.73a7.59 7.59 0 015.67-2.35c2.24 0 4.15.8 5.68 2.35a8 8 0 012.3 5.73 8 8 0 01-2.3 5.73 7.54 7.54 0 01-5.67 2.36zm-67.34 0a7.9 7.9 0 01-5.7-2.32 7.8 7.8 0 01-2.35-5.76c0-2.29.79-4.23 2.35-5.76a7.8 7.8 0 015.7-2.32c1.1 0 2.16.22 3.19.66 1 .43 1.82 1.02 2.42 1.73l.15.19-1.69 1.65-.17-.2a4.8 4.8 0 00-3.92-1.7A5.57 5.57 0 00105.6 25a5.57 5.57 0 005.56 5.75c1.6 0 2.96-.53 4.01-1.6a4.32 4.32 0 001.15-2.6h-5.42v-2.32h7.74l.03.2c.06.4.12.8.12 1.18 0 2.15-.65 3.9-1.94 5.18a7.54 7.54 0 01-5.67 2.29zm89.53-.33h-2.38l-7.32-11.7.07 2.1v9.6h-2.4v-15.5h2.73l.08.12 6.87 11.02-.06-2.1v-9.04h2.41v15.5zm-40.13 0h-2.42V19.58h-4.2v-2.33h10.8v2.33h-4.19v13.17zm-8.59 0h-2.41v-15.5H152v15.5zm-13.56 0h-2.41V19.58h-4.2v-2.33h10.8v2.33h-4.19v13.17zm-8.13-.03h-9.26V17.25h9.26v2.33h-6.84v4.25h6.17v2.31h-6.17v4.25h6.83v2.33zm44.31-3.6a5.33 5.33 0 003.9 1.63 5.2 5.2 0 003.92-1.62 5.61 5.61 0 001.6-4.13c0-1.68-.54-3.07-1.6-4.13a5.35 5.35 0 00-3.9-1.62c-1.57 0-2.85.53-3.9 1.62a5.61 5.61 0 00-1.6 4.13c0 1.68.53 3.07 1.58 4.13z"/>
      <path d="M170.33 54.39c-5.9 0-10.67 4.47-10.67 10.64 0 6.1 4.81 10.63 10.67 10.63 5.9 0 10.67-4.5 10.67-10.63 0-6.17-4.78-10.64-10.67-10.64zm0 17.06c-3.22 0-6-2.67-6-6.45 0-3.83 2.78-6.45 6-6.45s6 2.62 6 6.45c0 3.8-2.78 6.45-6 6.45zm-23.27-17.06c-5.9 0-10.67 4.47-10.67 10.63 0 6.11 4.8 10.64 10.67 10.64 5.89 0 10.66-4.5 10.66-10.64 0-6.16-4.78-10.63-10.66-10.63zm0 17.06c-3.23 0-6-2.67-6-6.45 0-3.83 2.78-6.45 6-6.45s6 2.62 6 6.45c0 3.8-2.78 6.45-6 6.45zm-27.7-13.81v4.5h10.8c-.32 2.52-1.16 4.39-2.44 5.66-1.58 1.59-4.02 3.31-8.33 3.31a11.84 11.84 0 01-11.83-12c0-6.64 5.19-12 11.83-12 3.58 0 6.2 1.41 8.14 3.22l3.19-3.2a15.7 15.7 0 00-11.3-4.55c-9.11 0-16.76 7.42-16.76 16.5 0 9.11 7.64 16.5 16.75 16.5 4.92 0 8.61-1.6 11.53-4.63 2.98-2.98 3.92-7.17 3.92-10.56 0-1.05-.08-2-.25-2.8h-15.25v.05zm113.28 3.5c-.9-2.39-3.59-6.78-9.11-6.78-5.48 0-10.03 4.31-10.03 10.64a10.4 10.4 0 0010.56 10.64c4.86 0 7.7-2.98 8.86-4.72l-3.61-2.42c-1.2 1.77-2.86 2.94-5.23 2.94-2.38 0-4.06-1.08-5.17-3.22l14.23-5.9-.5-1.18zm-14.5 3.55a5.84 5.84 0 015.55-6.2c1.87 0 3.42.92 3.95 2.26l-9.5 3.94zM206.58 75h4.67V43.75h-4.67V75zm-7.67-18.25h-.16a7.37 7.37 0 00-5.61-2.39c-5.31 0-10.2 4.67-10.2 10.67 0 5.97 4.86 10.59 10.2 10.59a7.35 7.35 0 005.6-2.42h.17v1.53c0 4.05-2.16 6.24-5.66 6.24-2.86 0-4.64-2.05-5.36-3.77l-4.06 1.69a10.15 10.15 0 009.41 6.28c5.48 0 10.11-3.23 10.11-11.09V55h-4.41v1.75h-.03zm-5.36 14.7c-3.22 0-5.91-2.7-5.91-6.42 0-3.75 2.69-6.47 5.91-6.47 3.2 0 5.67 2.75 5.67 6.47.03 3.72-2.47 6.42-5.67 6.42zm60.95-27.7h-11.16V75H248V63.17h6.5c5.17 0 10.25-3.75 10.25-9.7 0-5.95-5.06-9.72-10.26-9.72zm.14 15.05H248V48.08h6.64c3.5 0 5.47 2.89 5.47 5.36 0 2.45-2 5.36-5.47 5.36zm28.83-4.47c-3.39 0-6.89 1.5-8.33 4.78l4.14 1.72c.89-1.72 2.52-2.3 4.25-2.3 2.42 0 4.86 1.44 4.92 4.02v.33c-.84-.47-2.67-1.2-4.87-1.2-4.47 0-9 2.45-9 7.03 0 4.2 3.67 6.89 7.75 6.89 3.14 0 4.87-1.42 5.94-3.06h.17v2.42h4.5V63c0-5.57-4.14-8.66-9.47-8.66zm-.58 17.12c-1.53 0-3.67-.75-3.67-2.67 0-2.42 2.67-3.34 4.94-3.34a8.1 8.1 0 014.26 1.06 5.62 5.62 0 01-5.53 4.95zM309.36 55L304 68.55h-.17L298.28 55h-5.03l8.34 18.95-4.75 10.53h4.86L314.53 55h-5.17zm-42.03 20H272V43.75h-4.67V75z"/>
    </g>
    <path fill="url(#_Linear2)" d="M26.09 18.83a5.06 5.06 0 00-1.15 3.53v55.28c0 1.56.42 2.75 1.17 3.5l.2.17 30.97-30.97v-.7l-31-30.97-.2.16z"/>
    <path fill="url(#_Linear3)" d="M67.58 60.7L57.25 50.35v-.72L67.58 39.3l.23.14 12.22 6.94c3.5 1.97 3.5 5.23 0 7.22L67.8 60.56l-.23.13z"/>
    <path fill="url(#_Linear4)" d="M67.8 60.55L57.26 50 26.1 81.17c1.14 1.22 3.05 1.35 5.19.16L67.8 60.56"/>
    <path fill="url(#_Linear5)" d="M67.8 39.45L31.29 18.7c-2.14-1.23-4.06-1.06-5.2.16L57.26 50l10.56-10.55z"/>
    <path fill-opacity=".2" d="M67.58 60.33L31.3 80.94c-2.02 1.17-3.83 1.09-5 .03l-.19.19.2.17c1.16 1.05 2.97 1.14 5-.03l36.52-20.74-.25-.23z"/>
    <path fill-opacity=".12" d="M80.03 53.25l-12.48 7.08.22.23L80 53.6c1.76-1 2.62-2.3 2.62-3.61-.11 1.2-1 2.33-2.58 3.25z"/>
    <path fill="#fff" fill-opacity=".25" d="M31.28 19.06l48.74 27.7c1.59.88 2.48 2.05 2.62 3.24 0-1.3-.86-2.61-2.62-3.61l-48.74-27.7c-3.5-2-6.34-.32-6.34 3.67v.36c0-4 2.84-5.64 6.34-3.66z"/>
  </g>
  <defs>
    <linearGradient id="_Linear2" x1="0" x2="1" y1="0" y2="0" gradientTransform="scale(-59.3347) rotate(-45 -.9 .93)" gradientUnits="userSpaceOnUse">
      <stop offset="0" stop-color="#00a0ff"/>
      <stop offset=".01" stop-color="#00a1ff"/>
      <stop offset=".26" stop-color="#00beff"/>
      <stop offset=".51" stop-color="#00d2ff"/>
      <stop offset=".76" stop-color="#00dfff"/>
      <stop offset="1" stop-color="#00e3ff"/>
    </linearGradient>
    <linearGradient id="_Linear3" x1="0" x2="1" y1="0" y2="0" gradientTransform="rotate(180 42.3 25) scale(60.4922)" gradientUnits="userSpaceOnUse">
      <stop offset="0" stop-color="#ffe000"/>
      <stop offset=".41" stop-color="#ffbd00"/>
      <stop offset=".78" stop-color="orange"/>
      <stop offset="1" stop-color="#ff9c00"/>
    </linearGradient>
    <linearGradient id="_Linear4" x1="0" x2="1" y1="0" y2="0" gradientTransform="rotate(135 19.49 40.73) scale(80.4621)" gradientUnits="userSpaceOnUse">
      <stop offset="0" stop-color="#ff3a44"/>
      <stop offset="1" stop-color="#c31162"/>
    </linearGradient>
    <linearGradient id="_Linear5" x1="0" x2="1" y1="0" y2="0" gradientTransform="rotate(45 8.58 22.24) scale(35.9298)" gradientUnits="userSpaceOnUse">
      <stop offset="0" stop-color="#32a071"/>
      <stop offset=".07" stop-color="#2da771"/>
      <stop offset=".48" stop-color="#15cf74"/>
      <stop offset=".8" stop-color="#06e775"/>
      <stop offset="1" stop-color="#00f076"/>
    </linearGradient>
  </defs>
</svg>
