<svg xmlns="http://www.w3.org/2000/svg" viewBox="0 0 168 40" width="168" height="40">
	<defs>
		<linearGradient id="grd1" gradientUnits="userSpaceOnUse"  x1="84.002" y1="39.138" x2="84.002" y2="24.581">
			<stop offset="0" stop-color="#7f663b"  />
			<stop offset="1" stop-color="#fced9d"  />
		</linearGradient>
		<linearGradient id="grd2" gradientUnits="userSpaceOnUse"  x1="84.002" y1="21.519" x2="84.002" y2="0.011">
			<stop offset="0" stop-color="#7f663b"  />
			<stop offset="1" stop-color="#fced9d"  />
		</linearGradient>
	</defs>
	<style>
		tspan { white-space:pre }
		.shp0 { fill: #beac69 } 
		.shp1 { fill: url(#grd1) } 
		.shp2 { fill: url(#grd2) } 
	</style>
	<g id="Layer_x0020_1">
		<path id="Layer" class="shp0" d="M99.48,31.13h59.43v-0.34h-59.43z" />
		<path id="Layer" class="shp1" d="M84.27,39.83l-10.21,-11.66l4.6,-4.07h10.72l4.6,4.57zM76.09,27.16l-1.01,1.01v0.5l4.09,4.57l1.01,1.51l-3.08,-6.59l0.51,-2.02zM78.66,25.11l0.51,-0.5h-0.51zM80.69,24.61l0.51,1.01l1.52,-1.01zM84.78,24.61l2.03,1.01l0.51,-1.01zM88.33,24.61l1.01,0.5l-0.51,-0.5zM90.39,26.15l0.51,2.52l-3.58,6.08l1.52,-1.51l3.58,-4.57l-1.01,-1.51zM82.72,36.27l1.01,-7.6h0.51l0.51,7.6l6.12,-7.6l-4.09,-3.06l-2.54,3.06l-3.08,-3.06l-4.06,2.55c0.51,0.5 1.52,2.02 5.61,8.1z" />
		<path id="Layer" class="shp0" d="M9.09,31.13h59.43v-0.34h-59.43z" />
	</g>
	<path id="Layer" class="shp2" d="M15.58,18.62c-0.68,0.67 -1.35,1.01 -2.37,1.34c-1.01,0.34 -2.06,0.34 -4.09,0.34c-0.68,0 -1.01,0 -1.69,0c-0.34,0 -0.68,0 -1.01,0c0,-0.34 -0.34,-0.34 -0.68,-0.34c-0.34,0 -0.34,0 -0.68,0c-0.34,-1.68 -0.34,-3.7 -0.34,-6.76v-2.35c0.71,0 1.72,0 3.08,0c2.06,0 3.41,0 4.09,0c0.68,0.34 1.35,0.34 1.35,1.01c0.34,0.34 0.68,1.01 0.68,2.02h0.34c0.34,-1.38 0.34,-2.39 0.34,-3.06c0,-1.04 0,-2.05 0,-3.06h-0.68c0,0.67 -0.34,1.01 -0.34,1.34c-0.34,0.34 -0.34,0.34 -0.68,0.67c0,0 -0.34,0 -1.01,0c-0.68,0.34 -2.4,0.34 -4.77,0.34c-1.35,0 -2.03,0 -2.37,0c0,0 0,-0.67 0,-1.68c0,-1.01 0,-2.02 0,-2.69c0,-1.34 0,-2.72 0.34,-4.4c1.69,-0.34 3.41,-0.34 5.1,-0.34c1.39,0 2.4,0 3.41,0.34c1.01,0 1.35,0.67 1.35,1.34c0,0 0,0.34 0,0.67c0,0.34 0,0.34 0,0.67c0,0 0,0 0.34,0c0.34,0 0.34,-0.34 0.68,-1.34c0,-0.67 0,-1.68 0,-2.69c-2.4,0 -4.09,0 -5.1,0h-10.55c0,0.34 0,0.34 0,0.67c0.68,0 1.01,0.34 1.35,0.34c0.34,0.34 0.68,0.67 0.68,1.01c0,0.71 0,1.71 0,3.39l0.37,5.11c0,0.34 0,1.34 0,2.69c-0.34,1.38 -0.34,2.39 -0.34,3.39c0,1.34 0,2.02 0,2.35c-0.34,0.34 -0.34,0.67 -0.34,0.67c0,0.34 0,0.34 -0.34,0.67c0,0 -0.34,0 -0.68,0.34c-0.34,0 -0.68,0 -1.01,0v0.67c0.71,0 1.69,0 3.08,0c1.39,0 2.4,-0.34 3.41,-0.34c0.68,0 1.69,0 2.37,0c0,0 0.34,0 1.01,0c0.68,0.34 1.35,0.34 2.03,0.34c1.35,0 2.03,0 2.7,0c0.68,0 1.01,0 1.35,0c0.34,-0.67 0.68,-1.34 1.01,-2.02c0,-1.04 0.34,-1.71 0.34,-3.06h-0.34c-0.34,1.01 -1.01,2.05 -1.42,2.39zM166.31,18.62c-0.68,0.67 -1.35,1.01 -2.37,1.34c-1.01,0.34 -2.4,0.34 -4.09,0.34c-0.68,0 -1.01,0 -1.69,0c-0.34,0 -0.68,0 -1.01,0c-0.34,-0.34 -0.34,-0.34 -0.68,-0.34c-0.34,0 -0.68,0 -0.68,0c-0.34,-1.68 -0.34,-3.7 -0.34,-6.76v-2.35c0.71,0 1.72,0 3.08,0c1.72,0 3.08,0 4.09,0c0.68,0.34 1.01,0.34 1.35,1.01c0.34,0.34 0.34,1.01 0.68,2.02h0.34c0,-1.38 0,-2.39 0,-3.06c0,-1.04 0,-2.05 0,-3.06h-0.34c-0.34,0.67 -0.34,1.01 -0.68,1.34c0,0.34 0,0.34 -0.34,0.67c0,0 -0.34,0 -1.01,0c-0.68,0.34 -2.4,0.34 -4.77,0.34c-1.35,0 -2.03,0 -2.37,0c0,0 0,-0.67 0,-1.68c0,-1.01 0,-2.02 0,-2.69c0,-1.34 0,-2.72 0.34,-4.4c1.69,-0.34 3.41,-0.34 5.1,-0.34c1.39,0 2.4,0 3.41,0.34c1.01,0 1.35,0.67 1.35,1.34c0,0 0,0.34 0,0.67c0,0.34 0,0.34 0,0.67c0,0 0,0 0.34,0c0,0 0.34,-0.34 0.34,-1.34c0.34,-0.67 0.34,-1.68 0.34,-2.69c-2.4,0 -4.09,0 -5.1,0h-10.55c0,0.34 0,0.34 0,0.67c0.68,0 1.01,0.34 1.35,0.34c0.34,0.34 0.34,0.67 0.68,1.01c0,0.71 0,1.71 0,3.39v5.11c0,0.34 0,1.31 0,2.69c0,1.38 0,2.39 0,3.39c0,1.34 0,2.02 -0.34,2.35c0,0.34 0,0.67 0,0.67c0,0.34 -0.34,0.34 -0.34,0.67c0,0 -0.34,0 -0.68,0.34c-0.34,0 -0.68,0 -1.01,0v0.67c0.68,0 1.32,0 2.7,0c1.39,0 2.74,-0.34 3.41,-0.34c1.01,0 2.03,0 2.7,0c-0.34,0 0,0 1.01,0c0.68,0.34 1.35,0.34 2.03,0.34c1.01,0 2.03,0 2.7,0c0.68,0 1.01,0 1.35,0c0.34,-0.67 0.68,-1.34 0.68,-2.02c0.34,-1.04 0.68,-1.71 0.68,-3.06h-0.34c-0.34,1.01 -1.01,2.05 -1.35,2.39zM21.8,3.03c0.34,0 0.68,0.34 1.01,1.01c0.34,0.34 1.01,1.01 1.69,2.02c1.05,0.67 2.06,2.05 3.41,4.07l1.35,1.68c0,0 0,0 -0.34,0.34c0,0 0,0.34 -0.34,0.34c0,0.34 -0.34,0.34 -0.34,0.67l-1.69,2.02c-1.01,1.38 -2.03,2.39 -2.7,3.06c-0.34,0.67 -1.01,1.34 -1.69,1.68c-0.68,0.34 -1.35,0.67 -2.03,0.67v0.67c0,0 0.34,0 1.01,0c0.34,0 1.01,-0.34 1.69,-0.34c0.34,0 0.68,0 0.68,0h1.01c1.01,0 1.69,0.34 2.37,0.34v-0.67c-0.68,0 -1.01,0 -1.35,-0.34c-0.34,0 -0.68,-0.34 -0.68,-0.67c0,-0.34 0,-0.67 0.34,-1.01c0,-0.34 0.34,-0.67 0.68,-1.34c2.06,-2.72 3.41,-4.07 4.09,-4.74l1.35,2.02c0.34,0.34 1.35,1.71 2.7,3.39c0,0.34 0.34,0.67 0.34,1.01c0.34,0.34 0.34,0.67 0.34,1.01c0,0 0,0.34 -0.34,0.34c-0.34,0 -0.68,0.34 -1.35,0.34v0.67c1.72,-0.34 2.74,-0.34 3.75,-0.34c0.34,0 1.01,0 2.03,0.34c0.34,0 0.68,0 1.01,0v-0.67c-0.34,0 -1.01,-0.34 -1.01,-0.34c-0.34,0 -0.68,-0.34 -1.01,-0.67c-0.34,-0.67 -1.01,-1.34 -1.69,-2.35l-5.1,-6.42l0.34,-0.34c0.34,-0.34 0.34,-0.67 0.68,-0.67l0.68,-1.34l1.35,-1.34c0.68,-1.01 1.35,-1.68 1.69,-2.35c0.34,-0.34 0.68,-0.67 1.01,-1.01c0.34,-0.34 0.68,-0.34 1.01,-0.67c0.34,0 0.68,0 1.01,0v-0.67h-2.7c-0.34,0 -1.01,0 -1.69,0c-1.01,0 -1.69,0 -1.69,0v0.34c0.68,0.34 1.01,0.34 1.35,0.34c0.34,0.34 0.68,0.34 0.68,1.01c0,0.34 -0.34,1.01 -1.01,1.68c-0.37,1.01 -1.72,2.39 -3.08,4.4l-2.7,-3.06c-0.34,-0.67 -0.68,-1.01 -1.01,-1.34c-0.34,-0.67 -0.68,-1.01 -0.68,-1.34c-0.34,-0.34 -0.68,-0.67 -0.68,-1.01c0,-0.34 0.68,-0.34 1.69,-0.34v-0.67c-0.71,0 -1.69,0 -3.08,0c-1.39,0 -2.74,0 -3.75,0v0.34c0.68,0 1.05,0.3 1.39,0.3zM57.74,16.91c0,0 0,0 -0.34,0c0,0 0,0 -0.34,0.34c-0.34,0.67 -0.68,1.01 -1.01,1.68c-0.34,0.34 -1.01,1.01 -1.69,1.34c-0.68,0.34 -1.35,0.34 -2.37,0.34c-0.68,0 -1.69,0 -2.37,-0.34c-1.01,-0.34 -1.69,-1.01 -2.7,-1.68c-1.01,-0.67 -1.69,-1.68 -2.03,-2.69c-0.68,-1.34 -1.01,-2.72 -1.01,-4.4c0,-1.68 0.34,-3.39 1.01,-4.74c0.68,-1.04 1.35,-2.05 2.7,-3.06c1.05,-0.67 2.4,-1.01 3.75,-1.01c1.05,0 2.06,0.34 3.08,0.67c1.01,0.67 1.69,1.01 2.03,1.34c0,0.34 0.34,0.67 0.34,1.34v0.34l0.34,0.34c0,-1.34 0.34,-2.02 0.68,-2.69v-1.01v0c-0.34,0 -0.34,0 -0.34,0h-0.34c-0.34,0 -0.68,0 -1.35,-0.34c-1.05,-0.34 -2.4,-0.67 -3.75,-0.67c-1.69,0 -3.38,0.3 -5.1,1.01c-1.72,0.71 -3.08,1.71 -4.09,3.39c-1.01,1.34 -1.35,3.06 -1.35,5.08c0,1.71 0.34,3.06 0.68,4.07c0.68,1.38 1.35,2.39 2.37,3.39c1.05,0.67 2.06,1.34 3.41,1.68c1.05,0.34 2.4,0.67 3.41,0.67c1.01,0 2.03,0 2.7,-0.34c1.05,0 2.06,-0.34 3.08,-0.67c0.34,-1.34 0.34,-2.02 0.68,-2.02c0,-0.67 0,-1.04 -0.07,-1.38zM62.91,3.06c0.34,0.34 0.34,0.34 0.68,1.01c0,0.34 0,0.67 0,1.34c0,1.04 0,2.05 0,3.39v6.45c0,1.34 0,2.02 0,2.69c0,0.67 -0.34,1.34 -0.34,1.68c0,0.34 -0.34,0.67 -0.68,0.67c0,0 -0.68,0.34 -1.01,0.34v0.34h10.21c0.34,0 0.68,0 0.68,0c0.34,0 0.68,0 1.01,0c0.34,0 1.01,0.34 2.03,0.34c0.34,-0.67 0.34,-1.34 0.68,-2.02c0,-1.01 0.34,-1.68 0.34,-2.02h-0.34c-0.34,1.01 -0.68,1.68 -1.35,2.02c-0.34,0 -1.35,0.34 -2.03,0.67c-1.05,0.34 -2.06,0.34 -3.41,0.34c-1.35,0 -2.37,0 -2.7,0c-0.34,-0.34 -0.68,-0.34 -0.68,-0.34c0,-0.34 -0.34,-0.67 -0.34,-1.01c0,-0.67 0,-1.34 0,-2.35c0,-1.38 0,-2.35 0,-3.73c0,-1.38 0,-2.69 0,-4.07c0,-1.38 0,-2.39 0,-3.39c0.34,-0.67 0.34,-1.34 0.34,-1.34c0,-0.34 0.34,-0.67 0.68,-0.67c0.34,-0.34 1.01,-0.34 1.69,-0.34v-0.67c-0.71,0 -1.72,0.34 -3.41,0.34c-0.34,0 -0.34,-0.34 -1.01,-0.34c-0.34,0 -1.01,0 -2.37,0v0.67c0.68,0 1.01,0 1.35,0zM79.94,3.33c0,0 0.34,0 0.34,0.34c0.34,1.01 0.34,2.72 0.34,5.41c0,0.71 0,1.71 0,3.39c0,1.68 0,2.35 0,2.69c0,1.71 0.34,2.72 1.01,3.73c0.68,0.67 1.69,1.34 2.7,2.02c1.05,0.34 2.4,0.34 3.41,0.34c1.01,0 1.69,0 2.7,0c1.05,-0.34 2.06,-0.67 3.08,-1.01c0.68,-0.34 1.35,-1.01 2.03,-2.02c0,-0.34 0.34,-1.01 0.34,-1.68c0.34,-0.67 0.34,-1.34 0.34,-2.35c0.34,-1.04 0.34,-2.05 0.34,-3.39c0,-1.34 0,-3.06 0,-5.08c0.34,-1.01 0.34,-1.34 0.34,-1.68c0,-0.34 0,-0.67 0.34,-0.67c0.34,0 0.68,-0.34 1.35,-0.34v-0.67c-0.68,0 -2.06,0 -4.09,0c-0.68,0 -1.01,0 -1.35,0.34v0.34c0.34,0 1.01,0 1.35,0c0,0.34 0.34,0.34 0.68,0.67c0,0.34 0.34,0.64 0.34,1.34c0,0.71 0,1.71 0,3.06c0,4.74 0,7.8 -0.68,9.14c-0.34,1.01 -0.68,1.34 -1.69,2.02c-0.68,0.34 -1.35,0.67 -2.37,1.01c-0.68,0 -1.35,0 -2.03,0c-1.05,0 -2.4,0 -3.41,-0.67c-1.35,-0.34 -2.03,-1.34 -2.37,-2.69c-0.34,-0.67 -0.34,-1.34 -0.34,-2.69c0,-1.04 0,-2.05 0,-3.39c0,-4.07 0,-6.42 0.34,-6.76c0,-0.34 0.34,-0.67 0.68,-0.67c0.34,-0.34 1.01,-0.34 1.69,-0.34v-0.67c-1.69,0.34 -3.41,0.34 -4.77,0.34c-1.01,0 -1.69,0 -2.03,-0.34l-0.34,0.67c1.01,0 1.35,0.34 1.72,0.27zM102.59,20.57c0,0 0.34,0 0.68,0c1.39,0.34 2.7,0.67 4.09,0.67c1.39,0 2.74,-0.34 3.75,-0.67c1.01,-0.34 1.69,-1.01 2.03,-1.68c0.68,-0.67 0.68,-1.68 0.68,-2.69c0,-1.01 -0.34,-1.68 -0.68,-2.69c-0.68,-0.67 -1.35,-1.01 -2.03,-1.68c-0.68,-0.34 -1.69,-0.67 -2.7,-1.01c-1.01,-0.67 -2.03,-1.01 -2.37,-1.01c-0.68,-0.34 -1.01,-1.01 -1.69,-1.34c-0.34,-0.67 -0.34,-1.34 -0.34,-2.02c0,-0.67 0,-1.34 0.68,-2.35c0.37,-0.67 1.72,-1.01 3.08,-1.01c0.68,0 1.35,0 2.03,0c1.01,0.34 1.35,0.67 2.03,1.34c0.68,0.34 1.01,1.34 1.01,2.35h0.34c0,-0.34 0,-1.01 0,-2.02v-0.34c0,0 0,-0.34 0,-0.67c0,-0.34 0,-0.34 0,-0.67c0,-0.34 0,-0.34 0,-0.67v0h-0.34c-0.34,0.34 -0.68,0.34 -0.68,0.34c-0.34,0 -0.34,0 -1.01,0c-0.68,-0.34 -1.69,-0.34 -2.7,-0.34c-2.06,0 -3.75,0.3 -4.77,1.34c-1.01,1.04 -1.69,2.39 -1.69,3.73c0,1.01 0.34,1.68 0.68,2.35c0.68,0.67 1.01,1.01 1.69,1.34c1.05,0.67 1.72,1.01 3.08,1.34c0.68,0.34 1.35,0.67 2.03,1.01c0.34,0 1.01,0.34 1.35,0.67c0.34,0.34 0.68,0.67 1.01,1.34c0,0.34 0.34,1.01 0.34,1.68c0,1.34 -0.68,2.35 -1.35,2.69c-1.01,0.34 -1.69,0.67 -2.37,0.67c-1.01,0 -2.03,-0.34 -2.7,-0.34c-1.01,-0.34 -1.69,-0.67 -2.37,-1.01c-0.34,-0.34 -0.68,-0.34 -0.68,-0.67c-0.34,-0.34 -0.34,-0.67 -0.68,-1.01c0,-0.34 -0.34,-0.67 -0.34,-1.34c0,0 -0.34,0 -0.68,0c0.68,2.05 1.01,3.39 1.01,4.74h0.34zM118.68,3.06c0.34,0.34 0.68,0.67 1.01,1.01c0,0.34 0,0.67 0,1.34c0,2.69 0.34,5.08 0.34,6.42c0,1.68 0,3.06 -0.34,4.74c0,1.34 0,2.35 -0.34,2.69c0,0.34 -0.34,0.67 -0.68,1.01c-0.34,0 -1.01,0.34 -2.03,0.34v0.67c0,0 0.34,0 0.68,0c0.34,0 0.68,-0.34 1.35,-0.34c0.34,0 0.68,0 1.01,0c0.34,0 0.68,0 1.01,0c0.34,0 0.68,0 1.01,0c0,0 0.34,0 1.01,0c0.34,0 0.68,0.34 1.01,0.34c0.34,0 0.68,0 1.01,0v-0.67c-1.01,0 -1.69,0 -2.03,-0.34c-0.34,0 -0.68,-0.34 -0.68,-0.67c0,0 0,-0.67 0,-1.34c0,-0.67 0,-1.68 0,-2.35c0,-0.67 -0.34,-2.39 -0.34,-5.08c0,-4.03 0.34,-6.42 0.68,-7.09c0,-0.34 0.34,-0.34 0.68,-0.67c0.34,0 1.01,0 1.69,0v-0.67c-0.68,0 -1.69,0 -2.37,0c-1.01,0 -1.35,0 -1.69,0c-0.34,0 -1.01,0 -2.03,0c0,0 -0.68,0 -2.03,0v0.67c1.01,0 1.69,0 2.03,0zM128.18,3.16c0.34,0 0.68,0.34 0.68,0.34c0.34,0.34 1.72,2.35 3.41,6.42l2.37,5.08c0.68,1.01 1.01,2.02 1.35,2.69l1.01,2.02c0,0.67 0.34,1.34 0.68,2.02l0.34,-0.34c0,-0.71 0.68,-1.71 1.01,-3.06c0.68,-1.38 1.35,-2.72 2.03,-4.07l3.08,-6.42c1.01,-1.38 1.35,-2.39 1.69,-3.06c0.34,-0.67 0.68,-1.01 1.01,-1.34c0.34,0 0.68,-0.34 1.35,-0.67v-0.34c-0.34,0 -0.68,0 -1.01,0c0,0 -0.34,0 -0.68,0c-1.05,0 -2.4,0 -3.41,0v0.67c1.01,0 1.35,0.34 1.35,1.01c0,0.34 0,0.67 -0.34,1.34c-0.34,0.67 -0.34,1.34 -0.68,2.02l-2.03,4.4c0,0 -0.34,0.34 -0.68,1.34c-0.34,0.67 -0.68,1.68 -1.35,2.69c-0.34,0.67 -0.68,1.68 -1.01,2.02c0,-0.34 -0.34,-0.67 -0.68,-1.01l-0.34,-1.01l-2.03,-4.4c-0.34,-0.34 -0.68,-1.34 -1.35,-2.69c-0.34,-1.38 -1.01,-2.39 -1.35,-3.39c-0.34,-1.01 -0.68,-1.68 -0.68,-2.02c0,0 0,-0.34 0.34,-0.34c0.34,0 0.68,0 1.69,0v-0.67h-1.69c-0.34,0 -0.68,0 -0.68,0c-0.34,0 -0.34,0 -0.68,0h-2.37h-1.01l-0.34,0.34c0.68,0 1.01,0.34 0.98,0.44z" />
</svg>