<?xml version="1.0" encoding="UTF-8"?>
<!DOCTYPE svg PUBLIC "-//W3C//DTD SVG 1.1//EN" "http://www.w3.org/Graphics/SVG/1.1/DTD/svg11.dtd">
<!-- Creator: CorelDRAW X7 -->
<svg xmlns="http://www.w3.org/2000/svg" xml:space="preserve" width="40px" height="31px" version="1.1" style="shape-rendering:geometricPrecision; text-rendering:geometricPrecision; image-rendering:optimizeQuality; fill-rule:evenodd; clip-rule:evenodd"
viewBox="0 0 40 31"
 xmlns:xlink="http://www.w3.org/1999/xlink">
 <defs>
  <style type="text/css">
   <![CDATA[
    .fil0 {fill:url(#id0);fill-rule:nonzero}
   ]]>
  </style>
  <linearGradient id="id0" gradientUnits="userSpaceOnUse" x1="19.8036" y1="29.8545" x2="19.8036" y2="0.923823">
   <stop offset="0" style="stop-opacity:1; stop-color:#7F663B"/>
   <stop offset="1" style="stop-opacity:1; stop-color:#FCED9D"/>
  </linearGradient>
 </defs>
 <g id="Layer_x0020_1">
  <metadata id="CorelCorpID_0Corel-Layer"/>
  <path class="fil0" d="M20 31l-20 -22 9 -9 1 0 20 0 10 9 -1 0 -19 22zm-15 -25l-2 3 0 0 0 0 8 9 2 3 -7 -13 0 0 0 0 1 -4 -2 2zm4 -4l2 -1 -1 0 -1 1zm4 -1l2 2 3 -2 -5 0zm8 0l4 2 0 0 2 -2 -6 0zm8 0l1 1 0 -1 -1 0zm3 3l1 5 0 0 0 0 -6 12 3 -3 7 -9 0 0 -2 -3 -3 -2zm-25 4l0 0c0,1 2,4 11,16l2 -15 0 0 2 15 11 -15 -8 -6 0 0 -5 6 -5 -6 0 0 -9 5c0,0 1,0 1,0l0 0 0 0z"/>
 </g>
</svg>
