<svg xmlns="http://www.w3.org/2000/svg" viewBox="0 0 300 300" width="300" height="300">
	<style>
		tspan { white-space:pre }
		.shp0 { fill: #000000 } 
	</style>
	<g id="Layer">
		<g id="Layer">
			<path id="Layer" class="shp0" d="M286.79,87.53l-0.01,158.55c0,2.21 -1.5,4.14 -3.65,4.69l-53.83,13.59l-41.51,10.48l-97.59,24.65c0,0 -0.73,0.24 -1.74,0.11c-1.01,-0.13 -1.75,-0.55 -1.75,-0.55c0,0 -0.01,0 -0.01,0l-71.36,-39.12c-1.55,-0.85 -2.51,-2.47 -2.51,-4.24v-180.62c0,-1.56 0.75,-3.03 2.03,-3.93l6.08,-4.35v-11.14c0,-1.47 0.67,-2.85 1.81,-3.77l63.25,-50.81c0,0 1.03,-0.85 2.35,-1.01c1.33,-0.17 2.35,0.25 2.35,0.25l85.52,31.64c1.9,0.7 3.16,2.51 3.16,4.53v12.28l8.76,2.88c1.98,0.65 3.32,2.51 3.32,4.59v23.38l34.87,-14.21c0.08,-0.04 0.83,-0.34 1.68,-0.36c0.9,-0.01 1.64,0.24 1.64,0.24l53.84,17.68c1.98,0.66 3.32,2.51 3.32,4.59zM41.44,267.82v-59.59c0,-0.78 -0.55,-1.44 -1.31,-1.59l-14.06,-2.64c-0.47,-0.08 -0.96,0.04 -1.33,0.35c-0.37,0.31 -0.59,0.76 -0.59,1.24v54.53c0,0.59 0.32,1.13 0.84,1.42l14.06,7.7c0.25,0.13 0.51,0.2 0.78,0.2c0.28,0 0.57,-0.08 0.82,-0.22c0.48,-0.29 0.78,-0.82 0.78,-1.39zM41.44,193.32v-29.8c0,-0.45 -0.18,-0.87 -0.52,-1.19c-0.33,-0.3 -0.78,-0.46 -1.22,-0.42l-14.06,1.17c-0.84,0.07 -1.48,0.76 -1.48,1.6v27.27c0,0.83 0.63,1.53 1.46,1.61l14.06,1.37c0.04,0.01 0.1,0.01 0.15,0.01c0.4,0 0.78,-0.15 1.08,-0.41c0.33,-0.31 0.52,-0.75 0.52,-1.2zM41.44,148.63v-29.8c0,-0.52 -0.25,-1.01 -0.68,-1.31c-0.43,-0.3 -0.98,-0.37 -1.47,-0.2l-14.06,4.96c-0.64,0.23 -1.08,0.83 -1.08,1.52v27.27c0,0.47 0.21,0.92 0.57,1.23c0.29,0.24 0.66,0.38 1.04,0.38c0.09,0 0.18,-0.01 0.27,-0.02l14.06,-2.43c0.77,-0.13 1.33,-0.8 1.33,-1.59zM41.44,103.93v-29.8c0,-0.58 -0.32,-1.12 -0.83,-1.4c-0.51,-0.29 -1.13,-0.27 -1.63,0.04l-14.06,8.76c-0.47,0.29 -0.76,0.81 -0.76,1.37v27.26c0,0.55 0.27,1.05 0.73,1.35c0.27,0.17 0.57,0.26 0.88,0.26c0.22,0 0.44,-0.04 0.65,-0.13l14.06,-6.22c0.58,-0.26 0.96,-0.84 0.96,-1.48zM79.18,288.51v-73.2c0,-0.77 -0.55,-1.43 -1.31,-1.58l-20.8,-3.9c-0.47,-0.09 -0.95,0.04 -1.32,0.34c-0.37,0.31 -0.59,0.76 -0.59,1.24v65.7c0,0.6 0.32,1.13 0.83,1.42l20.8,11.39c0.24,0.13 0.5,0.2 0.77,0.2c0.29,0 0.57,-0.08 0.82,-0.22c0.49,-0.29 0.79,-0.81 0.79,-1.38zM79.18,160.41c0,-0.45 -0.19,-0.87 -0.52,-1.18c-0.33,-0.31 -0.78,-0.47 -1.22,-0.42l-20.8,1.72c-0.84,0.07 -1.48,0.76 -1.48,1.6v32.85c0,0.83 0.64,1.52 1.46,1.6l20.8,2.03c0.05,0 0.1,0.01 0.15,0.01c0.4,0 0.79,-0.15 1.08,-0.41c0.34,-0.31 0.53,-0.75 0.53,-1.2zM79.18,142.11v-36.59c0,-0.52 -0.26,-1.01 -0.68,-1.32c-0.43,-0.3 -0.97,-0.37 -1.47,-0.2l-20.8,7.33c-0.64,0.23 -1.08,0.84 -1.08,1.52v32.85c0,0.47 0.21,0.92 0.57,1.23c0.29,0.25 0.66,0.38 1.04,0.38c0.09,0 0.18,-0.01 0.27,-0.03l20.8,-3.59c0.78,-0.13 1.34,-0.8 1.34,-1.59zM79.18,50.62c0,-0.59 -0.32,-1.12 -0.83,-1.41c-0.51,-0.29 -1.13,-0.27 -1.63,0.04l-20.8,12.96c-0.47,0.29 -0.76,0.81 -0.76,1.37v32.84c0,0.55 0.27,1.05 0.73,1.35c0.27,0.17 0.57,0.26 0.88,0.26c0.22,0 0.44,-0.04 0.65,-0.13l20.8,-9.21c0.58,-0.26 0.96,-0.83 0.96,-1.47zM134.64,248.66v-35c0,-0.46 -0.19,-0.89 -0.52,-1.19c-0.33,-0.3 -0.78,-0.46 -1.23,-0.41l-33.11,2.86c-0.83,0.07 -1.47,0.76 -1.47,1.6v37.76c0,0.48 0.21,0.92 0.57,1.23c0.29,0.25 0.66,0.38 1.04,0.38c0.09,0 0.18,-0.01 0.27,-0.03l33.11,-5.61c0.78,-0.13 1.35,-0.8 1.35,-1.59zM134.64,196.15v-35.02c0,-0.87 -0.68,-1.57 -1.55,-1.61l-33.11,-1.26c-0.44,-0.02 -0.87,0.14 -1.18,0.45c-0.32,0.3 -0.5,0.73 -0.5,1.16v37.76c0,0.45 0.18,0.86 0.5,1.17c0.31,0.29 0.7,0.45 1.12,0.45c0.02,0 0.04,0 0.07,-0.01l33.11,-1.49c0.87,-0.04 1.54,-0.75 1.54,-1.61zM134.64,143.64v-35.01c0,-0.79 -0.57,-1.46 -1.35,-1.59l-33.11,-5.39c-0.47,-0.07 -0.94,0.06 -1.3,0.37c-0.36,0.3 -0.57,0.75 -0.57,1.22v37.76c0,0.84 0.65,1.54 1.49,1.61l33.11,2.63c0.04,0 0.08,0 0.13,0c0.4,0 0.79,-0.15 1.09,-0.42c0.33,-0.31 0.52,-0.74 0.52,-1.19zM134.64,91.12h0.01v-35.01c0,-0.72 -0.48,-1.35 -1.17,-1.55l-33.11,-9.5c-0.48,-0.15 -1.01,-0.04 -1.42,0.26c-0.4,0.31 -0.64,0.78 -0.64,1.29v37.75c0,0.77 0.54,1.43 1.29,1.58l33.11,6.76c0.1,0.02 0.21,0.03 0.32,0.03c0.37,0 0.73,-0.13 1.02,-0.36c0.38,-0.31 0.59,-0.77 0.59,-1.25zM176.15,241.63v-31.56c0,-0.45 -0.19,-0.88 -0.52,-1.19c-0.32,-0.29 -0.77,-0.46 -1.22,-0.41l-26.7,2.31c-0.83,0.08 -1.47,0.77 -1.47,1.61v33.78c0,0.47 0.21,0.92 0.57,1.23c0.29,0.25 0.66,0.38 1.04,0.38c0.09,0 0.18,-0.01 0.27,-0.03l26.7,-4.52c0.77,-0.13 1.34,-0.8 1.34,-1.59zM176.15,194.29h0.01v-31.56c0,-0.87 -0.68,-1.57 -1.55,-1.61l-26.71,-1.01c-0.45,-0.01 -0.87,0.15 -1.18,0.45c-0.32,0.31 -0.5,0.73 -0.5,1.17v33.78c0,0.45 0.18,0.86 0.5,1.17c0.31,0.29 0.7,0.45 1.12,0.45c0.02,0 0.04,0 0.07,-0.01l26.7,-1.2c0.86,-0.04 1.54,-0.75 1.54,-1.61zM176.15,146.94h0.01v-31.56c0,-0.79 -0.58,-1.46 -1.35,-1.59l-26.7,-4.34c-0.47,-0.07 -0.94,0.06 -1.31,0.36c-0.36,0.31 -0.57,0.76 -0.57,1.23v33.78c0,0.84 0.65,1.54 1.49,1.61l26.71,2.12c0.04,0 0.08,0.01 0.13,0.01c0.4,0 0.79,-0.15 1.09,-0.43c0.33,-0.31 0.52,-0.74 0.52,-1.19zM176.15,99.6v-31.57c0,-0.71 -0.48,-1.34 -1.17,-1.54l-26.7,-7.66c-0.48,-0.15 -1.01,-0.04 -1.42,0.26c-0.41,0.31 -0.64,0.78 -0.64,1.28v33.78c0,0.77 0.54,1.43 1.29,1.58l26.7,5.44c0.11,0.03 0.22,0.03 0.33,0.03c0.37,0 0.73,-0.13 1.02,-0.36c0.38,-0.31 0.59,-0.77 0.59,-1.24zM229.74,259.67v-94.91c0,-0.87 -0.68,-1.57 -1.55,-1.61l-41.51,-1.58c-0.45,-0.02 -0.86,0.15 -1.18,0.45c-0.31,0.31 -0.49,0.73 -0.49,1.17v106.97c0,0.5 0.23,0.96 0.62,1.27c0.29,0.23 0.63,0.34 0.99,0.34c0.13,0 0.26,-0.02 0.4,-0.05l41.51,-10.48c0.71,-0.18 1.22,-0.83 1.22,-1.56zM255.22,228.24l-0.01,0v-25.02c0,-0.45 -0.19,-0.87 -0.52,-1.18c-0.33,-0.31 -0.78,-0.47 -1.22,-0.42l-16.52,1.43c-0.83,0.07 -1.47,0.77 -1.47,1.61v26.37c0,0.47 0.21,0.92 0.57,1.23c0.29,0.25 0.66,0.38 1.04,0.38c0.09,0 0.18,-0.01 0.27,-0.03l16.52,-2.79c0.78,-0.13 1.34,-0.8 1.34,-1.59zM255.23,190.73v-25c0,-0.87 -0.68,-1.58 -1.55,-1.61l-16.52,-0.62c-0.44,-0.02 -0.87,0.14 -1.18,0.45c-0.32,0.3 -0.5,0.73 -0.5,1.16v26.38c0,0.44 0.18,0.86 0.5,1.16c0.3,0.29 0.7,0.45 1.12,0.45c0.02,0 0.04,0 0.07,0l16.51,-0.74c0.86,-0.04 1.54,-0.75 1.54,-1.61zM255.22,128.23c0,-0.78 -0.57,-1.46 -1.35,-1.59l-16.51,-2.68c-0.47,-0.07 -0.94,0.06 -1.31,0.36c-0.36,0.3 -0.57,0.76 -0.57,1.22v26.37c0,0.84 0.64,1.54 1.49,1.61l16.51,1.31c0.04,0 0.08,0.01 0.13,0.01c0.4,0 0.79,-0.15 1.09,-0.43c0.33,-0.3 0.52,-0.73 0.52,-1.18zM255.22,115.72h0.01v-25c0,-0.71 -0.48,-1.35 -1.17,-1.55l-16.52,-4.74c-0.48,-0.13 -1.01,-0.04 -1.42,0.26c-0.41,0.31 -0.64,0.78 -0.64,1.29v26.37c0,0.77 0.54,1.43 1.29,1.58l16.52,3.37c0.1,0.02 0.21,0.03 0.32,0.03c0.37,0 0.73,-0.13 1.02,-0.36c0.38,-0.31 0.59,-0.77 0.59,-1.25zM277,224.55l-0.01,0v-23.19c0,-0.46 -0.19,-0.89 -0.52,-1.19c-0.33,-0.3 -0.78,-0.46 -1.22,-0.41l-14.16,1.22c-0.83,0.07 -1.47,0.76 -1.47,1.6v24.37c0,0.47 0.2,0.92 0.57,1.23c0.29,0.25 0.66,0.38 1.04,0.38c0.1,0 0.18,-0.01 0.27,-0.03l14.16,-2.4c0.78,-0.13 1.34,-0.8 1.34,-1.59zM277.01,189.75v-23.19c0,-0.87 -0.68,-1.57 -1.55,-1.61l-14.16,-0.54c-0.44,-0.02 -0.87,0.14 -1.18,0.45c-0.32,0.31 -0.5,0.73 -0.5,1.17v24.37c0,0.45 0.18,0.86 0.5,1.17c0.3,0.29 0.69,0.45 1.11,0.45c0.02,0 0.05,0 0.08,0l14.16,-0.64c0.85,-0.04 1.54,-0.75 1.54,-1.61zM277,154.96v-23.2c0,-0.79 -0.57,-1.46 -1.35,-1.59l-14.16,-2.3c-0.47,-0.07 -0.94,0.06 -1.3,0.37c-0.36,0.31 -0.57,0.75 -0.57,1.22v24.37c0,0.84 0.64,1.54 1.48,1.61l14.16,1.12c0.04,0.01 0.09,0.01 0.13,0.01c0.41,0 0.8,-0.15 1.1,-0.43c0.33,-0.3 0.52,-0.73 0.52,-1.18zM277,120.16h0.01v-23.19c0,-0.72 -0.48,-1.35 -1.17,-1.55l-14.16,-4.07c-0.48,-0.13 -1.01,-0.04 -1.42,0.26c-0.41,0.31 -0.64,0.78 -0.64,1.29v24.37c0,0.77 0.54,1.43 1.29,1.58l14.16,2.89c0.1,0.02 0.21,0.03 0.32,0.03c0.37,0 0.73,-0.13 1.02,-0.36c0.38,-0.3 0.59,-0.77 0.59,-1.25z" />
			<path id="Layer" class="shp0" d="M223.06,169.59l-29.91,-1.58c-0.45,-0.03 -0.87,0.13 -1.2,0.44c-0.32,0.31 -0.5,0.73 -0.5,1.17v83.31c0,0.75 0.52,1.41 1.26,1.57l29.91,6.74c0.11,0.03 0.23,0.04 0.35,0.04c0.36,0 0.72,-0.12 1.01,-0.35c0.38,-0.31 0.61,-0.77 0.61,-1.26v-88.48c0.01,-0.85 -0.66,-1.56 -1.52,-1.6z" />
		</g>
	</g>
	<g id="Layer">
	</g>
	<g id="Layer">
	</g>
	<g id="Layer">
	</g>
	<g id="Layer">
	</g>
	<g id="Layer">
	</g>
	<g id="Layer">
	</g>
	<g id="Layer">
	</g>
	<g id="Layer">
	</g>
	<g id="Layer">
	</g>
	<g id="Layer">
	</g>
	<g id="Layer">
	</g>
	<g id="Layer">
	</g>
	<g id="Layer">
	</g>
	<g id="Layer">
	</g>
	<g id="Layer">
	</g>
</svg>