<svg xmlns="http://www.w3.org/2000/svg" fill-rule="evenodd" width="322" height="100" viewBox="0 0 322 100">
  <circle id="Mask" cx="44" cy="50" r="44" fill="#1a1a1a"/>
  <clipPath id="board">
    <circle cx="44" cy="50" r="44"/>
  </clipPath>
  <g clip-path="url(#board)">
    <path fill="#c63939" d="M44 10c22.077 0 40 17.923 40 40S66.077 90 44 90 4 72.077 4 50s17.923-40 40-40zm0 4c19.869 0 36 16.131 36 36S63.869 86 44 86 8 69.869 8 50s16.131-36 36-36z"/>
    <path fill="#c63939" d="M44 28c-12.142 0-22 9.858-22 22s9.858 22 22 22 22-9.858 22-22-9.858-22-22-22zm0 4c9.934 0 18 8.066 18 18s-8.066 18-18 18-18-8.066-18-18 8.066-18 18-18z"/>
    <path fill="#fff" d="M44 50L25.84 85.64a39.973 39.973 0 0011.903 3.868L44 50l6.257 39.508A39.973 39.973 0 0062.16 85.64L44 50l28.284 28.284A39.896 39.896 0 0079.64 68.16L44 50l39.508 6.257a40.09 40.09 0 000-12.514L44 50zm0 0L8.36 68.16a40.013 40.013 0 007.356 10.124L44 50 4.492 43.743a40.09 40.09 0 000 12.514L44 50zM15.716 21.716A39.896 39.896 0 008.36 31.84L44 50 15.716 21.716zM44 50l35.64-18.16a40.013 40.013 0 00-7.356-10.124L44 50l18.16-35.64a39.973 39.973 0 00-11.903-3.868L44 50l-6.257-39.508A39.973 39.973 0 0025.84 14.36L44 50z"/>
    <circle cx="44" cy="50" r="3" fill="#c63939"/>
  </g>
  <path fill="#e19c00" fill-rule="nonzero" d="M53.143 41.4l-.518-.523c-.102-.098-.172-.212-.263-.315a4.92 4.92 0 01-1.151-2.756l-.154.155a3.236 3.236 0 00-.223 4.326L44 50l7.734-6.816c1.278 1.023 3.145.962 4.335-.222l.151-.154a4.942 4.942 0 01-2.757-1.145c-.104-.093-.221-.165-.32-.263zm3.155-3.15l-.521-.516c-.164-.165-.302-.353-.437-.536a4.855 4.855 0 01-.971-2.534l-1.359 1.351a3.393 3.393 0 00.388 3.377c.101.134.2.271.323.397l.52.518c.12.124.258.219.393.32a3.425 3.425 0 003.379.394l1.362-1.361a4.905 4.905 0 01-2.541-.969c-.185-.14-.37-.276-.536-.441zm3.155-3.145l-.518-.516a4.92 4.92 0 01-.617-.753 4.926 4.926 0 01-.797-2.322l-1.361 1.358a3.4 3.4 0 00.229 3.14c.138.222.291.433.484.627l.521.518c.192.188.406.345.63.484.536.33 1.145.516 1.788.516h.003a3.41 3.41 0 001.346-.278l1.371-1.367a4.958 4.958 0 01-2.324-.794 5.116 5.116 0 01-.755-.613zm2.634-3.666a4.919 4.919 0 01-1.411-3.07l-1.359 1.353a3.404 3.404 0 00.331 3.302c.109.163.237.325.383.47l.518.513c.14.144.297.26.455.373a3.432 3.432 0 003.32.343l1.358-1.356a4.922 4.922 0 01-3.074-1.41l-.521-.518zM90.14 6.119c.458-.614.432-1.472-.125-2.029a1.56 1.56 0 00-2.124-.067c-.289-2.145-1.237-5.006-4.345-3.689-4.754 2.011-6.144 13.874-6.144 13.874l-8.809 8.791.01.013-5.05 2.866a3.296 3.296 0 00-1.088.709 3.404 3.404 0 00.718 3.756l.521.521a3.44 3.44 0 003.764.722c.336-.34.578-.74.734-1.163l2.715-5.101.008.007 8.614-8.592c.019-.018.047-.023.063-.041l.143-.142h.008s11.897-1.384 13.914-6.125c1.281-3.016-1.4-3.996-3.527-4.31zm-10.549 9.175a.57.57 0 01-.804.005c-.003-.003-.005-.003-.005-.005-.05-.047-.042-.111-.073-.165-.102-.212-.107-.467.073-.645l9.221-9.198.458-.459a.584.584 0 01.815 0 .578.578 0 010 .81l-.357.358-9.328 9.299z"/>
  <path fill="#fff" d="M143.087 54.63c-2.543 0-4.789-.491-6.738-1.473-1.948-.982-3.461-2.375-4.54-4.178-1.079-1.803-1.618-3.88-1.618-6.231V21.013a.56.56 0 01.169-.411.56.56 0 01.411-.169h6.858a.56.56 0 01.411.169.56.56 0 01.169.411v21.735c0 1.514.443 2.729 1.328 3.647.886.918 2.069 1.377 3.55 1.377 1.45 0 2.617-.459 3.502-1.377.886-.918 1.329-2.133 1.329-3.647V21.013a.56.56 0 01.169-.411.555.555 0 01.41-.169h6.859a.56.56 0 01.411.169c.112.113.169.25.169.411v21.735c0 2.351-.532 4.428-1.594 6.231-1.063 1.803-2.568 3.196-4.516 4.178-1.949.982-4.195 1.473-6.739 1.473zm82.837 0c-2.673 0-4.999-.426-6.979-1.28-1.981-.853-3.51-2.077-4.589-3.671-1.079-1.593-1.618-3.437-1.618-5.53v-.918c0-.161.056-.298.169-.41a.557.557 0 01.41-.169h6.714a.56.56 0 01.411.169.555.555 0 01.169.41v.58c0 1.063.531 1.988 1.594 2.777 1.063.789 2.495 1.184 4.299 1.184 1.417 0 2.463-.306 3.139-.918.677-.612 1.015-1.32 1.015-2.125 0-.644-.202-1.168-.604-1.57-.403-.403-.942-.741-1.618-1.015-.676-.273-1.723-.652-3.14-1.135a2.843 2.843 0 00-.579-.217 4.114 4.114 0 01-.532-.169c-2.093-.676-3.912-1.409-5.458-2.198a11.765 11.765 0 01-3.96-3.284c-1.095-1.401-1.643-3.132-1.643-5.193 0-1.996.524-3.743 1.57-5.24 1.047-1.498 2.504-2.649 4.371-3.454 1.868-.805 3.977-1.207 6.328-1.207 2.479 0 4.709.45 6.69 1.352 1.98.902 3.534 2.174 4.661 3.816 1.127 1.642 1.69 3.526 1.69 5.651v.676a.56.56 0 01-.169.411.558.558 0 01-.411.169h-6.713a.56.56 0 01-.411-.169.56.56 0 01-.169-.411v-.338c0-1.127-.499-2.125-1.497-2.994-.999-.87-2.335-1.305-4.009-1.305-1.256 0-2.238.258-2.947.773-.708.515-1.062 1.24-1.062 2.174 0 .708.225 1.296.676 1.763.451.467 1.151.901 2.101 1.304.95.402 2.407.926 4.371 1.57 2.254.773 4.009 1.449 5.265 2.028 1.256.58 2.439 1.522 3.55 2.826 1.111 1.304 1.667 3.019 1.667 5.144 0 2.093-.532 3.896-1.594 5.41-1.063 1.513-2.552 2.681-4.468 3.502-1.916.821-4.146 1.231-6.69 1.231zM122.818 36.662c-.194.097-.194.193 0 .29 2.93 1.546 4.395 4.122 4.395 7.728 0 3.22-1.111 5.619-3.333 7.197-2.222 1.578-5.136 2.367-8.742 2.367H102.29a.56.56 0 01-.411-.169.56.56 0 01-.169-.411V21.013a.56.56 0 01.169-.411.56.56 0 01.411-.169h12.461c3.929 0 6.899.741 8.912 2.222 2.012 1.481 3.019 3.88 3.019 7.197 0 3.156-1.288 5.426-3.864 6.81zm143.051-9.95a.56.56 0 01-.169.411.557.557 0 01-.41.169h-15.167c-.161 0-.241.08-.241.241v5.941c0 .161.08.242.241.242h9.709c.161 0 .297.056.41.169a.56.56 0 01.169.411v5.651a.555.555 0 01-.169.41.557.557 0 01-.41.169h-9.709c-.161 0-.241.081-.241.242v6.376c0 .161.08.241.241.241h15.167a.56.56 0 01.41.169.56.56 0 01.169.411v5.699a.56.56 0 01-.169.411.557.557 0 01-.41.169h-22.847a.555.555 0 01-.41-.169.56.56 0 01-.169-.411V21.013a.56.56 0 01.169-.411.555.555 0 01.41-.169h22.847c.161 0 .297.056.41.169a.56.56 0 01.169.411v5.699zm56.126 0a.56.56 0 01-.169.411.56.56 0 01-.411.169h-15.166c-.161 0-.242.08-.242.241v5.941c0 .161.081.242.242.242h9.708a.56.56 0 01.411.169.56.56 0 01.169.411v5.651a.555.555 0 01-.169.41.56.56 0 01-.411.169h-9.708c-.161 0-.242.081-.242.242v6.376c0 .161.081.241.242.241h15.166c.161 0 .298.057.411.169a.56.56 0 01.169.411v5.699a.56.56 0 01-.169.411.56.56 0 01-.411.169h-22.846a.56.56 0 01-.411-.169.563.563 0 01-.169-.411V21.013c0-.161.057-.298.169-.411a.56.56 0 01.411-.169h22.846a.56.56 0 01.411.169.56.56 0 01.169.411v5.699zM160.331 54.244a.56.56 0 01-.411-.169.563.563 0 01-.169-.411V21.013c0-.161.057-.298.169-.411a.56.56 0 01.411-.169h6.859c.161 0 .298.056.41.169a.56.56 0 01.169.411v26.131c0 .161.081.241.242.241h15.408c.161 0 .298.057.411.169.112.113.169.25.169.411v5.699a.563.563 0 01-.169.411.56.56 0 01-.411.169h-23.088zm26.952 0a.555.555 0 01-.41-.169.56.56 0 01-.17-.411V21.013a.56.56 0 01.17-.411.555.555 0 01.41-.169h6.859c.161 0 .298.056.41.169a.56.56 0 01.17.411v26.131c0 .161.08.241.241.241h15.408c.161 0 .298.057.411.169.112.113.169.25.169.411v5.699a.563.563 0 01-.169.411.56.56 0 01-.411.169h-23.088zm91.241-.097a.555.555 0 01-.41-.169.555.555 0 01-.169-.41V42.12a.671.671 0 00-.049-.289l-9.902-20.722c-.064-.129-.096-.225-.096-.29 0-.257.177-.386.531-.386h7.439c.322 0 .547.145.676.435l5.265 12.22c.096.193.193.193.289 0l5.314-12.22c.128-.29.354-.435.676-.435h7.486c.226 0 .379.056.459.169.081.113.073.282-.024.507l-10.046 20.722a.657.657 0 00-.049.289v11.448a.555.555 0 01-.169.41.557.557 0 01-.41.169h-6.811zm-163.386-6.81c1.288 0 2.286-.298 2.994-.894.709-.595 1.063-1.457 1.063-2.584 0-1.095-.346-1.94-1.038-2.536-.693-.595-1.699-.893-3.019-.893h-5.168c-.161 0-.242.08-.242.241v6.424c0 .161.081.242.242.242h5.168zm-5.168-20.045c-.161 0-.242.08-.242.241v6.086c0 .161.081.242.242.242h4.781c1.321 0 2.335-.282 3.043-.845.709-.564 1.063-1.361 1.063-2.391 0-1.063-.354-1.884-1.063-2.464-.708-.579-1.722-.869-3.043-.869h-4.781z"/>
  <path fill="#c63939" fill-rule="nonzero" d="M315.991 79.953c-1.251 0-2.346-.199-3.284-.598-.938-.398-1.661-.969-2.17-1.712-.508-.743-.762-1.607-.762-2.592v-.516c0-.078.028-.144.082-.199a.27.27 0 01.2-.082h2.673a.27.27 0 01.2.082.27.27 0 01.082.199v.352c0 .626.289 1.153.868 1.583.578.43 1.36.645 2.345.645.829 0 1.447-.176 1.853-.527.407-.352.61-.786.61-1.302 0-.375-.125-.692-.375-.95-.251-.258-.591-.485-1.021-.68-.43-.196-1.114-.465-2.052-.809-1.048-.36-1.935-.727-2.662-1.103a5.336 5.336 0 01-1.829-1.536c-.493-.649-.739-1.45-.739-2.404 0-.938.242-1.759.727-2.463.485-.703 1.157-1.243 2.017-1.618.86-.375 1.853-.563 2.979-.563 1.188 0 2.247.211 3.178.633.93.422 1.657 1.013 2.181 1.771s.786 1.638.786 2.639v.351a.275.275 0 01-.082.2.272.272 0 01-.2.082h-2.697a.269.269 0 01-.199-.082.27.27 0 01-.082-.2v-.187c0-.657-.27-1.216-.81-1.677-.539-.461-1.278-.692-2.216-.692-.735 0-1.31.156-1.724.469-.414.313-.622.743-.622 1.29 0 .391.122.719.364.985s.602.504 1.079.715c.477.212 1.216.497 2.216.857 1.111.406 1.982.766 2.616 1.078.633.313 1.204.778 1.712 1.396.508.618.762 1.419.762 2.404 0 1.47-.539 2.631-1.618 3.483-1.079.852-2.541 1.278-4.386 1.278zm-154.237 0c-1.204 0-2.264-.234-3.178-.703a5.177 5.177 0 01-2.135-1.982c-.508-.852-.762-1.834-.762-2.944V63.629c0-.078.027-.145.082-.199a.27.27 0 01.199-.082h2.745a.27.27 0 01.199.082.269.269 0 01.082.199v10.719c0 .828.254 1.497.762 2.005.508.508 1.177.762 2.006.762.828 0 1.497-.254 2.005-.762.508-.508.762-1.177.762-2.005V63.629c0-.078.028-.145.082-.199a.272.272 0 01.2-.082h2.744c.078 0 .145.027.199.082a.269.269 0 01.082.199v10.695c0 1.11-.254 2.092-.762 2.944a5.18 5.18 0 01-2.134 1.982c-.915.469-1.974.703-3.178.703zm14.072 0c-1.251 0-2.345-.199-3.283-.598-.938-.398-1.662-.969-2.17-1.712s-.762-1.607-.762-2.592v-.516a.27.27 0 01.082-.199.27.27 0 01.199-.082h2.674c.078 0 .145.027.2.082a.274.274 0 01.082.199v.352c0 .626.289 1.153.867 1.583.579.43 1.361.645 2.346.645.829 0 1.446-.176 1.853-.527.406-.352.61-.786.61-1.302a1.31 1.31 0 00-.376-.95c-.25-.258-.59-.485-1.02-.68-.43-.196-1.114-.465-2.052-.809-1.048-.36-1.935-.727-2.662-1.103a5.348 5.348 0 01-1.83-1.536c-.492-.649-.739-1.45-.739-2.404 0-.938.243-1.759.728-2.463.484-.703 1.157-1.243 2.017-1.618.86-.375 1.853-.563 2.978-.563 1.189 0 2.248.211 3.178.633.931.422 1.658 1.013 2.182 1.771s.785 1.638.785 2.639v.351a.27.27 0 01-.082.2.269.269 0 01-.199.082h-2.697a.272.272 0 01-.2-.082.275.275 0 01-.082-.2v-.187c0-.657-.269-1.216-.809-1.677-.539-.461-1.278-.692-2.216-.692-.735 0-1.31.156-1.724.469-.415.313-.622.743-.622 1.29 0 .391.121.719.364.985.242.266.602.504 1.079.715.477.212 1.215.497 2.216.857 1.11.406 1.982.766 2.615 1.078.634.313 1.204.778 1.712 1.396.509.618.763 1.419.763 2.404 0 1.47-.54 2.631-1.619 3.483-1.079.852-2.541 1.278-4.386 1.278zm-41.233 0c-1.219 0-2.29-.238-3.213-.715s-1.634-1.145-2.134-2.005c-.501-.86-.751-1.853-.751-2.979v-5.418c0-1.126.25-2.119.751-2.979.5-.86 1.211-1.524 2.134-1.993.923-.47 1.994-.704 3.213-.704 1.204 0 2.264.223 3.178.668.915.446 1.627 1.079 2.135 1.9.508.821.762 1.771.762 2.85 0 .141-.094.227-.281.258l-2.745.164h-.047c-.156 0-.234-.086-.234-.258 0-.829-.254-1.493-.762-1.994-.509-.5-1.177-.75-2.006-.75-.844 0-1.52.25-2.029.75-.508.501-.762 1.165-.762 1.994v5.653c0 .813.254 1.469.762 1.97.509.5 1.185.75 2.029.75.829 0 1.497-.25 2.006-.75.508-.501.762-1.157.762-1.97 0-.172.094-.258.281-.258l2.745.117c.078 0 .144.023.199.07a.21.21 0 01.082.164c0 1.079-.254 2.033-.762 2.862-.508.829-1.22 1.47-2.135 1.923-.914.454-1.974.68-3.178.68zm117.977-.187c-.172 0-.282-.078-.329-.235l-4.151-15.879-.024-.093c0-.141.086-.211.258-.211h2.909c.156 0 .258.078.305.234l2.228 9.546c.015.063.039.094.07.094.031 0 .055-.031.07-.094l2.158-9.522c.047-.172.149-.258.305-.258h2.838c.172 0 .282.078.329.234l2.345 9.546c.016.047.039.074.07.082.032.008.055-.019.071-.082l2.158-9.522c.046-.172.148-.258.304-.258h2.768c.219 0 .305.101.258.304l-3.846 15.879c-.047.157-.157.235-.329.235h-2.791c-.156 0-.258-.078-.305-.235l-2.392-10.156c-.016-.062-.039-.093-.071-.093-.031 0-.054.031-.07.093l-2.228 10.133c-.031.172-.133.258-.305.258h-2.603zm24.65 0c-.156 0-.258-.078-.305-.235l-.703-2.298c-.032-.063-.071-.094-.118-.094h-5.769c-.047 0-.086.031-.118.094l-.68 2.298c-.047.157-.148.235-.305.235h-2.978c-.094 0-.165-.028-.212-.082-.046-.055-.054-.137-.023-.247l5.066-15.855c.047-.156.149-.234.305-.234h3.682c.157 0 .258.078.305.234l5.067 15.855a.276.276 0 01.023.118c0 .14-.086.211-.258.211h-2.979zm-83.24 0c-.156 0-.258-.078-.305-.235l-4.831-15.855-.024-.094c0-.156.086-.234.258-.234h2.955c.172 0 .282.078.329.234l3.119 11.446c.016.047.039.07.071.07.031 0 .054-.023.07-.07l3.073-11.446c.046-.156.156-.234.328-.234h2.885c.094 0 .164.031.211.093.047.063.055.141.023.235l-4.902 15.855c-.047.157-.148.235-.305.235h-2.955zm-79.393 0c-.11 0-.188-.032-.235-.094-.047-.063-.039-.141.023-.235l4.551-7.81a.119.119 0 000-.141l-4.551-7.81-.046-.141c0-.125.086-.187.258-.187h2.978c.157 0 .274.062.352.187l3.049 5.371c.047.094.094.094.141 0l3.049-5.371a.387.387 0 01.352-.187h2.955c.11 0 .188.031.235.093.047.063.039.141-.024.235l-4.55 7.81a.213.213 0 000 .141l4.55 7.81.047.141c0 .125-.086.188-.258.188h-2.955a.387.387 0 01-.352-.188l-3.049-5.348c-.047-.093-.094-.093-.141 0l-3.072 5.348a.39.39 0 01-.352.188h-2.955zm115.818 0a.332.332 0 01-.328-.211l-2.932-6.497c-.031-.063-.078-.094-.141-.094h-2.181c-.078 0-.117.039-.117.117v6.403a.273.273 0 01-.083.2.272.272 0 01-.199.082h-2.744a.272.272 0 01-.199-.082.273.273 0 01-.083-.2V63.629a.27.27 0 01.083-.199.269.269 0 01.199-.082h6.708c1.001 0 1.88.203 2.639.609a4.282 4.282 0 011.759 1.736c.414.751.621 1.618.621 2.603 0 1.064-.266 1.975-.797 2.733-.532.758-1.275 1.294-2.228 1.607-.079.031-.102.086-.071.164l3.19 6.637a.37.37 0 01.047.141c0 .125-.086.188-.258.188h-2.885zM113.109 65.904a.269.269 0 01-.082.199.272.272 0 01-.2.083h-7.693c-.078 0-.117.039-.117.117v3.635c0 .078.039.118.117.118h5.043c.078 0 .145.027.199.082a.27.27 0 01.083.199v2.275a.27.27 0 01-.083.199.27.27 0 01-.199.083h-5.043c-.078 0-.117.039-.117.117v3.799c0 .079.039.118.117.118h7.693a.27.27 0 01.2.082.27.27 0 01.082.199v2.275a.272.272 0 01-.082.2.275.275 0 01-.2.082h-10.836a.274.274 0 01-.199-.082.272.272 0 01-.082-.2V63.629c0-.078.027-.145.082-.199a.27.27 0 01.199-.082h10.836a.27.27 0 01.2.082.269.269 0 01.082.199v2.275zm70.973 13.862a.274.274 0 01-.199-.082.272.272 0 01-.082-.2V63.629c0-.078.027-.145.082-.199a.27.27 0 01.199-.082h2.745a.27.27 0 01.199.082.269.269 0 01.082.199v15.855a.272.272 0 01-.082.2.274.274 0 01-.199.082h-2.745zm-41.069 0a.274.274 0 01-.199-.082.272.272 0 01-.082-.2V63.629c0-.078.027-.145.082-.199a.27.27 0 01.199-.082h2.745a.27.27 0 01.199.082.269.269 0 01.082.199V76.81c0 .079.039.118.117.118h7.67c.078 0 .145.027.199.082a.27.27 0 01.082.199v2.275a.272.272 0 01-.082.2.272.272 0 01-.199.082h-10.813zm72.1-13.862a.272.272 0 01-.082.199.273.273 0 01-.2.083h-7.693c-.078 0-.117.039-.117.117v3.635c0 .078.039.118.117.118h5.043c.078 0 .145.027.199.082a.269.269 0 01.082.199v2.275a.269.269 0 01-.082.199.27.27 0 01-.199.083h-5.043c-.078 0-.117.039-.117.117v3.799c0 .079.039.118.117.118h7.693c.078 0 .145.027.2.082a.274.274 0 01.082.199v2.275a.276.276 0 01-.082.2.276.276 0 01-.2.082h-10.836a.274.274 0 01-.199-.082.272.272 0 01-.082-.2V63.629c0-.078.027-.145.082-.199a.27.27 0 01.199-.082h10.836c.078 0 .145.027.2.082a.272.272 0 01.082.199v2.275zm31.734 0a.272.272 0 01-.082.199.273.273 0 01-.2.083h-7.693c-.078 0-.117.039-.117.117v3.635c0 .078.039.118.117.118h5.043a.27.27 0 01.199.082.269.269 0 01.082.199v2.275a.269.269 0 01-.082.199.271.271 0 01-.199.083h-5.043c-.078 0-.117.039-.117.117v3.799c0 .079.039.118.117.118h7.693c.078 0 .145.027.2.082a.274.274 0 01.082.199v2.275a.276.276 0 01-.082.2.276.276 0 01-.2.082h-10.836a.274.274 0 01-.199-.082.272.272 0 01-.082-.2V63.629c0-.078.027-.145.082-.199a.27.27 0 01.199-.082h10.836c.078 0 .145.027.2.082a.272.272 0 01.082.199v2.275zM296.5 79.766a.272.272 0 01-.199-.082.273.273 0 01-.083-.2V63.629a.27.27 0 01.083-.199.269.269 0 01.199-.082h5.864c1.172 0 2.2.207 3.084.621.883.414 1.567.997 2.052 1.747.485.751.727 1.619.727 2.604v6.473c0 .985-.242 1.853-.727 2.604-.485.75-1.169 1.333-2.052 1.747-.884.415-1.912.622-3.084.622H296.5zm-5.324 0a.334.334 0 01-.329-.211l-2.931-6.497c-.032-.063-.079-.094-.141-.094h-2.181c-.079 0-.118.039-.118.117v6.403a.272.272 0 01-.082.2.274.274 0 01-.199.082h-2.744a.275.275 0 01-.2-.082.276.276 0 01-.082-.2V63.629c0-.078.028-.145.082-.199a.27.27 0 01.2-.082h6.708c1 0 1.88.203 2.638.609a4.27 4.27 0 011.759 1.736c.415.751.622 1.618.622 2.603 0 1.064-.266 1.975-.798 2.733-.531.758-1.274 1.294-2.228 1.607-.078.031-.101.086-.07.164l3.19 6.637a.37.37 0 01.047.141c0 .125-.086.188-.258.188h-2.885zm8.35-2.956c0 .079.039.118.117.118h2.838c.719 0 1.302-.243 1.747-.727.446-.485.676-1.134.692-1.947v-5.395c0-.813-.223-1.462-.668-1.946-.446-.485-1.044-.727-1.795-.727h-2.814c-.078 0-.117.039-.117.117V76.81zm-28.474-2.368c-.016.093.015.14.094.14h4.128c.093 0 .125-.047.093-.14l-2.111-6.966c-.015-.063-.039-.09-.07-.083-.031.008-.055.036-.07.083l-2.064 6.966zm14.542-8.256c-.079 0-.118.039-.118.117v4.011c0 .078.039.117.118.117h3.072c.657 0 1.192-.196 1.607-.587.414-.39.621-.899.621-1.524 0-.626-.207-1.138-.621-1.536-.415-.399-.95-.598-1.607-.598h-3.072zm-60.771 0c-.078 0-.117.039-.117.117v4.011c0 .078.039.117.117.117h3.072c.657 0 1.193-.196 1.607-.587.414-.39.622-.899.622-1.524 0-.626-.208-1.138-.622-1.536-.414-.399-.95-.598-1.607-.598h-3.072z"/>
</svg>
