<svg xmlns="http://www.w3.org/2000/svg" fill="none" width="208" height="60" viewBox="0 0 208 60">
  <path fill="#000" fill-rule="evenodd" d="M143.66 43.97a15.65 15.65 0 01-11.9 5.02c-4.77 0-8.78-1.7-11.9-5.02-2.97-3.18-4.68-8.25-4.68-13.92 0-5.54 1.73-10.54 4.74-13.74a15.74 15.74 0 0111.84-5.04c4.72.01 8.7 1.7 11.85 5.04 3.01 3.2 4.74 8.2 4.74 13.74 0 5.67-1.71 10.74-4.69 13.92zm-41.83-13.92l.02.76c-4.78-4.34-11.7-5.95-15.92-6.8-7.81-1.63-13.78-3.15-13.78-8.7 0-3.91 3.52-6.75 10.27-6.27 6.17.45 8.76 4.2 9.48 7.83.1.6.38 1.03 1.06 1.03l11.09.1h.14a30.2 30.2 0 00-2.36 12.02v.03zM82.96 50.38c-5.37 0-11.28-1.9-12.64-9.25-.12-.7-.45-.99-.99-1l-10.73-.14v-18.9c1.42 5.54 6.08 9.37 16.18 11.64 6.76 1.6 18.48 2.63 18.48 9.54 0 4.82-3.56 8.22-10.3 8.11zM29.53 49c-8.65 0-16.58-6.79-16.58-18.94 0-9.54 5.94-18.78 16.64-18.78 4.63 0 16.38 1.58 16.38 18.78C45.97 47.3 33.7 49 29.53 49zm131.85-23.58c2.46 3.27 6.9 5.7 14.12 7.31 6.76 1.61 18.5 2.64 18.5 9.55 0 4.8-3.56 8.22-10.3 8.1-5.36 0-11.28-1.9-12.64-9.25-.1-.7-.44-1-.98-1l-9.96-.13a30.85 30.85 0 001.58-9.95c0-1.58-.11-3.13-.32-4.63zM182.95 60c11.9 0 25.93-4.42 24.83-18.73-1.21-12.71-14.49-15.93-21.12-17.25-7.82-1.64-13.79-3.16-13.79-8.7 0-3.92 3.52-6.76 10.27-6.28 6.17.45 8.77 4.2 9.48 7.83.1.6.38 1.03 1.06 1.03l11.1.1c.84 0 1.1-.44 1-1.04C203.6 3.75 192.48 0 182.26 0c-10.21 0-22.51 2.86-23.38 15.5-.03.5-.04.98-.04 1.45a30.1 30.1 0 00-7-9.2A29.94 29.94 0 00131.76 0h-.25c-3.62 0-7.16.67-10.52 1.98a30.52 30.52 0 00-9.3 5.78 30 30 0 00-6.72 8.65C102.54 3.64 91.62 0 81.54 0c-9.37 0-20.5 2.42-22.94 12.61V2.49a.98.98 0 00-.98-.98H47.17a.98.98 0 00-.98.98v2.73c0 .46-.3.62-.68.35C41.79 2.89 36.29.01 29.68.01c-3.72 0-7.27.65-10.56 1.93a31.14 31.14 0 00-9.28 5.84A29.88 29.88 0 002.46 17.8 30.18 30.18 0 000 30.05C0 34.2.73 38.1 2.18 41.6a29.6 29.6 0 006.53 9.66c2.9 2.9 6.13 5.1 9.6 6.55A29.6 29.6 0 0029.72 60c7.03 0 12.3-2.98 15.77-5.7.38-.29.68-.13.68.34v2.87c0 .54.44.98.98.98H57.6c.54 0 .98-.44.98-.98v-9.66C63.53 59.4 76.08 60 82.23 60c10.27 0 22.12-3.3 24.46-13.4 1.1 1.64 2.39 3.2 3.85 4.66 5.6 5.61 12.94 8.63 21.24 8.72h.34A29.14 29.14 0 00153 51.26a30.5 30.5 0 005.19-6.86C161.9 59.28 176.26 60 182.96 60h-.01z" clip-rule="evenodd"/>
</svg>
