<svg xmlns="http://www.w3.org/2000/svg" fill="none" width="325" height="77" viewBox="0 0 325 77">
  <path fill="#000" d="M93.3 25.92H67.42a12.18 12.18 0 00-11.96 12.34v25.62a12.18 12.18 0 0011.96 12.36H93.3a12.18 12.18 0 0011.96-12.36V38.24c.08-6.7-5.26-12.2-11.96-12.32zm4.39 15.77v18.98a7.86 7.86 0 01-7.72 7.99H70.74a7.87 7.87 0 01-7.72-7.99V41.69a7.86 7.86 0 017.72-7.99h19.23a7.87 7.87 0 017.72 7.99zm50.57-15.77h-26a12.18 12.18 0 00-11.96 12.34v25.62a12.18 12.18 0 0011.96 12.36h26a12.18 12.18 0 0011.96-12.36V38.24c.08-6.7-5.26-12.2-11.96-12.32zm4.39 15.77v18.98a7.86 7.86 0 01-7.72 7.99H125.7a7.87 7.87 0 01-7.66-7.99V41.69a7.86 7.86 0 017.72-7.99h19.23a7.87 7.87 0 017.66 7.99zm104.98-15.77h-25.98a12.18 12.18 0 00-11.96 12.34v25.62a12.18 12.18 0 0011.96 12.34h25.98a12.18 12.18 0 0011.96-12.34V38.24c.08-6.7-5.27-12.2-11.96-12.32zm4.39 15.77v18.98a7.86 7.86 0 01-7.72 7.99h-19.23a7.87 7.87 0 01-7.72-7.99V41.69a7.86 7.86 0 017.72-7.99h19.23a7.87 7.87 0 017.72 7.99zm50.48-15.77h-25.98a12.18 12.18 0 00-11.96 12.34v25.62a12.18 12.18 0 0011.96 12.34h25.98a12.18 12.18 0 0011.96-12.34V38.24c.08-6.7-5.26-12.2-11.96-12.32zm4.39 15.77v18.98a7.86 7.86 0 01-7.72 7.99h-19.23a7.87 7.87 0 01-7.72-7.99V41.69a7.86 7.86 0 017.72-7.99h19.23a7.87 7.87 0 017.72 7.99zM38.13 25.92H12.15c-1.45.01-2.88.3-4.22.84V.82H.34V63.9A12.18 12.18 0 0012.3 76.24h25.83a12.18 12.18 0 0011.96-12.36V38.24c.08-6.7-5.26-12.2-11.96-12.32zm4.39 15.77v18.98a7.86 7.86 0 01-7.72 7.99H15.54a7.87 7.87 0 01-7.72-7.99V41.69a7.9 7.9 0 017.72-7.89h19.23a7.88 7.88 0 017.75 7.89zm160.47-15.54h-25.9c-1.45.01-2.88.3-4.22.84V1.08h-7.59v75.25h7.59v-.67c0-3.04-.15-33.51-.15-33.74a7.9 7.9 0 017.72-7.89h19.23a7.87 7.87 0 017.72 7.99V76.4h7.66V38.57a12.17 12.17 0 00-11.91-12.42h-.15z"/>
</svg>
