<svg xmlns="http://www.w3.org/2000/svg" fill="none" width="435" height="77" viewBox="0 0 435 77">
  <path fill="#000" d="M45.73 38.89l1.16.13c4.79.26 6.33 1.16 6.85 1.55.39.39 1.3 1.67 1.3 6.71v17.07c.06.64-.13 1.3-.53 1.8-.25.26-1.03.78-4.26 1.81-1.55.54-3.16.9-4.79 1.04-1.45.24-2.92.37-4.4.38a24.5 24.5 0 01-18.33-7.88c-4.91-5.3-7.46-12.8-7.46-22.22 0-11.5 2.45-19.92 7.5-24.9 5-4.81 10.81-7.4 17.27-7.4 6.46 0 11.5 2.06 15.5 6.33 2.2 2.46 4.4 6.2 6.6 11.24l.38.78h4.68L66.27.26h-4.52l-.39.77c-.25.78-.7 1.5-1.28 2.07-.25.26-.77.52-2.44.52-.14 0-1.3-.13-6.6-1.68A46.68 46.68 0 0038.38.13C26.65.13 16.92 4.27 9.82 12.4A39.06 39.06 0 000 38.9c0 11.63 4.13 21.19 12.42 28.16 7.37 6.33 16.54 9.43 27.39 9.43a55.35 55.35 0 0018.22-3.23c8.4-2.84 10.07-4.52 10.07-6.2V46c0-2.97.65-5.03 1.68-5.94.38-.26 1.42-.78 4.52-1.04l1.16-.12v-4.42H45.73v4.42zM152.06 5.94l1.16.14c3.49.38 5.94 1.16 7.12 2.45.64.64 1.67 2.97 1.67 10.07v27.91c0 6.59-.77 11.5-2.32 14.6-2.85 5.43-8.14 8.14-16.53 8.14-7.5 0-12.54-2.58-15.12-7.88-1.42-2.98-2.2-7.24-2.2-12.53v-34.5c0-4.65.9-6.07 1.42-6.59.52-.5 2.2-1.42 7.24-1.67l1.16-.13V1.42h-32.83v4.52l1.16.14c4.92.38 6.6 1.28 7.12 1.8.52.52 1.42 1.94 1.42 6.59v33.44c0 6.84 1.16 12.4 3.62 16.66 4.39 7.88 12.8 12.02 24.8 12.02 12.14 0 20.55-4.14 25.06-12.14 2.33-4.27 3.62-10.34 3.62-17.96V18.48c0-6.98 1.04-9.17 1.68-9.96.78-.9 2.59-2.07 7.24-2.59l1.16-.12V1.42h-27.4v4.53l-.25-.01zm114.46 49.1c-2.58 5.8-5.56 9.43-8.65 10.85-3.23 1.55-8.54 2.33-15.5 2.33-8.15 0-10.86-.26-11.76-.52-.26-.13-1.03-.26-1.03-2.58v-25.2h15.24c5.43 0 7.24 1.04 7.75 1.56.78.77 1.81 2.7 2.72 7.61l.25 1.04h4.91V22.86h-4.9l-.26 1.04c-.9 4.78-1.94 6.85-2.72 7.62-.51.65-2.32 1.68-7.75 1.68h-15.24V10.44c0-1.68.25-2.07.25-2.07a4.16 4.16 0 011.95-.26h14.6c7.49 0 10.33 1.03 11.38 1.8 1.04.78 2.58 2.98 3.61 8.4l.26 1.04h5.17l-.65-17.96h-59.57v4.55l1.16.14c4.78.38 6.33 1.28 6.85 1.8.52.52 1.29 2.07 1.29 6.59v47.66c0 4.91-.9 6.2-1.3 6.6-.51.51-2.19 1.29-6.97 1.8l-1.16.13v4.4h60.2l5.56-20.64h-5.56l-.13.61zm70.54-21.71l-9.43-5.81a32.4 32.4 0 01-7.49-5.94 9.32 9.32 0 01-2.2-6.2 7.33 7.33 0 012.85-6.21 10.72 10.72 0 016.85-2.33c3.48 0 7.11 1.3 10.72 3.88 3.6 2.58 6.2 7.12 7.88 13.7l.26 1.03h5.03L348.92 0h-4.4l-.26.9a7.1 7.1 0 01-.9 2.2c-.48.36-1.07.54-1.67.51-.14 0-1.04-.12-5.56-1.67A28.53 28.53 0 00326.86 0c-6.2 0-11.38 1.94-15.24 5.81a19.55 19.55 0 00-5.81 14.47c0 4.4 1.67 8.4 4.9 12.15 2.04 2.13 4.34 4 6.85 5.55l9.17 5.7c5.17 3.22 8.53 5.68 10.08 7.23a11.1 11.1 0 013.36 8.27c0 3.49-1.04 6.2-3.23 8.13-2.22 1.94-5.07 3-8.01 2.98-5.94 0-10.85-2.33-14.86-6.98-2.32-2.71-4.4-6.46-6.2-11.1l-.26-.78h-4.78l3.62 25.45h4.52l.13-1.04c.12-.73.39-1.43.77-2.07.14-.38.65-.52 1.43-.52.12 0 1.16.14 5.8 1.82A33.38 33.38 0 00329.97 77c6.85 0 12.67-2.06 17.08-5.94a19.3 19.3 0 006.84-14.99 18.65 18.65 0 00-3.87-11.75c-2.62-3.75-6.88-7.24-12.95-10.99zm94.19 10.34c-2.46-3.1-6.85-6.6-12.8-10.34L409 27.52a32.57 32.57 0 01-7.45-5.94 9.32 9.32 0 01-2.2-6.2 7.33 7.33 0 012.85-6.21 10.72 10.72 0 016.85-2.33c3.49 0 7.11 1.3 10.72 3.88 3.6 2.58 6.2 7.12 7.88 13.7l.26 1.03h5.03L430.34 0h-4.4l-.25.9a7.13 7.13 0 01-.9 2.2c-.5.36-1.09.54-1.69.51-.13 0-1.03-.12-5.55-1.67a28.57 28.57 0 00-9.3-1.94c-6.2 0-11.4 1.94-15.25 5.81a19.6 19.6 0 00-5.82 14.47c0 4.4 1.68 8.4 4.91 12.15 2.04 2.13 4.34 4 6.85 5.55l9.17 5.7c5.17 3.22 8.54 5.68 10.08 7.23a11.13 11.13 0 013.36 8.27c0 3.49-1.04 6.2-3.36 8.13a12.1 12.1 0 01-8.01 2.98c-5.94 0-10.85-2.33-14.86-6.98-2.32-2.71-4.4-6.46-6.2-11.1l-.26-.78h-4.78l3.62 25.45h4.52l.13-1.04c.13-.7.35-1.4.64-2.07.13-.38.65-.52 1.43-.52.13 0 1.16.14 5.82 1.82A33.3 33.3 0 00411.09 77c6.85 0 12.66-2.06 17.07-5.94a19.3 19.3 0 006.84-15c.12-5.16-1.17-9.04-3.75-12.4z"/>
</svg>
