<svg xmlns="http://www.w3.org/2000/svg" fill="none" width="238" height="158" viewBox="0 0 238 158">
  <path fill="#CC071E" d="M167.26 4.76c8.64-4.24 12.93-3.69 13.02.62.12 5.59-.7 13.02-1.3 18.4-3.21 29.24-8.57 53.13-8.97 83.15 14.11-36.56 25.95-61.96 41.2-93.25 4.84-9.98 7.94-8.11 11.91-9.88 15.48-6.9 16.06-2.67 14.04 5.76-7.5 31.24-26.74 129.6-29.67 144.74-.85 4.38-5.61 2.52-6.85.8-5.5-7.61-11.73-7.73-11.04-12.81 3.46-25.25 15.9-88.6 19.15-103.52-16.54 33.9-33.7 76.3-42.5 100.34-1.87 5.1-5.28 4.72-7.39.99-2.98-5.25-8.76-7.93-9.72-14.12-3.01-19.71 3.46-57.28 4.36-81.05-9 25.96-24.13 76.37-30.75 99.14-2.73 9.43-11.84 7.9-9.42-1.3 10.07-38.21 31.76-105.81 41.13-130.11 2.21-5.73 8-5.53 12.8-7.9zM112.36.08c-2.93-.72-11.4 3.86-16.6 4.76-1.66.29-3.23 2.03-3.79 3.28A1492.66 1492.66 0 0069.7 62.17a567.84 567.84 0 00-28.8 5.7A4857.5 4857.5 0 0164.13 9.46C67.9.15 58-.73 54.15 8.68a3653.03 3653.03 0 00-24.71 61.9A612.63 612.63 0 005.33 77c-6.13 1.77-6.38 3.4-3.73 7.07 1.46 2.05 4.48 1.85 5.86 3.3 3.58 3.78 5.75 8.3 12.14 8.99a1706.4 1706.4 0 00-16.58 46.16c-3.24 9.51 6 11.45 9.55 1.39a2271.59 2271.59 0 0117.96-49.03c5.17-1.2 17.68-3.9 29.22-6.4-9.16 25.12-15.2 44.2-17.48 53.48-.42 1.78.29 2.78.67 3.5 3.1 4.5 6.04 4.69 10.01 10.25a3.35 3.35 0 005.92-1.4 1824.2 1824.2 0 0125.38-71.28c3.38-.74 9.47-2.21 13.2-7.77 6.62-9.88 8.53-7.87 10.12-10.88 2-3.76.67-7.3-6.4-6.42 0 0-2.67.18-7.6.75 7.83-20.18 14.69-37.3 19.63-50.35 1.69-4.41 1.9-7.64-.85-8.3"/>
  <path fill="#CC071E" d="M100.79 130.97c1.82 4.61 7.53 3.21 5.36-2.35-2.21-5.68-7.7-22.75-9.15-28.25-1.96-7.41 6.53-5.38 2.23-.54-3.69 4.17-6.14 5.84-12.96 13.76-6.6 7.65-4.8 17.57 2.25 19.76 7.95 2.48 14.96-6.28 19.3-12.71 4.2-6.23.13-9.88-4.11-6.2-2.73 2.36-5.88 6-9.07 7.96-2.6 1.58-4.63-.12-1.17-4.88 4.01-5.5 8.51-10.13 11.85-15.34 6.82-10.6-6.67-16.73-12.47-9.84-3.1 3.68-2.32 7.3-1.47 10.38 1.36 4.97 6.43 20.8 9.4 28.25"/>
</svg>
