<svg xmlns="http://www.w3.org/2000/svg" fill="none" width="344" height="69" viewBox="0 0 344 69">
  <path fill="#00263A" d="M318.85 52.37l-4.12-2.46c-2.58-1.54-4.41-3.1-5.5-4.58a8.56 8.56 0 01-1.64-5.2 9.09 9.09 0 013.11-7.15c2.08-1.84 4.77-2.75 8.06-2.75 3.17 0 6.07.88 8.71 2.63v6.07c-2.73-2.6-5.66-3.88-8.8-3.88-1.78 0-3.23.4-4.35 1.23a3.67 3.67 0 00-1.72 3.1c0 1.1.41 2.15 1.27 3.12.83.99 2.2 2.01 4.06 3.06l4.15 2.43c4.62 2.71 6.93 6.19 6.93 10.4 0 2.97-1 5.42-3.05 7.3-2.04 1.86-4.68 2.8-7.94 2.8a16.8 16.8 0 01-10.22-3.42v-6.78c2.93 3.65 6.3 5.5 10.16 5.5 1.69 0 3.11-.47 4.24-1.4a4.37 4.37 0 001.69-3.51c-.06-2.3-1.72-4.47-5.04-6.51zm-174.6 0l-4.13-2.46c-2.57-1.54-4.41-3.1-5.5-4.58a8.56 8.56 0 01-1.64-5.2 9.09 9.09 0 013.12-7.15c2.07-1.84 4.77-2.75 8.05-2.75 3.17 0 6.08.88 8.71 2.63v6.07c-2.72-2.6-5.66-3.88-8.8-3.88-1.77 0-3.22.4-4.35 1.23a3.68 3.68 0 00-1.72 3.1c0 1.1.42 2.15 1.25 3.12.82.99 2.19 2.01 4.05 3.06l4.15 2.43c4.62 2.71 6.93 6.19 6.93 10.4 0 2.97-1 5.42-3.05 7.3-2.04 1.86-4.68 2.8-7.94 2.8a16.8 16.8 0 01-10.22-3.42v-6.78c2.94 3.65 6.31 5.5 10.16 5.5 1.7 0 3.11-.47 4.24-1.4a4.37 4.37 0 001.69-3.51c-.03-2.3-1.69-4.47-5-6.51zm-34.34 0l-4.12-2.46c-2.58-1.54-4.42-3.1-5.51-4.58a8.56 8.56 0 01-1.63-5.2 9.1 9.1 0 013.11-7.15c2.07-1.84 4.77-2.75 8.06-2.75 3.17 0 6.07.88 8.7 2.63v6.07c-2.72-2.6-5.65-3.88-8.8-3.88-1.77 0-3.22.4-4.35 1.23a3.68 3.68 0 00-1.71 3.1c0 1.1.41 2.15 1.24 3.12.83.99 2.2 2.01 4.06 3.06L113.1 48c4.62 2.71 6.93 6.19 6.93 10.4 0 2.97-1 5.42-3.05 7.3-2.05 1.86-4.68 2.8-7.94 2.8a16.8 16.8 0 01-10.22-3.42v-6.78c2.93 3.65 6.3 5.5 10.16 5.5 1.69 0 3.1-.47 4.23-1.4a4.37 4.37 0 001.7-3.51c0-2.3-1.67-4.47-5.01-6.51zm230.74 9.7c.92 0 1.72.31 2.37.93.65.6.98 1.37.98 2.3 0 .88-.33 1.64-.95 2.25-.65.61-1.42.9-2.37.9-.92 0-1.69-.29-2.34-.9a3.02 3.02 0 01-.95-2.25 3.2 3.2 0 013.26-3.24zm-64.82-31.9c5.84 0 10.73 1.81 14.6 5.46a18.08 18.08 0 015.84 13.73c0 5.52-1.95 10.07-5.89 13.67-3.94 3.59-8.89 5.4-14.87 5.4-5.72 0-10.46-1.81-14.25-5.4a17.92 17.92 0 01-5.72-13.55c0-5.58 1.93-10.2 5.75-13.85 3.85-3.65 8.7-5.46 14.54-5.46zm-208.52 0c5.83 0 10.72 1.81 14.6 5.46a18.08 18.08 0 015.84 13.73c0 5.52-1.96 10.07-5.9 13.67-3.94 3.59-8.88 5.4-14.87 5.4-5.72 0-10.46-1.81-14.25-5.4a17.92 17.92 0 01-5.72-13.55c0-5.58 1.93-10.2 5.75-13.85 3.85-3.65 8.71-5.46 14.55-5.46zm152.41.53h9.49c3.82 0 6.87.93 9.12 2.8 2.25 1.87 3.38 4.41 3.38 7.6 0 2.19-.57 4.05-1.66 5.63a9.98 9.98 0 01-4.74 3.56c1.21.8 2.4 1.84 3.55 3.22a63.08 63.08 0 014.9 7.1 79.81 79.81 0 003.16 4.78l2.02 2.66h-6.46l-1.66-2.46c-.06-.08-.15-.23-.33-.43l-1.06-1.46-1.7-2.72-1.8-2.92a29.04 29.04 0 00-3.08-3.65c-.92-.9-1.78-1.58-2.52-1.96-.74-.4-2.01-.6-3.8-.6h-1.38v16.23h-5.43V30.7zM5.42 68.02H0V30.7h5.13l12.59 15.33 12.5-15.33h5.06v37.32h-5.45V38.96L18.2 53.42h-1L5.41 38.96v29.06zm187.55 0h-12.82V30.7h9.92c3.11 0 5.57.4 7.32 1.25a9.17 9.17 0 014 3.42 9.25 9.25 0 011.39 5.05c0 3.68-1.93 6.31-5.78 7.89 2.76.52 4.98 1.63 6.6 3.36a8.72 8.72 0 012.47 6.19c0 1.9-.5 3.59-1.48 5.1a10.68 10.68 0 01-4.39 3.66c-1.92.93-4.35 1.4-7.23 1.4zM67.51 35.22c-4.32 0-7.9 1.35-10.69 4-2.79 2.7-4.18 6.1-4.18 10.26 0 4.03 1.4 7.38 4.2 10.04 2.8 2.66 6.32 4 10.53 4 4.23 0 7.76-1.34 10.57-4.09a13.58 13.58 0 004.24-10.19c0-3.94-1.42-7.27-4.24-9.99a14.68 14.68 0 00-10.43-4.02zm208.56 0c-4.32 0-7.88 1.35-10.7 4-2.78 2.7-4.17 6.1-4.17 10.26 0 4.03 1.4 7.38 4.2 10.04 2.8 2.66 6.32 4 10.52 4 4.24 0 7.76-1.34 10.58-4.09a13.58 13.58 0 004.24-10.19c0-3.94-1.43-7.27-4.24-9.99a14.73 14.73 0 00-10.43-4.02zm-85.44 16.21h-5.06v11.83h5.33c2.96 0 4.98-.23 6.04-.67a5.82 5.82 0 003.5-5.23c0-1.14-.33-2.19-1-3.12a6.08 6.08 0 00-2.88-2.1c-1.28-.47-3.23-.7-5.93-.7zm36.15-16.2h-1.63v11.76h2.07c2.75 0 4.62-.23 5.66-.7 1-.46 1.8-1.17 2.37-2.1a6.03 6.03 0 00-.1-6.37 5 5 0 00-2.66-2.01c-1.15-.38-3.05-.59-5.71-.59zm-36.56.23h-4.65v11.21h3.61c2.9 0 4.95-.55 6.16-1.63a5.4 5.4 0 001.84-4.24c0-3.56-2.31-5.34-6.96-5.34zM151.65 5.53l-.92-.56c-.6-.35-1-.7-1.24-1.02a2.01 2.01 0 01-.36-1.17 2 2 0 01.71-1.6c.47-.41 1.07-.62 1.8-.62.72 0 1.37.2 1.96.59v1.37a2.85 2.85 0 00-1.98-.88c-.39 0-.74.1-.98.27a.79.79 0 00-.38.7c0 .26.08.5.3.7.17.2.5.44.91.7l.95.55c1.04.62 1.57 1.4 1.57 2.37 0 .67-.24 1.23-.68 1.63-.48.44-1.07.65-1.81.65a3.9 3.9 0 01-2.31-.76V6.9c.65.82 1.42 1.23 2.31 1.23.38 0 .71-.1.95-.32.26-.21.38-.47.38-.8-.06-.55-.44-1.04-1.18-1.48zm12.77 2.16c.2 0 .38.09.53.2.15.15.2.32.2.53 0 .2-.05.38-.2.5a.72.72 0 01-.53.2.72.72 0 01-.54-.2.64.64 0 01-.2-.5c0-.2.06-.38.2-.53.15-.11.33-.2.54-.2zm22.51-5.99h-2.7v2.13c.1 0 .18-.03.27-.03.83 0 1.51.27 2.05.76.53.5.8 1.14.8 1.9 0 .79-.27 1.43-.8 1.93-.54.5-1.22.73-2.05.73-.68 0-1.36-.18-2.01-.5V7.37c.62.4 1.21.58 1.8.58a2 2 0 001.3-.44c.36-.29.54-.67.54-1.08 0-.44-.18-.81-.56-1.1-.39-.3-.86-.45-1.42-.45-.48 0-.83.06-1.01.12V.62h3.8V1.7zm-12.5 1.17c0-.67.24-1.23.74-1.7.5-.46 1.13-.7 1.84-.7.7 0 1.33.24 1.8.68.5.46.74 1.02.74 1.7 0 .75-.35 1.36-1.06 1.86.8.44 1.18 1.1 1.18 1.99 0 .7-.26 1.28-.77 1.72-.5.47-1.15.67-1.95.67-.77 0-1.42-.23-1.96-.7a2.22 2.22 0 01-.8-1.72c0-.85.42-1.52 1.22-1.99-.36-.3-.63-.58-.77-.88-.15-.2-.21-.55-.21-.93zm-11.47-1.2h-2.99v7.4h-1.24v-7.4h-2.94V.6h7.18v1.08zm7.59 7.4h-1.22V.61h1.22v8.44zm21.83 0h-1.21V.61h1.21v8.44zM146.5 1.7h-3.61v2.57h3.5v1.08h-3.5v2.6h3.73v1.08h-4.95V.63h4.83V1.7zm31.97 5.08v-.11c0-.38-.15-.7-.42-.94a1.52 1.52 0 00-1.1-.38c-.44 0-.8.12-1.06.38-.27.26-.41.56-.41.97 0 .37.14.7.41.96.3.26.65.38 1.1.38.41 0 .77-.12 1.06-.35.27-.26.42-.56.42-.9zm-.12-3.88c0-.35-.12-.67-.38-.9a1.38 1.38 0 00-.98-.36c-.39 0-.71.12-.98.35-.27.24-.39.53-.39.9 0 .36.12.65.39.91.27.27.6.38.98.38s.68-.11.95-.38c.3-.23.41-.55.41-.9z"/>
</svg>
