<svg xmlns="http://www.w3.org/2000/svg" fill-rule="evenodd" width="472" height="85" viewBox="0 0 472 85">
  <path fill="#a62d25" d="M61.016 59.074a20.986 20.986 0 0 1-14.982-6.045 21.504 21.504 0 0 1-6.43-15.332 21.5 21.5 0 0 1 6.43-15.332 21.542 21.542 0 0 1 30.624.621l.624.661-.656.629c-2 1.912-3.992 3.772-5.931 5.53l-.646.585-.616-.616a11.56 11.56 0 0 0-8.413-3.789l-.088-.001c-6.349 0-11.573 5.222-11.573 11.567a11.57 11.57 0 0 0 3.589 8.374 11.044 11.044 0 0 0 8.07 3.44 12.292 12.292 0 0 0 8.81-3.987l.656-.656 6.764 6.951-.574.637a20.228 20.228 0 0 1-15.658 6.763Zm85.675-.001h-.075c-11.725 0-21.373-9.642-21.373-21.361a21.36 21.36 0 0 1 6.296-15.14 21.46 21.46 0 0 1 15.151-6.264c11.755 0 21.432 9.659 21.449 21.407-.035 11.734-9.709 21.368-21.449 21.359l.001-.001Zm-26.237-.786h-9.713V26.772H106.8v-9.706h13.654v41.221Zm-23.845 0h-9.71V26.772h-7.885v-9.706h7.884V1.309h9.71v15.757h7.884v9.706h-7.884l.001 31.515Zm114.847 0h-9.636v-19.47c0-8.634-3.31-12.83-10.118-12.83a10.508 10.508 0 0 0-7.756 3.277v29.023h-9.714V29.27l-5.917-5.96 6.346-6.635 4.336 4.297c3.2-3.117 7.47-4.697 12.705-4.697 6.616 0 11.734 2.182 15.213 6.485 3.011 3.663 4.541 8.471 4.541 14.284v21.243ZM42.11 58.062h-9.888l-4.32-10.299H13.413L9.035 58.062H0l4.36-10.294H.228v-7.487h7.3l9.7-22.903h7.914L42.11 58.062Zm104.581-32.07a11.09 11.09 0 0 0-8.238 3.45 11.26 11.26 0 0 0-3.419 8.277c.059 6.35 5.302 11.543 11.656 11.543 6.355 0 11.598-5.193 11.657-11.543a11.253 11.253 0 0 0-3.42-8.278 11.082 11.082 0 0 0-8.236-3.454v.005ZM16.535 40.338h8.254l-4.119-9.764-4.135 9.764Z"/>
  <path fill="#144980" d="M244.018 59.853c-8.169 0-14.6-2.399-19.128-7.126-4.506-4.698-6.792-11.376-6.792-19.84 0-8.444 2.326-15.129 6.914-19.868 4.607-4.757 11.116-7.169 19.345-7.169 5.395.11 10.759.833 15.991 2.154l1.411.331v10.374l-2.411-.807c-6.557-2.199-11.633-3.308-15.09-3.308-4.844 0-8.462 1.511-11.062 4.622-2.642 3.165-3.981 7.786-3.981 13.733 0 5.622 1.429 10.081 4.248 13.253 2.8 3.151 6.565 4.682 11.5 4.682 4.36 0 9.133-1.337 14.186-3.975l2.678-1.399v9.979l-1.01.506a37.12 37.12 0 0 1-16.799 3.858Zm147.766 0c-8.17 0-14.607-2.399-19.13-7.126-4.505-4.698-6.79-11.378-6.79-19.84 0-8.447 2.327-15.131 6.916-19.869 4.6-4.757 11.111-7.168 19.339-7.168a71.337 71.337 0 0 1 15.994 2.155l1.411.331v10.373l-2.411-.807c-6.56-2.199-11.638-3.308-15.093-3.308-4.845 0-8.462 1.511-11.059 4.621-2.646 3.171-3.987 7.791-3.987 13.733 0 5.617 1.43 10.075 4.251 13.253 2.8 3.15 6.566 4.681 11.5 4.681 4.36 0 9.133-1.337 14.185-3.975l2.678-1.399v9.979l-1.01.506a37.128 37.128 0 0 1-16.794 3.86Zm-100.577-.387c-7.353 0-13.37-2.525-17.885-7.507-4.465-4.928-6.729-11.484-6.729-19.489 0-8.048 2.278-14.606 6.772-19.489 4.53-4.932 10.634-7.434 18.142-7.434 7.481 0 13.579 2.499 18.124 7.412 4.506 4.878 6.792 11.423 6.792 19.451 0 8.18-2.286 14.792-6.793 19.659-4.545 4.907-10.743 7.397-18.423 7.397Zm166.141-.811h-10.676V36.012h-19.863v22.645h-10.676V7.051h10.676v20.214h19.863V7.051h10.676v51.604Zm-91.2.001h-11.53l-5.378-13.285h-18.492l-5.445 13.285h-10.467L335.948 7.05h9.415l20.785 51.606Zm-74.641-44.373c-4.359 0-7.652 1.499-10.066 4.585-2.487 3.179-3.748 7.745-3.748 13.573 0 5.812 1.254 10.4 3.727 13.64a11.657 11.657 0 0 0 9.887 4.648c4.493 0 7.851-1.499 10.267-4.587 2.486-3.179 3.747-7.823 3.747-13.8 0-5.781-1.265-10.318-3.76-13.492-2.426-3.071-5.713-4.567-10.054-4.567Zm42.779 22.378h11.426l-5.7-13.999-5.726 13.999ZM461.748 11.29v-.025c0-2.81 2.313-5.122 5.125-5.122 2.811 0 5.125 2.312 5.125 5.122s-2.314 5.122-5.125 5.122h-.046c-2.786 0-5.079-2.291-5.079-5.076v-.021Zm9.466 0v-.026c0-2.38-1.96-4.339-4.341-4.339-2.381 0-4.341 1.959-4.341 4.339 0 2.38 1.96 4.338 4.341 4.338 2.371-.002 4.326-1.942 4.345-4.312h-.004Zm-1.908 2.757h-.942l-1.674-2.573h-.942v2.573h-.784v-5.58h2.432c1.007 0 1.987.275 1.987 1.477 0 1.099-.771 1.499-1.765 1.529l1.688 2.574Zm-353.589-1.202c-3.525 0-6.426-2.899-6.426-6.423 0-3.523 2.901-6.422 6.426-6.422 3.525 0 6.426 2.899 6.426 6.422-.004 3.522-2.902 6.419-6.426 6.423Zm350.974-2.156c.693 0 1.908.13 1.908-.757 0-.576-.758-.681-1.359-.681h-1.492v1.438h.943Z"/>
  <path fill="#252729" d="M221.378 69.824v14.523h1.611v-6.358h.414l4.42 6.358h1.959l-4.616-6.488c2.2-.153 3.658-1.786 3.658-4.007 0-1.545-.74-2.656-1.589-3.222-1.089-.74-2.548-.806-3.527-.806h-2.33Zm1.611 1.525h.98c.697 0 1.437.043 2.09.413.915.523 1.154 1.328 1.154 2.134 0 1.698-1.197 2.656-3.2 2.656h-1.024v-5.203ZM243.02 69.824h-7.533v14.523h7.533v-1.524h-5.922v-5.639h5.748V75.66h-5.748v-4.311h5.922v-1.525ZM247.462 69.824l5.573 15.285 4.573-11.627 4.267 11.627 6.096-15.285h-1.785l-4.246 10.887-4.311-11.627-4.55 11.627-3.832-10.887h-1.785ZM281.775 84.347h1.786l-6.51-15.219-6.685 15.219h1.786l1.742-4.093h6.183l1.698 4.093Zm-7.25-5.618 2.482-5.813 2.439 5.813h-4.921ZM288.786 69.824v14.523h1.611v-6.358h.414l4.42 6.358h1.959l-4.616-6.488c2.199-.153 3.658-1.786 3.658-4.007 0-1.545-.74-2.656-1.589-3.222-1.089-.74-2.548-.806-3.527-.806h-2.33Zm1.611 1.525h.98c.697 0 1.437.043 2.09.413.915.523 1.154 1.328 1.154 2.134 0 1.698-1.197 2.656-3.201 2.656h-1.023v-5.203ZM302.895 84.347h2.939c2.591 0 3.984-.544 5.312-1.677 1.046-.892 2.548-2.525 2.548-5.573 0-2.613-1.154-4.464-2.482-5.574-1.829-1.546-3.898-1.699-5.356-1.699h-2.961v14.523Zm1.611-12.998h1.415c3.68 0 6.118 2.264 6.118 5.748 0 2.068-.871 3.505-1.959 4.419-1.416 1.176-3.005 1.307-4.159 1.307h-1.415V71.349ZM327.607 71.849c-.327-.631-.828-1.219-1.416-1.611-.718-.479-1.437-.653-2.329-.653-2.352 0-4.072 1.502-4.072 3.745 0 1.089.37 1.763 1.002 2.373.653.632 1.371.936 1.937 1.198l1.307.609c.762.349 1.328.61 1.742 1.002.522.479.718 1.045.718 1.698 0 1.459-.936 2.874-2.917 2.874-.741 0-1.459-.174-2.091-.806a3.422 3.422 0 0 1-.87-1.85l-1.568.435c.196.871.631 1.873 1.35 2.569 1.001.98 2.199 1.176 3.157 1.176 2.613 0 4.594-1.785 4.594-4.463 0-1.045-.305-1.895-1.045-2.635-.61-.609-1.394-1.001-2.243-1.371l-1.393-.61c-.545-.24-1.089-.479-1.524-.915-.392-.37-.545-.696-.545-1.262 0-1.35 1.002-2.243 2.439-2.243.827 0 1.35.283 1.633.501.326.261.653.697.849 1.088l1.285-.849ZM342.325 69.824v14.523h1.611v-6.314h1.415c3.31 0 4.594-2.025 4.594-4.072 0-.914-.261-2.199-1.328-3.113-.98-.849-2.199-1.024-3.658-1.024h-2.634Zm1.611 1.525h1.197c1.046 0 3.201.217 3.201 2.525 0 1.677-1.154 2.635-3.07 2.635h-1.328v-5.16ZM355.432 69.824v14.523h5.617v-1.524h-4.006V69.824h-1.611ZM376.116 84.347h1.785l-6.51-15.219-6.684 15.219h1.785l1.742-4.093h6.184l1.698 4.093Zm-7.25-5.618 2.482-5.813 2.438 5.813h-4.92ZM389.245 71.349v-1.525h-8.666v1.525h3.527v12.998h1.612V71.349h3.527ZM401.22 69.824h-6.619v14.523h1.611v-7.185h4.834v-1.524h-4.834v-4.289h5.008v-1.525ZM414 84.608c4.202 0 7.555-3.2 7.555-7.511 0-4.333-3.374-7.512-7.555-7.512-4.18 0-7.555 3.179-7.555 7.512 0 4.311 3.353 7.511 7.555 7.511Zm0-13.499c3.266 0 5.901 2.656 5.901 5.988 0 3.331-2.635 5.987-5.901 5.987s-5.9-2.656-5.9-5.987c0-3.332 2.634-5.988 5.9-5.988ZM427.695 69.824v14.523h1.611v-6.358h.414l4.42 6.358h1.959l-4.615-6.488c2.199-.153 3.657-1.786 3.657-4.007 0-1.545-.74-2.656-1.589-3.222-1.089-.74-2.547-.806-3.527-.806h-2.33Zm1.611 1.525h.98c.697 0 1.437.043 2.09.413.915.523 1.154 1.328 1.154 2.134 0 1.698-1.197 2.656-3.2 2.656h-1.024v-5.203ZM442.958 84.347l1.437-10.103 4.877 10.712 4.942-10.712 1.372 10.103h1.655l-2.265-15.35-5.682 12.28-5.574-12.258-2.417 15.328h1.655Z"/>
</svg>
