<svg xmlns="http://www.w3.org/2000/svg" width="216" height="69" viewBox="0 0 216 69">
  <path fill="#13c8ec" d="M205.655.905a.455.455 0 0 0-.46-.524h-8.479a.61.61 0 0 0-.589.524l-8.256 67.247c-.036.29.17.525.459.525h8.48a.61.61 0 0 0 .588-.525L205.655.905Z"/>
  <path fill="#ec1380" d="M210.791.643a.306.306 0 0 1 .294-.262h4.24c.145 0 .248.118.23.262l-8.321 67.772a.306.306 0 0 1-.294.262h-4.24a.227.227 0 0 1-.23-.262L210.791.643Z"/>
  <path fill="#13c8ec" fill-rule="nonzero" d="M165.898 34.109c-3.557 0-6.359-.802-8.408-2.406-2.048-1.604-3.072-3.787-3.072-6.55 0-.286.031-.746.095-1.381l.143-.906a.783.783 0 0 1 .214-.405.55.55 0 0 1 .405-.166h6.431c.159 0 .286.055.381.166a.455.455 0 0 1 .096.405l-.096.572c-.127 1.048.278 1.961 1.215 2.739.937.778 2.263 1.167 3.978 1.167 1.461 0 2.549-.341 3.263-1.024.715-.683 1.072-1.437 1.072-2.263 0-.762-.333-1.357-1-1.786-.667-.429-1.874-.961-3.621-1.596l-1.096-.381c-1.778-.635-3.318-1.302-4.62-2.001a10.505 10.505 0 0 1-3.359-2.858c-.937-1.207-1.405-2.684-1.405-4.431 0-.254.031-.666.095-1.238.254-1.969.977-3.692 2.168-5.169 1.191-1.477 2.723-2.612 4.597-3.406C165.247.397 167.312 0 169.567 0c2.191 0 4.136.381 5.835 1.143 1.699.763 3.025 1.85 3.978 3.264.953 1.413 1.429 3.04 1.429 4.882 0 .286-.032.747-.095 1.382l-.095.667a.52.52 0 0 1-.191.405.635.635 0 0 1-.429.167h-6.383a.552.552 0 0 1-.405-.167.422.422 0 0 1-.119-.405l.047-.334c.128-1.111-.23-2.096-1.071-2.953-.842-.858-2.057-1.286-3.645-1.286-1.302 0-2.334.293-3.096.881-.762.587-1.144 1.405-1.144 2.453 0 .572.207 1.064.62 1.477.413.413 1.032.802 1.858 1.167.825.365 2.096.866 3.811 1.501 1.937.699 3.438 1.302 4.502 1.81 1.063.508 2.064 1.326 3.001 2.453.937 1.128 1.405 2.581 1.405 4.359 0 .254-.032.667-.095 1.239-.381 3.081-1.787 5.518-4.216 7.312-2.43 1.795-5.486 2.692-9.171 2.692Zm-27.677 0c-3.557 0-6.36-.802-8.409-2.406-2.048-1.604-3.072-3.787-3.072-6.55 0-.286.032-.746.095-1.381l.143-.906a.783.783 0 0 1 .214-.405.552.552 0 0 1 .405-.166h6.431a.48.48 0 0 1 .382.166c.095.112.127.247.095.405l-.095.572c-.127 1.048.277 1.961 1.214 2.739.937.778 2.263 1.167 3.978 1.167 1.461 0 2.549-.341 3.263-1.024.715-.683 1.072-1.437 1.072-2.263 0-.762-.333-1.357-1-1.786-.667-.429-1.874-.961-3.621-1.596l-1.095-.381c-1.779-.635-3.319-1.302-4.621-2.001a10.516 10.516 0 0 1-3.359-2.858c-.937-1.207-1.405-2.684-1.405-4.431 0-.254.032-.666.095-1.238.254-1.969.977-3.692 2.168-5.169 1.191-1.477 2.723-2.612 4.597-3.406C137.57.397 139.634 0 141.889 0c2.191 0 4.136.381 5.835 1.143 1.7.763 3.025 1.85 3.978 3.264.953 1.413 1.429 3.04 1.429 4.882 0 .286-.031.747-.095 1.382l-.095.667a.52.52 0 0 1-.191.405.635.635 0 0 1-.428.167h-6.384a.552.552 0 0 1-.405-.167.422.422 0 0 1-.119-.405l.048-.334c.127-1.111-.231-2.096-1.072-2.953-.842-.858-2.057-1.286-3.645-1.286-1.302 0-2.334.293-3.096.881-.762.587-1.143 1.405-1.143 2.453 0 .572.206 1.064.619 1.477.413.413 1.032.802 1.858 1.167.826.365 2.096.866 3.811 1.501 1.937.699 3.438 1.302 4.502 1.81 1.064.508 2.064 1.326 3.001 2.453.937 1.128 1.405 2.581 1.405 4.359 0 .254-.031.667-.095 1.239-.381 3.081-1.786 5.518-4.216 7.312-2.43 1.795-5.486 2.692-9.17 2.692ZM30.463 6.574a.77.77 0 0 1-.215.405.551.551 0 0 1-.404.167H15.409c-.19 0-.286.079-.286.238l-.714 5.859c0 .159.063.239.19.239h9.29c.159 0 .286.055.381.166.095.112.127.247.095.405l-.667 5.574a.775.775 0 0 1-.214.405.552.552 0 0 1-.405.167h-9.29c-.127 0-.222.079-.285.238l-1.525 12.719a.775.775 0 0 1-.214.405.552.552 0 0 1-.405.167H4.786a.477.477 0 0 1-.381-.167c-.096-.111-.127-.246-.096-.405L8.263.953a.52.52 0 0 1 .191-.405.635.635 0 0 1 .429-.167h21.818c.159 0 .286.056.381.167a.453.453 0 0 1 .095.405l-.714 5.621Zm.047 27.154a.48.48 0 0 1-.381-.167.453.453 0 0 1-.095-.405L33.988.953a.52.52 0 0 1 .191-.405.635.635 0 0 1 .428-.167h6.527c.349 0 .524.191.524.572l-3.954 32.203a.77.77 0 0 1-.215.405.551.551 0 0 1-.404.167H30.51ZM69.669.381c.159 0 .286.056.381.167.096.111.127.246.096.405l-.715 5.669a.52.52 0 0 1-.191.405.634.634 0 0 1-.428.166h-8.051c-.191 0-.286.08-.286.239l-3.144 25.724a.77.77 0 0 1-.215.405.551.551 0 0 1-.404.167h-6.575a.48.48 0 0 1-.381-.167.453.453 0 0 1-.095-.405l3.144-25.724c0-.159-.063-.239-.19-.239h-7.813a.476.476 0 0 1-.381-.166c-.095-.112-.127-.246-.095-.405l.667-5.669a.768.768 0 0 1 .214-.405.552.552 0 0 1 .405-.167h24.057Zm56.499 6.193a.775.775 0 0 1-.214.405.552.552 0 0 1-.405.167h-14.482c-.191 0-.286.079-.286.238l-.715 5.859c0 .159.064.239.191.239h9.289a.48.48 0 0 1 .382.166c.095.112.127.247.095.405l-.667 5.574a.77.77 0 0 1-.215.405.551.551 0 0 1-.404.167h-9.29c-.127 0-.222.079-.286.238l-.762 6.288c0 .159.064.238.191.238h14.529c.159 0 .286.056.381.167.096.111.127.246.096.405l-.667 5.621a.77.77 0 0 1-.215.405.552.552 0 0 1-.405.167h-21.866a.48.48 0 0 1-.381-.167.453.453 0 0 1-.095-.405L103.921.953a.52.52 0 0 1 .191-.405.635.635 0 0 1 .428-.167h21.866c.159 0 .286.056.381.167.096.111.127.246.096.405l-.715 5.621ZM91.821.953a.775.775 0 0 1 .214-.405.552.552 0 0 1 .405-.167h6.574c.159 0 .286.056.381.167.096.111.127.246.096.405l-3.954 32.203a.77.77 0 0 1-.215.405.552.552 0 0 1-.405.167h-6.288c-.317 0-.524-.127-.619-.381l-8.384-18.198c-.064-.095-.127-.135-.191-.119-.064.016-.095.087-.095.214l-2.144 17.912a.775.775 0 0 1-.214.405.555.555 0 0 1-.405.167h-6.574a.48.48 0 0 1-.382-.167.453.453 0 0 1-.095-.405L73.48.953a.52.52 0 0 1 .191-.405.635.635 0 0 1 .428-.167h6.336c.286 0 .477.127.572.381l8.384 18.15c.032.096.08.135.143.119.064-.015.111-.087.143-.214L91.821.953Z"/>
  <path fill="#ec1380" fill-rule="nonzero" d="M163.409 69c-3.02 0-5.399-.681-7.137-2.042-1.739-1.361-2.608-3.215-2.608-5.56 0-.242.027-.633.081-1.172l.121-.769a.652.652 0 0 1 .182-.343.465.465 0 0 1 .343-.142h5.459c.135 0 .243.047.324.142a.383.383 0 0 1 .081.343l-.081.486c-.108.889.236 1.664 1.031 2.325.795.66 1.92.99 3.376.99 1.24 0 2.163-.29 2.77-.869.606-.58.91-1.22.91-1.921 0-.647-.283-1.152-.849-1.516-.567-.364-1.591-.816-3.073-1.355l-.93-.323c-1.51-.539-2.817-1.105-3.923-1.698a8.926 8.926 0 0 1-2.85-2.427c-.796-1.024-1.193-2.277-1.193-3.76 0-.216.027-.566.081-1.051.215-1.672.829-3.134 1.839-4.388 1.011-1.253 2.312-2.217 3.902-2.891 1.591-.674 3.343-1.011 5.257-1.011 1.86 0 3.511.324 4.953.971 1.442.647 2.568 1.57 3.377 2.77.808 1.199 1.213 2.581 1.213 4.144 0 .243-.027.634-.081 1.173l-.081.566a.441.441 0 0 1-.162.344.54.54 0 0 1-.364.141h-5.418a.47.47 0 0 1-.344-.141.36.36 0 0 1-.101-.344l.041-.283c.107-.944-.196-1.779-.91-2.507-.715-.728-1.746-1.092-3.093-1.092-1.106 0-1.982.25-2.629.748-.647.499-.97 1.193-.97 2.083 0 .485.175.903.525 1.253.351.351.877.681 1.577.991.701.31 1.78.734 3.235 1.274 1.645.593 2.918 1.105 3.821 1.536.903.431 1.753 1.126 2.548 2.082.795.957 1.193 2.191 1.193 3.7 0 .216-.027.566-.081 1.052-.324 2.614-1.517 4.683-3.579 6.206-2.062 1.523-4.657 2.285-7.783 2.285Zm-148.761-.323c-.27 0-.445-.122-.526-.364l-3.275-10.756c-.054-.108-.135-.162-.243-.162H8.016c-.135 0-.202.068-.202.202L6.52 68.191a.652.652 0 0 1-.182.344.469.469 0 0 1-.343.142H.414a.406.406 0 0 1-.323-.142c-.081-.094-.108-.209-.081-.344l3.356-27.334c0-.135.054-.249.162-.344a.54.54 0 0 1 .364-.141h11.645c2.372 0 4.246.674 5.621 2.022 1.374 1.348 2.062 3.167 2.062 5.458 0 .27-.027.701-.081 1.294-.243 1.806-.876 3.37-1.9 4.691-1.025 1.321-2.346 2.278-3.963 2.871-.135.054-.175.148-.121.283l3.801 11.119c.026.054.04.122.04.203 0 .242-.162.364-.485.364h-5.863Zm31.701-23.049a.659.659 0 0 1-.182.344.467.467 0 0 1-.344.142H33.531c-.162 0-.243.067-.243.202l-.606 4.973c0 .135.054.203.161.203h7.885c.135 0 .243.047.324.141.081.094.108.209.081.344l-.566 4.731a.656.656 0 0 1-.182.343.467.467 0 0 1-.344.142h-7.885c-.108 0-.189.067-.243.202l-.647 5.338c0 .134.054.202.162.202h12.333c.135 0 .243.047.323.141a.385.385 0 0 1 .081.344l-.566 4.771a.652.652 0 0 1-.182.344.469.469 0 0 1-.343.142h-18.56a.407.407 0 0 1-.324-.142c-.081-.094-.108-.209-.081-.344l3.357-27.334a.44.44 0 0 1 .161-.344.54.54 0 0 1 .364-.141h18.56c.135 0 .243.047.323.141a.385.385 0 0 1 .081.344l-.606 4.771Zm83.377 23.049a.404.404 0 0 1-.323-.142c-.081-.094-.108-.209-.081-.344l3.356-27.334c0-.135.054-.249.162-.344a.537.537 0 0 1 .363-.141h9.988c2.857 0 5.128.694 6.813 2.082 1.685 1.389 2.527 3.255 2.527 5.601 0 .242-.027.633-.08 1.172l-1.294 10.594c-.216 1.752-.836 3.302-1.86 4.65-1.025 1.348-2.366 2.386-4.024 3.114-1.657.728-3.511 1.092-5.559 1.092h-9.988Zm-9.866 0c-.27 0-.445-.122-.526-.364l-3.275-10.756c-.054-.108-.135-.162-.243-.162h-2.588c-.134 0-.202.068-.202.202l-1.294 10.594a.652.652 0 0 1-.182.344.467.467 0 0 1-.343.142h-5.58a.407.407 0 0 1-.324-.142c-.081-.094-.108-.209-.081-.344l3.356-27.334c0-.135.054-.249.162-.344a.54.54 0 0 1 .364-.141h11.645c2.373 0 4.246.674 5.621 2.022 1.375 1.348 2.062 3.167 2.062 5.458 0 .27-.027.701-.081 1.294-.242 1.806-.876 3.37-1.9 4.691-1.025 1.321-2.345 2.278-3.963 2.871-.135.054-.175.148-.121.283l3.801 11.119c.027.054.04.122.04.203 0 .242-.162.364-.485.364h-5.863Zm-24.019 0a.437.437 0 0 1-.323-.122.6.6 0 0 1-.162-.283l-.566-3.599c-.054-.107-.121-.161-.202-.161h-8.936c-.081 0-.149.054-.202.161l-1.456 3.599c-.135.27-.337.405-.607.405h-5.984c-.162 0-.276-.048-.344-.142-.067-.094-.06-.236.02-.425l11.727-27.334c.134-.269.323-.404.566-.404h7.399c.243 0 .405.135.486.404l5.054 27.334v.162c0 .27-.148.405-.445.405h-6.025Zm-42.254 0c-.27 0-.432-.135-.486-.405l-3.962-27.374v-.081c0-.297.162-.445.485-.445h5.944c.27 0 .418.135.445.404l1.617 14.719c0 .107.034.161.101.161.068 0 .115-.054.142-.161l4.852-14.678c.081-.297.27-.445.566-.445h5.459c.269 0 .418.135.445.404l1.617 14.719c0 .107.034.161.101.161.068 0 .115-.054.142-.161l4.973-14.678c.081-.297.27-.445.566-.445h5.782c.378 0 .513.175.405.526L72.753 68.272c-.081.27-.27.405-.566.405h-5.621c-.296 0-.444-.149-.444-.445l-1.497-15.608c-.026-.108-.067-.162-.121-.162-.054 0-.094.054-.121.162l-4.974 15.608c-.081.296-.269.445-.566.445h-5.256Zm82.892-5.944c0 .134.054.202.161.202h4.044c1.051 0 1.954-.384 2.709-1.153.755-.768 1.227-1.799 1.415-3.093l1.011-8.33a5.67 5.67 0 0 0 .041-.768c0-1.078-.283-1.927-.849-2.547-.567-.62-1.335-.93-2.305-.93h-3.963c-.162 0-.243.067-.243.202l-2.021 16.417Zm-48.765-3.64c-.081.162-.041.243.121.243h5.823c.135 0 .202-.081.202-.243l-1.698-10.391c-.027-.108-.068-.155-.122-.142-.053.014-.094.061-.121.142l-4.205 10.391ZM9.431 46.114c-.161 0-.242.067-.242.202l-.688 5.742c-.053.134 0 .202.162.202h4.367c1.052 0 1.921-.324 2.608-.971.688-.647 1.031-1.496 1.031-2.547 0-.809-.262-1.449-.788-1.921-.526-.471-1.233-.707-2.123-.707H9.431Zm105.213 0c-.162 0-.243.067-.243.202l-.687 5.742c-.054.134 0 .202.161.202h4.367c1.052 0 1.921-.324 2.609-.971.687-.647 1.031-1.496 1.031-2.547 0-.809-.263-1.449-.789-1.921-.526-.471-1.233-.707-2.123-.707h-4.326Z"/>
</svg>
