<svg xmlns="http://www.w3.org/2000/svg" viewBox="0 0 280 160" width="280" height="160">
  <g fill="#fff" fill-rule="nonzero">
    <path d="M82.814 110.24c.26.043.433.087.563.087 3.467-.434 6.327-1.95 8.537-4.55 1.3-1.56 2.296-3.294 3.12-5.157.346-.823.606-1.647.606-2.557 0-1.69-.476-2.036-1.95-1.17a23.101 23.101 0 0 0-3.423 2.384c-3.25 2.773-5.417 6.283-7.15 10.053-.13.26-.173.52-.303.91m-1.517 4.42c-.217.91-.477 1.863-.607 2.773-.173 1.127-.303 2.297-.26 3.424.087 2.253 2.08 3.726 4.377 3.38 1.17-.174 2.253-.52 3.25-1.127 1.17-.693 2.34-1.387 3.423-2.21 3.684-2.86 6.804-6.197 9.664-9.837.26-.303.433-.736.52-1.126 1.733-6.587 5.026-12.307 10.183-16.944 1.733-1.56 3.683-2.816 5.85-3.683 1.733-.693 3.553-1.127 5.46-.65.823.217 1.69.52 2.383.953a24.72 24.72 0 0 1 5.937 5.07c.607.737 1.127 1.604 1.56 2.47.52 1.04.477 2.124 0 3.164-.217.476-.52.953-.78 1.43-.303.476-.607.91-.953 1.343-.997 1.343-2.037 2.6-2.99 3.987-.954 1.343-1.82 2.73-2.73 4.203-.694.043-1.214-.39-1.56-.997-.26-.52-.477-1.126-.52-1.733-.26-1.95.13-3.813.65-5.677.39-1.473.953-2.946 1.386-4.42.087-.216.13-.433.217-.736-.477-.044-.78.216-1.04.39-1.907 1.17-3.553 2.643-5.027 4.333-3.076 3.51-5.2 7.54-6.543 11.96-.433 1.343-.737 2.687-1.04 4.073-.173.78-.173 1.647-.13 2.427.087 1.56 1.473 2.903 3.077 3.077 1.343.173 2.6-.174 3.813-.694 1.907-.823 3.683-1.906 5.33-3.12 4.16-3.12 7.67-6.803 11.007-10.746 1.343-1.604 2.426-3.337 3.12-5.33.91-2.557 2.036-5.07 3.076-7.627.13-.303.217-.607.39-1.083h-.823c-.823.043-1.603.086-2.427.086-.606 0-.823-.173-.78-.736.044-1.214.39-2.254 1.344-3.077.476-.39.996-.607 1.603-.607.737 0 1.473-.043 2.253-.086.52 0 .824-.26 1.04-.737 1.214-3.033 2.514-6.067 3.77-9.1.477-1.213.564-2.383.044-3.64-.347-.823.173-1.69 1.126-1.733.694-.044 1.474 0 2.124.216 3.553 1.214 5.936 3.597 7.02 7.107.476 1.56.303 3.207-.347 4.723-.347.78-.693 1.56-1.083 2.47.433.044.78.13 1.17.13 1.733 0 3.423.174 5.113.434 1.17.173 1.733.866 1.993 1.906.174.65-.043.91-.736.954-.607.043-1.17.043-1.777.086-2.253.13-4.55.26-6.803.347-.52.043-.78.26-.954.693-.953 2.254-1.95 4.55-2.86 6.804-2.426 5.893-4.81 11.83-6.716 17.896-.39 1.17-.65 2.384-.867 3.64-.217 1.257.26 1.56 1.387.997.693-.347 1.43-.78 1.993-1.3 2.08-1.863 4.203-3.683 6.153-5.677 3.987-4.03 7.67-8.363 10.964-13 .26-.346.476-.693.65-1.083 1.17-2.817 2.34-5.633 3.466-8.45.174-.433.347-.91.477-1.387.26-.91.217-1.776-.13-2.686-.39-.91.087-1.69 1.127-1.777.563-.043 1.126-.043 1.646.13 3.77 1.127 6.197 3.553 7.367 7.193.087.304.173.607.303 1.084.304-.347.564-.564.78-.78 1.647-1.69 3.25-3.424 4.984-5.07 1.126-1.084 2.426-1.907 3.813-2.6 1.127-.564 2.08-.477 2.99.346.953.824 1.82 1.734 2.513 2.817.824 1.3.954 2.643.26 4.073a26.363 26.363 0 0 1-3.51 5.244c-1.95 2.296-3.986 4.506-5.98 6.76-.086.13-.216.216-.346.303-.564-.433-.65-1.04-.78-1.603-.347-1.734-.217-3.467.086-5.157.26-1.387.694-2.773.997-4.16.043-.217.087-.39.173-.65-.476 0-.65.347-.866.563-1.994 1.994-3.77 4.204-5.417 6.5-3.9 5.417-6.89 11.31-9.057 17.594-.39 1.17-.736 2.34-.65 3.553.044.433.087.91.217 1.343.26.867-.043 1.604-.91 1.994-.823.346-1.647.13-2.47-.087-.52-.13-1.04-.39-1.517-.65-3.553-2.037-5.416-5.807-4.81-9.793v-.607c-.39.347-.606.52-.866.78-2.557 2.557-5.244 4.94-8.19 7.02-1.474 1.04-2.947 1.993-4.637 2.687-.65.26-1.343.476-2.037.65-1.863.433-3.553-.13-5.07-1.04-1.386-.824-2.643-1.777-3.943-2.774-1.343-1.04-1.82-2.513-1.907-4.116-.043-.65.044-1.257.087-1.907 0-.217 0-.477-.13-.78-.26.217-.52.477-.78.693-2.773 2.774-5.807 5.244-9.23 7.194-2.037 1.17-4.203 2.08-6.587 2.426-1.69.26-3.38.217-4.896-.606-1.3-.694-2.6-1.43-3.814-2.297-1.17-.823-2.253-1.82-3.38-2.687-1.43-1.083-2.296-2.513-2.86-4.203-.086-.303-.216-.607-.346-1.083-.347.39-.607.606-.824.823-2.643 2.903-5.503 5.503-8.883 7.627-1.907 1.213-3.943 2.123-6.24 2.6-1.777.39-3.51.26-5.2-.52-1.647-.78-3.207-1.604-4.637-2.687-.736-.563-1.473-1.127-2.253-1.647-1.777-1.213-2.86-2.86-3.467-4.81-.086-.216-.13-.476-.216-.693 0-.043-.087-.087-.26-.173-.217.26-.477.52-.694.78-2.123 2.426-4.376 4.68-6.89 6.63-1.17.91-2.47 1.733-3.813 2.47-2.34 1.3-4.767 1.083-6.977-.304-1.386-.823-2.73-1.82-3.986-2.816-1.084-.824-1.604-1.994-1.777-3.294-.26-1.906.043-3.726.607-5.546.086-.304.173-.564.26-.867 0-.043-.044-.13-.044-.217-.39 0-.563.304-.78.52-4.636 4.247-9.88 7.67-15.643 10.27-3.25 1.474-6.673 2.514-10.227 2.947-3.64.433-7.28.173-10.79-.997-5.156-1.733-7.973-5.416-8.71-10.616-.303-2.124.174-4.16 1.17-6.067 1.864-3.683 4.55-6.717 7.8-9.317 4.03-3.25 8.407-5.936 13-8.32.824-.433 1.647-.866 2.47-1.256.174-.087.304-.174.607-.39-.347 0-.477-.044-.607-.044-1.56.26-3.076.217-4.636 0-1.344-.173-2.514-.78-3.51-1.603-2.644-2.253-3.9-5.547-2.254-9.1 1.127-2.47 2.86-4.507 4.984-6.153 3.12-2.47 6.673-4.117 10.486-5.244 1.864-.52 3.814-.91 5.72-1.256 1.517-.26 2.99 0 4.334.736 1.3.694 2.426 1.604 3.423 2.644.173.173.347.346.607.563.173-.26.346-.433.52-.65.78-.953 1.56-1.863 2.34-2.817.346-.39.736-.563 1.256-.346 1.127.476 2.254.866 3.337 1.343.52.26.953.693 1.343 1.083.607.607.607 1.3.217 1.994-.173.303-.433.606-.65.91-2.947 4.073-5.937 8.146-8.883 12.263-.91 1.257-1.69 2.6-2.557 3.943-.39-.346-.477-.823-.607-1.256-.303-1.43-.26-2.904-.086-4.334.216-2.383.78-4.68 1.56-6.89.043-.13.086-.303.13-.433 0-.043 0-.13-.044-.303-.65.086-1.3.173-1.993.26-5.2.953-10.053 2.686-14.3 5.85a25.237 25.237 0 0 0-2.34 1.95c-.477.476-.91.996-1.257 1.603-.476.78-.303 1.257.434 1.777.78.563 1.69.736 2.643.736 2.08.044 4.16-.26 6.197-.78 1.256-.303 2.34-.13 3.336.65.694.52 1.344 1.084 1.95 1.69 1.387 1.517 2.427 3.294 3.294 5.157.346.737.476 1.56.476 2.383 0 .997-.476 1.647-1.386 2.08-2.037.954-4.074 1.95-6.067 3.034a83.842 83.842 0 0 0-14.257 9.793c-1.82 1.56-3.553 3.163-4.94 5.07a12.394 12.394 0 0 0-1.603 2.86c-.78 2.037.043 3.51 2.167 4.16 1.906.607 3.813.52 5.72.043 3.596-.91 6.976-2.383 10.183-4.203 8.19-4.723 15.167-10.79 20.93-18.157.26-.303.433-.65.563-1.04 3.727-9.056 7.41-18.113 11.137-27.17.347-.866.78-1.733.65-2.73-.087-.52-.173-.996-.303-1.516-.217-.78.043-1.43.823-1.69.39-.13.78-.174 1.17-.13a5.362 5.362 0 0 1 1.647.39c3.206 1.256 5.46 3.466 6.586 6.673.607 1.647.477 3.337-.216 4.983-.91 2.167-1.864 4.29-2.817 6.457-4.29 10.01-8.45 20.063-12.09 30.333-.65 1.864-1.17 3.77-1.69 5.677-.13.433-.13.91-.13 1.343 0 .65.303.824.91.564.477-.217.953-.477 1.343-.78a31.584 31.584 0 0 0 2.47-2.34c3.12-3.337 5.85-6.934 8.537-10.574.26-.346.39-.78.477-1.17 1.69-6.543 4.896-12.22 10.01-16.813 1.386-1.257 2.946-2.34 4.68-3.12a10.81 10.81 0 0 1 3.856-.997c1.344-.086 2.687.174 3.857.867 1.387.867 2.773 1.733 4.073 2.73 2.6 2.08 3.337 4.853 2.904 8.017a11.24 11.24 0 0 1-2.34 5.59c-3.207 4.16-7.237 7.15-12.524 8.363-.953.217-1.95.347-3.033.52m169.78-85.453c-.26.173-.563.346-.78.563a19.874 19.874 0 0 0-1.603 1.69c-6.197 7.583-11.7 15.643-15.99 24.397-.607 1.213-1.127 2.426-1.647 3.683-.52 1.213-1.387 1.647-2.73 1.343a4.965 4.965 0 0 1-2.253-1.213c-2.037-1.863-3.207-4.16-3.337-6.89 0-.173 0-.347-.043-.563 0-.044-.087-.087-.174-.217-.216.26-.476.477-.65.693-1.646 1.907-3.336 3.77-5.33 5.33a23.25 23.25 0 0 1-3.25 2.124c-1.646.91-3.38.91-5.113.216-2.08-.823-3.857-2.08-5.547-3.466-1.126-.954-1.646-2.254-1.776-3.684a2.57 2.57 0 0 0-.087-.606c0-.044-.043-.044-.13-.174-.217.26-.433.477-.65.694-1.647 2.036-3.423 3.9-5.59 5.46-1.343.953-2.687 1.863-4.377 2.21-1.343.303-2.686.26-3.9-.477-1.17-.693-2.296-1.473-3.38-2.253-.736-.52-1.386-1.17-2.08-1.69-1.82-1.43-2.556-3.38-2.686-5.59-.13-2.037.39-3.987.996-5.894 1.04-3.336 2.557-6.456 4.594-9.316 2.123-2.99 4.376-5.937 7.15-8.364a31.734 31.734 0 0 1 6.456-4.463c1.517-.78 3.164-1.257 4.897-1.213 1.127.043 2.167.26 3.12.866 1.95 1.214 3.64 2.644 4.897 4.55.736 1.04 1.213 2.21 1.3 3.467.086.953-.087 1.82-.954 2.427-.65.433-1.04.39-1.603-.174-.78-.823-1.777-1.126-2.86-.91-1.343.217-2.513.867-3.64 1.604-1.387.953-2.6 2.08-3.727 3.293-4.29 4.81-7.453 10.27-9.533 16.337a10.61 10.61 0 0 0-.477 2.6c-.043 1.213.78 1.733 1.907 1.126.823-.433 1.603-1.04 2.297-1.69 2.21-2.08 4.073-4.42 5.85-6.846 2.86-3.9 5.503-7.93 7.496-12.35.304-.65.867-.867 1.474-.91.433-.044.953-.044 1.386.13 3.25 1.126 5.46 3.163 6.24 6.543.26 1.083.044 2.08-.303 3.12-.953 2.773-1.95 5.547-2.86 8.363-.303.91-.477 1.864-.693 2.817a2.07 2.07 0 0 0 0 .737c.086.346.346.52.693.39.39-.174.823-.347 1.127-.65.823-.737 1.603-1.517 2.296-2.384 2.687-3.163 4.984-6.586 7.237-10.053 1.733-2.6 3.38-5.243 5.027-7.887.476-.78.91-1.603 1.256-2.426.954-2.21 1.82-4.464 2.73-6.674.52-1.3.694-2.556.087-3.856-.303-.694.26-1.474 1.127-1.647a6.567 6.567 0 0 1 1.3 0c3.943.65 7.756 4.897 8.06 8.06.13 1.3-.087 2.513-.477 3.77-.13.347-.217.65-.347.997.087.043.13.043.217.086.173-.26.39-.52.563-.78 2.6-3.596 5.504-6.89 8.884-9.793.693-.607 1.43-1.17 2.166-1.69.954-.693 2.037-.91 3.164-.52 3.206 1.127 5.546 3.163 6.846 6.283.477 1.17.434 2.34-.043 3.51a1503.452 1503.452 0 0 0-8.06 19.284c-.563 1.343-.91 2.773-1.3 4.16-.13.476-.13 1.04-.13 1.516.043.564.433.824.953.607a5.01 5.01 0 0 0 1.387-.867c.91-.91 1.863-1.82 2.6-2.86 2.167-2.946 4.29-5.893 6.327-8.883 2.253-3.38 4.376-6.847 6.543-10.27.217-.347.433-.65.65-.997.953.174 1.43.737 1.69 1.56.303.997.13 1.994-.26 2.947-.433.997-.867 1.993-1.387 2.99-3.12 5.98-6.89 11.527-11.873 16.207-.953.91-2.037 1.69-3.077 2.513-.346.303-.78.477-1.17.737-1.993 1.17-4.03 1.213-6.153.26-1.95-.867-3.64-2.124-5.243-3.424-.997-.823-1.43-1.993-1.56-3.206a11.233 11.233 0 0 1 .26-4.16c1.603-6.63 4.073-12.957 7.193-19.067.173-.303.26-.65.347-.953.173-.13.086-.174.043-.26M147.25 53.213c.217.13.434.304.65.434 2.557 1.863 5.46 2.86 8.624 3.163.78.087 1.603.043 2.426-.043.39-.044.78-.174 1.127-.347.65-.303.867-.737.563-1.43a12.36 12.36 0 0 0-1.04-1.82c-.823-1.257-1.733-2.427-2.6-3.683-1.516-2.124-2.903-4.29-3.856-6.717-.044-.173-.174-.303-.347-.52-.217.347-.39.607-.563.91-2.86 4.853-6.154 9.403-10.357 13.303-1.17 1.127-2.47 2.124-3.813 3.034-2.73 1.863-5.46 1.69-8.19-.087a63.064 63.064 0 0 1-3.467-2.47c-1.127-.823-1.69-1.993-1.863-3.337-.087-.823-.044-1.69-.044-2.556V49.79c-.39.347-.606.563-.866.823-2.6 2.6-5.374 4.984-8.407 7.064-1.387.953-2.86 1.82-4.42 2.513-2.383 1.04-4.68.78-6.847-.563-1.386-.824-2.643-1.777-3.943-2.774-1.343-1.04-1.777-2.513-1.863-4.116-.087-1.56.216-3.077.65-4.55 1.256-4.204 2.903-8.277 4.506-12.307.91-2.34 1.907-4.68 2.86-7.02.13-.26.174-.563.304-.91-.304-.043-.477-.043-.65-.043-.78.043-1.56.086-2.34.086-.91 0-1.127-.173-.997-1.083a7.28 7.28 0 0 1 .477-1.733c.476-.997 1.3-1.604 2.513-1.647.693-.043 1.387-.043 2.037-.043.606 0 .953-.217 1.17-.824 1.213-3.033 2.47-6.023 3.726-9.013.477-1.213.607-2.383.087-3.64-.39-.91.173-1.733 1.17-1.777a6.552 6.552 0 0 1 2.037.217c3.466 1.17 5.806 3.467 6.976 6.847.564 1.603.434 3.293-.216 4.896a28.465 28.465 0 0 1-.737 1.69c-.13.26-.217.564-.39.954.477.043.823.086 1.17.086 1.647 0 3.293.174 4.94.39 1.17.174 1.82.824 2.123 1.907.174.693-.043.997-.736 1.04-.607.043-1.257 0-1.864.043-2.253.13-4.55.26-6.803.347-.477.043-.65.303-.78.65-.693 1.647-1.43 3.293-2.123 4.94-2.644 6.327-5.2 12.653-7.324 19.153-.346 1.084-.606 2.167-.91 3.25-.086.39-.173.78-.216 1.17-.087 1.04.303 1.387 1.3.91.78-.39 1.56-.823 2.166-1.386 2.124-1.864 4.247-3.727 6.24-5.764a108.413 108.413 0 0 0 10.487-12.306c.217-.304.477-.65.65-.997l3.64-8.58c.173-.433.26-.867.433-1.3.304-.997.26-1.95-.13-2.947-.39-.953.044-1.69 1.084-1.82.563-.043 1.126-.043 1.646.087 3.684 1.127 6.24 3.467 7.497 7.02.65 1.82.347 3.64-.433 5.417-1.127 2.513-2.297 5.026-3.38 7.583a658.366 658.366 0 0 0-4.117 9.837c-.477 1.17-.737 2.426-1.04 3.683-.13.563-.217 1.213.477 1.517.606.303 1.126-.087 1.516-.434.737-.606 1.474-1.256 2.08-1.95 1.257-1.516 2.557-3.076 3.684-4.723 2.816-4.16 5.546-8.363 8.32-12.523.39-.607.563-1.17.52-1.864-.217-3.683.866-6.933 3.423-9.706 1.993-2.167 4.333-3.727 7.323-4.247 2.47-.433 4.854-.303 7.064.91.866.477 1.733.91 2.686 1.43.217-.347.434-.65.65-.91.91-1.257 1.994-1.56 3.38-.91 1.43.693 2.557 1.733 3.424 3.033.693 1.04.866 2.21.26 3.38-.39.78-.78 1.517-1.3 2.21-1.3 1.734-2.644 3.424-4.03 5.157-1.214 1.517-2.34 3.077-3.12 4.853-.044.13-.174.26-.26.39-.824-.043-1.3-.476-1.604-1.083-.476-.867-.65-1.777-.65-2.73-.043-2.47.39-4.897 1.04-7.28.087-.39.174-.737.304-1.213-.304.043-.52.043-.737.086-.217.087-.477.174-.693.26-2.254 1.17-4.507 5.157-4.074 7.8.434 2.384 1.257 4.594 2.47 6.717.997 1.777 1.994 3.553 2.947 5.373.65 1.257 1.127 2.557 1.04 3.987-.13 2.6-1.257 4.637-3.553 6.067-1.82 1.083-3.857 1.646-5.98 1.863-3.38.347-6.63-.13-9.837-1.127-1.17-.39-2.34-.866-3.293-1.69-.52-.433-1.04-.953-1.43-1.516-.694-1.04-.564-2.124.346-3.164m105.604 56.377c-.304.39-.52.693-.737.997-3.25 4.68-7.02 8.926-11.613 12.35-2.34 1.733-4.854 3.293-7.67 4.29-1.474.52-2.99.823-4.55.866-1.127 0-2.21-.173-3.164-.693-1.343-.737-2.73-1.473-3.986-2.383-1.3-.91-2.514-1.994-3.77-2.99-.997-.824-1.647-1.864-2.167-3.034-.13-.26-.217-.563-.347-.866-.433.043-.563.39-.78.606-1.733 2.124-3.553 4.16-5.633 5.937-1.083.91-2.21 1.777-3.423 2.557-2.47 1.603-5.027 1.386-7.454-.13-1.343-.824-2.6-1.777-3.856-2.73-1.387-1.084-1.864-2.6-1.907-4.29-.087-1.517.26-2.947.65-4.377.867-3.25 2.21-6.283 3.51-9.403 1.473-3.51 3.033-7.064 4.507-10.574.303-.65.476-1.386.693-2.08a3.275 3.275 0 0 0-.13-2.556c-.26-.564-.347-1.04.087-1.517a1.942 1.942 0 0 1 1.69-.563 9.191 9.191 0 0 1 3.943 1.56c1.17.78 2.167 1.733 2.99 2.86 1.95 2.6 2.297 5.373.997 8.32a1555.151 1555.151 0 0 0-5.547 12.61c-.953 2.21-1.733 4.463-2.6 6.716-.217.564-.303 1.17-.39 1.777-.043.303 0 .65.087.997.13.476.563.693 1.04.52.39-.13.823-.347 1.126-.607.694-.607 1.387-1.213 1.95-1.95 1.69-2.167 3.337-4.377 4.984-6.587.433-.563.78-1.17 1.213-1.733 1.17-1.603 1.993-3.337 2.557-5.287 1.646-5.546 4.593-10.4 8.84-14.473 1.733-1.69 3.683-3.077 5.893-4.117 1.473-.693 2.99-1.17 4.637-1.17 1.473 0 2.816.39 4.073 1.127a26.883 26.883 0 0 1 5.937 5.113c.563.65.996 1.387 1.43 2.124.65 1.213.65 2.47.043 3.683-.303.563-.607 1.127-.997 1.647a136.181 136.181 0 0 1-2.946 3.986c-1.17 1.517-2.254 3.034-3.077 4.767-.043.13-.173.26-.26.39-.997-.13-1.56-.693-1.863-1.56-.434-1.17-.477-2.383-.26-3.597.39-2.6 1.04-5.156 2.036-7.626.087-.217.174-.434.26-.737-.476-.13-.736.173-1.04.347-2.253 1.386-4.116 3.12-5.763 5.156-2.643 3.25-4.507 6.89-5.763 10.834-.564 1.776-1.084 3.553-1.257 5.416-.13 1.43.087 2.73 1.3 3.684 1.127.91 2.427.996 3.727.65 1.17-.304 2.296-.78 3.38-1.3 2.556-1.257 4.766-2.99 6.846-4.854a70.734 70.734 0 0 0 10.79-12.003c.434-.607.564-1.17.477-1.863-.607-5.85 1.69-10.444 6.803-13.477 3.597-2.123 7.454-2.383 11.267-.39.78.39 1.517.823 2.34 1.257.26-.347.433-.694.65-.954.867-1.213 1.993-1.516 3.38-.866 1.387.65 2.513 1.69 3.337 2.946.737 1.127.823 2.34.26 3.554-.304.693-.737 1.343-1.17 1.95-.737 1.04-1.56 2.036-2.34 3.076-.91 1.17-1.907 2.34-2.774 3.554-.866 1.213-1.603 2.513-2.426 3.856-.607 0-1.17-.346-1.43-.953-.304-.65-.564-1.343-.65-2.08-.26-2.643.216-5.243.866-7.843.13-.477.217-.91.347-1.56-.477.13-.823.173-1.127.346-.433.217-.823.434-1.17.737-2.556 2.383-3.856 5.2-2.903 8.667.52 1.863 1.257 3.683 2.253 5.373.997 1.733 1.95 3.467 2.86 5.2.954 1.777 1.3 3.64.824 5.633-.434 1.734-1.344 3.12-2.817 4.117-1.777 1.257-3.813 1.907-5.98 2.167-3.51.433-6.933 0-10.313-1.084-1.517-.476-2.947-1.17-4.074-2.34-.736-.736-1.213-1.56-1.083-2.6.043-.563.26-1.04.693-1.516.174.13.39.216.52.346 2.947 2.167 6.327 3.207 9.967 3.38.737.044 1.56-.173 2.253-.433.78-.26.997-.78.65-1.517-.303-.693-.736-1.343-1.17-1.95-.996-1.473-2.036-2.903-3.076-4.333-1.3-1.82-2.427-3.727-3.207-5.85 0-.13-.13-.303-.303-.65M34.107 37.657c2.123.39 12.393.476 13.997.13 1.863-8.45 3.726-16.9 5.633-25.437-.173.043-.26.043-.26.087-5.937 8.623-12.307 16.986-19.24 24.916-.043.044-.087.13-.13.304m-8.147 3.25c-.823-.13-1.386-.26-1.993-.39-1.083-.217-2.123-.477-2.947-1.214-.78-.693-1.083-1.516-.606-2.643.866.087 1.733.13 2.6.217 1.69.173 3.423.303 5.113.476.737.087 1.127-.216 1.56-.736 4.897-5.677 9.707-11.484 14.3-17.377 4.68-5.98 9.187-12.09 13.52-18.33l.65-.91c1.647.26 2.99.91 4.16 1.95 1.863 1.69 2.73 3.77 2.903 6.197.13 2.21-.216 4.376-.65 6.5-1.776 8.536-3.64 17.073-5.373 25.61-.91 4.376-1.69 8.753-2.47 13.13-.217 1.17-.303 2.426-.347 3.64-.043.736.044 1.473.13 2.166.13.867-.216 1.474-1.126 1.647-1.04.173-2.037.043-3.034-.26-2.6-.823-4.636-2.427-6.066-4.723-.954-1.56-1.17-3.25-.824-4.984.52-2.73 1.127-5.46 1.647-8.19.043-.216.043-.39.087-.693-.304-.043-.607-.043-.867-.043-2.817-.044-5.677-.087-8.493-.174-2.167-.086-4.334-.26-6.5-.433-.564-.043-.867.173-1.17.563-2.254 2.427-4.464 4.897-6.76 7.28-2.6 2.73-5.244 5.33-8.234 7.67-1.473 1.17-3.033 2.21-4.636 3.207a6.372 6.372 0 0 1-2.34.867c-1.474.303-2.167-.26-2.384-1.82.564-.26 1.17-.434 1.69-.737 1.3-.867 2.644-1.69 3.857-2.687 3.467-2.816 6.587-6.023 9.663-9.23 1.474-1.516 2.86-3.12 4.29-4.68.174-.216.347-.476.65-.866m62.92 0c-.78-.997-.866-2.08-.91-3.164-.086-2.556.434-4.983 1.17-7.41.087-.346.217-.65.304-.996-.087-.044-.13-.087-.217-.087-.26.26-.52.477-.78.737-3.51 3.553-6.283 7.583-8.84 11.786-2.297 3.857-4.03 7.974-5.547 12.177-.39 1.083-.736 2.21-.65 3.38 0 .433.087.91.217 1.343.39 1.214-.26 2.167-1.56 2.254-.867.043-1.69-.13-2.47-.434-3.9-1.56-6.413-6.153-5.633-10.183.476-2.427 1.3-4.723 2.21-7.02 1.82-4.593 3.726-9.1 5.59-13.693.476-1.17.91-2.297 1.343-3.467a3.863 3.863 0 0 0-.087-2.947c-.39-.91.087-1.69 1.127-1.776.52-.044 1.083-.044 1.56.13 3.813 1.083 6.283 3.553 7.453 7.236.087.304.174.607.304 1.084.303-.347.563-.564.78-.78 1.646-1.907 3.336-3.77 5.286-5.374 1.127-.953 2.34-1.776 3.727-2.383.91-.39 1.733-.347 2.513.303 1.17.91 2.167 1.994 2.904 3.294.65 1.126.736 2.296.173 3.51-.78 1.733-1.82 3.293-3.077 4.766-2.166 2.557-4.376 5.027-6.586 7.54 0-.043-.087 0-.304.174M141.4 9.143c.174-2.686.824-5.243 2.124-7.67.433-.78.996-1.213 1.95-1.04 1.083.174 2.253.217 3.293.52 3.423.997 5.287 4.204 4.507 7.627-.39 1.647-1.127 3.163-2.427 4.333-1.603 1.474-3.553 1.95-5.72 1.474-2.253-.52-3.64-2.254-3.77-4.507.043-.26.043-.52.043-.737m67.47 67.47c.087-2.686.78-5.2 2.037-7.583.433-.823.997-1.3 1.993-1.127 1.127.174 2.297.217 3.38.564 3.294.996 5.114 4.073 4.464 7.41-.347 1.69-1.084 3.25-2.384 4.42-1.646 1.516-3.64 2.036-5.85 1.516-2.123-.52-3.466-2.123-3.64-4.203v-.997M13.648 158.662l3.659-18.406h5.432c.881 0 1.688.08 2.42.239.732.16 1.365.423 1.9.788.534.366.952.835 1.252 1.408.3.572.45 1.261.45 2.068 0 .863-.126 1.637-.38 2.322a5.905 5.905 0 0 1-1.055 1.815c-.45.526-.98.967-1.59 1.323a7.776 7.776 0 0 1-2.012.816l3.039 7.627h-3.236l-2.674-7.261h-2.73l-1.435 7.261h-3.04Zm4.982-9.681h2.336c1.576 0 2.767-.343 3.574-1.027.807-.685 1.21-1.609 1.21-2.773 0-.9-.305-1.543-.915-1.927-.609-.385-1.505-.577-2.687-.577H19.84l-1.21 6.304ZM30.422 158.662l3.659-18.406h10.554l-.507 2.561h-7.543l-.985 4.954h6.389l-.507 2.561h-6.36l-1.182 5.769h7.768l-.507 2.561H30.422ZM46.999 158.662l.45-18.406h3.096l-.422 9.457c-.075.994-.141 1.984-.197 2.969a86.55 86.55 0 0 1-.226 2.997h.113c.413-1.013.835-2.017 1.266-3.011.432-.995.845-1.98 1.239-2.955l4.193-9.457h2.618l.168 9.457c0 1.988-.028 3.977-.084 5.966h.113a140.55 140.55 0 0 1 1.097-3.011c.375-.995.741-1.98 1.098-2.955l3.546-9.457h2.927l-7.374 18.406h-3.827l-.057-10.019c0-.638.019-1.337.057-2.097.037-.76.075-1.496.112-2.209h-.112a77.59 77.59 0 0 1-.831 2.153c-.29.722-.586 1.44-.886 2.153l-4.306 10.019h-3.771ZM73.116 148.39l-1.379 2.786h4.7l-.197-2.786c-.056-.957-.117-1.895-.183-2.815a85.083 85.083 0 0 1-.155-2.898h-.112a274.657 274.657 0 0 1-1.309 2.898c-.422.92-.877 1.858-1.365 2.815Zm-8.415 10.272 9.85-18.406h3.603l1.97 18.406h-3.152l-.366-5.178h-5.995l-2.561 5.178h-3.349ZM82.685 158.662l3.659-18.406h5.431c.882 0 1.689.08 2.421.239.732.16 1.365.423 1.9.788.534.366.952.835 1.252 1.408.3.572.45 1.261.45 2.068 0 .863-.126 1.637-.38 2.322a5.905 5.905 0 0 1-1.055 1.815c-.45.526-.98.967-1.59 1.323a7.776 7.776 0 0 1-2.012.816l3.039 7.627h-3.236l-2.674-7.261h-2.73l-1.435 7.261h-3.04Zm4.981-9.681h2.336c1.576 0 2.768-.343 3.575-1.027.806-.685 1.21-1.609 1.21-2.773 0-.9-.305-1.543-.915-1.927-.61-.385-1.505-.577-2.688-.577h-2.307l-1.211 6.304ZM99.459 158.662l3.658-18.406h3.744c2.57 0 4.54.615 5.91 1.844 1.369 1.229 2.054 3.016 2.054 5.361 0 1.745-.239 3.312-.717 4.7-.479 1.388-1.154 2.561-2.027 3.518a8.83 8.83 0 0 1-3.152 2.209c-1.229.516-2.603.774-4.123.774h-5.347Zm3.518-2.448h1.773c1.032 0 1.975-.193 2.828-.577a6.212 6.212 0 0 0 2.21-1.675c.619-.731 1.097-1.627 1.435-2.687.338-1.061.506-2.266.506-3.617 0-1.651-.431-2.889-1.294-3.715-.863-.826-2.083-1.238-3.659-1.238h-1.126l-2.673 13.509ZM122.706 159a7.838 7.838 0 0 1-3.476-.788c-1.079-.525-2.041-1.379-2.885-2.561l2.195-1.689a6.383 6.383 0 0 0 1.942 1.787 4.801 4.801 0 0 0 2.477.662c.957 0 1.745-.249 2.364-.746.619-.497.929-1.177.929-2.04 0-.582-.202-1.065-.605-1.45-.404-.385-.943-.783-1.619-1.196l-1.942-1.182a6.967 6.967 0 0 1-1.998-1.787c-.525-.704-.788-1.6-.788-2.688 0-.732.155-1.426.465-2.083a5.407 5.407 0 0 1 1.294-1.73 6.115 6.115 0 0 1 1.942-1.168 6.709 6.709 0 0 1 2.406-.423c1.107 0 2.121.249 3.04.746a7.808 7.808 0 0 1 2.364 1.956l-1.942 1.773a6.893 6.893 0 0 0-1.59-1.322c-.591-.357-1.271-.535-2.04-.535-.901 0-1.595.253-2.083.76-.488.506-.732 1.079-.732 1.717 0 .6.211 1.083.633 1.449.423.366.99.764 1.703 1.196l1.97 1.182c.901.525 1.572 1.116 2.012 1.773.441.657.662 1.52.662 2.589 0 .826-.16 1.59-.479 2.294a5.467 5.467 0 0 1-1.365 1.844c-.591.525-1.299.933-2.124 1.224-.826.291-1.736.436-2.73.436ZM138.213 158.662l3.659-18.406h5.516c.882 0 1.693.085 2.434.253.741.169 1.379.446 1.914.831.535.384.952.872 1.252 1.463.301.591.451 1.309.451 2.153 0 1.201-.211 2.233-.634 3.096a5.649 5.649 0 0 1-1.744 2.111c-.742.544-1.619.947-2.632 1.21a12.956 12.956 0 0 1-3.265.394h-2.561l-1.351 6.895h-3.039Zm4.897-9.315h2.308c1.632 0 2.875-.333 3.729-.999.853-.667 1.28-1.656 1.28-2.97 0-.957-.309-1.646-.928-2.068-.62-.422-1.511-.633-2.674-.633h-2.42l-1.295 6.67ZM154.733 158.662l3.659-18.406h3.04l-3.153 15.845h7.346l-.507 2.561h-10.385ZM174.715 148.39l-1.379 2.786h4.7l-.197-2.786c-.056-.957-.117-1.895-.183-2.815a85.162 85.162 0 0 1-.154-2.898h-.113c-.45 1.013-.886 1.979-1.309 2.898-.422.92-.877 1.858-1.365 2.815Zm-8.415 10.272 9.851-18.406h3.602l1.97 18.406h-3.152l-.366-5.178h-5.994l-2.561 5.178h-3.35ZM185.663 158.662l3.153-15.817h-5.095l.507-2.589h13.228l-.507 2.589h-5.094l-3.152 15.817h-3.04ZM197.371 158.662l3.659-18.406h10.554l-.507 2.561h-7.542l-1.07 5.432h6.389l-.507 2.561h-6.36l-1.576 7.852h-3.04ZM218.789 159c-1.032 0-1.961-.178-2.786-.535a5.623 5.623 0 0 1-2.097-1.548c-.572-.675-1.009-1.491-1.309-2.448-.3-.957-.45-2.027-.45-3.209 0-1.519.239-2.964.717-4.334.479-1.369 1.131-2.575 1.956-3.616a9.523 9.523 0 0 1 2.913-2.477 7.372 7.372 0 0 1 3.589-.915c1.032 0 1.96.179 2.786.535a5.66 5.66 0 0 1 2.097 1.548c.572.676 1.008 1.492 1.308 2.449.301.957.451 2.026.451 3.208 0 1.52-.235 2.965-.704 4.334-.469 1.37-1.116 2.575-1.942 3.617a9.497 9.497 0 0 1-2.913 2.476 7.422 7.422 0 0 1-3.616.915Zm.169-2.617c.806 0 1.571-.244 2.293-.732a7.048 7.048 0 0 0 1.886-1.914c.535-.788.957-1.693 1.266-2.716.31-1.022.465-2.068.465-3.138 0-1.651-.31-2.955-.929-3.912-.619-.957-1.548-1.435-2.786-1.435-.826 0-1.595.244-2.308.732-.713.487-1.332 1.125-1.857 1.913-.526.788-.943 1.694-1.253 2.716a10.795 10.795 0 0 0-.464 3.138c0 1.651.305 2.955.914 3.912.61.957 1.534 1.436 2.773 1.436ZM230.187 158.662l3.659-18.406h5.431c.882 0 1.689.08 2.421.239.732.16 1.365.423 1.9.788.534.366.952.835 1.252 1.408.3.572.45 1.261.45 2.068 0 .863-.126 1.637-.38 2.322a5.905 5.905 0 0 1-1.055 1.815c-.45.526-.98.967-1.59 1.323a7.776 7.776 0 0 1-2.012.816l3.039 7.627h-3.236l-2.674-7.261h-2.73l-1.435 7.261h-3.04Zm4.981-9.681h2.336c1.576 0 2.768-.343 3.575-1.027.806-.685 1.21-1.609 1.21-2.773 0-.9-.305-1.543-.915-1.927-.61-.385-1.506-.577-2.688-.577h-2.307l-1.211 6.304ZM246.961 158.662l3.658-18.406h3.378l1.463 9.203.535 3.546h.113l1.829-3.546 5.066-9.203h3.349l-3.687 18.406h-2.871l1.83-8.837c.094-.431.201-.896.323-1.393a128.047 128.047 0 0 1 .774-2.997c.132-.488.263-.948.394-1.379h-.084l-2.252 4.165-4.869 8.64h-1.407l-1.519-8.64-.591-4.165h-.113c-.094.863-.202 1.824-.324 2.884a37.31 37.31 0 0 1-.436 2.885l-1.773 8.837h-2.786Z"/>
  </g>
</svg>
