<svg xmlns="http://www.w3.org/2000/svg" xml:space="preserve" fill-rule="evenodd" viewBox="0 0 211 69" width="211" height="69">
  <path fill="none" d="M0 0h211v69H0z"/>
  <clipPath id="a">
    <path d="M0 0h211v69H0z"/>
  </clipPath>
  <g clip-path="url(#a)">
    <ellipse cx="33.387" cy="63.24" fill-opacity=".5" rx="32.274" ry="5.76"/>
    <circle cx="33.387" cy="33.387" r="33.387" fill="#fff"/>
    <path fill-opacity=".2" d="M10.133 9.445C16.146 3.599 24.351 0 33.397 0 51.83 0 66.774 14.946 66.774 33.383c0 13.209-7.672 24.627-18.801 30.038-13.402 6.528-30.017 3.43-40.083-8.475-11.407-13.492-10.261-33.4 2.243-45.501Zm45.139 46.72c-.671.146-1.298.161-1.834-.013l.003-.006c-1.622-.534-4.329 1.701-4.779 2.546a.704.704 0 0 1-1.195.098c-1.391-1.391-4.843-.167-5.607 1.118a.944.944 0 0 1-1.568.037c-1.142-1.83-4.707-.993-5.881-.017a1.378 1.378 0 0 1-1.943-.15c-.037-.047-.075-.093-.107-.142-.949-1.524-3.593-2.049-5.284-1.336-.554.231-2.006.387-2.545-.272a4.83 4.83 0 0 0-2.979-1.503c-1.351-.24-1.668-.843-1.567-1.779a4.206 4.206 0 0 0-3.411-4.231 2.099 2.099 0 0 1-1.663-2.54c.696-2.136-1.685-4.766-3.405-4.907-.921-.075-1.738-1.663-1.204-2.904.843-1.966-.69-5.132-2.049-5.62a1.976 1.976 0 0 1-.952-2.91c1.065-1.74 1.076-4.156-.038-5.274-.964-.964-1.428-1.446-1.05-2.6a4.496 4.496 0 0 0 .317-3.04 3.904 3.904 0 0 1 .779-2.762c3.966-4.209 1.516-3.735 2.731-5.776.036-.06.071-.121.105-.182 5.771-6.275 14.05-10.207 23.248-10.207 17.443 0 31.585 14.141 31.585 31.587 0 8.953-3.724 17.037-9.707 22.785Zm-13.095-3.116c-2.196.153-4.078 1.928-3.818 3.579a.308.308 0 0 0 .355.257.3.3 0 0 0 .153-.069 4.883 4.883 0 0 1 2.77-1.131 3.225 3.225 0 0 1 2.728.955.303.303 0 0 0 .257.107.305.305 0 0 0 .239-.145c1.143-1.806-.19-3.735-2.684-3.553Zm-13.562 1.215c-.095-1.509-1.847-2.987-3.832-3.131-1.894-.139-3.253.981-3.08 2.462a.313.313 0 0 0 .384.265 3.93 3.93 0 0 1 1.247-.095 4.657 4.657 0 0 1 3.734 2.309c.038.075.104.13.185.153a.3.3 0 0 0 .24-.023 2 2 0 0 0 1.131-1.945l-.009.005Zm4.999-2.814c-2.095 0-3.711 1.36-3.613 2.866v.067a.308.308 0 0 0 .453.239 4.56 4.56 0 0 1 2.159-.522 4.005 4.005 0 0 1 3.42 1.663c.049.08.135.132.228.144a.314.314 0 0 0 .254-.09c.412-.398.663-.932.707-1.504.098-1.506-1.518-2.869-3.614-2.866l.006.003Zm19.98 2.976a.312.312 0 0 0 .416.139.315.315 0 0 0 .127-.119 5.15 5.15 0 0 1 2.635-2.289c.297-.098.615-.107.915-.023a.315.315 0 0 0 .389-.205c.024-.078.044-.153.061-.231.329-1.423-.297-2.372-1.567-2.014a5.142 5.142 0 0 0-3.054 3.426c-.129.436-.103.906.073 1.325l.005-.009Zm-3.57-1.893a2.347 2.347 0 0 1 1.821.349.302.302 0 0 0 .266.052.313.313 0 0 0 .205-.179 1.883 1.883 0 0 0-2.168-2.794 4.656 4.656 0 0 0-3.639 3.325c-.058.3-.049.612.029.906a.307.307 0 0 0 .234.22.306.306 0 0 0 .303-.107 5.045 5.045 0 0 1 2.946-1.775l.003.003Zm-26.601-5.486a4.303 4.303 0 0 0-3.841-3.841 2.783 2.783 0 0 0-2.635 1.267.513.513 0 0 0 .473.783 4.51 4.51 0 0 1 4.488 4.023.32.32 0 0 0 .185.26.315.315 0 0 0 .317-.04 2.814 2.814 0 0 0 1.013-2.452Zm5.155-3.451a3.609 3.609 0 0 0-3.44 2.032.309.309 0 0 0 .409.41 4.058 4.058 0 0 1 1.787-.361 4.31 4.31 0 0 1 4.15 3.34.311.311 0 0 0 .551.127 2.695 2.695 0 0 0 .549-1.807 3.991 3.991 0 0 0-4.006-3.741Zm9.533.548a4.14 4.14 0 0 0-3.801 2.621.31.31 0 0 0 .482.355 4.433 4.433 0 0 1 2.574-.892 3.765 3.765 0 0 1 3.688 2.37.311.311 0 0 0 .586-.006 3.348 3.348 0 0 0-3.527-4.442l-.002-.006Zm16.583.338a1.864 1.864 0 0 1 1.72.624.226.226 0 0 0 .318.023.227.227 0 0 0 .077-.162c.061-1.541-.808-2.667-2.213-2.494a4.361 4.361 0 0 0-3.235 3.796 3.55 3.55 0 0 0-.021.583.225.225 0 0 0 .234.213.22.22 0 0 0 .191-.127 4.224 4.224 0 0 1 2.929-2.456Zm-7.59-1.279a4.335 4.335 0 0 0-3.773 3.346.311.311 0 0 0 .243.366.305.305 0 0 0 .294-.101 4.358 4.358 0 0 1 2.947-1.556 2.894 2.894 0 0 1 2.866 1.53c.058.11.19.153.303.096a.234.234 0 0 0 .118-.156 2.813 2.813 0 0 0-2.998-3.525Zm13.824.26c.15-.037.309-.04.462-.006a.412.412 0 0 0 .496-.311c.009-.044.012-.087.009-.13-.096-1.028-.578-1.666-1.345-1.496-.99.22-2.121 1.874-2.341 3.603a3.78 3.78 0 0 0 .023 1.224.224.224 0 0 0 .263.176.228.228 0 0 0 .17-.156 4.168 4.168 0 0 1 2.26-2.907l.003.003Zm-44.584-8.205-1.377-.423a2.627 2.627 0 0 0-1.645.569.517.517 0 0 0 .225.912 4.228 4.228 0 0 1 3.085 4.125 4.5 4.5 0 0 1-.066.906.362.362 0 0 0 .586.344 3.62 3.62 0 0 0 1.232-2.947 3.837 3.837 0 0 0-2.04-3.486Zm7.379-1.193a3.613 3.613 0 0 0-2.334.842.361.361 0 0 0 .285.635c.185-.025.373-.04.557-.04a4.337 4.337 0 0 1 4.182 4.344v.26a.36.36 0 0 0 .344.378.356.356 0 0 0 .32-.164c.424-.65.641-1.412.629-2.185a4.099 4.099 0 0 0-3.977-4.07h-.006Zm9.668.016h-.067a4.08 4.08 0 0 0-2.729 1.057.362.362 0 0 0 .361.609 4.33 4.33 0 0 1 1.3-.23h.089a4.296 4.296 0 0 1 4.265 3.899.29.29 0 0 0 .32.263.295.295 0 0 0 .248-.191 4.069 4.069 0 0 0-3.787-5.407Zm17.993 3.28a2.865 2.865 0 0 1 2.441 1.397.257.257 0 0 0 .468-.185 2.987 2.987 0 0 0-2.849-2.644 3.572 3.572 0 0 0-3.154 2.532.288.288 0 0 0 .132.352c.125.072.28.04.37-.072a3.372 3.372 0 0 1 2.592-1.383v.003Zm-8.924-1.865a3.822 3.822 0 0 1 3.59 2.509c.061.161.24.242.398.184a.31.31 0 0 0 .202-.291 3.713 3.713 0 0 0-3.587-3.836h-.104a3.971 3.971 0 0 0-3.244 1.758.312.312 0 0 0 .436.433 3.963 3.963 0 0 1 2.303-.751l.006-.006Zm20.759-.21h.012a.382.382 0 0 0 .309-.153.382.382 0 0 0 .055-.341c-.185-.569-.482-.927-.866-.927-.722 0-1.504 1.447-1.567 3.222-.009.205-.006.413.005.617.009.13.113.234.24.24a.252.252 0 0 0 .268-.205c.26-1.411.921-2.456 1.544-2.456v.003Zm-4.993-.731c.263 0 .523.064.754.191a.39.39 0 0 0 .531-.523 1.776 1.776 0 0 0-1.559-1.097c-1.241 0-2.462 1.628-2.531 3.614v.026a.221.221 0 0 0 .433.081c.465-1.342 1.411-2.289 2.372-2.289v-.003Zm-45.149-9.121a2.48 2.48 0 0 0-1.028.381.36.36 0 0 0 .052.635 3.483 3.483 0 0 1 1.746 3.432 5 5 0 0 1-.453 1.928.36.36 0 0 0 .176.479.366.366 0 0 0 .329-.011 4.146 4.146 0 0 0 1.905-3.47c.072-2.066-1.221-3.559-2.724-3.374h-.003Zm6.421-.632a3.32 3.32 0 0 0-.964.205.337.337 0 0 0 .055.649 3.744 3.744 0 0 1 2.906 3.914 4.498 4.498 0 0 1-.291 1.527c-.066.173.02.37.193.436a.336.336 0 0 0 .358-.075 4.247 4.247 0 0 0 1.27-2.944 3.444 3.444 0 0 0-3.53-3.709l.003-.003Zm43.006 6.105c.031.098.135.15.233.118a.18.18 0 0 0 .127-.162c-.052-1.469.306-2.618.777-2.753a.26.26 0 0 0 .176-.321.064.064 0 0 0-.012-.029 1.09 1.09 0 0 0-.482-.603c-.522-.225-1.024.912-.964 2.569.012.396.058.791.133 1.181h.012ZM28.54 24.461a4.043 4.043 0 0 0-1.345.257.27.27 0 0 0 .101.523 4.148 4.148 0 0 1 4.217 4.078l-.052.785a.323.323 0 0 0 .603.202 4.015 4.015 0 0 0 .482-1.913 3.915 3.915 0 0 0-3.893-3.938h-.116l.003.006ZM9.911 18.296a1.892 1.892 0 0 0-.24.083.573.573 0 0 0-.251.863c.393.635.537 1.392.404 2.125a5.573 5.573 0 0 1-1.062 2.606.36.36 0 0 0 .349.572c1.25-.205 2.592-1.914 2.811-3.715.22-1.801-.744-2.892-2.011-2.54v.006Zm6.436-1.32a.31.31 0 0 0-.26.355.315.315 0 0 0 .15.223 2.781 2.781 0 0 1 1.229 2.771 4.695 4.695 0 0 1-1.102 2.557.31.31 0 0 0 .375.482 4.532 4.532 0 0 0 2.453-3.507 2.447 2.447 0 0 0-2.842-2.881h-.003Zm8.046-.868a.187.187 0 0 0-.176.202.191.191 0 0 0 .136.17 3.215 3.215 0 0 1 2.303 3.253 3.816 3.816 0 0 1-.462 1.686.362.362 0 0 0 .577.427 3.824 3.824 0 0 0 1.16-2.54 3.133 3.133 0 0 0-3.039-3.224l-.499.026Zm-9.657-5.081a.37.37 0 0 0-.28.563c.24.445.3.964.168 1.455a5.168 5.168 0 0 1-1.992 2.866.313.313 0 0 0-.066.436c.066.09.176.139.288.124.081-.008.162-.023.24-.04a4.911 4.911 0 0 0 3.391-3.389 1.517 1.517 0 0 0-1.749-2.009v-.006Zm8.142-1.033a.407.407 0 0 0-.482.603c.257.407.355.895.283 1.371a3.99 3.99 0 0 1-1.787 2.601.302.302 0 0 0-.078.416.297.297 0 0 0 .338.115 4.229 4.229 0 0 0 2.999-3.068 1.83 1.83 0 0 0-1.273-2.038Zm9.467.586-.771-.791-.416.092a.295.295 0 0 0 .009.335c.288.387.441.858.438 1.342a2.815 2.815 0 0 1-1.013 2.041.301.301 0 0 0-.008.425.302.302 0 0 0 .355.057 2.966 2.966 0 0 0 1.697-2.436 2.188 2.188 0 0 0-.291-1.065ZM20.442 5.725a.453.453 0 0 0-.514.381c-.003.029-.006.058-.003.086.006.142-.014.283-.057.419a4.347 4.347 0 0 1-2.211 2.136.407.407 0 0 0 .254.765 4.924 4.924 0 0 0 3.564-2.5c.222-.721-.222-1.172-1.033-1.29v.003Zm7.411-.586a.214.214 0 0 0-.271.136.218.218 0 0 0 .003.147c.061.158.081.332.061.502-.098.854-1.264 1.781-2.748 2.168a.246.246 0 0 0-.159.312.246.246 0 0 0 .225.17c.122 0 .234-.006.361-.018 1.824-.147 3.438-1.212 3.553-2.19.069-.581-.341-1.005-1.019-1.236l-.006.009Zm8.713 1.183a1.257 1.257 0 0 0-.404-.759.256.256 0 0 0-.366.006.261.261 0 0 0-.069.228c0 .023.008.046.008.072.093.794-.765 1.568-2.06 1.888a2.98 2.98 0 0 1-.352.049.217.217 0 0 0-.194.237c.012.109.101.19.211.193 1.899 0 3.339-.941 3.224-1.914h.002Zm-4.62-3.778a.216.216 0 0 0-.234.101 4.375 4.375 0 0 1-3.105 1.016 4.744 4.744 0 0 1-.462 0 .22.22 0 0 0-.219.185.213.213 0 0 0 .153.239 5.661 5.661 0 0 0 1.705.168c1.657-.058 3.013-.632 3.013-1.129 0-.265-.329-.459-.851-.583v.003Zm7.518.747a.723.723 0 0 0-.265-.294.385.385 0 0 0-.511.061 3.738 3.738 0 0 1-2.601.603.26.26 0 0 0-.274.242.261.261 0 0 0 .228.272c.286.043.572.069.86.078 1.657.06 2.791-.439 2.566-.964l-.003.002Z"/>
    <path fill="#fff" d="M199.517 60.892c-.017.516.081.93.294 1.242.214.311.508.534.881.668.374.133.802.2 1.282.2.837 0 1.518-.174 2.043-.521.526-.347.842-.797.949-1.349.089-.445.022-.801-.201-1.068-.222-.267-.561-.494-1.015-.681a21.952 21.952 0 0 0-1.589-.574 25.987 25.987 0 0 1-2.029-.681 7.676 7.676 0 0 1-1.83-.988 3.458 3.458 0 0 1-1.188-1.563c-.249-.641-.267-1.442-.054-2.403.232-1.175.73-2.172 1.496-2.991s1.709-1.438 2.831-1.856c1.122-.419 2.35-.628 3.685-.628 1.211 0 2.253.178 3.125.534.872.356 1.549.877 2.03 1.562.48.686.739 1.536.774 2.551l-4.406.748c0-.392-.103-.712-.307-.962a1.787 1.787 0 0 0-.788-.547 2.885 2.885 0 0 0-.988-.174c-.428 0-.833.071-1.216.214a2.812 2.812 0 0 0-.988.614 1.765 1.765 0 0 0-.521.935c-.071.392-.004.712.201.961.205.25.507.472.908.668.4.196.859.383 1.375.561a86.37 86.37 0 0 1 2.097.748 7.845 7.845 0 0 1 1.936 1.028c.57.418.988.952 1.255 1.602.267.65.303 1.465.107 2.444a6.203 6.203 0 0 1-1.322 2.831c-.686.837-1.594 1.504-2.724 2.003-1.131.498-2.488.748-4.073.748-1.335 0-2.493-.192-3.472-.575-.979-.382-1.736-.948-2.27-1.696-.534-.747-.801-1.664-.801-2.75l4.513-.855Zm-89.013-9.107h-9.374l-.694 3.499h6.997l-.721 3.632h-6.997l-.748 3.765h9.374l-.774 3.9H93.546l3.739-18.695h14.02l-.801 3.899Zm54.679 8.306h-2.36l-1.309 6.49h-4.647l3.739-18.695h8.599c1.532 0 2.756.28 3.673.841.916.561 1.535 1.304 1.856 2.23.32.926.374 1.932.16 3.018-.196.997-.632 1.967-1.309 2.911-.676.944-1.584 1.714-2.724 2.31a7.12 7.12 0 0 1-.96.414l2.83 6.971h-5.128l-2.42-6.49Zm-24.051 2.751-2.052 3.739h-4.807l10.549-18.695h7.371l3.072 18.695h-4.808l-.587-3.739h-8.738Zm-57.324-2.751h-2.361l-1.308 6.49h-4.647l3.739-18.695h8.599c1.532 0 2.756.28 3.673.841.916.561 1.535 1.304 1.856 2.23.32.926.374 1.932.16 3.018-.196.997-.632 1.967-1.309 2.911-.676.944-1.584 1.714-2.724 2.31a7.12 7.12 0 0 1-.96.414l2.83 6.971h-5.128l-2.42-6.49Zm102.49-12.205c1.994 0 3.65.392 4.967 1.175 1.318.783 2.243 1.878 2.778 3.285.534 1.406.614 3.036.24 4.887-.374 1.834-1.104 3.454-2.19 4.861a11.334 11.334 0 0 1-4.073 3.298c-1.629.792-3.449 1.189-5.461 1.189h-7.638l3.739-18.695h7.638Zm-66.82 18.695h-5.689l-1.068-18.695h5.047v13.22l5.849-13.22h5.181l.508 13.193 5.234-13.193h5.074l-8.492 18.695h-5.715l-.561-12.099-5.368 12.099Zm63.561-3.9c1.692 0 3.116-.489 4.273-1.468 1.158-.98 1.906-2.306 2.244-3.98.338-1.691.12-3.022-.654-3.992-.775-.971-2.008-1.456-3.699-1.456h-2.698l-2.163 10.896h2.697Zm-33.781-3.739h-5.986l3.927-7.157h.935l1.124 7.157Zm20.909-4.967c.089-.445.076-.832-.04-1.162-.116-.329-.343-.583-.681-.761-.339-.178-.784-.267-1.336-.267h-3.658l-.855 4.407h3.659c.819 0 1.473-.192 1.963-.574.489-.383.805-.931.948-1.643Zm-81.375 0c.089-.445.075-.832-.04-1.162-.116-.329-.343-.583-.681-.761-.339-.178-.784-.267-1.336-.267h-3.658l-.855 4.407h3.659c.819 0 1.473-.192 1.963-.574.489-.383.805-.931.948-1.643Zm15.699-36.334c-.378-1.161-1.003-2.012-1.873-2.554-.87-.542-1.974-.814-3.31-.814a7.54 7.54 0 0 0-3.841 1.041c-1.198.694-2.213 1.639-3.045 2.837a10.733 10.733 0 0 0-1.703 4.03c-.303 1.589-.277 2.976.076 4.162.353 1.185 1.009 2.106 1.967 2.762.959.655 2.207.983 3.746.983.883 0 1.721-.151 2.516-.454a8.555 8.555 0 0 0 2.232-1.267 10.992 10.992 0 0 0 1.873-1.873l.189-1.097h-6.356l1.059-5.146h12.41l-1.551 7.756c-.858 1.287-1.968 2.516-3.33 3.689s-2.938 2.132-4.729 2.876c-1.791.744-3.771 1.116-5.94 1.116-1.993 0-3.752-.328-5.278-.984-1.526-.656-2.768-1.589-3.727-2.8-.958-1.21-1.601-2.642-1.929-4.294-.328-1.652-.303-3.462.075-5.429.404-1.968 1.091-3.777 2.062-5.429a16.517 16.517 0 0 1 3.614-4.295 16.04 16.04 0 0 1 4.823-2.799c1.779-.656 3.664-.984 5.657-.984 1.967 0 3.72.303 5.259.908 1.538.605 2.787 1.469 3.745 2.592.959 1.122 1.564 2.465 1.816 4.029l-6.507 1.438Zm18.766 18.047c-1.867 0-3.557-.328-5.07-.984-1.513-.656-2.775-1.583-3.784-2.781-1.008-1.198-1.702-2.623-2.08-4.275-.379-1.652-.379-3.475 0-5.467.403-1.993 1.122-3.815 2.156-5.467a17.075 17.075 0 0 1 3.784-4.276 17.302 17.302 0 0 1 4.899-2.78 15.68 15.68 0 0 1 5.467-.984c1.917 0 3.632.328 5.146.984 1.513.655 2.774 1.582 3.783 2.78 1.009 1.199 1.696 2.624 2.062 4.276.366 1.652.347 3.474-.057 5.467-.378 1.992-1.084 3.815-2.118 5.467a17.093 17.093 0 0 1-3.784 4.275 17.329 17.329 0 0 1-4.899 2.781 15.79 15.79 0 0 1-5.505.984Zm28.678-26.749-4.199 20.96h11.539l-1.097 5.524h-18.123l5.297-26.484h6.583Zm14.302 0H186.1l-1.135 5.524h-13.28l-.984 4.956h9.913l-1.022 5.145h-9.913l-2.156 10.859h-6.583l5.297-26.484ZM124.392 30.05c1.387 0 2.667-.34 3.84-1.021 1.173-.681 2.163-1.614 2.97-2.8.807-1.185 1.362-2.535 1.665-4.048.302-1.539.283-2.894-.057-4.067-.341-1.173-.959-2.1-1.854-2.781-.895-.681-2.037-1.022-3.424-1.022-1.413 0-2.705.341-3.878 1.022s-2.163 1.608-2.97 2.781c-.807 1.173-1.362 2.528-1.665 4.067-.302 1.513-.284 2.863.057 4.048.34 1.186.965 2.119 1.873 2.8.908.681 2.055 1.021 3.443 1.021Z"/>
    <path fill="#00983f" d="M166.605 40.068H80.796l-.636 3.181h85.809l.636-3.181Z"/>
  </g>
</svg>
