<svg xmlns="http://www.w3.org/2000/svg" xml:space="preserve" fill-rule="evenodd" width="273" height="102" viewBox="0 0 273 102">
  <g>
    <g id="logo">
      <path id="mark" fill="#d4af37" d="M147.772 72.833h.035l.002.001a.958.958 0 0 1 .374.087l.003.001a.983.983 0 0 1 .288.204l.007.007.012.013 8.424 9.072a.972.972 0 0 1-.05 1.374l-.031.027-20.063 18.122a.983.983 0 0 1-.215.151l-.004.002a.972.972 0 0 1-.884 0l-.004-.002a.983.983 0 0 1-.215-.151l-20.063-18.122-.03-.027a.971.971 0 0 1-.051-1.374l8.424-9.072.019-.02a.983.983 0 0 1 .288-.204l.004-.001a.95.95 0 0 1 .373-.087l.003-.001h23.354Zm-18.854 10.37 7.194 16.417 7.194-16.417h-14.388Zm-11.09 0 17.184 15.521-6.802-15.521h-10.382Zm26.186 0-6.801 15.521 17.183-15.521h-10.382Zm89.969 0h-64.815a.324.324 0 1 1 0-.648h64.815a.324.324 0 1 1 0 .648Zm-130.279 0H38.889a.324.324 0 1 1 0-.648h64.815a.325.325 0 1 1 0 .648Zm25.373-.648h14.07l-7.035-7.578-7.035 7.578Zm-11.43 0h10.279l-3.296-7.52-6.983 7.52Zm26.651 0h10.279l-6.983-7.52-3.296 7.52Zm-7.488-7.777 6.922 7.455 3.267-7.455H136.81Zm-11.585 0 3.267 7.455 6.922-7.455h-10.189Z"/>
      <path id="text" fill="#fff" fill-rule="nonzero" d="M167.277 60.466h-1.237c.143-1.758.215-5.703.215-11.836h1.237c.251 3.336 1.148 6.026 2.69 8.07 1.542 2.044 3.909 3.066 7.101 3.066 1.793 0 3.336-.502 4.627-1.506 1.327-1.04 1.99-2.564 1.99-4.573 0-1.183-.341-2.223-1.022-3.12-.682-.932-1.596-1.757-2.743-2.475-1.148-.717-2.744-1.613-4.788-2.689-2.942-1.507-5.183-3.013-6.725-4.519-1.542-1.507-2.313-3.461-2.313-5.864 0-2.654.968-4.716 2.905-6.187 1.972-1.47 4.375-2.205 7.209-2.205 1.577 0 2.815.179 3.712.538.932.322 1.883.806 2.851 1.452.789.502 1.399.753 1.829.753.323 0 .574-.179.753-.538.179-.394.323-1.004.43-1.829h1.238c-.18 1.865-.269 5.165-.269 9.899h-1.238c-.215-2.583-1.058-4.77-2.528-6.563-1.435-1.794-3.533-2.69-6.294-2.69-1.901 0-3.479.502-4.734 1.506-1.22 1.004-1.829 2.277-1.829 3.82 0 1.111.269 2.08.807 2.905a8.755 8.755 0 0 0 2.151 2.151c.897.574 2.152 1.292 3.766 2.152l1.775.969c2.224 1.183 3.999 2.241 5.326 3.174 1.363.932 2.457 2.008 3.282 3.227.824 1.184 1.237 2.565 1.237 4.143 0 2.905-1.058 5.164-3.174 6.778-2.08 1.578-4.698 2.367-7.854 2.367-1.722 0-3.138-.179-4.25-.538a15.351 15.351 0 0 1-3.12-1.452c-.79-.502-1.399-.753-1.829-.753-.323 0-.575.197-.753.591-.18.359-.323.951-.431 1.776Zm-73.609-.377H92.43c-.107-1.112-.269-1.919-.484-2.421-.215-.538-.501-.807-.86-.807-.287 0-.646.162-1.076.484-1.363 1.148-2.69 2.027-3.981 2.636-1.291.574-2.869.861-4.734.861-3.192 0-5.989-.645-8.393-1.936-2.402-1.327-4.267-3.246-5.595-5.757-1.326-2.546-1.99-5.577-1.99-9.091 0-3.443.682-6.474 2.044-9.092 1.363-2.654 3.264-4.698 5.703-6.133 2.439-1.47 5.2-2.205 8.284-2.205 1.758 0 3.246.304 4.465.914 1.22.574 2.493 1.435 3.82 2.582.395.323.736.484 1.022.484.718 0 1.184-1.075 1.399-3.227h1.237c-.143 2.152-.215 5.917-.215 11.297h-1.237c-.359-1.865-.717-3.246-1.076-4.142-.359-.897-.897-1.811-1.614-2.744-1.004-1.327-2.206-2.331-3.605-3.013a9.538 9.538 0 0 0-4.411-1.076c-2.115 0-3.963.646-5.541 1.937-1.542 1.291-2.744 3.156-3.604 5.595-.861 2.439-1.291 5.308-1.291 8.607 0 3.372.466 6.259 1.398 8.662.969 2.367 2.26 4.178 3.874 5.433 1.65 1.22 3.496 1.829 5.541 1.829a10.4 10.4 0 0 0 4.519-1.022 10.216 10.216 0 0 0 3.712-3.066 10.063 10.063 0 0 0 1.506-2.959c.359-1.04.682-2.529.968-4.465h1.238c0 5.63.072 9.575.215 11.835Zm67.627-31.632c-1.256.071-2.188.269-2.798.591-.61.287-1.022.789-1.237 1.507-.215.681-.323 1.703-.323 3.066V45.51c0 2.475-.179 4.591-.538 6.348-.323 1.722-.879 3.228-1.667 4.519-.861 1.363-2.117 2.457-3.766 3.282-1.614.789-3.461 1.183-5.541 1.183-3.695 0-6.528-.789-8.5-2.367-1.578-1.399-2.636-2.994-3.174-4.788-.538-1.793-.807-4.465-.807-8.015V33.083c0-1.363-.108-2.349-.323-2.959a1.935 1.935 0 0 0-1.237-1.237c-.574-.215-1.507-.359-2.798-.43v-1.076c1.507.107 3.802.161 6.886.161 2.869 0 5.147-.054 6.833-.161v1.076c-1.292.071-2.242.215-2.852.43-.574.215-.968.628-1.183 1.237-.215.61-.323 1.596-.323 2.959v13.503c0 2.654.179 4.86.538 6.617.358 1.722 1.112 3.12 2.259 4.196 1.184 1.04 2.905 1.56 5.165 1.56 3.586 0 6.115-1.129 7.585-3.389 1.47-2.259 2.206-5.415 2.206-9.468V33.621c0-1.937-.359-3.264-1.076-3.981-.682-.717-1.955-1.112-3.82-1.183v-1.076c1.292.107 3.121.161 5.488.161 2.152 0 3.819-.054 5.003-.161v1.076Zm65.375 31.901h-.861L213.221 31.9c-.968-2.224-2.206-3.372-3.712-3.443v-1.076c1.47.107 3.389.161 5.756.161 3.084 0 5.38-.054 6.886-.161v1.076c-1.327.071-2.313.251-2.959.538-.61.287-.914.771-.914 1.452 0 .574.251 1.417.753 2.529l9.253 20.873 8.016-17.861c.896-1.937 1.345-3.461 1.345-4.573 0-1.004-.36-1.721-1.076-2.151-.682-.467-1.74-.736-3.174-.807v-1.076c1.076.107 3.066.161 5.971.161 1.506 0 2.707-.054 3.604-.161v1.076c-1.004.251-1.811.753-2.42 1.506-.61.717-1.31 1.972-2.098 3.766L226.67 60.358ZM9.361 41.475v12.912c0 1.362.107 2.349.322 2.958.216.61.61 1.023 1.184 1.238.61.179 1.56.269 2.851.269h3.927c2.224 0 3.91-.287 5.057-.861 1.184-.61 2.044-1.56 2.582-2.851.538-1.327.933-3.264 1.184-5.81h1.237c-.107.968-.161 2.259-.161 3.873 0 2.044.125 4.34.376 6.886-2.438-.108-6.545-.161-12.319-.161-6.886 0-12.086.053-15.601.161v-1.076c1.291-.072 2.224-.215 2.797-.43a1.934 1.934 0 0 0 1.238-1.238c.215-.609.323-1.596.323-2.958V27.703c0-1.362-.108-2.349-.323-2.958a1.936 1.936 0 0 0-1.238-1.238c-.573-.215-1.506-.358-2.797-.43v-1.076c3.515.108 8.715.161 15.601.161 5.272 0 9.02-.053 11.244-.161-.251 2.367-.377 4.483-.377 6.348 0 1.399.054 2.51.161 3.335h-1.237c-.251-2.331-.574-4.052-.968-5.164-.395-1.148-1.058-1.973-1.991-2.475-.932-.538-2.349-.807-4.25-.807h-4.465c-1.291 0-2.241.108-2.851.323-.574.179-.968.574-1.184 1.184-.215.609-.322 1.596-.322 2.958v12.696h3.55c1.255 0 2.224-.286 2.905-.86.682-.61 1.13-1.309 1.345-2.098.251-.825.448-1.847.592-3.067l.161-1.076h1.238a71.288 71.288 0 0 0-.162 5.057v2.582c0 1.83.108 4.376.323 7.64h-1.237c-.036-.251-.144-1.112-.323-2.583-.179-1.506-.681-2.636-1.506-3.389-.789-.753-1.901-1.13-3.336-1.13h-3.55Zm245.079 0v12.912c0 1.362.108 2.349.323 2.958.215.61.61 1.023 1.183 1.238.61.179 1.561.269 2.852.269h3.927c2.224 0 3.909-.287 5.057-.861 1.183-.61 2.044-1.56 2.582-2.851.538-1.327.933-3.264 1.183-5.81h1.238c-.108.968-.162 2.259-.162 3.873 0 2.044.126 4.34.377 6.886-2.439-.108-6.545-.161-12.319-.161-6.886 0-12.087.053-15.601.161v-1.076c1.291-.072 2.223-.215 2.797-.43a1.932 1.932 0 0 0 1.237-1.238c.215-.609.323-1.596.323-2.958V27.703c0-1.362-.108-2.349-.323-2.958a1.935 1.935 0 0 0-1.237-1.238c-.574-.215-1.506-.358-2.797-.43v-1.076c3.514.108 8.715.161 15.601.161 5.272 0 9.019-.053 11.243-.161-.251 2.367-.377 4.483-.377 6.348 0 1.399.054 2.51.162 3.335h-1.237c-.251-2.331-.574-4.052-.969-5.164-.395-1.148-1.058-1.973-1.99-2.475-.933-.538-2.349-.807-4.25-.807h-4.465c-1.292 0-2.242.108-2.852.323-.573.179-.968.574-1.183 1.184-.215.609-.323 1.596-.323 2.958v12.696h3.551c1.255 0 2.224-.286 2.905-.86.681-.61 1.129-1.309 1.345-2.098.25-.825.448-1.847.591-3.067l.162-1.076h1.237a71.931 71.931 0 0 0-.161 5.057v2.582c0 1.83.107 4.376.323 7.64h-1.238a263.41 263.41 0 0 1-.323-2.583c-.179-1.506-.681-2.636-1.506-3.389-.789-.753-1.901-1.13-3.335-1.13h-3.551Zm-47.022-13.018c-1.291.071-2.242.215-2.851.43-.575.215-.969.628-1.184 1.237-.215.61-.323 1.596-.323 2.959v21.304c0 1.362.108 2.349.323 2.958.215.61.609 1.023 1.184 1.238.609.215 1.56.358 2.851.43v1.076c-1.65-.108-3.927-.161-6.832-.161-3.085 0-5.38.053-6.886.161v-1.076c1.291-.072 2.223-.215 2.797-.43a1.938 1.938 0 0 0 1.238-1.238c.215-.609.322-1.596.322-2.958V33.083c0-1.363-.107-2.349-.322-2.959a1.939 1.939 0 0 0-1.238-1.237c-.574-.215-1.506-.359-2.797-.43v-1.076c1.506.107 3.801.161 6.886.161 2.869 0 5.146-.054 6.832-.161v1.076ZM59.573 56.27c.682.968 1.255 1.631 1.722 1.99a3.63 3.63 0 0 0 1.613.699v1.13a65.791 65.791 0 0 0-4.357-.161c-2.152 0-4.68.053-7.585.161v-1.13c1.183 0 2.044-.071 2.582-.215.538-.143.807-.376.807-.699 0-.215-.144-.52-.431-.915l-8.392-11.512-6.778 8.876c-.61.825-.915 1.614-.915 2.367 0 .646.269 1.166.807 1.56.538.395 1.345.592 2.421.592v1.076a115.21 115.21 0 0 0-6.079-.161c-.394 0-1.058.036-1.99.107l-1.614.054v-1.076c.753-.072 1.614-.448 2.582-1.13a11.055 11.055 0 0 0 2.528-2.474l8.285-10.813L35.042 31.2c-.789-1.076-1.381-1.775-1.775-2.098-.395-.358-.915-.556-1.561-.592v-1.129c1.614.107 3.067.161 4.358.161 2.152 0 4.68-.054 7.585-.161v1.129c-1.183 0-2.044.072-2.582.216-.538.143-.807.376-.807.699 0 .215.144.52.43.915l7.855 10.759 6.294-8.177c.61-.789.915-1.542.915-2.26 0-.645-.287-1.165-.861-1.56-.574-.43-1.417-.645-2.529-.645v-1.076c2.045.107 4.071.161 6.079.161 1.543 0 2.744-.054 3.605-.161v1.076c-.789.071-1.65.43-2.583 1.076-.896.645-1.757 1.506-2.582 2.582l-7.693 9.952L59.573 56.27Zm53.385-27.813c-1.291.071-2.241.215-2.851.43-.574.215-.968.628-1.184 1.237-.215.61-.322 1.596-.322 2.959v21.304c0 1.362.107 2.349.322 2.958.216.61.61 1.023 1.184 1.238.61.179 1.56.269 2.851.269h3.389c2.475 0 4.394-.735 5.757-2.206 1.398-1.47 2.242-3.909 2.528-7.316h1.237c-.107 1.112-.161 2.582-.161 4.411 0 1.865.126 3.981.377 6.348-2.331-.108-6.258-.161-11.782-.161-6.634 0-11.656.053-15.063.161v-1.076c1.291-.072 2.224-.215 2.797-.43a1.934 1.934 0 0 0 1.238-1.238c.215-.609.322-1.596.322-2.958V33.083c0-1.363-.107-2.349-.322-2.959a1.935 1.935 0 0 0-1.238-1.237c-.573-.215-1.506-.359-2.797-.43v-1.076c1.506.107 3.802.161 6.886.161 2.869 0 5.147-.054 6.832-.161v1.076Z"/>
    </g>
    <path fill="#d4af37" fill-rule="nonzero" d="M114.07 13.981a.234.234 0 0 1-.17-.07.232.232 0 0 1-.07-.17v-5.06a.28.28 0 0 0-.02-.12l-4.12-8.28a.308.308 0 0 1-.04-.12c0-.107.073-.16.22-.16h2.52c.133 0 .227.06.28.18l2.5 5.32c.04.08.08.08.12 0l2.5-5.32a.283.283 0 0 1 .28-.18h2.56c.093 0 .157.023.19.07.033.046.03.116-.01.21l-4.16 8.28a.28.28 0 0 0-.02.12v5.06a.232.232 0 0 1-.07.17.234.234 0 0 1-.17.07h-2.32ZM128.91 14.221c-1.04 0-1.957-.214-2.75-.64a4.608 4.608 0 0 1-1.85-1.79c-.44-.767-.66-1.65-.66-2.65v-4.28c0-.987.22-1.86.66-2.62a4.554 4.554 0 0 1 1.85-1.77c.793-.42 1.71-.63 2.75-.63 1.053 0 1.977.21 2.77.63.793.42 1.41 1.01 1.85 1.77.44.76.66 1.633.66 2.62v4.28c0 1-.22 1.886-.66 2.66a4.519 4.519 0 0 1-1.85 1.79c-.793.42-1.717.63-2.77.63Zm0-2.42c.733 0 1.327-.234 1.78-.7.453-.467.68-1.087.68-1.86v-4.4c0-.774-.223-1.397-.67-1.87-.447-.474-1.043-.71-1.79-.71-.733 0-1.323.236-1.77.71-.447.473-.67 1.096-.67 1.87v4.4c0 .773.223 1.393.67 1.86.447.466 1.037.7 1.77.7ZM146.03 14.001a.283.283 0 0 1-.28-.18l-2.5-5.54c-.027-.054-.067-.08-.12-.08h-1.86c-.067 0-.1.033-.1.1v5.46a.232.232 0 0 1-.07.17.234.234 0 0 1-.17.07h-2.34a.234.234 0 0 1-.17-.07.232.232 0 0 1-.07-.17V.241c0-.067.023-.124.07-.17a.23.23 0 0 1 .17-.07h5.72c.853 0 1.603.173 2.25.52.647.346 1.147.84 1.5 1.48s.53 1.38.53 2.22c0 .906-.227 1.683-.68 2.33-.453.646-1.087 1.103-1.9 1.37-.067.026-.087.073-.06.14l2.72 5.66c.027.053.04.093.04.12 0 .106-.073.16-.22.16h-2.46Zm-4.76-11.58c-.067 0-.1.033-.1.1v3.42c0 .066.033.1.1.1h2.62c.56 0 1.017-.167 1.37-.5.353-.334.53-.767.53-1.3 0-.534-.177-.97-.53-1.31-.353-.34-.81-.51-1.37-.51h-2.62ZM152.87 14.001a.234.234 0 0 1-.17-.07.232.232 0 0 1-.07-.17V.241c0-.067.023-.124.07-.17a.23.23 0 0 1 .17-.07h2.34a.23.23 0 0 1 .17.07c.047.046.07.103.07.17v5.6c0 .04.013.063.04.07.027.006.053-.004.08-.03l4.62-5.74c.08-.094.18-.14.3-.14h2.64c.107 0 .173.03.2.09.027.06.013.13-.04.21l-4.46 5.7c-.04.053-.047.1-.02.14l4.72 7.58c.027.08.04.126.04.14 0 .093-.067.14-.2.14h-2.64c-.133 0-.227-.054-.28-.16l-3.56-5.76c-.013-.027-.033-.04-.06-.04-.027 0-.053.013-.08.04l-1.26 1.58a.298.298 0 0 0-.04.12v3.98a.232.232 0 0 1-.07.17.234.234 0 0 1-.17.07h-2.34Z"/>
  </g>
</svg>
