<svg clip-rule="evenodd" fill-rule="evenodd" stroke-linejoin="round" stroke-miterlimit="2" width="273" height="102" viewBox="0 0 273 102" xmlns="http://www.w3.org/2000/svg" xmlns:xlink="http://www.w3.org/1999/xlink"><clipPath id="a"><path clip-rule="evenodd" d="m0 0h273v102h-273z"/></clipPath><path d="m0 0h273v102h-273z" fill="none"/><g clip-path="url(#a)"><path d="m147.772 72.833h.035l.002.001c.133.004.259.034.374.087l.003.001c.105.049.203.117.288.204l.007.007c.004.004.008.008.012.013l8.424 9.072c.366.393.343 1.009-.05 1.374-.01.009-.02.018-.031.027l-20.063 18.122c-.066.061-.138.111-.215.151l-.004.002c-.139.071-.291.106-.442.106s-.303-.035-.442-.106l-.004-.002c-.077-.04-.149-.09-.215-.151l-20.063-18.122c-.01-.009-.021-.018-.03-.027-.394-.365-.417-.981-.051-1.374l8.424-9.072.019-.02c.085-.087.183-.155.288-.204l.004-.001c.114-.053.24-.083.373-.087l.003-.001h.034zm-18.854 10.37 7.194 16.417 7.194-16.417zm-11.09 0 17.184 15.521-6.802-15.521zm26.186 0-6.801 15.521 17.183-15.521zm89.969 0h-64.815c-.179 0-.324-.145-.324-.324s.145-.324.324-.324h64.815c.179 0 .324.145.324.324s-.145.324-.324.324zm-130.279 0h-64.815c-.179 0-.324-.145-.324-.324s.145-.324.324-.324h64.815c.179 0 .325.145.325.324s-.146.324-.325.324zm25.373-.648h14.07l-7.035-7.578zm-11.43 0h10.279l-3.296-7.52zm26.651 0h10.279l-6.983-7.52zm-7.488-7.777 6.922 7.455 3.267-7.455zm-11.585 0 3.267 7.455 6.922-7.455z" fill="#d4af37"/><g fill-rule="nonzero"><path d="m167.277 60.466h-1.237c.143-1.758.215-5.703.215-11.836h1.237c.251 3.336 1.148 6.026 2.69 8.07s3.909 3.066 7.101 3.066c1.793 0 3.336-.502 4.627-1.506 1.327-1.04 1.99-2.564 1.99-4.573 0-1.183-.341-2.223-1.022-3.12-.682-.932-1.596-1.757-2.743-2.475-1.148-.717-2.744-1.613-4.788-2.689-2.942-1.507-5.183-3.013-6.725-4.519-1.542-1.507-2.313-3.461-2.313-5.864 0-2.654.968-4.716 2.905-6.187 1.972-1.47 4.375-2.205 7.209-2.205 1.577 0 2.815.179 3.712.538.932.322 1.883.806 2.851 1.452.789.502 1.399.753 1.829.753.323 0 .574-.179.753-.538.179-.394.323-1.004.43-1.829h1.238c-.18 1.865-.269 5.165-.269 9.899h-1.238c-.215-2.583-1.058-4.77-2.528-6.563-1.435-1.794-3.533-2.69-6.294-2.69-1.901 0-3.479.502-4.734 1.506-1.22 1.004-1.829 2.277-1.829 3.82 0 1.111.269 2.08.807 2.905.573.824 1.291 1.542 2.151 2.151.897.574 2.152 1.292 3.766 2.152l1.775.969c2.224 1.183 3.999 2.241 5.326 3.174 1.363.932 2.457 2.008 3.282 3.227.824 1.184 1.237 2.565 1.237 4.143 0 2.905-1.058 5.164-3.174 6.778-2.08 1.578-4.698 2.367-7.854 2.367-1.722 0-3.138-.179-4.25-.538-1.076-.358-2.116-.843-3.12-1.452-.79-.502-1.399-.753-1.829-.753-.323 0-.575.197-.753.591-.18.359-.323.951-.431 1.776zm-73.609-.377h-1.238c-.107-1.112-.269-1.919-.484-2.421-.215-.538-.501-.807-.86-.807-.287 0-.646.162-1.076.484-1.363 1.148-2.69 2.027-3.981 2.636-1.291.574-2.869.861-4.734.861-3.192 0-5.989-.645-8.393-1.936-2.402-1.327-4.267-3.246-5.595-5.757-1.326-2.546-1.99-5.577-1.99-9.091 0-3.443.682-6.474 2.044-9.092 1.363-2.654 3.264-4.698 5.703-6.133 2.439-1.47 5.2-2.205 8.284-2.205 1.758 0 3.246.304 4.465.914 1.22.574 2.493 1.435 3.82 2.582.395.323.736.484 1.022.484.718 0 1.184-1.075 1.399-3.227h1.237c-.143 2.152-.215 5.917-.215 11.297h-1.237c-.359-1.865-.717-3.246-1.076-4.142-.359-.897-.897-1.811-1.614-2.744-1.004-1.327-2.206-2.331-3.605-3.013-1.398-.717-2.868-1.076-4.411-1.076-2.115 0-3.963.646-5.541 1.937-1.542 1.291-2.744 3.156-3.604 5.595-.861 2.439-1.291 5.308-1.291 8.607 0 3.372.466 6.259 1.398 8.662.969 2.367 2.26 4.178 3.874 5.433 1.65 1.22 3.496 1.829 5.541 1.829 1.578 0 3.084-.34 4.519-1.022 1.47-.717 2.708-1.739 3.712-3.066.681-.933 1.183-1.919 1.506-2.959.359-1.04.682-2.529.968-4.465h1.238c0 5.63.072 9.575.215 11.835zm67.627-31.632c-1.256.071-2.188.269-2.798.591-.61.287-1.022.789-1.237 1.507-.215.681-.323 1.703-.323 3.066v11.889c0 2.475-.179 4.591-.538 6.348-.323 1.722-.879 3.228-1.667 4.519-.861 1.363-2.117 2.457-3.766 3.282-1.614.789-3.461 1.183-5.541 1.183-3.695 0-6.528-.789-8.5-2.367-1.578-1.399-2.636-2.994-3.174-4.788-.538-1.793-.807-4.465-.807-8.015v-12.589c0-1.363-.108-2.349-.323-2.959-.215-.609-.628-1.022-1.237-1.237-.574-.215-1.507-.359-2.798-.43v-1.076c1.507.107 3.802.161 6.886.161 2.869 0 5.147-.054 6.833-.161v1.076c-1.292.071-2.242.215-2.852.43-.574.215-.968.628-1.183 1.237-.215.61-.323 1.596-.323 2.959v13.503c0 2.654.179 4.86.538 6.617.358 1.722 1.112 3.12 2.259 4.196 1.184 1.04 2.905 1.56 5.165 1.56 3.586 0 6.115-1.129 7.585-3.389 1.47-2.259 2.206-5.415 2.206-9.468v-12.481c0-1.937-.359-3.264-1.076-3.981-.682-.717-1.955-1.112-3.82-1.183v-1.076c1.292.107 3.121.161 5.488.161 2.152 0 3.819-.054 5.003-.161v1.076zm65.375 31.901h-.861l-12.588-28.458c-.968-2.224-2.206-3.372-3.712-3.443v-1.076c1.47.107 3.389.161 5.756.161 3.084 0 5.38-.054 6.886-.161v1.076c-1.327.071-2.313.251-2.959.538-.61.287-.914.771-.914 1.452 0 .574.251 1.417.753 2.529l9.253 20.873 8.016-17.861c.896-1.937 1.345-3.461 1.345-4.573 0-1.004-.36-1.721-1.076-2.151-.682-.467-1.74-.736-3.174-.807v-1.076c1.076.107 3.066.161 5.971.161 1.506 0 2.707-.054 3.604-.161v1.076c-1.004.251-1.811.753-2.42 1.506-.61.717-1.31 1.972-2.098 3.766zm-217.309-18.883v12.912c0 1.362.107 2.349.322 2.958.216.61.61 1.023 1.184 1.238.61.179 1.56.269 2.851.269h3.927c2.224 0 3.91-.287 5.057-.861 1.184-.61 2.044-1.56 2.582-2.851.538-1.327.933-3.264 1.184-5.81h1.237c-.107.968-.161 2.259-.161 3.873 0 2.044.125 4.34.376 6.886-2.438-.108-6.545-.161-12.319-.161-6.886 0-12.086.053-15.601.161v-1.076c1.291-.072 2.224-.215 2.797-.43.61-.215 1.023-.628 1.238-1.238.215-.609.323-1.596.323-2.958v-26.684c0-1.362-.108-2.349-.323-2.958-.215-.61-.628-1.022-1.238-1.238-.573-.215-1.506-.358-2.797-.43v-1.076c3.515.108 8.715.161 15.601.161 5.272 0 9.02-.053 11.244-.161-.251 2.367-.377 4.483-.377 6.348 0 1.399.054 2.51.161 3.335h-1.237c-.251-2.331-.574-4.052-.968-5.164-.395-1.148-1.058-1.973-1.991-2.475-.932-.538-2.349-.807-4.25-.807h-4.465c-1.291 0-2.241.108-2.851.323-.574.179-.968.574-1.184 1.184-.215.609-.322 1.596-.322 2.958v12.696h3.55c1.255 0 2.224-.286 2.905-.86.682-.61 1.13-1.309 1.345-2.098.251-.825.448-1.847.592-3.067l.161-1.076h1.238c-.108 1.507-.162 3.192-.162 5.057v2.582c0 1.83.108 4.376.323 7.64h-1.237c-.036-.251-.144-1.112-.323-2.583-.179-1.506-.681-2.636-1.506-3.389-.789-.753-1.901-1.13-3.336-1.13h-3.55zm245.079 0v12.912c0 1.362.108 2.349.323 2.958.215.61.61 1.023 1.183 1.238.61.179 1.561.269 2.852.269h3.927c2.224 0 3.909-.287 5.057-.861 1.183-.61 2.044-1.56 2.582-2.851.538-1.327.933-3.264 1.183-5.81h1.238c-.108.968-.162 2.259-.162 3.873 0 2.044.126 4.34.377 6.886-2.439-.108-6.545-.161-12.319-.161-6.886 0-12.087.053-15.601.161v-1.076c1.291-.072 2.223-.215 2.797-.43.61-.215 1.022-.628 1.237-1.238.215-.609.323-1.596.323-2.958v-26.684c0-1.362-.108-2.349-.323-2.958-.215-.61-.627-1.022-1.237-1.238-.574-.215-1.506-.358-2.797-.43v-1.076c3.514.108 8.715.161 15.601.161 5.272 0 9.019-.053 11.243-.161-.251 2.367-.377 4.483-.377 6.348 0 1.399.054 2.51.162 3.335h-1.237c-.251-2.331-.574-4.052-.969-5.164-.395-1.148-1.058-1.973-1.99-2.475-.933-.538-2.349-.807-4.25-.807h-4.465c-1.292 0-2.242.108-2.852.323-.573.179-.968.574-1.183 1.184-.215.609-.323 1.596-.323 2.958v12.696h3.551c1.255 0 2.224-.286 2.905-.86.681-.61 1.129-1.309 1.345-2.098.25-.825.448-1.847.591-3.067l.162-1.076h1.237c-.107 1.507-.161 3.192-.161 5.057v2.582c0 1.83.107 4.376.323 7.64h-1.238c-.035-.251-.143-1.112-.323-2.583-.179-1.506-.681-2.636-1.506-3.389-.789-.753-1.901-1.13-3.335-1.13zm-47.022-13.018c-1.291.071-2.242.215-2.851.43-.575.215-.969.628-1.184 1.237-.215.61-.323 1.596-.323 2.959v21.304c0 1.362.108 2.349.323 2.958.215.61.609 1.023 1.184 1.238.609.215 1.56.358 2.851.43v1.076c-1.65-.108-3.927-.161-6.832-.161-3.085 0-5.38.053-6.886.161v-1.076c1.291-.072 2.223-.215 2.797-.43.609-.215 1.022-.628 1.238-1.238.215-.609.322-1.596.322-2.958v-21.304c0-1.363-.107-2.349-.322-2.959-.216-.609-.629-1.022-1.238-1.237-.574-.215-1.506-.359-2.797-.43v-1.076c1.506.107 3.801.161 6.886.161 2.869 0 5.146-.054 6.832-.161zm-147.845 27.813c.682.968 1.255 1.631 1.722 1.99.466.359 1.004.592 1.613.699v1.13c-1.613-.108-3.066-.161-4.357-.161-2.152 0-4.68.053-7.585.161v-1.13c1.183 0 2.044-.071 2.582-.215.538-.143.807-.376.807-.699 0-.215-.144-.52-.431-.915l-8.392-11.512-6.778 8.876c-.61.825-.915 1.614-.915 2.367 0 .646.269 1.166.807 1.56.538.395 1.345.592 2.421.592v1.076c-2.044-.108-4.071-.161-6.079-.161-.394 0-1.058.036-1.99.107l-1.614.054v-1.076c.753-.072 1.614-.448 2.582-1.13 1.004-.717 1.847-1.542 2.528-2.474l8.285-10.813-9.737-13.396c-.789-1.076-1.381-1.775-1.775-2.098-.395-.358-.915-.556-1.561-.592v-1.129c1.614.107 3.067.161 4.358.161 2.152 0 4.68-.054 7.585-.161v1.129c-1.183 0-2.044.072-2.582.216-.538.143-.807.376-.807.699 0 .215.144.52.43.915l7.855 10.759 6.294-8.177c.61-.789.915-1.542.915-2.26 0-.645-.287-1.165-.861-1.56-.574-.43-1.417-.645-2.529-.645v-1.076c2.045.107 4.071.161 6.079.161 1.543 0 2.744-.054 3.605-.161v1.076c-.789.071-1.65.43-2.583 1.076-.896.645-1.757 1.506-2.582 2.582l-7.693 9.952zm53.385-27.813c-1.291.071-2.241.215-2.851.43-.574.215-.968.628-1.184 1.237-.215.61-.322 1.596-.322 2.959v21.304c0 1.362.107 2.349.322 2.958.216.61.61 1.023 1.184 1.238.61.179 1.56.269 2.851.269h3.389c2.475 0 4.394-.735 5.757-2.206 1.398-1.47 2.242-3.909 2.528-7.316h1.237c-.107 1.112-.161 2.582-.161 4.411 0 1.865.126 3.981.377 6.348-2.331-.108-6.258-.161-11.782-.161-6.634 0-11.656.053-15.063.161v-1.076c1.291-.072 2.224-.215 2.797-.43.61-.215 1.023-.628 1.238-1.238.215-.609.322-1.596.322-2.958v-21.304c0-1.363-.107-2.349-.322-2.959-.215-.609-.628-1.022-1.238-1.237-.573-.215-1.506-.359-2.797-.43v-1.076c1.506.107 3.802.161 6.886.161 2.869 0 5.147-.054 6.832-.161z" fill="#fff"/><path d="m93.86 14.001c-.067 0-.123-.024-.17-.07-.047-.047-.07-.104-.07-.17v-13.52c0-.067.023-.124.07-.17.047-.047.103-.07.17-.07h2.34c.067 0 .123.023.17.07.047.046.07.103.07.17v13.52c0 .066-.023.123-.07.17-.047.046-.103.07-.17.07z" fill="#d4af37"/><path d="m106.66-.019c.88 0 1.653.18 2.32.54s1.183.87 1.55 1.53.55 1.416.55 2.27c0 .84-.19 1.58-.57 2.22s-.913 1.136-1.6 1.49c-.687.353-1.477.53-2.37.53h-2.84c-.067 0-.1.033-.1.1v5.1c0 .066-.023.123-.07.17-.047.046-.103.07-.17.07h-2.34c-.067 0-.123-.024-.17-.07-.047-.047-.07-.104-.07-.17v-13.54c0-.067.023-.124.07-.17.047-.047.103-.07.17-.07h5.64zm-.42 6.32c.613 0 1.107-.177 1.48-.53.373-.354.56-.817.56-1.39 0-.587-.187-1.06-.56-1.42s-.867-.54-1.48-.54h-2.54c-.067 0-.1.033-.1.1v3.68c0 .066.033.1.1.1z" fill="#d4af37"/><path d="m119.62 14.161c-1.067 0-2-.17-2.8-.51s-1.417-.827-1.85-1.46c-.433-.634-.65-1.37-.65-2.21v-.44c0-.067.023-.124.07-.17.047-.047.103-.07.17-.07h2.28c.067 0 .123.023.17.07.047.046.07.103.07.17v.3c0 .533.247.983.74 1.35.493.366 1.16.55 2 .55.707 0 1.233-.15 1.58-.45s.52-.67.52-1.11c0-.32-.107-.59-.32-.81s-.503-.414-.87-.58c-.367-.167-.95-.397-1.75-.69-.893-.307-1.65-.62-2.27-.94s-1.14-.757-1.56-1.31c-.42-.554-.63-1.237-.63-2.05 0-.8.207-1.5.62-2.1s.987-1.06 1.72-1.38c.733-.32 1.58-.48 2.54-.48 1.013 0 1.917.18 2.71.54s1.413.863 1.86 1.51c.447.646.67 1.396.67 2.25v.3c0 .066-.023.123-.07.17-.047.046-.103.07-.17.07h-2.3c-.067 0-.123-.024-.17-.07-.047-.047-.07-.104-.07-.17v-.16c0-.56-.23-1.037-.69-1.43-.46-.394-1.09-.59-1.89-.59-.627 0-1.117.133-1.47.4-.353.266-.53.633-.53 1.1 0 .333.103.613.31.84.207.226.513.43.92.61s1.037.423 1.89.73c.947.346 1.69.653 2.23.92.54.266 1.027.663 1.46 1.19.433.526.65 1.21.65 2.05 0 1.253-.46 2.243-1.38 2.97-.92.726-2.167 1.09-3.74 1.09z" fill="#d4af37"/><path d="m131.4 14.001c-.147 0-.24-.067-.28-.2l-3.54-13.54-.02-.08c0-.12.073-.18.22-.18h2.48c.133 0 .22.066.26.2l1.9 8.14c.013.053.033.08.06.08s.047-.027.06-.08l1.84-8.12c.04-.147.127-.22.26-.22h2.42c.147 0 .24.066.28.2l2 8.14c.013.04.033.063.06.07.027.006.047-.017.06-.07l1.84-8.12c.04-.147.127-.22.26-.22h2.36c.187 0 .26.086.22.26l-3.28 13.54c-.04.133-.133.2-.28.2h-2.38c-.133 0-.22-.067-.26-.2l-2.04-8.66c-.013-.054-.033-.08-.06-.08s-.047.026-.06.08l-1.9 8.64c-.027.146-.113.22-.26.22z" fill="#d4af37"/><path d="m148.08 14.001c-.067 0-.123-.024-.17-.07-.047-.047-.07-.104-.07-.17v-13.52c0-.067.023-.124.07-.17.047-.047.103-.07.17-.07h2.34c.067 0 .123.023.17.07.047.046.07.103.07.17v13.52c0 .066-.023.123-.07.17-.047.046-.103.07-.17.07z" fill="#d4af37"/><path d="m160.02 14.161c-1.04 0-1.953-.204-2.74-.61-.787-.407-1.393-.977-1.82-1.71-.427-.734-.64-1.58-.64-2.54v-4.62c0-.96.213-1.807.64-2.54.427-.734 1.033-1.3 1.82-1.7.787-.4 1.7-.6 2.74-.6 1.027 0 1.93.19 2.71.57s1.387.92 1.82 1.62.65 1.51.65 2.43c0 .12-.08.193-.24.22l-2.34.14h-.04c-.133 0-.2-.074-.2-.22 0-.707-.217-1.274-.65-1.7-.433-.427-1.003-.64-1.71-.64-.72 0-1.297.213-1.73.64-.433.426-.65.993-.65 1.7v4.82c0 .693.217 1.253.65 1.68.433.426 1.01.64 1.73.64.707 0 1.277-.214 1.71-.64.433-.427.65-.987.65-1.68 0-.147.08-.22.24-.22l2.34.1c.067 0 .123.02.17.06s.07.086.07.14c0 .92-.217 1.733-.65 2.44-.433.706-1.04 1.253-1.82 1.64-.78.386-1.683.58-2.71.58z" fill="#d4af37"/><path d="m176.7.241c0-.067.023-.124.07-.17.047-.047.103-.07.17-.07h2.34c.067 0 .123.023.17.07.047.046.07.103.07.17v13.52c0 .066-.023.123-.07.17-.047.046-.103.07-.17.07h-2.34c-.067 0-.123-.024-.17-.07-.047-.047-.07-.104-.07-.17v-5.52c0-.067-.033-.1-.1-.1h-4.42c-.067 0-.1.033-.1.1v5.52c0 .066-.023.123-.07.17-.047.046-.103.07-.17.07h-2.34c-.067 0-.123-.024-.17-.07-.047-.047-.07-.104-.07-.17v-13.52c0-.067.023-.124.07-.17.047-.047.103-.07.17-.07h2.34c.067 0 .123.023.17.07.047.046.07.103.07.17v5.38c0 .066.033.1.1.1h4.42c.067 0 .1-.034.1-.1v-5.38z" fill="#d4af37"/></g></g></svg>