<svg xmlns="http://www.w3.org/2000/svg" width="141" height="70" viewBox="0 0 141 70">
  <g fill-rule="nonzero">
    <path fill="#003466" d="M72.076 41.647a5.754 5.754 0 0 0-1.971-.758l-5.949-1.213c-.789-.152-1.213-.424-1.457-.758-.245-.335-.366-.758-.366-1.637 0-1.182.152-1.668.545-2.096.486-.486 1.182-.689 2.64-.689h1.427c.82-.034 1.639.09 2.412.365a3.731 3.731 0 0 1 1.458 1.306l2.578-1.85A5.027 5.027 0 0 0 72.18 32.8c-1.155-.972-2.702-1.244-5.218-1.244h-1.668c-2.413 0-4.067.669-5.067 1.761-.878.941-1.275 2.185-1.275 3.64v.517c0 1.609.241 2.881 1.062 3.822.544.668 1.396 1.154 2.757 1.396l5.825 1.092c.53.073 1.019.33 1.378.727.455.545.486 1.517.486 2.186-.031.971-.183 1.788-.758 2.367-.576.579-1.379.821-2.73.821h-1.806c-1.275 0-2.092-.183-2.757-.545a4.893 4.893 0 0 1-1.241-1.034l-2.588 1.882a6.83 6.83 0 0 0 1.799 1.695c1.124.728 2.609.941 4.946.941h1.565c2.247 0 4.066-.396 5.19-1.333 1.182-.972 1.761-2.64 1.761-4.643v-.734c-.007-2.219-.582-3.646-1.765-4.467Zm44.925 0a5.754 5.754 0 0 0-1.971-.758l-5.949-1.213c-.789-.152-1.213-.424-1.457-.758-.245-.335-.366-.758-.366-1.637 0-1.182.152-1.668.545-2.096.486-.486 1.182-.689 2.64-.689h1.427c.82-.034 1.639.09 2.412.365a3.725 3.725 0 0 1 1.444 1.293l2.578-1.851a5.04 5.04 0 0 0-1.213-1.517c-1.154-.971-2.702-1.244-5.218-1.244h-1.668c-2.413 0-4.067.669-5.066 1.761-.879.941-1.276 2.186-1.276 3.64v.517c0 1.609.242 2.881 1.062 3.822.545.669 1.379 1.155 2.757 1.396l5.825 1.092c.53.073 1.019.331 1.378.728.455.544.486 1.516.486 2.185-.031.972-.182 1.788-.758 2.367-.575.579-1.396.821-2.73.821h-1.792c-1.275 0-2.092-.183-2.757-.545a4.893 4.893 0 0 1-1.241-1.034l-2.588 1.882a6.85 6.85 0 0 0 1.799 1.696c1.124.727 2.609.941 4.946.941h1.578c2.247 0 4.067-.397 5.191-1.334 1.182-.972 1.761-2.64 1.761-4.643v-.72c-.017-2.219-.593-3.646-1.779-4.467ZM21.499 53.338l1.706-1.237V45.08h3.612l3.943 7.448h3.791l-4.153-7.841a4.733 4.733 0 0 0 1.761-.851c1.182-.941 1.851-2.578 1.851-5.552 0-1.972-.345-3.947-1.792-5.249-.941-.879-2.337-1.307-4.429-1.307h-8.013v20.359l1.723 1.251Zm1.703-18.849h4.053c1.182 0 1.971.214 2.488.638.607.517.789 1.395.789 2.702v1.082c0 1.378-.151 2.123-.689 2.671-.486.517-1.275.689-2.519.689h-4.122v-7.782Zm32.314-2.764h-4.425v13.352c0 1.819-.183 2.943-.879 3.732-.607.638-1.668 1.003-3.336 1.003h-.758c-1.638 0-2.73-.365-3.337-1.034-.689-.758-.851-1.913-.851-3.701V31.728h-3.429v14.11c0 1.913.303 3.916 1.723 5.28 1.093 1.034 2.854 1.699 5.614 1.699h1.307c2.702 0 4.459-.637 5.552-1.637 1.485-1.378 1.82-3.367 1.82-5.342V34.81l.999-3.085Zm-45.404 3.091h6.593l-1.006-3.098H1.006L0 34.816h6.59v17.233l1.761 1.279 1.761-1.279V34.816Zm75.526 0h6.59l-1.006-3.098H76.529l-1.006 3.098h6.59v17.233l1.764 1.279 1.761-1.279V34.816Zm45.115 0h6.593l-1.006-3.098h-14.696l-1.006 3.098h6.593v17.233l1.761 1.279 1.761-1.279V34.816ZM94.93 31.718h4.505v20.331l-1.761 1.279-1.765-1.279V34.737l-.979-3.019Z"/>
    <path fill="url(#a)" d="M96.505 13.693h-3.291l.91-2.806H82.671l9.257 6.745-3.525 10.898 9.274-6.721-1.747-1.264.575-6.852Zm16.178-2.788H101.23l.893 2.805h-3.291l.585 6.862-1.74 1.272 9.275 6.721-3.53-10.912 9.261-6.748ZM97.677 0l-3.56 10.887h7.106L97.677 0Z"/>
    <path fill="#003466" d="M138.651 53.377c-.495 0-.92-.18-1.276-.541a1.773 1.773 0 0 1-.533-1.29c0-.506.179-.937.537-1.294a1.762 1.762 0 0 1 1.293-.536c.505 0 .936.178 1.294.536.358.357.537.787.537 1.29 0 .512-.179.945-.538 1.301a1.796 1.796 0 0 1-1.314.534Zm0-.262c.512 0 .919-.187 1.221-.563.246-.306.37-.642.37-1.008a1.57 1.57 0 0 0-.37-1.004c-.302-.375-.702-.563-1.2-.563-.497 0-.897.188-1.199.563-.246.306-.37.642-.37 1.006 0 .427.153.796.457 1.105.307.31.67.464 1.091.464Zm-.582-.572v-1.979h.625c.199 0 .349.04.448.121.1.081.15.202.15.364a.613.613 0 0 1-.087.323.768.768 0 0 1-.259.25l.596.921h-.37l-.535-.825h-.25v.825h-.318Zm.297-1.072h.092c.174 0 .305-.033.392-.098.087-.065.131-.163.131-.293 0-.104-.036-.182-.109-.234-.074-.051-.183-.077-.329-.077h-.177v.702Z"/>
    <path fill="url(#b)" d="M28.979 69.999V57.932h5.207c1.069 0 1.894.15 2.477.45.584.3.988.719 1.214 1.259.227.539.34 1.171.34 1.896 0 .496-.045.961-.135 1.394-.09.433-.263.816-.519 1.149-.257.332-.63.599-1.12.801l2.33 5.118h-2.518l-2.118-4.766h-2.73v4.766h-2.428Zm2.428-6.5h2.984c.414 0 .729-.083.944-.249a1.25 1.25 0 0 0 .441-.67c.079-.281.119-.593.119-.936a4.36 4.36 0 0 0-.102-.949 1.46 1.46 0 0 0-.401-.748c-.199-.193-.5-.29-.903-.29h-3.082v3.842Z"/>
    <path fill="url(#c)" d="M41.111 57.932h7.905v1.831H43.53v3.205h4.865v1.749H43.53v3.45h5.576v1.832h-7.995V57.932Z"/>
    <path fill="url(#d)" d="M50.463 57.932h2.354l2.085 8.347 2.117-8.347h2.052l2.42 8.257 1.962-8.257h2.33L62.66 69.999h-2.035L58.09 61.39l-2.321 8.609h-2.175l-3.131-12.067Z"/>
    <path fill="url(#e)" d="m66.143 69.999 3.973-12.067h3.221l4.022 12.067h-2.575l-.67-2.298h-4.742l-.695 2.298h-2.534Zm3.801-4.178h3.614l-1.774-6.074-1.84 6.074Z"/>
    <path fill="url(#f)" d="M79.485 69.999V57.932h5.207c1.068 0 1.894.15 2.477.45.583.3.988.719 1.214 1.259.226.539.339 1.171.339 1.896 0 .496-.044.961-.134 1.394-.09.433-.263.816-.52 1.149-.256.332-.629.599-1.12.801l2.33 5.118H86.76l-2.117-4.766h-2.73v4.766h-2.428Zm2.428-6.5h2.984c.414 0 .728-.083.944-.249a1.25 1.25 0 0 0 .441-.67c.079-.281.119-.593.119-.936a4.36 4.36 0 0 0-.102-.949 1.467 1.467 0 0 0-.401-.748c-.199-.193-.5-.29-.903-.29h-3.082v3.842Z"/>
    <path fill="url(#g)" d="M91.616 69.999V57.932h5.233c1.166 0 2.071.187 2.714.56.643.373 1.092.878 1.349 1.513.256.634.384 1.347.384 2.137v3.704c0 .801-.135 1.515-.405 2.142-.27.626-.726 1.118-1.369 1.475s-1.532.536-2.665.536h-5.241Zm2.428-1.889h2.6c.856 0 1.44-.158 1.754-.474.313-.316.47-.809.47-1.48v-4.333c0-.654-.16-1.151-.478-1.491-.319-.341-.901-.511-1.746-.511h-2.6v8.289Z"/>
    <path fill="url(#h)" d="M108.228 70.211a10.83 10.83 0 0 1-2.485-.294c-.834-.196-1.553-.463-2.158-.801l.834-1.774a9.641 9.641 0 0 0 1.663.666 7.06 7.06 0 0 0 2.089.298c.496 0 .871-.071 1.124-.212.254-.142.425-.339.515-.593.09-.253.135-.544.135-.871 0-.223-.038-.429-.114-.617-.077-.188-.233-.362-.47-.523-.238-.161-.599-.312-1.084-.454l-2.06-.605c-.654-.196-1.162-.459-1.524-.789a2.665 2.665 0 0 1-.761-1.156 4.594 4.594 0 0 1-.216-1.431c0-.752.184-1.373.551-1.864.368-.49.87-.857 1.505-1.099.635-.243 1.347-.364 2.137-.364.796 0 1.529.076 2.2.229.67.152 1.283.389 1.839.711l-.687 1.708a8.622 8.622 0 0 0-1.463-.531 6.436 6.436 0 0 0-1.676-.212c-.616 0-1.106.094-1.472.282-.365.188-.547.541-.547 1.058 0 .414.107.733.323.957.215.223.628.428 1.238.613l2.052.613c.812.245 1.423.635 1.831 1.169.409.534.614 1.275.614 2.224 0 .681-.137 1.298-.409 1.851-.273.554-.698.994-1.276 1.321-.577.327-1.327.49-2.248.49Z"/>
  </g>
  <defs>
    <linearGradient id="a" x1="0" x2="1" y1="0" y2="0" gradientTransform="rotate(124.995 51.172 29.91) scale(28.7012)" gradientUnits="userSpaceOnUse">
      <stop offset="0" stop-color="#fff"/>
      <stop offset="0" stop-color="#ffa700"/>
      <stop offset="1" stop-color="#ff7100"/>
    </linearGradient>
    <linearGradient id="b" x1="0" x2="1" y1="0" y2="0" gradientTransform="matrix(85.6521 26.8738 -5.32357 16.9673 27.425 50.855)" gradientUnits="userSpaceOnUse">
      <stop offset="0" stop-color="#ffa700"/>
      <stop offset="1" stop-color="#ff7100"/>
    </linearGradient>
    <linearGradient id="c" x1="0" x2="1" y1="0" y2="0" gradientTransform="matrix(85.6521 26.8738 -5.32357 16.9673 27.425 50.855)" gradientUnits="userSpaceOnUse">
      <stop offset="0" stop-color="#ffa700"/>
      <stop offset="1" stop-color="#ff7100"/>
    </linearGradient>
    <linearGradient id="d" x1="0" x2="1" y1="0" y2="0" gradientTransform="matrix(85.6521 26.8738 -5.32357 16.9673 27.425 50.855)" gradientUnits="userSpaceOnUse">
      <stop offset="0" stop-color="#ffa700"/>
      <stop offset="1" stop-color="#ff7100"/>
    </linearGradient>
    <linearGradient id="e" x1="0" x2="1" y1="0" y2="0" gradientTransform="matrix(85.6521 26.8738 -5.32357 16.9673 27.425 50.855)" gradientUnits="userSpaceOnUse">
      <stop offset="0" stop-color="#ffa700"/>
      <stop offset="1" stop-color="#ff7100"/>
    </linearGradient>
    <linearGradient id="f" x1="0" x2="1" y1="0" y2="0" gradientTransform="matrix(85.6521 26.8738 -5.32357 16.9673 27.425 50.855)" gradientUnits="userSpaceOnUse">
      <stop offset="0" stop-color="#ffa700"/>
      <stop offset="1" stop-color="#ff7100"/>
    </linearGradient>
    <linearGradient id="g" x1="0" x2="1" y1="0" y2="0" gradientTransform="matrix(85.6521 26.8738 -5.32357 16.9673 27.425 50.855)" gradientUnits="userSpaceOnUse">
      <stop offset="0" stop-color="#ffa700"/>
      <stop offset="1" stop-color="#ff7100"/>
    </linearGradient>
    <linearGradient id="h" x1="0" x2="1" y1="0" y2="0" gradientTransform="matrix(85.6521 26.8738 -5.32357 16.9673 27.425 50.855)" gradientUnits="userSpaceOnUse">
      <stop offset="0" stop-color="#ffa700"/>
      <stop offset="1" stop-color="#ff7100"/>
    </linearGradient>
  </defs>
</svg>
