<svg xmlns="http://www.w3.org/2000/svg" fill-rule="evenodd" width="299" height="100" viewBox="0 0 299 100">
  <path d="M299 15a15 15 0 00-15-15H15A15 15 0 000 15v70a15 15 0 0015 15h269a15 15 0 0015-15V15z" fill="#fff" opacity=".15"/>
  <path fill="#fff" fill-rule="nonzero" d="M146.14 83.73h-4.65V53.6h4.5v3.76h.08a8.04 8.04 0 017.21-4c5.74 0 9.53 4.54 9.53 11.55 0 7.04-3.76 11.56-9.44 11.56a7.69 7.69 0 01-7.13-3.96h-.1v11.2zm-24.92 0h-4.64V53.6h4.5v3.76h.08a8.04 8.04 0 017.2-4c5.75 0 9.54 4.54 9.54 11.55 0 7.04-3.77 11.56-9.45 11.56a7.69 7.69 0 01-7.12-3.96h-.1v11.2zm76.62-30.02h-4.69c-.28-3.1-2.84-4.97-6.58-4.97-3.75 0-6.3 1.9-6.3 4.65 0 2.2 1.63 3.49 5.63 4.48l3.42.84c6.37 1.5 9.02 4.06 9.02 8.6 0 5.81-4.63 9.45-11.99 9.45-6.88 0-11.53-3.56-11.83-9.17h4.76c.34 3.08 3.33 5.1 7.42 5.1 3.91 0 6.73-2.02 6.73-4.8 0-2.4-1.7-3.85-5.72-4.84l-4.03-.97c-5.7-1.37-8.34-4.04-8.34-8.37 0-5.35 4.67-9.03 11.3-9.03 6.55 0 11.05 3.68 11.2 9.03zm17.32 11.21c0-7.12 4.2-11.6 10.74-11.6 6.56 0 10.73 4.48 10.73 11.6 0 7.15-4.15 11.6-10.73 11.6-6.59 0-10.74-4.45-10.74-11.6zm42.57 1.16v.28l-.02.52a5.92 5.92 0 006.11 5.9 5.13 5.13 0 005.23-3.19h4.41c-.63 4.11-4.63 6.93-9.75 6.93-6.58 0-10.67-4.41-10.67-11.49 0-7.1 4.11-11.7 10.48-11.7 6.26 0 10.2 4.3 10.2 11.16v1.6h-15.99zm-49.37-12.47h4.3v3.67h-4.3v12.48c0 1.94.87 2.84 2.76 2.84.51 0 1.02-.04 1.53-.1v3.65c-.85.16-1.72.24-2.58.22-4.59 0-6.37-1.72-6.37-6.11V57.28h-3.3v-3.67h3.3v-5.36h4.66v5.36zM113.7 76.24h-5.1l-2.84-8.4H93.92l-2.84 8.4h-5.01l11.2-31.05h5.21l11.21 31.05zm131.42 0h-4.65V53.61h4.44v3.85h.1a5.41 5.41 0 015.45-4.1c.53 0 1.07.07 1.59.18v4.35a6.5 6.5 0 00-2.28-.29 4.7 4.7 0 00-4.65 5.21v13.43zM231.9 64.92c0-4.88-2.24-7.76-6-7.76-3.77 0-6 2.9-6 7.76 0 4.9 2.23 7.77 6 7.77 3.76 0 6-2.86 6-7.77zm-73.87 0c0-4.58-2.36-7.6-5.98-7.6-3.55 0-5.93 3.08-5.93 7.6 0 4.56 2.38 7.62 5.93 7.62 3.62 0 5.98-3 5.98-7.62zm-24.9 0c0-4.58-2.38-7.6-5.99-7.6-3.55 0-5.94 3.08-5.94 7.6 0 4.56 2.4 7.62 5.94 7.62 3.61 0 5.98-3 5.98-7.62zM99.9 50.36h-.13l-4.62 13.62h9.38L99.9 50.36zm157.85 12.48h11.32v-.3a5.47 5.47 0 00-5.44-5.45h-.15a5.76 5.76 0 00-5.73 5.73v.02zm-3.66-31.12v.13l-.01.24a2.99 2.99 0 002.97 2.98h.04a2.7 2.7 0 002.67-1.36h2.14a4.58 4.58 0 01-5.01 3.25 5.14 5.14 0 01-5.07-5.8 5.22 5.22 0 015.15-5.88l.04-.01c3.14 0 5.03 2.14 5.03 5.67v.78h-7.95zm-56.02-.6a5.36 5.36 0 015.3-5.84 5.36 5.36 0 015.32 5.83 5.36 5.36 0 01-5.3 5.85 5.36 5.36 0 01-5.32-5.85zm-93.87 0a5.36 5.36 0 015.3-5.84 5.36 5.36 0 015.32 5.83c.02.17.02.34.02.52 0 2.92-2.4 5.33-5.33 5.33a5.36 5.36 0 01-5.3-5.85zm48.84 0a5.36 5.36 0 015.3-5.84 5.36 5.36 0 015.32 5.83 5.36 5.36 0 01-5.31 5.85 5.36 5.36 0 01-5.3-5.85zm15.55-2.68h-2.15c.22-1.93 2.04-3.17 4.6-3.17 2.82 0 4.41 1.4 4.41 3.78v7.7h-2.14v-1.59h-.18a3.8 3.8 0 01-3.38 1.77l-.35.02a3.42 3.42 0 01-3.4-3.39c0-2.03 1.51-3.2 4.19-3.36l3.05-.17v-.98c0-1.19-.79-1.86-2.3-1.86-1.25 0-2.1.46-2.35 1.25zm20.3 8.3h-2.14v-1.77h-.17a3.91 3.91 0 01-3.54 1.96c-2.86 0-4.67-2.25-4.67-5.82 0-3.56 1.83-5.8 4.67-5.8 1.44-.08 2.79.7 3.46 1.97h.16v-6.19h2.22v15.65zm44.9-11.2h2.44v1.87h-2.44v5.79c0 1.18.48 1.7 1.59 1.7.28 0 .57-.02.85-.06v1.85c-.4.07-.8.11-1.21.12-2.47 0-3.46-.87-3.46-3.04V27.4h-1.78v-1.87h1.78v-2.86h2.23v2.86zM94.57 36.74h-5.4V21.83h5.4l.47-.02a6.63 6.63 0 016.54 7.43c0 4.76-2.57 7.5-7.01 7.5zm42.29 0h-2.23V25.5h2.14v1.79h.17a3.38 3.38 0 013.36-2.01l.27-.01a3.68 3.68 0 013.62 4.2v7.28h-2.22v-6.73c0-1.8-.78-2.7-2.43-2.7h-.12a2.6 2.6 0 00-2.56 2.85v6.59zm77.03 0h-2.22V25.5h2.14v1.79h.17a3.38 3.38 0 013.36-2.01l.27-.01a3.68 3.68 0 013.62 4.2v7.28h-2.22v-6.73c0-1.8-.78-2.7-2.43-2.7h-.12a2.6 2.6 0 00-2.57 2.85v6.59zm27.6 0h-2.23V21.1h2.2v6.2h.18a3.47 3.47 0 013.43-2.01h.2a3.73 3.73 0 013.68 4.2v7.26h-2.23v-6.72c0-1.8-.83-2.7-2.4-2.7l-.22-.01a2.64 2.64 0 00-2.62 2.86v6.57zm-119.68 0h-2.28l-3.1-11.25h2.25l2.01 8.59h.17l2.31-8.6h2.13l2.32 8.6h.17l2.01-8.6h2.22l-3.09 11.26h-2.3l-2.33-8.29h-.17l-2.32 8.3zm28.15 0h-2.23V21.1h2.23v15.65zm23.28-4.14v-.94l-2.75.17c-1.55.1-2.25.63-2.25 1.63 0 1.01.87 1.6 2.08 1.6a2.65 2.65 0 002.92-2.46zm33.17-1.49c0-2.44-1.1-3.87-3.02-3.87-1.93 0-3.02 1.43-3.02 3.87 0 2.46 1.09 3.88 3.02 3.88 1.92 0 3.02-1.43 3.02-3.88zm-93.88 0c0-2.44-1.1-3.87-3.02-3.87-1.93 0-3.01 1.43-3.01 3.87 0 2.46 1.08 3.88 3.01 3.88 1.93 0 3.02-1.43 3.02-3.88zm48.85 0c0-2.44-1.1-3.87-3.02-3.87-1.94 0-3.02 1.43-3.02 3.87 0 2.46 1.08 3.88 3.02 3.88 1.92 0 3.02-1.43 3.02-3.88zm19.28 0c0 2.39 1.13 3.83 3.01 3.83 1.87 0 3.03-1.46 3.03-3.82 0-2.35-1.17-3.82-3.03-3.82-1.87 0-3 1.44-3 3.81zm-86.35 3.52l.28.01a4.71 4.71 0 004.64-5.37 4.7 4.7 0 00-4.92-5.33h-2.82v10.7h2.82zm162.74-7.47h-.08a2.9 2.9 0 00-2.88 2.88v.04h5.68a2.7 2.7 0 00-2.7-2.92h-.02zM61.92 50.75a12.38 12.38 0 015.9-10.38 12.67 12.67 0 00-9.98-5.4c-4.2-.43-8.27 2.52-10.41 2.52-2.18 0-5.48-2.47-9.02-2.4a13.3 13.3 0 00-11.19 6.82C22.4 50.3 26 62.6 30.62 69.35c2.32 3.32 5.03 7.02 8.58 6.89 3.46-.15 4.76-2.21 8.94-2.21 4.15 0 5.37 2.2 8.98 2.12 3.72-.06 6.07-3.32 8.3-6.67a27.4 27.4 0 003.8-7.73 11.97 11.97 0 01-7.3-11zM55.1 30.53a12.18 12.18 0 002.79-8.73 12.4 12.4 0 00-8.02 4.15 11.6 11.6 0 00-2.86 8.4c3.14.04 6.13-1.38 8.1-3.82z"/>
</svg>
