<svg xmlns="http://www.w3.org/2000/svg" preserveAspectRatio="none" viewBox="0 0 1200 600">
  <path fill="#f6f6f6" d="M1200 0s-56.149 22.111-80 40c-26.667 20-53.333 73.333-80 80-26.667 6.667-53.333-46.667-80-40-26.667 6.667-53.333 60-80 80-23.851 17.889-53.333 40-80 40s-53.333-53.333-80-40c-26.667 13.333-53.333 100-80 120-21.333 16-56.149-11.926-80 0-26.667 13.333-53.333 66.667-80 80-23.851 11.926-54.13-6.468-80 0-26.667 6.667-56.149 22.111-80 40-26.667 20-53.333 66.667-80 80-23.851 11.926-56.149-11.926-80 0-26.667 13.333-53.333 60-80 80-23.851 17.889-80 40-80 40h1200V0z"/>
</svg>
