<svg viewBox="0 0 300 100" xmlns="http://www.w3.org/2000/svg">
  <path d="M300 15c0-8.279-6.74-15-15.042-15H15.042C6.74 0 0 6.721 0 15v70c0 8.279 6.74 15 15.042 15h269.916C293.26 100 300 93.279 300 85z" fill="#000032"/>
  <g>
    <path fill="#fff" d="M92.027 41.265h24.738v4.616h-9.727v25.945h-5.349V45.881h-9.683v-4.616zm23.681 8.433h4.572v4.27h.087a5.016 5.016 0 01.841-1.747c.41-.56.906-1.1 1.488-1.552a7.874 7.874 0 011.941-1.143 5.927 5.927 0 012.178-.432c.561 0 .971.022 1.186.043.216.022.432.065.669.087v4.701c-.345-.064-.69-.108-1.057-.151a8.966 8.966 0 00-1.057-.064c-.819 0-1.596.172-2.329.496-.733.323-1.359.819-1.898 1.445-.539.647-.97 1.423-1.294 2.372-.323.949-.474 2.027-.474 3.257v10.524h-4.874V49.698zm35.37 22.128h-4.788v-3.084h-.086c-.604 1.121-1.488 2.006-2.674 2.674-1.186.669-2.394 1.014-3.623 1.014-2.912 0-5.026-.712-6.32-2.157s-1.941-3.623-1.941-6.535v-14.04h4.874v13.566c0 1.941.367 3.321 1.122 4.119.733.798 1.79 1.208 3.127 1.208 1.035 0 1.877-.151 2.567-.475.69-.323 1.251-.733 1.66-1.272.432-.518.734-1.165.928-1.898s.28-1.531.28-2.394V49.72h4.874zm8.304-7.096c.151 1.424.69 2.416 1.617 2.998.949.561 2.071.863 3.386.863.453 0 .971-.043 1.553-.108s1.143-.216 1.639-.41a3.15 3.15 0 001.273-.884c.323-.388.474-.884.453-1.51-.022-.625-.259-1.143-.69-1.531-.432-.41-.971-.712-1.64-.97a16.372 16.372 0 00-2.286-.626c-.862-.172-1.725-.367-2.609-.561a24.894 24.894 0 01-2.632-.733 7.99 7.99 0 01-2.264-1.165 5.108 5.108 0 01-1.596-1.854c-.41-.755-.604-1.683-.604-2.804 0-1.208.302-2.2.884-3.019.583-.82 1.337-1.467 2.222-1.963.906-.496 1.898-.841 2.998-1.057a18.246 18.246 0 013.148-.302c1.143 0 2.243.13 3.279.367 1.035.237 1.984.625 2.825 1.186.841.539 1.531 1.251 2.092 2.114.561.862.906 1.919 1.057 3.148h-5.09c-.237-1.164-.755-1.962-1.596-2.35-.841-.41-1.812-.604-2.89-.604-.345 0-.755.021-1.229.086a6.828 6.828 0 00-1.338.323 2.905 2.905 0 00-1.056.691c-.281.302-.432.69-.432 1.186 0 .604.216 1.078.626 1.445.409.366.949.668 1.617.927.669.237 1.424.453 2.286.626.863.172 1.747.366 2.653.56.884.195 1.747.453 2.61.734.862.28 1.617.668 2.286 1.164a5.732 5.732 0 011.617 1.834c.41.733.626 1.66.626 2.739 0 1.315-.302 2.415-.906 3.343-.604.905-1.38 1.66-2.329 2.221s-2.028.992-3.192 1.251a16.006 16.006 0 01-3.473.388c-1.401 0-2.695-.151-3.882-.474-1.186-.324-2.221-.798-3.084-1.424-.862-.647-1.553-1.445-2.049-2.394s-.754-2.092-.798-3.407h4.918zm16.089-15.032h3.688v-6.643h4.874v6.643h4.4v3.645h-4.4v11.819c0 .517.022.949.065 1.337.043.367.151.69.302.949s.388.453.711.582c.324.13.734.194 1.294.194.346 0 .691 0 1.036-.021a5.77 5.77 0 001.035-.151v3.774c-.539.065-1.078.108-1.574.173a12.76 12.76 0 01-1.575.086c-1.294 0-2.329-.13-3.106-.367-.776-.237-1.401-.604-1.833-1.078-.453-.475-.733-1.057-.906-1.769a13.323 13.323 0 01-.28-2.437V53.386h-3.688v-3.688zm16.413 0h4.615v2.998h.086c.69-1.294 1.639-2.2 2.869-2.761 1.229-.56 2.545-.841 3.99-.841 1.747 0 3.256.302 4.55.928a8.882 8.882 0 013.235 2.523c.863 1.078 1.488 2.329 1.92 3.753.431 1.423.647 2.954.647 4.572 0 1.488-.194 2.933-.582 4.313-.389 1.402-.971 2.632-1.747 3.71-.777 1.078-1.769 1.919-2.977 2.566-1.207.647-2.609.971-4.248.971a11.96 11.96 0 01-2.136-.194 9.402 9.402 0 01-2.048-.626 7.364 7.364 0 01-1.812-1.1 6.806 6.806 0 01-1.402-1.552h-.086V80h-4.874zm17.038 11.086c0-.992-.13-1.963-.389-2.912a7.855 7.855 0 00-1.164-2.502 5.95 5.95 0 00-1.92-1.747 5.38 5.38 0 00-2.652-.668c-2.049 0-3.602.711-4.637 2.135-1.036 1.423-1.553 3.321-1.553 5.694 0 1.121.129 2.156.41 3.105.28.949.668 1.769 1.229 2.459a5.814 5.814 0 001.941 1.617c.755.41 1.639.604 2.631.604 1.122 0 2.049-.237 2.825-.69a5.968 5.968 0 001.898-1.768 7.362 7.362 0 001.079-2.481c.194-.927.302-1.876.302-2.846zm8.605-19.519h4.874v4.616h-4.874zm0 8.433h4.874v22.128h-4.874zm9.231-8.433h4.874v30.561h-4.874zm19.82 31.165c-1.769 0-3.343-.302-4.723-.884a10.435 10.435 0 01-3.516-2.416c-.949-1.035-1.682-2.264-2.178-3.688-.496-1.423-.755-2.998-.755-4.702 0-1.682.259-3.235.755-4.658s1.229-2.653 2.178-3.688 2.135-1.833 3.516-2.416c1.38-.582 2.954-.884 4.723-.884s3.343.302 4.723.884a10.435 10.435 0 013.516 2.416c.949 1.035 1.682 2.265 2.178 3.688s.755 2.976.755 4.658c0 1.704-.259 3.279-.755 4.702-.496 1.424-1.229 2.653-2.178 3.688s-2.135 1.833-3.516 2.416c-1.38.582-2.954.884-4.723.884zm0-3.861c1.078 0 2.027-.237 2.825-.69s1.445-1.057 1.963-1.79.884-1.574 1.143-2.502c.237-.927.367-1.876.367-2.847 0-.948-.13-1.876-.367-2.825s-.625-1.768-1.143-2.502c-.518-.733-1.165-1.315-1.963-1.768s-1.747-.69-2.825-.69-2.027.237-2.825.69-1.445 1.057-1.963 1.768c-.518.734-.884 1.553-1.143 2.502a11.56 11.56 0 00-.367 2.825c0 .971.13 1.92.367 2.847.237.928.625 1.769 1.143 2.502s1.165 1.337 1.963 1.79c.798.475 1.747.69 2.825.69zm12.595-18.871h3.688v-6.643h4.874v6.643h4.4v3.645h-4.4v11.819c0 .517.022.949.065 1.337.043.367.151.69.302.949s.388.453.712.582c.323.13.733.194 1.294.194.345 0 .69 0 1.035-.021a5.77 5.77 0 001.035-.151v3.774c-.539.065-1.078.108-1.574.173a12.75 12.75 0 01-1.575.086c-1.294 0-2.329-.13-3.105-.367-.777-.237-1.402-.604-1.833-1.078-.453-.475-.734-1.057-.906-1.769a13.318 13.318 0 01-.281-2.437V53.386h-3.688v-3.688z"/>
    <path fill="#00b67a" d="M86.334 41.265H63.99L57.088 20l-6.923 21.265-22.343-.021L45.917 54.4l-6.923 21.243 18.094-13.134 18.074 13.134L68.26 54.4z"/>
    <path fill="#005128" d="M69.813 59.209L68.26 54.4l-11.172 8.109z"/>
  </g>
</svg>
