<svg xmlns="http://www.w3.org/2000/svg" fill="#fff" width="584" height="160" viewBox="0 0 584 160">
  <path d="M140.49 84.667l-3.631-.51 3.177 4.232-13.375-6.033 1.785 3.962s-1.15-1.111-3.873-4.743c-2.753-3.663-9.351-5.764-9.351-5.764l.213 2.162c-1.392-2.22-5.115-2.341-5.115-2.341-5.778-.3-11.438 1.2-11.438 1.2l.061.991c.756.06 4.63 1.381 5.901 2.371 1.24.99 3.843 1.231 3.843 1.231l9.713.931-7.323.66 4.448 3.662-8.411-2.822 2.178 3.963-4.721-3.242c-.726 1.711-2.027 2.642-2.36 2.852 2.633-2.552 2.057-7.235-5.327-8.165-7.412-.961-11.619 9.155-11.861 16.269-.151 4.834 1.816 9.155 1.816 9.155l.665 1.021h.001c.334.09.667.209.999.36a.48.48 0 00-.151.331c0 .27.181.48.453.48a.47.47 0 00.455-.48v-.03c.484.239.908.51 1.302.84-.153.061-.244.241-.244.39 0 .27.212.45.455.45.181 0 .333-.09.422-.27.304.331.607.691.849 1.08-.212.031-.333.212-.333.422 0 .269.179.449.453.449.121 0 .242-.06.304-.12.15.3.272.6.393.961a.477.477 0 00-.243.419c0 .241.212.452.455.452h.028c.063.239.092.48.122.72.061.57.09 1.081.061 1.56a.466.466 0 00-.423.48c0 .211.151.391.332.421-.332 2.341-1.724 3.212-1.724 3.212h-1.151v-.06c0-.27-.212-.45-.483-.45a.443.443 0 00-.454.45v.06h-2.269v-.06c0-.27-.213-.45-.455-.45-.271 0-.483.18-.483.45v.06h-2.271v-.06c0-.27-.21-.45-.454-.45-.271 0-.483.18-.483.45v.06h-2.149v-.06c0-.27-.212-.45-.484-.45a.444.444 0 00-.454.45v.06h-2.27v-.06c0-.27-.211-.45-.454-.45-.272 0-.484.18-.484.45v.06h-2.239v-.06c0-.27-.212-.45-.484-.45a.444.444 0 00-.453.45v.06h-2.3v-.06c0-.27-.182-.45-.455-.45a.444.444 0 00-.453.45v.06h-1.967s-.092-.06-.242-.24c.03-.06.059-.12.059-.21 0-.24-.211-.451-.483-.451h-.06c-.334-.54-.667-1.32-.818-2.431a.477.477 0 00.363-.45.47.47 0 00-.453-.48 6.255 6.255 0 01.363-2.372c.09.151.242.241.423.241a.465.465 0 00.454-.452.47.47 0 00-.454-.479c-.06 0-.121 0-.181.03.151-.45.363-.84.605-1.23.091.09.182.149.332.149a.47.47 0 00.455-.48c0-.21-.152-.39-.334-.421.273-.39.546-.72.849-1.05a.44.44 0 00.423.27c.242 0 .454-.21.454-.45 0-.18-.121-.331-.272-.421.302-.239.574-.48.877-.659.03.24.212.39.424.39a.476.476 0 00.484-.481.478.478 0 00-.152-.33c.212-.12.454-.21.666-.27.06-.03.121-.03.213-.03.765-.16 2.098-.25 3.61-.298-1.512.047-2.845.137-3.612.298.393-.51 1.877-2.612 1.966-5.614.152-3.481.576-12.967-4.175-17.71-5.538-5.553-12.588-.93-13.889.631-1.302 1.531 1.27 5.192 1.118 5.074-.15-.121-2.693-3.423-2.693-3.423l-3.995 3.061 1.938-3.722-8.383 2.732 4.026-3.182-5.529-1.063c-.159.573-.303 1.196-.318 1.639.208-.016.81-.046.991-.016.223.034.661-.401.658-.247-.004.158-.329.401-.689.424-.362.026-.949.132-.949.132a.499.499 0 00.065.191c.373.596.328 2.505.071 2.998-.26.487-.51 1.369-.51 1.369s-.583-.668-.882-1.144c-.298-.477-1.528 1.5-1.528 1.5l-.464-.108c-.685.021-.738.847-.738.847s-.882-1.305-.144-2.254c.741-.95-.167-1.321-.167-1.321-.438-.06-1.604.645-1.604.645l-.203-.322c-.345-.604-1.839-.634-1.839-.634-.2-1.175 1.631-2.083 1.631-2.083l-.148-.236c.73-.649 2.569-.258 2.576-.724.008-.469-1.486-1.633-1.486-1.633l.23-.109c-.027-.311-.723-.841-.723-.841 1.052-.715 1.843-.142 2.074.013.229.156.358-.222.358-.222.072.222.576.705 1.06.472.488-.232.2-1.016.2-1.016 1.007.176 2.016 1.898 2.016 1.898l.92-.659s-.23.639-.44 1.38c1.782.066 8.77.224 10.745-1.187 2.27-1.621 7.868-3.662 7.868-3.662-.273-1.141-8.08-1.65-11.953-1.65-3.873 0-5.265 1.83-5.265 1.83l.393-1.921c-4.266 1.05-8.593 4.743-8.593 4.743l-4.569 5.883 1.694-4.233-13.163 6.154 2.693-4.173-3.086.331 13.194-5.224-3.844-1.801c-3.814-1.8-10.621 2.973-10.621 2.973l1.209-2.793-3.419-.96 7.384-.481-4.206-4.232 7.202 2.582-2.059-4.052 10.653 6.303c6.233-4.622 18.518-4.953 19.306-5.163.787-.239.151-1.11.151-1.11-1.786-.3-4.418-1.471-4.418-1.471-3.632-2.372-9.472-.69-11.046 0-1.542.69-5.657 1.02-5.657 1.02l2.359-2.671c-4.417.06-14.191-3.092-14.191-3.092l12.376.6-11.439-8.254c.484.179 3.662 1.441 8.11 4.172 4.781 3.001 9.895 4.803 12.105 4.623 2.178-.21.634-1.141.634-1.141l-8.866-4.982 10.501 4.111 1.482-3.811c.142 1 .511 1.891 1.015 2.705.243-.325.673-.695 1.146-.974.692-.409-1.524-1.215-1.524-1.215l.341-.14c.749-.367-.836-1.474-.998-1.591.257.105.358-.21.358-.21-.017-.473-1.512-1.021-1.512-1.021.4-.709 2.333-.333 2.557-.284.219.052.354-.511.354-.511.069.199 1.139.597 1.139.597l.696-.867c-.071.375 1.488 1.414 1.488 1.414.26-.772 1.096-1.302 1.096-1.302-.158.443.349 1.667.801 2.315.455.654.876 2.109.054 2.503a4.394 4.394 0 00-1.487 1.16c.121.207.647.987.837 1.361.207.417-.034.267-.034.267s-.288-.24-.375-.465a32.922 32.922 0 00-.477-1.104 2.871 2.871 0 00-.182.282c-.257.476-.805 1.44-2.004.683-.777-.495-1.584-.556-2.057-.539 2.762 3.982 9.189 5.806 11.901 6.931 3.36 1.41 8.746 4.503 8.746 4.503l.06-1.831s2.905 3.752 3.965 5.342c1.089 1.592 1.604.301 1.604.301l-.091-3.182-9.289-8.404-10.773-3.032 4.478-.331-4.419-3.991c.726.269 12.166 4.921 15.372 6.843 3.269 2.011 1.635-.03 1.635-.03-3.48-6.273-10.985-9.574-10.985-9.574s-4.085-.811-16.432-1.261c-11.559-.421-15.674-5.764-16.127-6.424 4.326 3.241 15.734 4.502 15.734 4.502l11.378-.181c-.06-1.831-1.694-2.371-1.694-2.371s-5.477-.48-6.627-1.23c-1.15-.72-5.781-1.801-5.781-1.801s1.635-.361 5.629.419c4.025.781 4.025-.719 4.025-.719l-3.632-3.633-11.287.481s5.599-1.231 7.536-1.411c1.936-.21-.091-1.441-.091-1.441l-5.054-2.312 6.961 1.172-1.272-5.133 4.206 6.092-.437-8.488c-.058.006-.122.017-.167.014-.581-.034-1.535.113-1.535.113s.386-.841.714-1.333c.33-.487-2.102-.791-2.102-.791l-.098-.488c-.323-.638-1.136-.33-1.136-.33s.87-1.4 2.107-1.115c1.233.286 1.191-.732 1.191-.732-.132-.438-1.315-1.238-1.315-1.238l.222-.334c.432-.584-.188-2.011-.188-2.011 1.044-.701 2.708.639 2.708.639l.166-.245c.939.41 1.362 2.319 1.812 2.124.454-.199.923-2.112.923-2.112l.208.168c.287-.161.495-1.05.495-1.05 1.143.687.935 1.681.886 1.966-.049.285.37.248.37.248-.181.162-.431.847.008 1.204.434.36 1.059-.251 1.059-.251.272 1.028-.949 2.732-.949 2.732l1.037.581s-2.286.188-3.299.604c.106.192.394.746.446.931.06.225.67.45.522.517-.151.064-.529-.139-.707-.468-.182-.335-.537-.841-.537-.841a1.337 1.337 0 010-.001.515.515 0 00-.159.144c-.345.518-1.704 1.152-2.478 1.322l3.563 12.393s3.055 1.923 4.78 3.152c1.755 1.202 2.391.721 2.391.721l.726-5.103 2.753 8.585c1.423.992 11.682 9.696 11.682 9.696-.666-7.474-1.876-8.645-1.876-8.645l-9.715-6.634 8.201 3.272-2.209-5.793 5.779 9.035c-.18-.871 1.998-8.134 1.998-8.134-1.211 8.644-.06 13.807.424 18.28.515 4.442 2.391 6.273 2.391 6.273l.211-21.912-3.963-5.314-13.437-.93-7.867-4.892 6.869 2.25-6.567-6.693 11.136 7.174 6.083-.3s-5.689-5.554-8.05-6.634c-2.39-1.08-8.201-3.182-8.201-3.182s4.418.69 6.144 1.291c1.754.57 0-3.512 0-3.512l9.077 8.524-.242-3.211-4.719-5.254 5.296 3.934v-6.574s1.239 7.353 1.482 9.484c.271 2.102.755 2.192.755 2.192l3.118 2.07.06-5.251 3.057 9.275.06-10.507-4.75-6.483 3.025 1.47-.696-2.912 3.269 3.213.846-4.473.665 4.473 3.482-3.242-1.968 4.262 3.994-2.731-4.751 6.034v11.106c0-.391.637-.691 1.181-1.771.545-1.081 2.088-7.384 2.088-7.384l.212 5.073 3.661-2.522c.273-3.422 1.512-11.437 1.512-11.437s-.09 4.172-.18 5.494c-.091 1.35.847.75.847.75l4.598-3.392-4.9 5.403v3.002l9.107-8.615-1.028 3.751s1.118-.779 2.36-.749c1.241.059 4.357-.72 4.357-.72-.726 1.32-4.841 2.041-7.716 3.031-2.875.99-7.928 5.793-7.928 5.793l-.06 1.202 6.354-.152 9.986-6.423c-.575.541-5.175 4.953-5.598 5.403-.454.481-.091.72-.091.72 1.119-.239 5.87-1.801 6.445-1.979-.453.205-1.86 1.043-3.373 1.965.351.174.807.773 1.098 1.431.324.732 1.402-1.354 1.402-1.354l.095.351c.296.827 1.721-.807 1.721-.807-.159.252.16.395.16.395.476.037 1.201-1.366 1.201-1.366.664.477.058 2.333-.021 2.547-.08.214.469.414.469.414-.204.045-.734 1.05-.734 1.05l.783.788c-.363-.116-1.593 1.294-1.593 1.294.742.353 1.173 1.235 1.173 1.235-.425-.21-1.709.143-2.417.514-.708.369-2.213.607-2.511-.251-.229-.664-.61-1.235-.981-1.598-.215.093-1.058.518-1.464.66-.442.154-.26-.068-.26-.068s.276-.254.511-.315c.2-.049.938-.267 1.16-.335a3.23 3.23 0 00-.261-.213c-.445-.312-1.346-.968-.441-2.056.742-.89.802-1.905.8-2.249-2.194 1.34-4.566 2.83-4.566 2.83l-13.224.81-3.722 4.803.394 22.302s.605-.631 2.209-7.264c1.604-6.634.514-16.66.514-16.66s1.967 6.605 2.058 7.295c.061.72.605.21.605.21l4.993-9.186-2.481 5.973.544.061 7.716-3.242-9.743 6.604-.454 1.171s-1.21 5.943-1.331 6.873c-.121.901.816.331.816.331 1.453-1.44 11.227-9.936 11.227-9.936l2.451-8.014.998 5.553 6.93-4.202 3.995-14.589-.484 10.866 3.933-6.333-.635 4.862 6.899-.96s-5.961 2.282-6.476 2.521c-.544.21.031.721.031.721l8.502 1.74-11.589-.45-4.448 4.624c3.116-.841 10.077-.632 10.621-.601-1.24 0-11.56 2.221-13.496 3.602-1.936 1.41.545 1.921.545 1.921s7.14.09 11.892-.181c4.751-.3 14.374-4.321 14.374-4.321-3.571 5.492-16.371 6.574-21.606 6.663a68.272 68.272 0 00-5.139.278c.264.297.467.682.443 1.161-.068 1.283.956 1.062.956 1.062.427-.21 1.025-1.543 1.025-1.543l.378.165c.678.326 2.013-.551 2.013-.551.901.919-.163 2.825-.163 2.825l.28.124c-.249 1.009-2.114 1.778-1.834 2.195.28.42 2.315.545 2.315.545l-.137.236c.215.259 1.158.308 1.158.308-.495 1.264-1.543 1.236-1.842 1.236-.299.004-.182.418-.182.418-.2-.155-.941-.279-1.228.221-.288.503.45 1.017.45 1.017-.999.458-2.951-.458-2.951-.458l-.405 1.141s-.278-1.03-.643-1.988c-1.47.562-7.112 1.724-7.112 1.724-5.416.749-8.172 5.612-10.653 7.624-2.481 2.011-2.117 3.362-2.117 3.362-.061 2.041 1.392 1.53 1.392 1.53l4.206-5.432c.121.39.061 1.321.061 1.321-.213 1.14 1.149.209 1.149.209 1.846-2.131 16.039-8.104 17.552-8.614 1.482-.48 1.876-1.682 1.876-1.682l1.391-4.051 1.03 3.751 1.149-.209 9.895-3.812-9.259 5.402c0 1.651 4.085.451 4.085.451l16.854-8.134-11.559 8.404.273-.061 12.406-1.08-14.132 3.392 2.209 2.341-4.962-1.021c-5.023-1.56-9.23-.6-9.23-.6s-7.414 2.041-8.23 2.372c-.817.3.031.75.031.75 7.958-.09 16.521 2.611 18.911 4.082 2.392 1.471 3.48.57 3.48.57l9.018-5.702-1.12 2.041c-.877 2.011 1.362 1.23 1.362 1.23l4.689-1.44-3.69 3.842 7.475.6-3.722.99 1.331 2.912c-.061 0-1.211-.029-4.298-2.432-3.147-2.46-6.596-.749-6.596-.749l-3.541 1.711 13.315 5.583zm-40.309 5.178s-2.092.373-4.675-1.92c0 0-.201.353-.277.754-.079.402-.574 2.744-.884 2.961-.307.214-1.003-2.702-1.027-3.573l-1.788 1.164s-.963-1.921 1.078-2.777c0 0 .355-.353.512-.705-.644-.068-3.1-.335-3.341-.297-.28.045-.461-.836.261-.701.616.12 2.579.528 3.146.645a.303.303 0 00-.086-.168c-.359-.377-.93-1.993 0-2.608l.071.066 1.549 1.523s.43-1.559 1.921-2.118l1.49-.564-1.59 2.631s2.308-1.452 4.972-.098l-3.246 1.078s3.359 1.091 3.994 1.996c0 0-2.026.802-4.451-.091l2.371 2.802zm-19.767 53.222s.065.924-.93.934c-.994.008-.946-.934-.946-.934-13.074-1.965-10.846-24.49-10.846-24.49h.743c-.149 8.13.445 10.685.693 12.245.248 1.56 1.782 3.205.991-.823-.792-4.029-.495-11.422-.495-11.422h21.58s2.674 22.967-10.79 24.49zM65.427 88.001c-.02-.477.481-.571.481-.571s.578 0 .171-.424c-.411-.424-3.887-.424-3.887-.424l1.468-1.291s-1.13-.015-1.633-.256c-.5-.239-1.84-.184-1.84-.184.115-.37.762-.809.762-.809-.296-.406-2.191-1.125-2.191-1.125.594-.535 3.14-.331 3.14-.331-.114-.297-1.172-1.347-1.172-1.347 2.095.225 3.401 1.456 3.918 2.064.522.607 1.191.239 1.191.239-.052-.307.296-1.234.348-1.365-.018.086-.038.526 1.173 1.22 1.359.772.799 3.001.799 3.001.669.533 1.671.094 1.671.094.707 1.197-.518 2.172-.741 2.394l-.018.019c.007.247.033.533.109.746.174.499.061 1.558.061 1.558s-.239.359-.178.055c.06-.303.03-1.004-.11-1.556a1.567 1.567 0 01-.007-.691c.045-.229.117-.379.117-.379l.017-.176.001-.005-.018.181s-.072.15-.117.379c-.247.199-.647.349-1.362-.39-.875-.901-2.153-.626-2.153-.626zM27.344 44.033c-.208-.24-1.558-.875-1.558-.875 2.047-.487 3.692.236 4.388.635.696.397 1.203-.172 1.203-.172-.166-.293-.141-1.419-.141-1.419 0 .017.016.498 1.525.769 1.539.277 1.77 2.563 1.77 2.563.81.276 1.603-.473 1.603-.473 1.075.889.252 2.221.119 2.502a.485.485 0 01-.012.023c.087.232.207.491.356.667.333.414.586 1.449.586 1.449s-.103.416-.148.108c-.045-.303-.313-.952-.632-1.429a1.614 1.614 0 01-.241-.649c-.163.271-.492.547-1.415.09-1.128-.555-2.24.131-2.24.131-.18-.443.258-.698.258-.698s.544-.195.015-.453c-.53-.263-3.797.897-3.797.897l.941-1.704s-1.075.361-1.626.304c-.553-.06-1.794.439-1.794.439-.018-.382.444-1.017.444-1.017-.42-.281-2.448-.327-2.448-.327.378-.702 2.844-1.361 2.844-1.361zm33.241-27.665s1.983.908 2.996 3.264l.42-3.631s1.71 1.249 1.809 4.69c0 0 .397-.098.745-.32.344-.221 2.401-1.475 2.773-1.399.37.072-1.291 2.577-1.907 3.193l2.08.492s-.745 2.014-2.776 1.129c0 0-.496-.011-.859.12.397.522 1.88 2.457 2.073 2.608.223.169-.295.908-.692.292-.338-.525-1.384-2.217-1.691-2.709a.31.31 0 00-.068.18c-.023.514-.817 2.037-1.907 1.793v-.101l.049-2.161s-1.438.762-2.871.075l-1.437-.686 3.022-.664s-2.651-.664-3.491-3.513l3.018 1.596s-1.51-3.168-1.286-4.248zm46.926 11.2c.666.443.443-1.892.443-1.892l.273.245c.696.54 1.017-1.595 1.017-1.595 0 .292.348.244.348.244.421-.221.272-1.794.272-1.794.817.053 1.308 1.944 1.362 2.162.049.221.617.101.617.101-.149.146-.049 1.275-.049 1.275l1.088.249c-.37.097-.643 1.939-.643 1.939.817-.098 1.661.416 1.661.416-.473.049-1.362 1.033-1.758 1.72-.397.69-1.537 1.696-2.254 1.13a4.353 4.353 0 00-1.7-.826c-.132.201-.607 1.004-.869 1.335-.291.368-.261.086-.261.086s.098-.364.265-.536c.139-.146.635-.716.789-.898a1.99 1.99 0 00-.328-.045c-.544-.025-1.661-.096-1.487-1.5.174-1.401-.62-2.432-.62-2.432.348-.119 1.165.173 1.834.616zm15.785 8.168s2.08-.075 2.636 1.4c.556 1.475 1.597.725 1.597.725.374-.443.385-2.222.385-2.222h.508c.915.034 1.981-1.598 1.981-1.598 1.46.589 1.214 3.245 1.214 3.245h.371c.223 1.254-1.486 3.016-.968 3.351.522.331 2.864-.518 2.864-.518l-.038.334c.369.184 1.448-.221 1.448-.221.072 1.658-1.116 2.135-1.448 2.285-.337.146 0 .552 0 .552-.299-.076-1.188.145-1.264.847-.076.698 1.003.92 1.003.92-.893.995-3.53.923-3.53.923l.114 1.47s-1.789-2.229-2.932-2.986c-.128.239-.51.926-.67 1.111-.191.221-.002 1.005-.177.896-.174-.112-.223-.642 0-1.058.223-.417.507-1.137.507-1.137a.671.671 0 00-.257-.064c-.931.004-3.045-1.365-3.419-1.992-.371-.627-1.188-1.513-1.188-1.513s1.153-.184 1.894-.184c.742 0-.631-2.724-.631-2.724l.446-.442c.446-.774-.446-1.4-.446-1.4zm15.898 14.353s-1.23.847-1.392 1.118c0 0 2.541.247 3.034.873 0 0-1.993.38-2.357.725 0 0 .56.551.605.931 0 0-1.308-.286-1.842-.139-.536.15-1.657-.03-1.657-.03l1.218 1.524s-1.255-.222-2.351-.32l-1.083 1.152s-1.211-.494-2.233.241c-.827.599-1.198.389-1.406.149 0 .195-.027.44-.132.676-.235.522-.389 1.204-.383 1.516.004.308-.162-.087-.162-.087s.071-1.061.332-1.524c.115-.198.19-.473.239-.716-.004-.007-.012-.014-.015-.022-.178-.255-1.21-1.43-.307-2.488 0 0 .912.612 1.664.203 0 0-.154-2.293 1.317-2.818 1.472-.525 1.372-1.009 1.372-1.009s.216 1.103.104 1.422c0 0 .59.476 1.209-.03.621-.507 2.123-1.49 4.226-1.347zm2.091 14.374c-.146.146-.048 1.276-.048 1.276l1.089.248c-.371.096-.643 1.938-.643 1.938.817-.096 1.656.418 1.656.418-.469.048-1.361 1.031-1.755 1.722-.396.686-1.536 1.692-2.254 1.13a4.373 4.373 0 00-1.698-.826c-.137.206-.613 1.005-.871 1.335-.291.364-.26.083-.26.083s.098-.364.264-.537c.14-.141.632-.712.791-.897a2.078 2.078 0 00-.328-.045c-.546-.026-1.662-.097-1.488-1.496.174-1.4-.62-2.432-.62-2.432.348-.124 1.165.169 1.83.612.67.443.447-1.891.447-1.891l.273.247c.696.54 1.017-1.599 1.017-1.599 0 .297.344.248.344.248.424-.22.273-1.792.273-1.792.817.049 1.312 1.939 1.362 2.16.053.222.619.098.619.098zM79.999 0C35.817 0 0 35.818 0 79.999 0 124.182 35.817 160 79.999 160c44.183 0 80.002-35.818 80.002-80.001C160.001 35.818 124.182 0 79.999 0z"/>
  <path d="M412.737 126.864v-26.323l19.694 20.642v-19.582h2.804V128l-19.696-20.642v19.506h-2.802zm-195.356 0l4.204-26.664 9.697 21.324 9.883-21.363 3.94 26.703h-2.877l-2.387-17.575-8.597 18.634-8.485-18.634-2.499 17.575h-2.879zM512.14 106.6c-.34-.683-.91-1.439-1.477-1.893-.492-.378-1.402-.872-2.84-.872-2.5 0-4.242 1.553-4.242 3.902 0 .985.264 1.552.947 2.196.756.758 1.702 1.175 2.651 1.592l2.424 1.06c1.476.643 2.84 1.325 3.9 2.386 1.289 1.288 1.818 2.765 1.818 4.583 0 4.659-3.445 7.765-7.992 7.765-1.666 0-3.748-.342-5.492-2.046-1.249-1.213-2.006-2.954-2.347-4.47l2.727-.757c.19 1.326.795 2.461 1.514 3.22 1.1 1.098 2.35 1.401 3.637 1.401 3.447 0 5.075-2.461 5.075-5 0-1.135-.34-2.12-1.25-2.955-.719-.681-1.705-1.135-3.03-1.741l-2.273-1.061c-.984-.454-2.235-.985-3.37-2.083-1.099-1.06-1.742-2.235-1.742-4.128 0-3.901 2.991-6.516 7.082-6.516 1.553 0 2.803.303 4.053 1.138 1.022.681 1.894 1.704 2.462 2.802l-2.235 1.477zm-233.037 7.65c0-7.535 5.871-13.067 13.144-13.067 7.271 0 13.143 5.532 13.143 13.067 0 7.5-5.834 13.069-13.143 13.069-7.311 0-13.144-5.569-13.144-13.069zm200.128-12.649v25.263h-2.802v-25.263h2.802zm-100.27 0c1.4 0 3.938.114 5.794 1.591.795.606 2.272 2.159 2.272 5.226 0 1.251-.264 3.446-2.5 4.962 3.522.87 4.811 3.939 4.811 6.363 0 2.424-1.212 4.393-2.575 5.453-2.008 1.592-4.318 1.668-6.061 1.668h-6.288v-25.263h4.547zm-123.446 0c2.537 0 4.658.304 6.362 1.78 1.856 1.591 2.311 3.825 2.311 5.416 0 3.56-2.235 7.083-7.993 7.083h-2.461v10.984h-2.804v-25.263h4.585zm86.68 2.652h-10.303v7.499h10v2.651h-10v9.81h10.303v2.651h-13.106v-25.263h13.106v2.652zm65.395 0h-10.302v7.499h9.998v2.651h-9.998v9.81h10.302v2.651h-13.106v-25.263h13.106v2.652zm84.366 0v22.611h-2.803v-22.611h-6.136v-2.652h15.074v2.652h-6.135zm-177.596 11.74l-8.295-14.392h3.257l6.439 11.287 6.514-11.287h3.258l-8.369 14.392v10.871h-2.804v-10.871zm46.087-11.74h-10.304v7.499h10.001v2.651h-10.001v9.81h10.304v2.651h-13.106v-25.263h13.106v2.652zm-89.446-2.652v22.612h6.969v2.651h-9.771v-25.263h2.802zm200.508 2.652h-8.711v7.462h8.408v2.649h-8.408v12.5h-2.803v-25.263h11.514v2.652zm-258.405 0h-10.301v7.499h9.999v2.651h-9.999v9.81h10.301v2.651H200v-25.263h13.104v2.652zm241.743 0h-10.302v7.499h10v2.651h-10v9.81h10.302v2.651h-13.104v-25.263h13.104v2.652zm-172.866 9.997c0 5.796 4.584 10.417 10.266 10.417s10.263-4.621 10.263-10.417c0-5.794-4.581-10.415-10.263-10.415-5.682 0-10.266 4.621-10.266 10.415zm95.236 9.963h3.22c1.628 0 3.219-.115 4.432-1.062.985-.718 1.665-1.968 1.665-3.484 0-2.007-1.173-3.18-2.157-3.711-.947-.531-2.274-.758-4.281-.758h-2.879v9.015zm-301.755-9.019c-.272 0-.454.211-.454.481 0 .24.182.449.454.449a.462.462 0 00.454-.449.47.47 0 00-.454-.481zm-6.294 0a.477.477 0 00-.484.481c0 .24.212.449.484.449a.462.462 0 00.454-.449.47.47 0 00-.454-.481zm22.18 0a.476.476 0 00-.482.481c0 .24.211.449.482.449a.463.463 0 00.455-.449.471.471 0 00-.455-.481zm-6.354 0a.477.477 0 00-.484.481c0 .24.212.449.484.449a.463.463 0 00.455-.449.471.471 0 00-.455-.481zm-3.147 0a.47.47 0 00-.453.481c0 .24.21.449.453.449.273 0 .485-.209.485-.449a.477.477 0 00-.485-.481zm-3.177 0a.477.477 0 00-.484.481c0 .24.212.449.484.449a.462.462 0 00.453-.449c0-.27-.211-.481-.453-.481zm9.561.93c.273 0 .485-.209.485-.449a.477.477 0 00-.485-.481c-.241 0-.452.211-.452.481 0 .24.211.449.452.449zm-15.976-.93a.471.471 0 00-.454.481c0 .24.212.449.454.449.272 0 .484-.209.484-.449a.477.477 0 00-.484-.481zm17.581-.539c.271 0 .483-.21.483-.452a.476.476 0 00-.483-.48.47.47 0 00-.454.48c0 .242.211.452.454.452zm-3.268-.932c-.273 0-.454.211-.454.48 0 .242.181.452.454.452.242 0 .453-.21.453-.452a.47.47 0 00-.453-.48zm-9.412 0a.477.477 0 00-.484.48c0 .242.212.452.484.452.243 0 .454-.21.454-.452a.47.47 0 00-.454-.48zm6.174 0a.47.47 0 00-.454.48c0 .242.212.452.454.452.272 0 .484-.21.484-.452a.477.477 0 00-.484-.48zm-3.177 0a.47.47 0 00-.454.48c0 .242.211.452.454.452.271 0 .483-.21.483-.452a.476.476 0 00-.483-.48zm-6.325 0c-.273 0-.453.211-.453.48 0 .242.18.452.453.452.242 0 .454-.21.454-.452a.47.47 0 00-.454-.48zm-3.54 0a.476.476 0 00-.484.48c0 .242.211.452.484.452.241 0 .453-.21.453-.452a.47.47 0 00-.453-.48zm2.088-1.41a.477.477 0 00-.485.48c0 .241.212.451.485.451.241 0 .453-.21.453-.451a.47.47 0 00-.453-.48zm19.063.931c.273 0 .452-.21.452-.451 0-.269-.179-.48-.452-.48a.47.47 0 00-.453.48c0 .241.21.451.453.451zm-15.886-.931a.47.47 0 00-.454.48c0 .241.211.451.454.451.272 0 .484-.21.484-.451a.477.477 0 00-.484-.48zm-6.385.48a.477.477 0 00-.484-.48.47.47 0 00-.455.48c0 .241.212.451.455.451.272 0 .484-.21.484-.451zm9.592-.48c-.271 0-.454.211-.454.48 0 .241.183.451.454.451.244 0 .454-.21.454-.451a.47.47 0 00-.454-.48zm9.593.931c.242 0 .453-.21.453-.451a.47.47 0 00-.453-.48.477.477 0 00-.484.48c0 .241.212.451.484.451zm-6.385-.931a.476.476 0 00-.483.48c0 .241.212.451.483.451.242 0 .454-.21.454-.451a.47.47 0 00-.454-.48zm3.117 0a.47.47 0 00-.454.48c0 .241.212.451.454.451.273 0 .485-.21.485-.451a.477.477 0 00-.485-.48zm168.649.915h2.311c3.332 0 5.34-1.666 5.34-4.582 0-4.015-3.75-4.393-5.568-4.393h-2.083v8.975zm123.483-.529h2.122c1.477 0 4.961-.303 4.961-4.205 0-4.165-4.09-4.241-4.886-4.241h-2.197v8.446zm-286.716-1.256c.273 0 .485-.211.485-.452a.476.476 0 00-.485-.479.47.47 0 00-.453.479c0 .241.212.452.453.452zm-3.843-.931a.47.47 0 00-.454.479c0 .241.212.452.454.452.273 0 .485-.211.485-.452a.476.476 0 00-.485-.479zm-6.384 0a.476.476 0 00-.485.479c0 .241.212.452.485.452a.464.464 0 00.453-.452.47.47 0 00-.453-.479zm3.358 0a.47.47 0 00-.453.479c0 .241.212.452.453.452.272 0 .484-.211.484-.452a.476.476 0 00-.484-.479zm-9.713 0a.47.47 0 00-.454.479c0 .241.212.452.454.452.273 0 .485-.211.485-.452a.476.476 0 00-.485-.479zm3.147.931a.444.444 0 00.453-.452c0-.269-.181-.479-.453-.479a.47.47 0 00-.454.479c0 .241.212.452.454.452zm-6.869 0a.465.465 0 00.454-.452.47.47 0 00-.454-.479.475.475 0 00-.484.479c0 .241.211.452.484.452zm4.388-2.612a.463.463 0 00-.455.451c0 .269.212.449.455.449.272 0 .484-.18.484-.449 0-.242-.212-.451-.484-.451zm4.175 0a.444.444 0 00-.454.451c0 .269.183.449.454.449.244 0 .454-.18.454-.449a.462.462 0 00-.454-.451zm-7.564 0a.463.463 0 00-.455.451c0 .269.212.449.455.449.271 0 .483-.18.483-.449 0-.242-.212-.451-.483-.451zm17.61.9c.243 0 .455-.18.455-.449a.463.463 0 00-.455-.451.443.443 0 00-.453.451c0 .269.181.449.453.449zm-3.357-.93a.463.463 0 00-.455.449.47.47 0 00.455.481c.271 0 .453-.21.453-.481a.444.444 0 00-.453-.449zm-3.995.481c0 .269.211.449.453.449.273 0 .485-.18.485-.449 0-.242-.212-.451-.485-.451a.462.462 0 00-.453.451zm2.178-1.952a.463.463 0 00-.453.45c0 .27.212.481.453.481a.477.477 0 00.484-.481c0-.24-.212-.45-.484-.45zm-10.803-.03a.444.444 0 00-.453.451c0 .239.212.449.453.449.273 0 .455-.21.455-.449 0-.271-.182-.451-.455-.451zm4.327.451c0-.271-.211-.451-.484-.451a.444.444 0 00-.454.451c0 .239.212.449.454.449.273 0 .484-.21.484-.449zm3.118-.451c-.273 0-.485.18-.485.451 0 .239.212.449.485.449.241 0 .453-.21.453-.449a.444.444 0 00-.453-.451zm6.839-.15a.464.464 0 00-.455.45c0 .27.212.45.455.45.272 0 .453-.18.453-.45 0-.24-.181-.45-.453-.45zm-12.256-.51c.242 0 .453-.211.453-.481a.462.462 0 00-.453-.45.462.462 0 00-.453.45c0 .27.211.481.453.481zm3.903-.541c0-.24-.212-.45-.454-.45-.272 0-.484.21-.484.45 0 .24.212.451.484.451a.464.464 0 00.454-.451zm3.087 0c0-.24-.212-.45-.453-.45a.445.445 0 00-.456.45c0 .24.183.451.456.451a.464.464 0 00.453-.451zm3.177 0c0-.24-.181-.45-.453-.45a.464.464 0 00-.455.45c0 .24.212.451.455.451a.444.444 0 00.453-.451zm221.829-47.672c0 15.372-11.054 26.352-26.957 26.352-15.901 0-26.956-10.98-26.956-26.352C252.94 43.056 263.995 32 279.896 32c15.903 0 26.957 11.056 26.957 26.427zm148.442 6.36c-3.03 3.787-4.013 4.696-5.453 6.134l-1.136 1.136 10.223 11.585h-12.192l-4.921-5.678c-2.347 2.118-8.255 6.815-16.279 6.815-10.375 0-15.828-7.194-15.828-14.464 0-7.496 5.831-11.433 8.103-12.796l3.936-2.347c-1.741-1.742-5.072-5.68-5.072-10.603 0-6.283 4.543-12.569 13.932-12.569 8.785 0 13.555 5.83 13.555 12.04 0 3.636-1.74 7.95-7.118 11.206l-2.12 1.289 8.33 9.541c3.406-3.333 5.224-5.528 6.284-6.968l5.756 5.679zm56.725 17.038c-3.028 1.59-7.043 2.954-12.495 2.954-8.86 0-14.235-3.03-18.476-7.044-5.83-5.603-8.102-11.887-8.102-19.308 0-9.162 3.786-15.749 8.102-19.763C486.122 33.894 492.408 32 499.6 32c3.559 0 7.801.606 12.42 3.104v11.511c-4.619-5.3-10.374-5.679-12.192-5.679-10.147 0-16.735 8.329-16.735 17.643 0 11.206 8.632 17.265 17.114 17.265 4.695 0 8.86-2.045 11.813-5.529v11.51zm56.798-23.398c0 15.372-11.058 26.352-26.959 26.352-15.902 0-26.956-10.98-26.956-26.352 0-15.371 11.054-26.427 26.956-26.427 15.901 0 26.959 11.056 26.959 26.427zm9.093 14.387c3.333 0 5.905 2.574 5.905 5.906s-2.572 5.907-5.905 5.907c-3.332 0-5.906-2.575-5.906-5.907s2.574-5.906 5.906-5.906zm-339.59-39.678v42.026h15.597v8.48h-25.442V33.136h9.845zm125.568 0c7.042 0 13.175.758 18.779 4.922 6.134 4.62 9.692 11.965 9.692 20.369 0 8.405-3.483 15.674-10.147 20.369-5.906 4.166-11.435 4.846-18.476 4.846h-13.024V33.136h13.176zm-154.045 0v42.026h15.598v8.48H200V33.136h9.844zm111.407 27.412l-17.342-27.412h11.662l10.827 17.569 10.83-17.569h11.66l-17.793 27.412v23.094h-9.844V60.548zm105.496.226c-3.861 2.045-7.193 4.846-7.193 8.709 0 3.785 3.179 6.663 7.421 6.663 4.088 0 7.646-2.726 9.312-4.391l-9.54-10.981zm131.924-2.347c0-10.222-6.968-17.491-16.812-17.491-9.844 0-16.809 7.269-16.809 17.491s6.965 17.417 16.809 17.417c9.844 0 16.812-7.195 16.812-17.417zm-261.963 0c0-10.222-6.968-17.491-16.812-17.491-9.843 0-16.811 7.269-16.811 17.491s6.968 17.417 16.811 17.417c9.844 0 16.812-7.195 16.812-17.417zm63.849 16.735h3.029c2.498 0 7.951-.151 12.343-3.332 4.014-2.878 6.284-8.027 6.284-13.403 0-5.299-2.195-10.45-6.208-13.479-4.089-3.028-9.087-3.331-12.419-3.331h-3.029v33.545zM89.411 65.755c.242.421 1.543-.09 1.543-.09l12.146-5.522c-.196-.34-.336-.652-.359-.843-.07-.593-.393-1.519-.393-1.519s.923.236 1.484.48c.556.24.427-2.251.427-2.251l.479-.187a.705.705 0 00.264-.353c-1.744.179-3.09.364-4.335.411-2.36.119-8.533 6.933-10.106 8.434-1.574 1.532-1.15 1.44-1.15 1.44zm14.731-3.003c-.121.046-.211.237-.283.379l1.642.181c-.165-.416-.344-.808-.523-1.074-.198.131-.667.442-.836.514zm-.449.361a.85.85 0 01.365-.515c.269-.184.646-.503.738-.578a.506.506 0 00-.155-.115c-.314-.136-.715-.563-1.069-1.041l-2.299 1.98 2.42.269zM430.23 51.309l2.272-1.589c2.726-1.895 3.483-3.939 3.483-5.604 0-2.499-1.515-4.998-4.922-4.998-3.559 0-5.149 2.423-5.149 4.694 0 1.895 1.061 3.483 2.12 4.771l2.196 2.726z"/>
</svg>
