<?xml version="1.0" encoding="UTF-8"?>
<!DOCTYPE svg PUBLIC "-//W3C//DTD SVG 1.1//EN" "http://www.w3.org/Graphics/SVG/1.1/DTD/svg11.dtd">
<!-- Creator: CorelDRAW X7 -->
<svg xmlns="http://www.w3.org/2000/svg" xml:space="preserve" width="497px" height="154px" version="1.1" style="shape-rendering:geometricPrecision; text-rendering:geometricPrecision; image-rendering:optimizeQuality; fill-rule:evenodd; clip-rule:evenodd"
viewBox="0 0 494 153"
 xmlns:xlink="http://www.w3.org/1999/xlink">
 <defs>
  <style type="text/css">
   <![CDATA[
    .fil1 {fill:#BEAC69;fill-rule:nonzero}
    .fil3 {fill:url(#id0)}
    .fil2 {fill:url(#id1)}
    .fil0 {fill:url(#id2);fill-rule:nonzero}
   ]]>
  </style>
  <linearGradient id="id0" gradientUnits="userSpaceOnUse" x1="247.07" y1="63.601" x2="247.07" y2="0.0011733">
   <stop offset="0" style="stop-opacity:1; stop-color:#7F663B"/>
   <stop offset="1" style="stop-opacity:1; stop-color:#FCED9D"/>
  </linearGradient>
  <linearGradient id="id1" gradientUnits="userSpaceOnUse" xlink:href="#id0" x1="247.872" y1="153.234" x2="247.872" y2="120.135">
  </linearGradient>
  <linearGradient id="id2" gradientUnits="userSpaceOnUse" xlink:href="#id0" x1="248.305" y1="108.633" x2="248.305" y2="79.9368">
  </linearGradient>
 </defs>
 <g id="Layer_x0020_1">
  <metadata id="CorelCorpID_0Corel-Layer"/>
  <path class="fil0" d="M249 110l-20 -23 9 -8 0 0 21 0 9 9 0 0 -19 22zm-16 -25l-2 2 0 0 0 1 8 9 2 3 -6 -13 0 0 0 0 1 -4 -3 2zm5 -4l1 -1 -1 0 0 1zm4 -1l1 2 3 -2 -4 0zm8 0l4 2 0 0 1 -2 -5 0zm7 0l2 1 -1 -1 -1 0zm4 3l1 5 0 0 0 0 -7 12 3 -3 7 -9 0 0 -2 -3 -2 -2zm-26 4l0 0c1,1 3,4 11,16l2 -15 1 0 1 15 12 -15 -8 -6 0 0 -5 6 -6 -6 0 0 -8 5c0,0 0,0 0,0l0 0 0 0z"/>
  <polygon class="fil1" points="67,91 203,91 203,92 67,92 "/>
  <polygon class="fil1" points="294,91 430,91 430,92 294,92 "/>
  <path class="fil2" d="M421 122l0 -1c4,0 8,0 11,0 1,-1 2,-1 3,-1 2,0 5,1 7,1 2,1 4,2 6,3 1,2 3,3 4,5 1,2 1,4 1,7 0,3 -1,5 -2,8 -2,2 -4,4 -7,6 -2,1 -6,2 -9,2 0,0 -1,0 -2,0 -1,0 -2,0 -2,0 0,0 -1,0 -1,0 -1,0 -2,0 -3,0 -1,0 -1,0 -2,0 -1,0 -2,0 -2,0l-2 0 0 -1c1,0 2,-1 3,-1 0,-1 0,-5 0,-12 0,-5 0,-9 0,-11 0,-2 0,-4 -1,-4 0,-1 -1,-1 -2,-1zm-378 30l0 -1c1,0 2,0 2,0 1,-1 1,-1 1,-1 0,-1 1,-5 1,-11 0,-1 0,-3 -1,-4 0,-1 0,-2 0,-2 0,-1 0,-2 0,-3 0,-1 0,-3 0,-4 0,-1 0,-2 0,-3 0,0 0,0 0,-1 -1,0 -1,0 -1,0 -1,0 -1,0 -2,-1 0,0 0,0 0,0 1,0 2,0 4,0 1,0 2,0 3,0l1 -1c1,0 1,0 2,0 2,0 4,1 6,1 1,1 3,2 4,3 1,1 2,2 3,3 0,1 0,2 0,4 0,1 0,3 -1,4 -1,2 -3,3 -5,4 -2,1 -4,2 -7,2 -1,0 -2,-1 -3,-1 0,2 0,3 0,5 0,1 0,2 0,3 0,1 0,1 0,2 0,0 1,1 1,1 1,0 2,0 3,0l0 1c0,0 -1,0 -2,0 -1,0 -2,0 -3,0 -1,0 -3,0 -4,0l-1 0c0,0 -1,0 -1,0zm7 -30c0,0 0,1 0,3 0,1 0,2 0,3 0,1 0,2 0,4 0,1 0,1 0,2 0,1 0,3 0,5 1,0 2,0 4,0 1,0 2,0 4,-1 1,0 2,-1 3,-2 1,-2 1,-3 1,-5 0,-2 0,-3 -1,-5 0,-1 -1,-2 -3,-3 -1,-1 -3,-1 -5,-1 -1,0 -2,0 -3,0zm36 19l-3 -4c-2,0 -4,0 -5,0l0 5c0,2 0,3 0,5 0,1 0,2 0,3 1,0 1,0 1,1 0,0 1,0 2,0 0,0 1,0 1,1 0,0 0,0 -1,0 0,0 -1,0 -2,0 -1,0 -2,0 -2,0 -2,0 -3,0 -5,0 0,0 0,0 0,0 -1,0 -1,0 -1,0 0,-1 0,-1 0,-1 0,0 1,0 1,0 1,0 1,0 2,-1 0,0 0,-1 0,-2 1,-1 1,-3 1,-6l0 -10c0,-3 0,-5 0,-6 0,-1 -1,-2 -1,-3 0,0 0,-1 -1,-1 0,0 -1,0 -2,0l0 -1c1,0 2,0 4,0 0,0 1,0 4,0 2,0 4,-1 4,-1 2,0 4,1 5,1 1,1 2,1 3,2 1,1 2,2 2,3 1,1 1,2 1,3 0,1 0,2 -1,3 0,1 -1,2 -2,3 -1,0 -2,1 -4,2l1 1c2,3 3,4 4,6 1,1 2,2 3,4 2,1 3,2 4,3 1,1 2,1 3,1 1,0 1,1 1,1 0,0 0,0 0,0 -1,0 -1,0 -1,0 -2,0 -4,0 -5,-1 -1,0 -3,-1 -4,-3 -1,-1 -2,-2 -3,-3 -1,-1 -3,-3 -4,-5zm-8 -6c1,1 2,1 4,1 1,0 2,0 2,0 1,-1 2,-1 3,-1 1,-1 2,-1 2,-2 1,-1 1,-2 1,-4 0,-1 0,-2 0,-3 -1,-1 -2,-2 -3,-3 -1,-1 -3,-1 -4,-1 -1,0 -2,0 -3,0 -1,0 -1,0 -1,1 -1,0 -1,5 -1,12zm29 -13l0 -1c1,0 3,0 3,0 2,0 3,0 3,0 1,0 1,0 3,0 1,0 3,0 4,0l0 1c-1,0 -2,0 -3,0 0,0 -1,0 -1,1 -1,1 -1,5 -1,11 0,5 0,8 0,9 0,1 0,3 0,4 0,1 0,2 1,3 0,0 0,0 1,1 0,0 1,0 3,0l0 1c-1,0 -1,0 -2,0 0,0 -1,0 -2,0 0,0 -1,0 -1,0 -1,0 -1,0 -2,0 0,0 -1,0 -1,0 -1,0 -2,0 -2,0 -1,0 -2,0 -2,0 -1,0 -1,0 -2,0l0 -1c2,0 3,0 4,-1 0,0 1,0 1,-1 0,-1 1,-3 1,-5 0,-2 0,-5 0,-8 0,-2 0,-6 0,-10 0,-1 -1,-2 -1,-3 0,0 0,-1 -1,-1 -1,0 -2,0 -3,0zm17 -1l0 -1 2 1 4 0c0,0 1,0 1,0 0,0 1,0 1,0l3 0 0 0c-2,1 -2,1 -3,1 0,0 0,0 0,0 0,1 0,2 1,3 0,2 1,4 2,6 1,2 2,4 2,5l4 7 0 2c1,0 1,1 1,2 1,-1 2,-3 2,-4 1,-2 2,-3 2,-5 1,-1 1,-2 2,-2l3 -7c0,-1 1,-2 1,-3 0,-1 1,-2 1,-3 0,-1 -1,-1 -3,-2l0 -1c2,1 4,1 6,1 0,0 1,0 1,0 1,0 1,0 2,0l0 0c-1,1 -2,1 -3,2 0,0 -1,1 -1,2 -1,0 -2,2 -3,5l-5 10c-1,2 -2,5 -3,7 -1,2 -2,4 -2,5l-1 0c0,-1 -1,-2 -1,-3l-2 -3c0,-1 -1,-3 -2,-5l-4 -8c-3,-6 -4,-10 -5,-11 0,0 -1,0 -1,0 -1,0 -1,-1 -2,-1zm38 1l0 -1c2,0 3,0 4,0 1,0 3,0 3,0 0,0 1,0 3,0 1,0 2,0 4,0l0 1c-2,0 -3,0 -3,0 -1,0 -1,0 -1,1 -1,1 -1,5 -1,11 0,5 0,8 0,9 0,1 0,3 0,4 0,1 0,2 0,3 0,0 1,0 2,1 0,0 1,0 3,0l-1 1c0,0 0,0 -1,0 -1,0 -1,0 -2,0 -1,0 -1,0 -2,0 0,0 0,0 -1,0 -1,0 -1,0 -2,0 0,0 -1,0 -2,0 0,0 -1,0 -2,0 0,0 -1,0 -1,0l0 -1c2,0 3,0 4,-1 0,0 1,0 1,-1 0,-1 0,-3 1,-5 0,-2 0,-5 0,-8 0,-2 0,-6 -1,-10 0,-1 0,-2 0,-3 0,0 -1,-1 -1,-1 -1,0 -2,0 -4,0zm20 0l0 -1c2,0 3,0 4,0 0,0 1,0 1,0 3,0 5,0 5,0l0 1c-1,0 -2,0 -2,0 -1,0 -1,1 -1,1 0,1 0,1 -1,3 0,1 0,3 0,5 0,3 0,5 0,7 0,2 0,4 0,6 0,2 0,3 0,4 0,1 1,1 1,2 0,0 0,0 1,0 1,0 2,0 4,0 2,0 4,0 6,0 1,-1 3,-1 3,-1 1,-1 2,-2 2,-4l1 0c0,1 0,2 0,3 -1,2 -1,3 -2,4 -1,0 -2,0 -3,0 0,0 -1,0 -1,0 -1,0 -1,0 -2,0l-17 0 0 -1c1,0 2,0 2,-1 1,0 1,0 1,-1 1,0 1,-1 1,-2 0,-1 0,-3 0,-5l0 -11c0,-2 0,-4 0,-5 0,-1 0,-2 0,-3 -1,0 -1,-1 -1,-1 -1,0 -1,0 -2,0zm53 23l1 0c0,1 0,3 -1,4 0,1 0,2 -1,3 0,0 -1,0 -2,0 -1,0 -2,0 -4,0 -1,0 -2,0 -3,0 -1,0 -2,0 -2,0 -1,0 -2,0 -3,0 -2,0 -3,0 -5,0 -2,0 -4,0 -5,0l1 -1c0,0 1,0 1,0 1,0 1,0 1,-1 0,0 0,0 0,0 1,0 1,-1 1,-1 0,-1 0,-2 0,-4 0,-1 0,-3 0,-5 0,-2 0,-3 0,-4l0 -7c0,-3 0,-4 0,-5 0,-1 -1,-2 -1,-2 0,0 -1,0 -2,-1 0,0 0,0 0,0l15 0c2,0 5,0 8,0 0,1 0,2 0,4 0,1 -1,2 -1,2 0,0 -1,0 -1,-1 0,0 0,0 0,0 0,-1 1,-1 1,-1 0,-2 -1,-2 -3,-3 -1,0 -3,0 -5,0 -2,0 -4,0 -7,0 0,3 0,5 0,7 0,1 0,3 0,4 0,2 0,2 0,2 0,0 1,0 3,0 4,0 6,0 7,0 1,0 1,0 2,0 0,0 0,0 0,-1 1,0 1,-1 1,-2l1 0c0,2 0,3 0,4 0,2 0,3 0,5l-1 0c0,-2 0,-3 -1,-3 0,-1 -1,-1 -2,-1 -1,0 -3,0 -6,0 -2,0 -3,0 -4,0l0 3c-1,4 0,8 0,10 0,0 1,0 1,0 0,0 1,0 1,0 0,0 1,0 2,0 0,1 1,1 2,1 3,0 5,-1 6,-1 2,0 3,-1 3,-2 1,-1 2,-2 2,-3zm37 -8l0 0c0,1 -1,1 -1,1 0,0 0,0 0,1 0,0 0,0 0,0 0,1 0,1 0,2 0,1 0,2 0,4 0,1 0,2 0,3 0,0 0,1 0,1 0,0 0,1 1,1l-1 0c0,0 -1,1 -3,1 -1,0 -3,1 -4,1 -1,0 -2,0 -3,0 0,0 -1,0 -2,0 -3,0 -6,0 -8,-1 -2,-1 -4,-2 -5,-4 -2,-2 -3,-3 -3,-5 -1,-2 -1,-4 -1,-6 0,-2 0,-4 1,-6 1,-2 2,-4 4,-6 2,-1 4,-2 6,-3 2,0 5,-1 7,-1 1,0 2,0 2,0 1,1 2,1 3,1 0,0 1,0 1,0 0,0 1,1 1,1 1,-1 1,-1 2,-1 0,0 0,0 0,0 0,1 0,2 0,3 0,2 0,3 0,4 0,0 0,0 0,0 0,0 0,0 0,0 0,0 0,0 0,-1 -1,-1 -2,-2 -4,-4 -1,-1 -3,-1 -6,-1 -3,0 -5,0 -7,2 -2,1 -4,3 -5,5 -1,2 -2,4 -2,7 0,1 1,3 1,5 1,1 2,3 3,5 1,1 3,2 5,3 1,1 3,2 6,2 1,0 3,-1 4,-1 2,-1 2,-1 3,-2 0,0 0,0 0,-1 0,0 0,-1 0,-3 0,-2 0,-4 0,-4 0,-1 -1,-2 -1,-2 -1,0 -2,0 -3,0 -1,0 -1,0 -2,0l0 -1c3,0 5,0 6,0 2,0 4,0 5,0zm29 8l1 0c0,1 0,3 -1,4 0,1 0,2 -1,3 0,0 -1,0 -2,0 -1,0 -2,0 -4,0 -1,0 -2,0 -3,0 -1,0 -2,0 -2,0 -1,0 -2,0 -3,0 -2,0 -3,0 -5,0 -2,0 -4,0 -5,0l1 -1c0,0 1,0 1,0 1,0 1,0 1,-1 0,0 0,0 0,0 1,0 1,-1 1,-1 0,-1 0,-2 0,-4 0,-1 0,-3 0,-5 0,-2 0,-3 0,-4l0 -7c0,-3 0,-4 0,-5 0,-1 -1,-2 -1,-2 0,0 -1,0 -2,-1 0,0 0,0 0,0l15 0c2,0 5,0 8,0 0,1 0,2 0,4 0,1 -1,2 -1,2 0,0 -1,0 -1,-1 0,0 0,0 0,0 0,-1 1,-1 1,-1 0,-2 -1,-2 -3,-3 -1,0 -3,0 -5,0 -2,0 -4,0 -7,0 0,3 0,5 0,7 0,1 0,3 0,4 0,2 0,2 0,2 0,0 1,0 3,0 4,0 6,0 7,0 1,0 1,0 2,0 0,0 0,0 0,-1 1,0 1,-1 1,-2l1 0c0,2 0,3 0,4 0,2 0,3 0,5l-1 0c0,-2 0,-3 -1,-3 0,-1 -1,-1 -2,-1 -1,0 -3,0 -6,0 -2,0 -3,0 -4,0l0 3c-1,4 0,8 0,10 0,0 1,0 1,0 0,0 1,0 1,0 0,0 1,0 2,0 0,1 1,1 2,1 3,0 5,-1 6,-1 2,0 3,-1 3,-2 1,-1 2,-2 2,-3zm46 2c0,0 -1,1 -1,3 -2,1 -4,1 -5,2 -1,0 -3,0 -5,0 -2,0 -4,0 -6,-1 -2,-1 -3,-2 -5,-3 -2,-2 -3,-3 -4,-5 -1,-2 -1,-4 -1,-7 0,-4 1,-6 2,-9 2,-2 4,-4 7,-5 3,-1 5,-2 8,-2 3,0 5,1 7,1 1,1 1,1 2,1 0,0 0,0 0,0 1,0 1,0 1,0 0,0 0,0 0,0l0 1c-1,1 -1,3 -1,5 0,0 -1,0 -1,-1 0,0 0,0 0,0 0,-1 0,-2 0,-2 -1,-1 -2,-2 -4,-2 -1,-1 -3,-2 -5,-2 -2,0 -4,1 -6,2 -2,1 -3,3 -4,5 -1,2 -2,5 -2,8 0,3 0,5 1,7 1,2 3,4 4,5 1,1 3,2 4,2 2,1 3,1 4,1 2,0 3,0 5,-1 1,0 2,-1 2,-2 1,-1 1,-2 2,-3 0,0 1,0 1,0 0,0 0,0 0,0 0,0 0,1 0,2zm25 5l0 -1c1,0 1,0 2,0 0,-1 0,-1 0,-2 0,0 0,-1 0,-2 -1,0 -1,-1 -1,-1l-2 -5c-1,0 -2,0 -4,0l-2 0c-2,0 -4,0 -5,0l-2 4c-1,2 -1,3 -1,4 0,0 0,1 1,1 0,1 1,1 3,1l0 1c-2,0 -4,0 -5,0 -1,0 -3,0 -4,0l0 -1c1,0 1,-1 2,-1 0,0 1,-1 1,-2 1,-2 2,-3 2,-5 1,-1 1,-2 2,-3l4 -9c0,-1 1,-2 1,-4 1,-1 1,-2 1,-3 1,-2 1,-3 1,-3 0,0 0,-1 1,-1l0 0c1,2 1,4 2,5l5 14c1,3 2,6 3,7 1,2 1,3 2,4 0,0 1,1 2,1l0 1c-1,0 -2,0 -3,0 -1,0 -2,0 -3,0 -1,0 -2,0 -2,0 -1,0 -1,0 -1,0zm-8 -22l-3 7c0,1 0,2 0,2 1,0 2,0 4,0l2 0c1,0 3,0 4,0 -1,-1 -1,-2 -1,-3l-2 -4c0,-1 -1,-2 -1,-3 -1,-1 -1,-2 -1,-2 -1,0 -1,1 -1,1 0,1 -1,2 -1,2zm36 11l-3 -4c-2,0 -4,0 -5,0l0 5c0,2 0,3 0,5 0,1 0,2 0,3 0,0 1,0 1,1 0,0 1,0 2,0 0,0 1,0 1,1 0,0 -1,0 -1,0 0,0 -1,0 -2,0 -1,0 -2,0 -2,0 -2,0 -3,0 -5,0 0,0 0,0 0,0 -1,0 -1,0 -1,0 0,-1 0,-1 0,-1 0,0 1,0 1,0 1,0 1,0 2,-1 0,0 0,-1 0,-2 0,-1 1,-3 1,-6l0 -10c0,-3 0,-5 0,-6 -1,-1 -1,-2 -1,-3 0,0 0,-1 -1,-1 0,0 -1,0 -2,0l0 -1c1,0 2,0 3,0 1,0 2,0 5,0 2,0 4,-1 4,-1 2,0 3,1 5,1 1,1 2,1 3,2 1,1 2,2 2,3 1,1 1,2 1,3 0,1 0,2 -1,3 0,1 -1,2 -2,3 -1,0 -2,1 -4,2l1 1c2,3 3,4 4,6 1,1 2,2 3,4 1,1 3,2 4,3 1,1 2,1 3,1 1,0 1,1 1,1 0,0 0,0 -1,0 0,0 0,0 -1,0 -1,0 -3,0 -4,-1 -1,0 -3,-1 -4,-3 -1,-1 -3,-2 -4,-3 -1,-1 -2,-3 -3,-5zm-8 -6c1,1 2,1 4,1 1,0 1,0 2,0 1,-1 2,-1 3,-1 1,-1 2,-1 2,-2 1,-1 1,-2 1,-4 0,-1 0,-2 -1,-3 0,-1 -1,-2 -2,-3 -1,-1 -3,-1 -5,-1 0,0 -1,0 -2,0 -1,0 -1,0 -1,1 -1,0 -1,5 -1,12zm57 1c0,-3 -1,-6 -2,-8 -2,-2 -4,-4 -6,-5 -2,-1 -4,-2 -7,-2 -2,0 -4,1 -6,2 0,1 0,3 0,8 0,4 0,8 0,11 0,0 0,1 0,2 0,1 0,2 0,3 0,1 0,2 0,2 1,1 3,1 3,1 1,0 2,1 4,1 3,0 6,-1 8,-3 2,-1 4,-3 4,-5 1,-2 2,-5 2,-7z"/>
  <path class="fil3" d="M50 48l1 0c0,4 -1,6 -1,9 -1,2 -2,4 -3,6 -1,0 -2,0 -4,0 -2,0 -4,0 -8,0 -2,0 -4,0 -6,-1 -2,0 -3,0 -3,0 -2,0 -5,0 -7,0 -3,0 -6,1 -10,1 -4,0 -7,0 -9,0l0 -2c1,0 2,0 3,0 1,-1 2,-1 2,-1 1,-1 1,-1 1,-2 0,0 0,-1 1,-2 0,-1 0,-3 0,-7 0,-3 0,-6 1,-10 0,-4 0,-7 0,-8l-1 -15c0,-5 0,-8 0,-10 0,-1 -1,-2 -2,-3 -1,0 -2,-1 -4,-1 0,-1 0,-1 0,-2l31 0c3,0 8,0 15,0 0,3 0,6 0,8 -1,3 -1,4 -2,4 -1,0 -1,0 -1,0 0,-1 0,-1 0,-2 0,-1 0,-2 0,-2 0,-2 -1,-4 -4,-4 -3,-1 -6,-1 -10,-1 -5,0 -10,0 -15,1 -1,5 -1,9 -1,13 0,2 0,5 0,8 0,3 0,5 0,5 1,0 3,0 7,0 7,0 12,0 14,-1 2,0 3,0 3,0 1,-1 1,-1 2,-2 0,-1 1,-2 1,-4l2 0c0,3 0,6 0,9 0,2 0,5 -1,9l-1 0c0,-3 -1,-5 -2,-6 0,-2 -2,-2 -4,-3 -2,0 -6,0 -12,0 -4,0 -7,0 -9,0l0 7c0,9 0,15 1,20 1,0 1,0 2,0 1,0 2,0 2,1 1,0 2,0 3,0 2,0 3,0 5,0 6,0 9,0 12,-1 3,-1 5,-2 7,-4 1,-1 3,-4 4,-7zm443 0l1 0c0,4 -1,6 -2,9 0,2 -1,4 -2,6 -1,0 -2,0 -4,0 -2,0 -5,0 -8,0 -2,0 -4,0 -6,-1 -3,0 -4,0 -3,0 -2,0 -5,0 -8,0 -2,0 -6,1 -10,1 -4,0 -6,0 -8,0l0 -2c1,0 2,0 3,0 1,-1 2,-1 2,-1 0,-1 1,-1 1,-2 0,0 0,-1 0,-2 1,-1 1,-3 1,-7 0,-3 0,-6 0,-10 0,-4 0,-7 0,-8l0 -15c0,-5 0,-8 0,-10 -1,-1 -1,-2 -2,-3 -1,0 -2,-1 -4,-1 0,-1 0,-1 0,-2l31 0c3,0 8,0 15,0 0,3 0,6 -1,8 0,3 -1,4 -1,4 -1,0 -1,0 -1,0 0,-1 0,-1 0,-2 0,-1 0,-2 0,-2 0,-2 -1,-4 -4,-4 -3,-1 -6,-1 -10,-1 -5,0 -10,0 -15,1 -1,5 -1,9 -1,13 0,2 0,5 0,8 0,3 0,5 0,5 1,0 3,0 7,0 7,0 12,0 14,-1 2,0 3,0 3,0 1,-1 1,-1 1,-2 1,-1 1,-2 2,-4l1 0c0,3 0,6 0,9 0,2 0,5 0,9l-1 0c-1,-3 -1,-5 -2,-6 -1,-2 -2,-2 -4,-3 -3,0 -7,0 -12,0 -4,0 -7,0 -9,0l0 7c0,9 0,15 1,20 0,0 1,0 2,0 1,0 1,0 2,1 1,0 2,0 3,0 2,0 3,0 5,0 5,0 9,0 12,-1 3,-1 5,-2 7,-4 1,-1 3,-4 4,-7zm-433 -40l0 -1c3,0 7,0 11,0 4,0 7,0 9,0l0 2c-3,0 -5,0 -5,1 0,1 1,2 2,3 0,1 1,2 2,4 1,1 2,2 3,4l8 9c4,-6 8,-10 9,-13 2,-2 3,-4 3,-5 0,-2 -1,-2 -2,-3 -1,0 -2,0 -4,-1l0 -1c0,0 2,0 5,0 2,0 4,0 5,0l8 0 0 2c-1,0 -2,0 -3,0 -1,1 -2,1 -3,2 -1,1 -2,2 -3,3 -1,2 -3,4 -5,7l-4 4 -2 4c-1,0 -1,1 -2,2 0,0 -1,1 -1,1l15 19c2,3 4,5 5,7 1,1 2,2 3,2 0,0 2,1 3,1l0 2c-1,0 -2,0 -3,0 -3,-1 -5,-1 -6,-1 -3,0 -6,0 -11,1l0 -2c2,0 3,-1 4,-1 1,0 1,-1 1,-1 0,-1 0,-2 -1,-3 0,-1 -1,-2 -1,-3 -4,-5 -7,-9 -8,-10l-4 -6c-2,2 -6,6 -12,14 -1,2 -2,3 -2,4 -1,1 -1,2 -1,3 0,1 1,2 2,2 1,1 2,1 4,1l0 2c-2,0 -4,-1 -7,-1l-3 0c0,0 -1,0 -2,0 -2,0 -4,1 -5,1 -2,0 -3,0 -3,0l0 -2c2,0 4,-1 6,-2 2,-1 4,-3 5,-5 2,-2 5,-5 8,-9l5 -6c0,-1 1,-1 1,-2 1,0 1,-1 1,-1 1,-1 1,-1 1,-1l-4 -5c-4,-6 -7,-10 -10,-12 -2,-3 -4,-5 -5,-6 -1,-2 -2,-3 -3,-3 -1,0 -2,-1 -4,-1zm110 46c-1,0 -1,2 -2,6 -3,1 -6,2 -9,2 -2,1 -5,1 -8,1 -3,0 -7,-1 -10,-2 -4,-1 -7,-3 -10,-5 -3,-3 -5,-6 -7,-10 -1,-3 -2,-7 -2,-12 0,-6 1,-11 4,-15 3,-5 7,-8 12,-10 5,-2 10,-3 15,-3 4,0 8,1 11,2 2,1 3,1 4,1 0,0 1,0 1,0 0,0 0,0 1,0 0,0 0,0 0,0l0 3c-1,2 -2,4 -2,8 0,0 -1,-1 -1,-1 0,0 0,-1 0,-1 0,-2 -1,-3 -1,-4 -1,-1 -3,-2 -6,-4 -3,-1 -6,-2 -9,-2 -4,0 -8,1 -11,3 -4,3 -6,6 -8,9 -2,4 -3,9 -3,14 0,5 1,9 3,13 1,3 3,6 6,8 3,2 5,4 8,5 2,1 5,1 7,1 3,0 5,0 7,-1 2,-1 4,-3 5,-4 1,-2 2,-3 3,-5 1,-1 1,-1 1,-1 1,0 1,0 1,0 0,1 0,2 0,4zm11 -45l0 -2c4,0 6,0 7,0 2,0 2,1 3,1 5,0 8,-1 10,-1l0 2c-2,0 -4,0 -5,1 -1,0 -2,1 -2,2 0,0 0,2 -1,4 0,3 0,6 0,10 0,4 0,8 0,12 0,4 0,7 0,11 0,3 0,5 0,7 0,1 1,2 1,3 0,0 1,0 2,1 1,0 4,0 8,0 4,0 7,0 10,-1 2,-1 5,-2 6,-2 2,-1 3,-3 4,-6l1 0c0,1 -1,3 -1,6 -1,2 -1,4 -2,6 -3,0 -5,-1 -6,-1 -1,0 -2,0 -3,0 0,0 -1,0 -2,0l-30 0 0 -1c1,0 3,-1 3,-1 1,0 2,-1 2,-2 0,-1 1,-3 1,-5 0,-2 0,-4 0,-8l0 -19c0,-4 0,-7 0,-10 0,-2 0,-3 0,-4 -1,-2 -1,-2 -2,-3 -1,0 -2,0 -4,0zm49 0l1 -2c1,1 3,1 6,1 4,0 9,0 14,-1l0 2c-2,0 -4,0 -5,1 -1,0 -2,1 -2,2 -1,1 -1,8 -1,20 0,4 0,7 0,10 0,4 0,6 1,8 1,4 3,7 7,8 3,2 7,2 10,2 2,0 4,0 6,0 3,-1 5,-2 7,-3 3,-2 4,-3 5,-6 2,-4 2,-13 2,-27 0,-4 0,-7 0,-9 0,-2 -1,-3 -1,-4 -1,-1 -2,-1 -2,-2 -1,0 -3,0 -4,0l0 -1c1,-1 2,-1 4,-1 6,0 10,0 12,0l0 2c-2,0 -3,1 -4,1 -1,0 -1,1 -1,2 0,1 0,2 -1,5 0,6 0,11 0,15 0,4 0,7 -1,10 0,3 0,5 -1,7 0,2 -1,4 -1,5 -2,3 -4,5 -6,6 -3,1 -6,2 -9,3 -3,0 -5,0 -8,0 -3,0 -7,0 -10,-1 -3,-2 -6,-4 -8,-6 -2,-3 -3,-6 -3,-11 0,-1 0,-3 0,-8 0,-5 0,-8 0,-10 0,-8 0,-13 -1,-16 0,-1 -1,-1 -1,-1 -1,0 -2,-1 -5,-1zm71 53l-1 0c0,-4 -1,-8 -3,-14 1,0 2,0 2,0 0,2 1,3 1,4 1,1 1,2 2,3 0,1 1,1 2,2 2,1 4,2 7,3 2,0 5,1 8,1 2,0 4,-1 7,-2 2,-1 4,-4 4,-8 0,-2 -1,-4 -1,-5 -1,-2 -2,-3 -3,-4 -1,-1 -3,-2 -4,-2 -2,-1 -4,-2 -6,-3 -4,-1 -6,-2 -9,-4 -2,-1 -3,-2 -5,-4 -1,-2 -2,-4 -2,-7 0,-4 2,-8 5,-11 3,-3 8,-4 14,-4 3,0 6,0 8,1 2,0 2,0 3,0 0,0 1,0 2,-1l1 0c0,0 0,0 0,0 0,1 0,1 0,2 0,1 0,1 0,2 0,1 0,2 0,2 0,0 0,1 0,1 0,3 0,5 0,6l-1 0c0,-3 -1,-6 -3,-7 -2,-2 -3,-3 -6,-4 -2,0 -4,0 -6,0 -4,0 -8,1 -9,3 -2,3 -2,5 -2,7 0,2 0,4 1,6 2,1 3,3 5,4 1,0 4,1 7,3 3,1 6,2 8,3 2,2 4,3 6,5 1,3 2,5 2,8 0,3 0,6 -2,8 -1,2 -3,4 -6,5 -3,1 -7,2 -11,2 -4,0 -8,-1 -12,-2 -1,0 -2,0 -2,0 0,0 -1,1 -1,1zm42 -53l0 -2c4,0 6,0 6,0 3,0 5,0 6,0 1,0 2,0 5,0 2,0 5,0 7,0l0 2c-2,0 -4,0 -5,0 -1,1 -2,1 -2,2 -1,2 -2,9 -2,21 0,8 1,13 1,15 0,2 0,5 0,7 0,2 0,4 0,4 0,1 1,2 2,2 1,1 3,1 6,1l0 2c-1,0 -2,0 -3,0 -1,0 -2,-1 -3,-1 -2,0 -3,0 -3,0 -1,0 -2,0 -3,0 -1,0 -2,0 -3,0 -1,0 -2,0 -3,0 -2,0 -3,1 -4,1 -1,0 -2,0 -2,0l0 -2c3,0 5,-1 6,-1 1,-1 2,-2 2,-3 1,-1 1,-4 1,-8 1,-5 1,-9 1,-14 0,-4 -1,-11 -1,-19 0,-2 0,-3 0,-4 -1,-1 -2,-2 -3,-3 -1,0 -3,0 -6,0zm31 -1l1 -1 3 0 7 0c1,0 1,0 2,0 0,0 1,0 2,0l5 0 0 2c-3,0 -4,0 -5,0 -1,0 -1,1 -1,1 0,1 1,3 2,6 1,3 3,6 4,10 2,4 3,7 4,8l6 13 1 3c1,1 2,2 2,3 1,-1 2,-4 3,-6 2,-3 3,-6 4,-8 1,-3 2,-4 2,-4l6 -13c1,-2 1,-4 2,-6 1,-2 1,-3 1,-4 0,-2 -1,-3 -4,-3l0 -2c3,0 7,0 10,0 1,0 2,0 2,0 1,0 2,0 3,0l0 1c-2,1 -3,2 -4,2 -1,1 -2,2 -3,4 -1,2 -2,5 -5,9l-9 19c-2,4 -4,8 -6,12 -1,4 -3,7 -3,9l-1 1c-1,-2 -2,-4 -2,-6l-3 -6c-1,-2 -2,-5 -4,-8l-7 -15c-5,-12 -9,-18 -10,-19 0,0 -1,-1 -2,-1 0,0 -1,-1 -3,-1z"/>
 </g>
</svg>
