<?xml version="1.0" encoding="utf-8"?>
<!-- Generator: Adobe Illustrator 21.1.0, SVG Export Plug-In . SVG Version: 6.00 Build 0)  -->
<svg version="1.1" id="Layer_1" xmlns="http://www.w3.org/2000/svg" xmlns:xlink="http://www.w3.org/1999/xlink" x="0px" y="0px"
	 viewBox="0 0 497 118.5" style="enable-background:new 0 0 497 118.5;" xml:space="preserve">
<style type="text/css">
	.st0{fill:#BEAC69;}
	.st1{fill:url(#SVGID_1_);}
	.st2{fill:url(#SVGID_2_);}
</style>
<g id="Layer_x0020_1">
	<polygon class="st0" points="294.3,91.6 470.1,91.6 470.1,92.6 294.3,92.6 	"/>
	
		<linearGradient id="SVGID_1_" gradientUnits="userSpaceOnUse" x1="246.7042" y1="40.267" x2="246.7042" y2="83.3113" gradientTransform="matrix(1.0061 0 0 -1.0061 0.2976 156.949)">
		<stop  offset="0" style="stop-color:#7F663B"/>
		<stop  offset="1" style="stop-color:#FCED9D"/>
	</linearGradient>
	<path class="st1" d="M249.3,118.5l-30.2-34.7l13.6-12.1l0,0h31.7l13.6,13.6l0,0L249.3,118.5z M225.1,80.8l-3,3l0,0v1.5l12.1,13.6
		l3,4.5l-9.1-19.6l0,0l0,0l1.5-6L225.1,80.8z M232.7,74.7l1.5-1.5h-1.5V74.7z M238.7,73.2l1.5,3l4.5-3H238.7z M250.8,73.2l6,3l0,0
		l1.5-3H250.8z M261.3,73.2l3,1.5l-1.5-1.5H261.3z M267.4,77.8l1.5,7.5l0,0l0,0l-10.6,18.1l4.5-4.5l10.6-13.6l0,0l-3-4.5L267.4,77.8
		z M228.1,83.8L228.1,83.8c1.5,1.5,4.5,6,16.6,24.1l3-22.6h1.5l1.5,22.6l18.1-22.6l-12.1-9.1l0,0l-7.5,9.1l-9.1-9.1l0,0L228.1,83.8
		L228.1,83.8L228.1,83.8L228.1,83.8z"/>
	<polygon class="st0" points="26.9,91.6 202.7,91.6 202.7,92.6 26.9,92.6 	"/>
</g>
<linearGradient id="SVGID_2_" gradientUnits="userSpaceOnUse" x1="246.7042" y1="92.3655" x2="246.7042" y2="155.9653" gradientTransform="matrix(1.0061 0 0 -1.0061 0.2976 156.949)">
	<stop  offset="0" style="stop-color:#7F663B"/>
	<stop  offset="1" style="stop-color:#FCED9D"/>
</linearGradient>
<path class="st2" d="M50.3,48.3h1c0,4-1,6-1,9.1c-1,2-2,4-3,6c-1,0-2,0-4,0s-4,0-8,0c-2,0-4,0-6-1c-2,0-3,0-3,0c-2,0-5,0-7,0
	c-3,0-6,1-10.1,1s-7,0-9.1,0v-2c1,0,2,0,3,0c1-1,2-1,2-1c1-1,1-1,1-2c0,0,0-1,1-2c0-1,0-3,0-7c0-3,0-6,1-10.1c0-4,0-7,0-8L7,16.1
	c0-5,0-8,0-10.1c0-1-1-2-2-3c-1,0-2-1-4-1c0-1,0-1,0-2h31.2c3,0,8,0,15.1,0c0,3,0,6,0,8c-1,3-1,4-2,4s-1,0-1,0c0-1,0-1,0-2s0-2,0-2
	c0-2-1-4-4-4c-3-1-6-1-10.1-1c-5,0-10.1,0-15.1,1c-1,5-1,9.1-1,13.1c0,2,0,5,0,8s0,5,0,5c1,0,3,0,7,0c7,0,12.1,0,14.1-1c2,0,3,0,3,0
	c1-1,1-1,2-2c0-1,1-2,1-4h2c0,3,0,6,0,9.1c0,2,0,5-1,9.1h-1c0-3-1-5-2-6c0-2-2-2-4-3c-2,0-6,0-12.1,0c-4,0-7,0-9.1,0v7
	c0,9.1,0,15.1,1,20.1c1,0,1,0,2,0s2,0,2,1c1,0,2,0,3,0c2,0,3,0,5,0c6,0,9.1,0,12.1-1s5-2,7-4C47.3,54.4,49.3,51.3,50.3,48.3z
	 M496,48.3h1c0,4-1,6-2,9.1c0,2-1,4-2,6c-1,0-2,0-4,0s-5,0-8,0c-2,0-4,0-6-1c-3,0-4,0-3,0c-2,0-5,0-8,0c-2,0-6,1-10.1,1s-6,0-8,0v-2
	c1,0,2,0,3,0c1-1,2-1,2-1c0-1,1-1,1-2c0,0,0-1,0-2c1-1,1-3,1-7c0-3,0-6,0-10.1s0-7,0-8V16.1c0-5,0-8,0-10.1c-1-1-1-2-2-3
	c-1,0-2-1-4-1c0-1,0-1,0-2h31.2c3,0,8,0,15.1,0c0,3,0,6-1,8c0,3-1,4-1,4c-1,0-1,0-1,0c0-1,0-1,0-2s0-2,0-2c0-2-1-4-4-4
	c-3-1-6-1-10.1-1c-5,0-10.1,0-15.1,1c-1,5-1,9.1-1,13.1c0,2,0,5,0,8s0,5,0,5c1,0,3,0,7,0c7,0,12.1,0,14.1-1c2,0,3,0,3,0c1-1,1-1,1-2
	c1-1,1-2,2-4h1c0,3,0,6,0,9.1c0,2,0,5,0,9.1h-1c-1-3-1-5-2-6c-1-2-2-2-4-3c-3,0-7,0-12.1,0c-4,0-7,0-9.1,0v7c0,9.1,0,15.1,1,20.1
	c0,0,1,0,2,0s1,0,2,1c1,0,2,0,3,0c2,0,3,0,5,0c5,0,9.1,0,12.1-1s5-2,7-4C493,54.4,495,51.3,496,48.3z M60.4,8.1v-1c3,0,7,0,11.1,0
	s7,0,9.1,0v2c-3,0-5,0-5,1s1,2,2,3c0,1,1,2,2,4c1,1,2,2,3,4l8,9.1c4-6,8-10.1,9.1-13.1c2-2,3-4,3-5c0-2-1-2-2-3c-1,0-2,0-4-1v-1
	c0,0,2,0,5,0c2,0,4,0,5,0h8v2c-1,0-2,0-3,0c-1,1-2,1-3,2s-2,2-3,3c-1,2-3,4-5,7l-4,4l-2,4c-1,0-1,1-2,2l-1,1l15.1,19.1c2,3,4,5,5,7
	c1,1,2,2,3,2c0,0,2,1,3,1v2c-1,0-2,0-3,0c-3-1-5-1-6-1c-3,0-6,0-11.1,1v-2c2,0,3-1,4-1s1-1,1-1c0-1,0-2-1-3c0-1-1-2-1-3
	c-4-5-7-9.1-8-10.1l-4-6c-2,2-6,6-12.1,14.1c-1,2-2,3-2,4c-1,1-1,2-1,3s1,2,2,2c1,1,2,1,4,1v2c-2,0-4-1-7-1h-3c0,0-1,0-2,0
	c-2,0-4,1-5,1c-2,0-3,0-3,0v-2c2,0,4-1,6-2s4-3,5-5c2-2,5-5,8-9.1l5-6c0-1,1-1,1-2c1,0,1-1,1-1c1-1,1-1,1-1l-4-5
	c-4-6-7-10.1-10.1-12.1c-2-3-4-5-5-6c-1-2-2-3-3-3S62.4,8.1,60.4,8.1z M171,54.4c-1,0-1,2-2,6c-3,1-6,2-9.1,2c-2,1-5,1-8,1
	s-7-1-10.1-2c-4-1-7-3-10.1-5c-3-3-5-6-7-10.1c-1-3-2-7-2-12.1c0-6,1-11.1,4-15.1c3-5,7-8,12.1-10.1s10.1-3,15.1-3c4,0,8,1,11.1,2
	c2,1,3,1,4,1h1c0,0,0,0,1,0l0,0v3c-1,2-2,4-2,8l-1-1v-1c0-2-1-3-1-4c-1-1-3-2-6-4c-3-1-6-2-9.1-2c-4,0-8,1-11.1,3c-4,3-6,6-8,9.1
	c-2,4-3,9.1-3,14.1s1,9.1,3,13.1c1,3,3,6,6,8c3,2,5,4,8,5c2,1,5,1,7,1c3,0,5,0,7-1s4-3,5-4c1-2,2-3,3-5c1-1,1-1,1-1c1,0,1,0,1,0
	C171,51.3,171,52.4,171,54.4z M182.1,9.1v-2c4,0,6,0,7,0c2,0,2,1,3,1c5,0,8-1,10.1-1v2c-2,0-4,0-5,1c-1,0-2,1-2,2c0,0,0,2-1,4
	c0,3,0,6,0,10.1s0,8,0,12.1s0,7,0,11.1c0,3,0,5,0,7c0,1,1,2,1,3c0,0,1,0,2,1c1,0,4,0,8,0s7,0,10.1-1c2-1,5-2,6-2c2-1,3-3,4-6h1
	c0,1-1,3-1,6c-1,2-1,4-2,6c-3,0-5-1-6-1s-2,0-3,0c0,0-1,0-2,0h-30.2v-1c1,0,3-1,3-1c1,0,2-1,2-2s1-3,1-5c0-2,0-4,0-8V26.2
	c0-4,0-7,0-10.1c0-2,0-3,0-4c-1-2-1-2-2-3C185.1,9.1,184.1,9.1,182.1,9.1z M231.4,9.1l1-2c1,1,3,1,6,1c4,0,9.1,0,14.1-1v2
	c-2,0-4,0-5,1c-1,0-2,1-2,2c-1,1-1,8-1,20.1c0,4,0,7,0,10.1c0,4,0,6,1,8c1,4,3,7,7,8c3,2,7,2,10.1,2c2,0,4,0,6,0c3-1,5-2,7-3
	c3-2,4-3,5-6c2-4,2-13.1,2-27.2c0-4,0-7,0-9.1s-1-3-1-4c-1-1-2-1-2-2c-1,0-3,0-4,0v-1c1-1,2-1,4-1c6,0,10.1,0,12.1,0v2c-2,0-3,1-4,1
	s-1,1-1,2s0,2-1,5c0,6,0,11.1,0,15.1s0,7-1,10.1c0,3,0,5-1,7c0,2-1,4-1,5c-2,3-4,5-6,6c-3,1-6,2-9.1,3c-3,0-5,0-8,0s-7,0-10.1-1
	c-3-2-6-4-8-6c-2-3-3-6-3-11.1c0-1,0-3,0-8s0-8,0-10.1c0-8,0-13.1-1-16.1c0-1-1-1-1-1C235.4,10.1,234.4,9.1,231.4,9.1z M302.8,62.4
	h-1c0-4-1-8-3-14.1c1,0,2,0,2,0c0,2,1,3,1,4c1,1,1,2,2,3c0,1,1,1,2,2c2,1,4,2,7,3c2,0,5,1,8,1c2,0,4-1,7-2c2-1,4-4,4-8c0-2-1-4-1-5
	c-1-2-2-3-3-4s-3-2-4-2c-2-1-4-2-6-3c-4-1-6-2-9.1-4c-2-1-3-2-5-4c-1-2-2-4-2-7c0-4,2-8,5-11.1s8-4,14.1-4c3,0,6,0,8,1c2,0,2,0,3,0
	c0,0,1,0,2-1h1l0,0c0,1,0,1,0,2s0,1,0,2s0,2,0,2v1c0,3,0,5,0,6h-1c0-3-1-6-3-7c-2-2-3-3-6-4c-2,0-4,0-6,0c-4,0-8,1-9.1,3
	c-2,3-2,5-2,7s0,4,1,6c2,1,3,3,5,4c1,0,4,1,7,3c3,1,6,2,8,3c2,2,4,3,6,5c1,3,2,5,2,8s0,6-2,8c-1,2-3,4-6,5s-7,2-11.1,2s-8-1-12.1-2
	c-1,0-2,0-2,0L302.8,62.4z M345.1,9.1v-2c4,0,6,0,6,0c3,0,5,0,6,0s2,0,5,0c2,0,5,0,7,0v2c-2,0-4,0-5,0c-1,1-2,1-2,2
	c-1,2-2,9.1-2,21.1c0,8,1,13.1,1,15.1s0,5,0,7c0,2,0,4,0,4c0,1,1,2,2,2c1,1,3,1,6,1v2c-1,0-2,0-3,0s-2-1-3-1c-2,0-3,0-3,0
	c-1,0-2,0-3,0s-2,0-3,0s-2,0-3,0c-2,0-3,1-4,1s-2,0-2,0v-2c3,0,5-1,6-1c1-1,2-2,2-3c1-1,1-4,1-8c1-5,1-9.1,1-14.1c0-4-1-11.1-1-19.1
	c0-2,0-3,0-4c-1-1-2-2-3-3C350.1,9.1,348.1,9.1,345.1,9.1z M376.3,8.1l1-1h3h7c1,0,1,0,2,0c0,0,1,0,2,0h5v2c-3,0-4,0-5,0s-1,1-1,1
	c0,1,1,3,2,6s3,6,4,10.1c2,4,3,7,4,8l6,13.1l1,3c1,1,2,2,2,3c1-1,2-4,3-6c2-3,3-6,4-8c1-3,2-4,2-4l6-13.1c1-2,1-4,2-6s1-3,1-4
	c0-2-1-3-4-3v-2c3,0,7,0,10.1,0c1,0,2,0,2,0c1,0,2,0,3,0v1c-2,1-3,2-4,2c-1,1-2,2-3,4s-2,5-5,9.1l-9.1,19.1c-2,4-4,8-6,12.1
	c-1,4-3,7-3,9.1l-1,1c-1-2-2-4-2-6l-3-6c-1-2-2-5-4-8l-7-15.1c-5-12.1-9.1-18.1-10.1-19.1c0,0-1-1-2-1
	C379.3,9.1,378.3,8.1,376.3,8.1z"/>
</svg>
