<?xml version="1.0" encoding="UTF-8" standalone="no"?>
<!DOCTYPE svg PUBLIC "-//W3C//DTD SVG 1.1//EN" "http://www.w3.org/Graphics/SVG/1.1/DTD/svg11.dtd">
<svg width="273" height="80" viewBox="0 0 273 102" version="1.1" xmlns="http://www.w3.org/2000/svg" xmlns:xlink="http://www.w3.org/1999/xlink" xml:space="preserve" xmlns:serif="http://www.serif.com/" style="fill-rule:evenodd;clip-rule:evenodd;stroke-linejoin:round;stroke-miterlimit:2;">
    <rect id="crosby" x="0" y="0" width="273" height="102" style="fill:none;"/>
    <clipPath id="_clip1">
        <rect x="0" y="0" width="273" height="102"/>
    </clipPath>
    <g clip-path="url(#_clip1)">
        <g>
            <g id="logo">
                <path id="mark" d="M147.772,72.833c0.012,-0 0.023,0 0.035,0l0.002,0.001c0.133,0.004 0.259,0.034 0.374,0.087l0.003,0.001c0.105,0.049 0.203,0.117 0.288,0.204l0.007,0.007c0.004,0.004 0.008,0.008 0.012,0.013l8.424,9.072c0.366,0.393 0.343,1.009 -0.05,1.374c-0.01,0.009 -0.02,0.018 -0.031,0.027l-20.063,18.122c-0.066,0.061 -0.138,0.111 -0.215,0.151l-0.004,0.002c-0.139,0.071 -0.291,0.106 -0.442,0.106c-0.151,-0 -0.303,-0.035 -0.442,-0.106l-0.004,-0.002c-0.077,-0.04 -0.149,-0.09 -0.215,-0.151l-20.063,-18.122c-0.01,-0.009 -0.021,-0.018 -0.03,-0.027c-0.394,-0.365 -0.417,-0.981 -0.051,-1.374l8.424,-9.072l0.019,-0.02c0.085,-0.087 0.183,-0.155 0.288,-0.204l0.004,-0.001c0.114,-0.053 0.24,-0.083 0.373,-0.087l0.003,-0.001c0.011,0 0.022,-0 0.034,0l23.32,0Zm-18.854,10.37l7.194,16.417l7.194,-16.417l-14.388,0Zm-11.09,0l17.184,15.521l-6.802,-15.521l-10.382,0Zm26.186,0l-6.801,15.521l17.183,-15.521l-10.382,0Zm89.969,0l-64.815,0c-0.179,0 -0.324,-0.145 -0.324,-0.324c-0,-0.179 0.145,-0.324 0.324,-0.324l64.815,0c0.179,0 0.324,0.145 0.324,0.324c0,0.179 -0.145,0.324 -0.324,0.324Zm-130.279,0l-64.815,0c-0.179,0 -0.324,-0.145 -0.324,-0.324c0,-0.179 0.145,-0.324 0.324,-0.324l64.815,0c0.179,0 0.325,0.145 0.325,0.324c-0,0.179 -0.146,0.324 -0.325,0.324Zm25.373,-0.648l14.07,0l-7.035,-7.578l-7.035,7.578Zm-11.43,0l10.279,0l-3.296,-7.52l-6.983,7.52Zm26.651,0l10.279,0l-6.983,-7.52l-3.296,7.52Zm-7.488,-7.777l6.922,7.455l3.267,-7.455l-10.189,-0Zm-11.585,-0l3.267,7.455l6.922,-7.455l-10.189,-0Z" style="fill:#d4af37;"/>
                <path id="text" d="M167.277,60.466l-1.237,-0c0.143,-1.758 0.215,-5.703 0.215,-11.836l1.237,0c0.251,3.336 1.148,6.026 2.69,8.07c1.542,2.044 3.909,3.066 7.101,3.066c1.793,0 3.336,-0.502 4.627,-1.506c1.327,-1.04 1.99,-2.564 1.99,-4.573c0,-1.183 -0.341,-2.223 -1.022,-3.12c-0.682,-0.932 -1.596,-1.757 -2.743,-2.475c-1.148,-0.717 -2.744,-1.613 -4.788,-2.689c-2.942,-1.507 -5.183,-3.013 -6.725,-4.519c-1.542,-1.507 -2.313,-3.461 -2.313,-5.864c-0,-2.654 0.968,-4.716 2.905,-6.187c1.972,-1.47 4.375,-2.205 7.209,-2.205c1.577,-0 2.815,0.179 3.712,0.538c0.932,0.322 1.883,0.806 2.851,1.452c0.789,0.502 1.399,0.753 1.829,0.753c0.323,0 0.574,-0.179 0.753,-0.538c0.179,-0.394 0.323,-1.004 0.43,-1.829l1.238,0c-0.18,1.865 -0.269,5.165 -0.269,9.899l-1.238,-0c-0.215,-2.583 -1.058,-4.77 -2.528,-6.563c-1.435,-1.794 -3.533,-2.69 -6.294,-2.69c-1.901,-0 -3.479,0.502 -4.734,1.506c-1.22,1.004 -1.829,2.277 -1.829,3.82c-0,1.111 0.269,2.08 0.807,2.905c0.573,0.824 1.291,1.542 2.151,2.151c0.897,0.574 2.152,1.292 3.766,2.152l1.775,0.969c2.224,1.183 3.999,2.241 5.326,3.174c1.363,0.932 2.457,2.008 3.282,3.227c0.824,1.184 1.237,2.565 1.237,4.143c0,2.905 -1.058,5.164 -3.174,6.778c-2.08,1.578 -4.698,2.367 -7.854,2.367c-1.722,0 -3.138,-0.179 -4.25,-0.538c-1.076,-0.358 -2.116,-0.843 -3.12,-1.452c-0.79,-0.502 -1.399,-0.753 -1.829,-0.753c-0.323,-0 -0.575,0.197 -0.753,0.591c-0.18,0.359 -0.323,0.951 -0.431,1.776Zm-73.609,-0.377l-1.238,0c-0.107,-1.112 -0.269,-1.919 -0.484,-2.421c-0.215,-0.538 -0.501,-0.807 -0.86,-0.807c-0.287,0 -0.646,0.162 -1.076,0.484c-1.363,1.148 -2.69,2.027 -3.981,2.636c-1.291,0.574 -2.869,0.861 -4.734,0.861c-3.192,0 -5.989,-0.645 -8.393,-1.936c-2.402,-1.327 -4.267,-3.246 -5.595,-5.757c-1.326,-2.546 -1.99,-5.577 -1.99,-9.091c-0,-3.443 0.682,-6.474 2.044,-9.092c1.363,-2.654 3.264,-4.698 5.703,-6.133c2.439,-1.47 5.2,-2.205 8.284,-2.205c1.758,-0 3.246,0.304 4.465,0.914c1.22,0.574 2.493,1.435 3.82,2.582c0.395,0.323 0.736,0.484 1.022,0.484c0.718,0 1.184,-1.075 1.399,-3.227l1.237,-0c-0.143,2.152 -0.215,5.917 -0.215,11.297l-1.237,-0c-0.359,-1.865 -0.717,-3.246 -1.076,-4.142c-0.359,-0.897 -0.897,-1.811 -1.614,-2.744c-1.004,-1.327 -2.206,-2.331 -3.605,-3.013c-1.398,-0.717 -2.868,-1.076 -4.411,-1.076c-2.115,0 -3.963,0.646 -5.541,1.937c-1.542,1.291 -2.744,3.156 -3.604,5.595c-0.861,2.439 -1.291,5.308 -1.291,8.607c-0,3.372 0.466,6.259 1.398,8.662c0.969,2.367 2.26,4.178 3.874,5.433c1.65,1.22 3.496,1.829 5.541,1.829c1.578,0 3.084,-0.34 4.519,-1.022c1.47,-0.717 2.708,-1.739 3.712,-3.066c0.681,-0.933 1.183,-1.919 1.506,-2.959c0.359,-1.04 0.682,-2.529 0.968,-4.465l1.238,-0c-0,5.63 0.072,9.575 0.215,11.835Zm67.627,-31.632c-1.256,0.071 -2.188,0.269 -2.798,0.591c-0.61,0.287 -1.022,0.789 -1.237,1.507c-0.215,0.681 -0.323,1.703 -0.323,3.066l0,11.889c0,2.475 -0.179,4.591 -0.538,6.348c-0.323,1.722 -0.879,3.228 -1.667,4.519c-0.861,1.363 -2.117,2.457 -3.766,3.282c-1.614,0.789 -3.461,1.183 -5.541,1.183c-3.695,0 -6.528,-0.789 -8.5,-2.367c-1.578,-1.399 -2.636,-2.994 -3.174,-4.788c-0.538,-1.793 -0.807,-4.465 -0.807,-8.015l-0,-12.589c-0,-1.363 -0.108,-2.349 -0.323,-2.959c-0.215,-0.609 -0.628,-1.022 -1.237,-1.237c-0.574,-0.215 -1.507,-0.359 -2.798,-0.43l0,-1.076c1.507,0.107 3.802,0.161 6.886,0.161c2.869,0 5.147,-0.054 6.833,-0.161l-0,1.076c-1.292,0.071 -2.242,0.215 -2.852,0.43c-0.574,0.215 -0.968,0.628 -1.183,1.237c-0.215,0.61 -0.323,1.596 -0.323,2.959l0,13.503c0,2.654 0.179,4.86 0.538,6.617c0.358,1.722 1.112,3.12 2.259,4.196c1.184,1.04 2.905,1.56 5.165,1.56c3.586,0 6.115,-1.129 7.585,-3.389c1.47,-2.259 2.206,-5.415 2.206,-9.468l-0,-12.481c-0,-1.937 -0.359,-3.264 -1.076,-3.981c-0.682,-0.717 -1.955,-1.112 -3.82,-1.183l0,-1.076c1.292,0.107 3.121,0.161 5.488,0.161c2.152,0 3.819,-0.054 5.003,-0.161l-0,1.076Zm65.375,31.901l-0.861,0l-12.588,-28.458c-0.968,-2.224 -2.206,-3.372 -3.712,-3.443l-0,-1.076c1.47,0.107 3.389,0.161 5.756,0.161c3.084,0 5.38,-0.054 6.886,-0.161l0,1.076c-1.327,0.071 -2.313,0.251 -2.959,0.538c-0.61,0.287 -0.914,0.771 -0.914,1.452c-0,0.574 0.251,1.417 0.753,2.529l9.253,20.873l8.016,-17.861c0.896,-1.937 1.345,-3.461 1.345,-4.573c-0,-1.004 -0.36,-1.721 -1.076,-2.151c-0.682,-0.467 -1.74,-0.736 -3.174,-0.807l-0,-1.076c1.076,0.107 3.066,0.161 5.971,0.161c1.506,0 2.707,-0.054 3.604,-0.161l0,1.076c-1.004,0.251 -1.811,0.753 -2.42,1.506c-0.61,0.717 -1.31,1.972 -2.098,3.766l-11.782,26.629Zm-217.309,-18.883l-0,12.912c-0,1.362 0.107,2.349 0.322,2.958c0.216,0.61 0.61,1.023 1.184,1.238c0.61,0.179 1.56,0.269 2.851,0.269l3.927,-0c2.224,-0 3.91,-0.287 5.057,-0.861c1.184,-0.61 2.044,-1.56 2.582,-2.851c0.538,-1.327 0.933,-3.264 1.184,-5.81l1.237,-0c-0.107,0.968 -0.161,2.259 -0.161,3.873c-0,2.044 0.125,4.34 0.376,6.886c-2.438,-0.108 -6.545,-0.161 -12.319,-0.161c-6.886,-0 -12.086,0.053 -15.601,0.161l-0,-1.076c1.291,-0.072 2.224,-0.215 2.797,-0.43c0.61,-0.215 1.023,-0.628 1.238,-1.238c0.215,-0.609 0.323,-1.596 0.323,-2.958l-0,-26.684c-0,-1.362 -0.108,-2.349 -0.323,-2.958c-0.215,-0.61 -0.628,-1.022 -1.238,-1.238c-0.573,-0.215 -1.506,-0.358 -2.797,-0.43l-0,-1.076c3.515,0.108 8.715,0.161 15.601,0.161c5.272,0 9.02,-0.053 11.244,-0.161c-0.251,2.367 -0.377,4.483 -0.377,6.348c-0,1.399 0.054,2.51 0.161,3.335l-1.237,0c-0.251,-2.331 -0.574,-4.052 -0.968,-5.164c-0.395,-1.148 -1.058,-1.973 -1.991,-2.475c-0.932,-0.538 -2.349,-0.807 -4.25,-0.807l-4.465,0c-1.291,0 -2.241,0.108 -2.851,0.323c-0.574,0.179 -0.968,0.574 -1.184,1.184c-0.215,0.609 -0.322,1.596 -0.322,2.958l-0,12.696l3.55,0c1.255,0 2.224,-0.286 2.905,-0.86c0.682,-0.61 1.13,-1.309 1.345,-2.098c0.251,-0.825 0.448,-1.847 0.592,-3.067l0.161,-1.076l1.238,0c-0.108,1.507 -0.162,3.192 -0.162,5.057l0,2.582c0,1.83 0.108,4.376 0.323,7.64l-1.237,-0c-0.036,-0.251 -0.144,-1.112 -0.323,-2.583c-0.179,-1.506 -0.681,-2.636 -1.506,-3.389c-0.789,-0.753 -1.901,-1.13 -3.336,-1.13l-3.55,0Zm245.079,0l0,12.912c0,1.362 0.108,2.349 0.323,2.958c0.215,0.61 0.61,1.023 1.183,1.238c0.61,0.179 1.561,0.269 2.852,0.269l3.927,-0c2.224,-0 3.909,-0.287 5.057,-0.861c1.183,-0.61 2.044,-1.56 2.582,-2.851c0.538,-1.327 0.933,-3.264 1.183,-5.81l1.238,-0c-0.108,0.968 -0.162,2.259 -0.162,3.873c0,2.044 0.126,4.34 0.377,6.886c-2.439,-0.108 -6.545,-0.161 -12.319,-0.161c-6.886,-0 -12.087,0.053 -15.601,0.161l-0,-1.076c1.291,-0.072 2.223,-0.215 2.797,-0.43c0.61,-0.215 1.022,-0.628 1.237,-1.238c0.215,-0.609 0.323,-1.596 0.323,-2.958l0,-26.684c0,-1.362 -0.108,-2.349 -0.323,-2.958c-0.215,-0.61 -0.627,-1.022 -1.237,-1.238c-0.574,-0.215 -1.506,-0.358 -2.797,-0.43l-0,-1.076c3.514,0.108 8.715,0.161 15.601,0.161c5.272,0 9.019,-0.053 11.243,-0.161c-0.251,2.367 -0.377,4.483 -0.377,6.348c0,1.399 0.054,2.51 0.162,3.335l-1.237,0c-0.251,-2.331 -0.574,-4.052 -0.969,-5.164c-0.395,-1.148 -1.058,-1.973 -1.99,-2.475c-0.933,-0.538 -2.349,-0.807 -4.25,-0.807l-4.465,0c-1.292,0 -2.242,0.108 -2.852,0.323c-0.573,0.179 -0.968,0.574 -1.183,1.184c-0.215,0.609 -0.323,1.596 -0.323,2.958l0,12.696l3.551,0c1.255,0 2.224,-0.286 2.905,-0.86c0.681,-0.61 1.129,-1.309 1.345,-2.098c0.25,-0.825 0.448,-1.847 0.591,-3.067l0.162,-1.076l1.237,0c-0.107,1.507 -0.161,3.192 -0.161,5.057l-0,2.582c-0,1.83 0.107,4.376 0.323,7.64l-1.238,-0c-0.035,-0.251 -0.143,-1.112 -0.323,-2.583c-0.179,-1.506 -0.681,-2.636 -1.506,-3.389c-0.789,-0.753 -1.901,-1.13 -3.335,-1.13l-3.551,0Zm-47.022,-13.018c-1.291,0.071 -2.242,0.215 -2.851,0.43c-0.575,0.215 -0.969,0.628 -1.184,1.237c-0.215,0.61 -0.323,1.596 -0.323,2.959l0,21.304c0,1.362 0.108,2.349 0.323,2.958c0.215,0.61 0.609,1.023 1.184,1.238c0.609,0.215 1.56,0.358 2.851,0.43l-0,1.076c-1.65,-0.108 -3.927,-0.161 -6.832,-0.161c-3.085,-0 -5.38,0.053 -6.886,0.161l-0,-1.076c1.291,-0.072 2.223,-0.215 2.797,-0.43c0.609,-0.215 1.022,-0.628 1.238,-1.238c0.215,-0.609 0.322,-1.596 0.322,-2.958l0,-21.304c0,-1.363 -0.107,-2.349 -0.322,-2.959c-0.216,-0.609 -0.629,-1.022 -1.238,-1.237c-0.574,-0.215 -1.506,-0.359 -2.797,-0.43l-0,-1.076c1.506,0.107 3.801,0.161 6.886,0.161c2.869,0 5.146,-0.054 6.832,-0.161l-0,1.076Zm-147.845,27.813c0.682,0.968 1.255,1.631 1.722,1.99c0.466,0.359 1.004,0.592 1.613,0.699l0,1.13c-1.613,-0.108 -3.066,-0.161 -4.357,-0.161c-2.152,-0 -4.68,0.053 -7.585,0.161l-0,-1.13c1.183,0 2.044,-0.071 2.582,-0.215c0.538,-0.143 0.807,-0.376 0.807,-0.699c-0,-0.215 -0.144,-0.52 -0.431,-0.915l-8.392,-11.512l-6.778,8.876c-0.61,0.825 -0.915,1.614 -0.915,2.367c0,0.646 0.269,1.166 0.807,1.56c0.538,0.395 1.345,0.592 2.421,0.592l0,1.076c-2.044,-0.108 -4.071,-0.161 -6.079,-0.161c-0.394,-0 -1.058,0.036 -1.99,0.107l-1.614,0.054l-0,-1.076c0.753,-0.072 1.614,-0.448 2.582,-1.13c1.004,-0.717 1.847,-1.542 2.528,-2.474l8.285,-10.813l-9.737,-13.396c-0.789,-1.076 -1.381,-1.775 -1.775,-2.098c-0.395,-0.358 -0.915,-0.556 -1.561,-0.592l0,-1.129c1.614,0.107 3.067,0.161 4.358,0.161c2.152,0 4.68,-0.054 7.585,-0.161l0,1.129c-1.183,0 -2.044,0.072 -2.582,0.216c-0.538,0.143 -0.807,0.376 -0.807,0.699c0,0.215 0.144,0.52 0.43,0.915l7.855,10.759l6.294,-8.177c0.61,-0.789 0.915,-1.542 0.915,-2.26c-0,-0.645 -0.287,-1.165 -0.861,-1.56c-0.574,-0.43 -1.417,-0.645 -2.529,-0.645l0,-1.076c2.045,0.107 4.071,0.161 6.079,0.161c1.543,0 2.744,-0.054 3.605,-0.161l-0,1.076c-0.789,0.071 -1.65,0.43 -2.583,1.076c-0.896,0.645 -1.757,1.506 -2.582,2.582l-7.693,9.952l10.383,14.203Zm53.385,-27.813c-1.291,0.071 -2.241,0.215 -2.851,0.43c-0.574,0.215 -0.968,0.628 -1.184,1.237c-0.215,0.61 -0.322,1.596 -0.322,2.959l-0,21.304c-0,1.362 0.107,2.349 0.322,2.958c0.216,0.61 0.61,1.023 1.184,1.238c0.61,0.179 1.56,0.269 2.851,0.269l3.389,-0c2.475,-0 4.394,-0.735 5.757,-2.206c1.398,-1.47 2.242,-3.909 2.528,-7.316l1.237,-0c-0.107,1.112 -0.161,2.582 -0.161,4.411c-0,1.865 0.126,3.981 0.377,6.348c-2.331,-0.108 -6.258,-0.161 -11.782,-0.161c-6.634,-0 -11.656,0.053 -15.063,0.161l-0,-1.076c1.291,-0.072 2.224,-0.215 2.797,-0.43c0.61,-0.215 1.023,-0.628 1.238,-1.238c0.215,-0.609 0.322,-1.596 0.322,-2.958l0,-21.304c0,-1.363 -0.107,-2.349 -0.322,-2.959c-0.215,-0.609 -0.628,-1.022 -1.238,-1.237c-0.573,-0.215 -1.506,-0.359 -2.797,-0.43l-0,-1.076c1.506,0.107 3.802,0.161 6.886,0.161c2.869,0 5.147,-0.054 6.832,-0.161l0,1.076Z" style="fill:#fff;fill-rule:nonzero;"/>
            </g>
            <path d="M101.3,14.161c-1.04,-0 -1.953,-0.204 -2.74,-0.61c-0.787,-0.407 -1.393,-0.977 -1.82,-1.71c-0.427,-0.734 -0.64,-1.58 -0.64,-2.54l0,-4.62c0,-0.96 0.213,-1.807 0.64,-2.54c0.427,-0.734 1.033,-1.3 1.82,-1.7c0.787,-0.4 1.7,-0.6 2.74,-0.6c1.027,-0 1.93,0.19 2.71,0.57c0.78,0.38 1.387,0.92 1.82,1.62c0.433,0.7 0.65,1.51 0.65,2.43c0,0.12 -0.08,0.193 -0.24,0.22l-2.34,0.14l-0.04,-0c-0.133,-0 -0.2,-0.074 -0.2,-0.22c0,-0.707 -0.217,-1.274 -0.65,-1.7c-0.433,-0.427 -1.003,-0.64 -1.71,-0.64c-0.72,-0 -1.297,0.213 -1.73,0.64c-0.433,0.426 -0.65,0.993 -0.65,1.7l0,4.82c0,0.693 0.217,1.253 0.65,1.68c0.433,0.426 1.01,0.64 1.73,0.64c0.707,-0 1.277,-0.214 1.71,-0.64c0.433,-0.427 0.65,-0.987 0.65,-1.68c0,-0.147 0.08,-0.22 0.24,-0.22l2.34,0.1c0.067,-0 0.123,0.02 0.17,0.06c0.047,0.04 0.07,0.086 0.07,0.14c0,0.92 -0.217,1.733 -0.65,2.44c-0.433,0.706 -1.04,1.253 -1.82,1.64c-0.78,0.386 -1.683,0.58 -2.71,0.58Z" style="fill:#d4af37;fill-rule:nonzero;"/>
            <path d="M118.22,14.001c-0.133,-0 -0.227,-0.06 -0.28,-0.18l-2.5,-5.54c-0.027,-0.054 -0.067,-0.08 -0.12,-0.08l-1.86,-0c-0.067,-0 -0.1,0.033 -0.1,0.1l0,5.46c0,0.066 -0.023,0.123 -0.07,0.17c-0.047,0.046 -0.103,0.07 -0.17,0.07l-2.34,-0c-0.067,-0 -0.123,-0.024 -0.17,-0.07c-0.047,-0.047 -0.07,-0.104 -0.07,-0.17l0,-13.52c0,-0.067 0.023,-0.124 0.07,-0.17c0.047,-0.047 0.103,-0.07 0.17,-0.07l5.72,-0c0.853,-0 1.603,0.173 2.25,0.52c0.647,0.346 1.147,0.84 1.5,1.48c0.353,0.64 0.53,1.38 0.53,2.22c0,0.906 -0.227,1.683 -0.68,2.33c-0.453,0.646 -1.087,1.103 -1.9,1.37c-0.067,0.026 -0.087,0.073 -0.06,0.14l2.72,5.66c0.027,0.053 0.04,0.093 0.04,0.12c0,0.106 -0.073,0.16 -0.22,0.16l-2.46,-0Zm-4.76,-11.58c-0.067,-0 -0.1,0.033 -0.1,0.1l0,3.42c0,0.066 0.033,0.1 0.1,0.1l2.62,-0c0.56,-0 1.017,-0.167 1.37,-0.5c0.353,-0.334 0.53,-0.767 0.53,-1.3c0,-0.534 -0.177,-0.97 -0.53,-1.31c-0.353,-0.34 -0.81,-0.51 -1.37,-0.51l-2.62,-0Z" style="fill:#d4af37;fill-rule:nonzero;"/>
            <path d="M129.8,14.221c-1.04,-0 -1.957,-0.214 -2.75,-0.64c-0.793,-0.427 -1.41,-1.024 -1.85,-1.79c-0.44,-0.767 -0.66,-1.65 -0.66,-2.65l0,-4.28c0,-0.987 0.22,-1.86 0.66,-2.62c0.44,-0.76 1.057,-1.35 1.85,-1.77c0.793,-0.42 1.71,-0.63 2.75,-0.63c1.053,-0 1.977,0.21 2.77,0.63c0.793,0.42 1.41,1.01 1.85,1.77c0.44,0.76 0.66,1.633 0.66,2.62l0,4.28c0,1 -0.22,1.886 -0.66,2.66c-0.44,0.773 -1.057,1.37 -1.85,1.79c-0.793,0.42 -1.717,0.63 -2.77,0.63Zm0,-2.42c0.733,-0 1.327,-0.234 1.78,-0.7c0.453,-0.467 0.68,-1.087 0.68,-1.86l0,-4.4c0,-0.774 -0.223,-1.397 -0.67,-1.87c-0.447,-0.474 -1.043,-0.71 -1.79,-0.71c-0.733,-0 -1.323,0.236 -1.77,0.71c-0.447,0.473 -0.67,1.096 -0.67,1.87l0,4.4c0,0.773 0.223,1.393 0.67,1.86c0.447,0.466 1.037,0.7 1.77,0.7Z" style="fill:#d4af37;fill-rule:nonzero;"/>
            <path d="M144.04,14.161c-1.067,-0 -2,-0.17 -2.8,-0.51c-0.8,-0.34 -1.417,-0.827 -1.85,-1.46c-0.433,-0.634 -0.65,-1.37 -0.65,-2.21l0,-0.44c0,-0.067 0.023,-0.124 0.07,-0.17c0.047,-0.047 0.103,-0.07 0.17,-0.07l2.28,-0c0.067,-0 0.123,0.023 0.17,0.07c0.047,0.046 0.07,0.103 0.07,0.17l0,0.3c0,0.533 0.247,0.983 0.74,1.35c0.493,0.366 1.16,0.55 2,0.55c0.707,-0 1.233,-0.15 1.58,-0.45c0.347,-0.3 0.52,-0.67 0.52,-1.11c0,-0.32 -0.107,-0.59 -0.32,-0.81c-0.213,-0.22 -0.503,-0.414 -0.87,-0.58c-0.367,-0.167 -0.95,-0.397 -1.75,-0.69c-0.893,-0.307 -1.65,-0.62 -2.27,-0.94c-0.62,-0.32 -1.14,-0.757 -1.56,-1.31c-0.42,-0.554 -0.63,-1.237 -0.63,-2.05c0,-0.8 0.207,-1.5 0.62,-2.1c0.413,-0.6 0.987,-1.06 1.72,-1.38c0.733,-0.32 1.58,-0.48 2.54,-0.48c1.013,-0 1.917,0.18 2.71,0.54c0.793,0.36 1.413,0.863 1.86,1.51c0.447,0.646 0.67,1.396 0.67,2.25l0,0.3c0,0.066 -0.023,0.123 -0.07,0.17c-0.047,0.046 -0.103,0.07 -0.17,0.07l-2.3,-0c-0.067,-0 -0.123,-0.024 -0.17,-0.07c-0.047,-0.047 -0.07,-0.104 -0.07,-0.17l0,-0.16c0,-0.56 -0.23,-1.037 -0.69,-1.43c-0.46,-0.394 -1.09,-0.59 -1.89,-0.59c-0.627,-0 -1.117,0.133 -1.47,0.4c-0.353,0.266 -0.53,0.633 -0.53,1.1c0,0.333 0.103,0.613 0.31,0.84c0.207,0.226 0.513,0.43 0.92,0.61c0.407,0.18 1.037,0.423 1.89,0.73c0.947,0.346 1.69,0.653 2.23,0.92c0.54,0.266 1.027,0.663 1.46,1.19c0.433,0.526 0.65,1.21 0.65,2.05c0,1.253 -0.46,2.243 -1.38,2.97c-0.92,0.726 -2.167,1.09 -3.74,1.09Z" style="fill:#d4af37;fill-rule:nonzero;"/>
            <path d="M161.44,6.701c-0.08,0.04 -0.08,0.08 0,0.12c1.267,0.653 1.9,1.74 1.9,3.26c0,1.293 -0.44,2.27 -1.32,2.93c-0.88,0.66 -2.033,0.99 -3.46,0.99l-5.18,-0c-0.067,-0 -0.123,-0.024 -0.17,-0.07c-0.047,-0.047 -0.07,-0.104 -0.07,-0.17l0,-13.52c0,-0.067 0.023,-0.124 0.07,-0.17c0.047,-0.047 0.103,-0.07 0.17,-0.07l5.02,-0c3.16,-0 4.74,1.28 4.74,3.84c0,1.333 -0.567,2.286 -1.7,2.86Zm-5.38,-4.28c-0.067,-0 -0.1,0.033 -0.1,0.1l0,3.12c0,0.066 0.033,0.1 0.1,0.1l2.34,-0c0.627,-0 1.113,-0.147 1.46,-0.44c0.347,-0.294 0.52,-0.694 0.52,-1.2c0,-0.52 -0.173,-0.93 -0.52,-1.23c-0.347,-0.3 -0.833,-0.45 -1.46,-0.45l-2.34,-0Zm2.5,9.14c0.613,-0 1.093,-0.157 1.44,-0.47c0.347,-0.314 0.52,-0.744 0.52,-1.29c0,-0.547 -0.173,-0.977 -0.52,-1.29c-0.347,-0.314 -0.833,-0.47 -1.46,-0.47l-2.48,-0c-0.067,-0 -0.1,0.033 -0.1,0.1l0,3.32c0,0.066 0.033,0.1 0.1,0.1l2.5,-0Z" style="fill:#d4af37;fill-rule:nonzero;"/>
            <path d="M170.5,13.981c-0.067,-0 -0.123,-0.024 -0.17,-0.07c-0.047,-0.047 -0.07,-0.104 -0.07,-0.17l0,-5.06c0,-0.054 -0.007,-0.094 -0.02,-0.12l-4.12,-8.28c-0.027,-0.054 -0.04,-0.094 -0.04,-0.12c0,-0.107 0.073,-0.16 0.22,-0.16l2.52,-0c0.133,-0 0.227,0.06 0.28,0.18l2.5,5.32c0.04,0.08 0.08,0.08 0.12,-0l2.5,-5.32c0.053,-0.12 0.147,-0.18 0.28,-0.18l2.56,-0c0.093,-0 0.157,0.023 0.19,0.07c0.033,0.046 0.03,0.116 -0.01,0.21l-4.16,8.28c-0.013,0.026 -0.02,0.066 -0.02,0.12l0,5.06c0,0.066 -0.023,0.123 -0.07,0.17c-0.047,0.046 -0.103,0.07 -0.17,0.07l-2.32,-0Z" style="fill:#d4af37;fill-rule:nonzero;"/>
        </g>
    </g>
</svg>
