<svg xmlns="http://www.w3.org/2000/svg" style="fill-rule:evenodd;clip-rule:evenodd;stroke-linejoin:round;stroke-miterlimit:2" viewBox="0 0 331 270">
  <path d="M291.471,192.68l-77.382,-192.68l-192.68,77.382l77.382,192.615l192.68,-77.317Z" style="fill:#191d63;fill-rule:nonzero"/>
  <path d="M71.9,105.175c-1.16,1.354 -3.804,3.288 -7.609,4.771c-8.705,3.483 -17.54,0.581 -21.667,-9.608c-3.869,-9.673 0.065,-18.958 9.673,-22.763c3.869,-1.548 6.642,-1.741 7.932,-1.612l0.322,3.611c-1.805,-0.129 -4.191,0.194 -6.771,1.225c-7.287,2.902 -10.253,9.48 -6.964,17.669c3.031,7.609 9.35,10.705 16.895,7.674c2.45,-0.967 4.707,-2.515 5.997,-3.869l2.192,2.902Zm-8.769,-33.275l4.062,-1.612l5.546,13.865l0.064,-0.065c0.194,-1.419 0.774,-2.837 1.741,-3.998c0.903,-1.161 2.128,-2.192 3.676,-2.837c2.966,-1.226 8.512,-1.29 11.607,6.384l5.352,13.219l-4.062,1.612l-5.159,-12.768c-1.419,-3.611 -3.998,-6.061 -7.803,-4.514c-2.643,1.032 -3.998,3.74 -3.804,6.191c0,0.645 0.193,1.289 0.516,2.063l5.416,13.413l-4.062,1.612l-13.09,-32.565Zm35.853,11.479c2.321,5.416 6.706,6.319 10.769,4.643c2.902,-1.161 4.449,-2.386 5.675,-3.612l1.87,2.644c-1.161,1.226 -3.289,2.967 -6.836,4.385c-6.835,2.773 -12.768,-0.193 -15.476,-6.9c-2.708,-6.706 -0.838,-13.606 5.61,-16.185c7.287,-2.902 11.736,2.708 13.413,6.835c0.322,0.838 0.516,1.483 0.58,1.935l-15.605,6.255Zm10.704,-7.674c-0.967,-2.579 -3.675,-6.19 -8.254,-4.32c-4.127,1.612 -4.385,6.126 -3.546,9.092l11.8,-4.772Zm11.092,6.191c1.483,0.322 3.933,0.258 5.997,-0.516c2.966,-1.161 3.74,-3.225 3.031,-5.03c-0.774,-1.935 -2.386,-2.515 -5.804,-2.451c-4.578,0.194 -7.351,-1.289 -8.447,-3.933c-1.419,-3.611 0.258,-7.738 5.029,-9.608c2.257,-0.903 4.514,-1.097 6.062,-0.839l0.193,3.354c-1.096,-0.194 -2.966,-0.323 -5.094,0.58c-2.386,0.967 -3.16,2.837 -2.515,4.514c0.71,1.87 2.386,2.128 5.739,2.063c4.45,-0.064 7.223,1.032 8.512,4.385c1.548,3.934 -0.322,7.932 -5.61,10.06c-2.45,0.967 -4.965,1.225 -6.9,0.967l-0.193,-3.546Zm6.448,-35.725l4.063,-1.612l5.546,13.864l0.064,-0.064c0.193,-1.419 0.774,-2.838 1.741,-3.998c0.903,-1.161 2.128,-2.193 3.676,-2.838c2.966,-1.225 8.512,-1.289 11.607,6.384l5.352,13.22l-4.062,1.612l-5.159,-12.768c-1.419,-3.611 -3.998,-6.062 -7.803,-4.579c-2.644,1.032 -3.998,3.74 -3.804,6.255c0,0.645 0.193,1.226 0.516,2.064l5.416,13.413l-4.062,1.612l-13.091,-32.565Zm30.76,-7.545c0.58,1.355 0,2.902 -1.613,3.483c-1.418,0.58 -2.901,-0.129 -3.417,-1.484c-0.581,-1.418 0.064,-2.966 1.483,-3.546c1.548,-0.581 2.966,0.129 3.547,1.547m6.964,30.373l-8.963,-22.248l4.062,-1.612l8.963,22.248l-4.062,1.612Zm3.676,-19.281c-1.032,-2.644 -2,-4.837 -2.967,-6.9l3.547,-1.419l1.87,4.321l0.193,-0.065c-0.193,-3.418 1.484,-6.255 4.192,-7.351c0.451,-0.194 0.838,-0.258 1.225,-0.323l1.548,3.805c-0.452,0.065 -0.903,0.194 -1.419,0.387c-2.837,1.161 -3.998,4.127 -3.353,7.351c0.129,0.581 0.322,1.29 0.58,1.999l4.772,11.865l-3.998,1.613l-6.19,-15.283Zm18.378,-1.677c2.321,5.417 6.706,6.32 10.769,4.643c2.901,-1.161 4.449,-2.386 5.674,-3.611l1.87,2.644c-1.16,1.225 -3.288,2.966 -6.835,4.385c-6.835,2.773 -12.768,-0.194 -15.476,-6.9c-2.709,-6.707 -0.839,-13.606 5.61,-16.186c7.287,-2.902 11.8,2.709 13.413,6.836c0.322,0.838 0.515,1.483 0.58,1.934l-15.605,6.255Zm10.704,-7.674c-0.967,-2.579 -3.676,-6.126 -8.254,-4.32c-4.127,1.612 -4.385,6.126 -3.547,9.092l11.801,-4.772Zm-110.462,88.925c4.256,10.704 0.064,18.958 -7.867,22.118c-8.19,3.289 -16.508,-0.774 -20.249,-10.124c-3.933,-9.866 -0.386,-18.765 7.868,-22.054c8.447,-3.417 16.508,0.903 20.248,10.06m-23.86,10.188c2.644,6.642 8.641,11.156 14.961,8.577c6.319,-2.58 7.609,-9.866 4.772,-16.895c-2.451,-6.191 -8.254,-11.285 -14.961,-8.641c-6.642,2.708 -7.544,10.124 -4.772,16.959m47.848,-7.609c0.774,1.935 1.612,3.805 2.515,5.159l-3.676,1.483l-1.418,-2.708l-0.129,0.064c-0.516,2.257 -2.322,4.772 -5.481,6.062c-4.514,1.805 -8.061,-0.452 -9.351,-3.676c-2.192,-5.417 1.419,-10.253 10.06,-13.671l-0.194,-0.451c-0.773,-1.87 -2.579,-4.965 -7.157,-3.095c-2.064,0.838 -3.998,2.321 -5.159,3.998l-1.999,-2.322c1.354,-1.934 3.74,-3.804 6.513,-4.9c6.835,-2.773 10.317,1.225 12.123,5.674l3.353,8.383Zm-6.319,-4.449c-4.45,1.676 -9.157,4.449 -7.416,8.77c1.032,2.644 3.289,3.159 5.352,2.321c2.902,-1.161 3.998,-3.74 3.869,-5.868c-0.064,-0.451 -0.129,-0.967 -0.322,-1.354l-1.483,-3.869Zm13.219,-6.126l0.064,-0.065c0.258,-1.032 0.645,-2.257 0.968,-3.353l3.482,-10.318l4.901,-1.934l-4.901,12.574l15.089,9.157l-4.901,1.999l-11.929,-7.609l-1.161,3.095l3.353,8.383l-3.998,1.613l-13.09,-32.63l3.998,-1.612l8.125,20.7Zm19.281,1.418c1.483,0.323 3.933,0.258 5.997,-0.515c2.966,-1.161 3.74,-3.225 3.031,-5.03c-0.774,-1.935 -2.386,-2.515 -5.804,-2.386c-4.578,0.193 -7.351,-1.29 -8.447,-3.934c-1.419,-3.611 0.258,-7.673 5.029,-9.608c2.257,-0.903 4.514,-1.032 6.062,-0.838l0.193,3.353c-1.096,-0.194 -2.966,-0.323 -5.094,0.516c-2.386,0.967 -3.16,2.902 -2.515,4.514c0.71,1.87 2.386,2.128 5.739,2.063c4.45,-0.064 7.223,1.096 8.512,4.385c1.548,3.934 -0.322,7.932 -5.61,10.06c-2.45,0.967 -4.965,1.225 -6.9,0.967l-0.193,-3.547Z" style="fill:#fff;fill-rule:nonzero"/>
  <path d="M0 162.953H331V226.406H0z" style="fill:#da1a32;fill-rule:nonzero"/>
  <path d="M17.411,174.818c2.579,-0.387 5.739,-0.709 9.157,-0.709c6.19,0 10.64,1.418 13.541,4.127c2.967,2.773 4.708,6.577 4.708,11.994c0,5.417 -1.677,9.931 -4.772,12.961c-3.16,3.096 -8.319,4.772 -14.767,4.772c-3.095,0 -5.675,-0.129 -7.803,-0.387l0,-32.758l-0.064,0Zm4.32,29.599c1.097,0.193 2.709,0.257 4.385,0.257c9.222,0 14.251,-5.158 14.251,-14.186c0.065,-7.867 -4.385,-12.897 -13.541,-12.897c-2.257,0 -3.934,0.193 -5.03,0.451l0,26.375l-0.065,0Zm29.47,-7.803c0.064,5.932 3.869,8.318 8.254,8.318c3.16,0 5.03,-0.58 6.642,-1.225l0.774,3.095c-1.548,0.71 -4.192,1.548 -7.996,1.548c-7.416,0 -11.801,-4.901 -11.801,-12.188c0,-7.222 4.256,-12.961 11.285,-12.961c7.867,0 9.93,6.9 9.93,11.285c0,0.903 -0.064,1.612 -0.129,2.063l-16.959,0l0,0.065Zm12.768,-3.16c0.064,-2.773 -1.161,-7.093 -6.062,-7.093c-4.385,0 -6.319,4.062 -6.706,7.093l12.768,0Zm7.738,9.866c1.29,0.839 3.547,1.741 5.739,1.741c3.16,0 4.643,-1.612 4.643,-3.546c0,-2.128 -1.225,-3.225 -4.449,-4.45c-4.321,-1.547 -6.32,-3.869 -6.32,-6.771c0,-3.869 3.095,-7.028 8.319,-7.028c2.45,0 4.514,0.709 5.868,1.483l-1.097,3.159c-0.967,-0.58 -2.643,-1.418 -4.9,-1.418c-2.58,0 -3.998,1.483 -3.998,3.288c0,2 1.418,2.902 4.578,4.063c4.127,1.612 6.32,3.676 6.32,7.222c0,4.192 -3.289,7.223 -8.964,7.223c-2.644,0 -5.03,-0.71 -6.706,-1.677l0.967,-3.289Zm23.343,-26.245c0.065,1.483 -1.031,2.708 -2.772,2.708c-1.548,0 -2.644,-1.225 -2.644,-2.708c0,-1.548 1.16,-2.708 2.773,-2.708c1.612,0 2.643,1.16 2.643,2.708m-4.836,6.771l4.385,0l0,23.988l-4.385,0l0,-23.988Zm30.308,20.506c0,5.481 -1.096,8.834 -3.418,10.962c-2.321,2.193 -5.674,2.902 -8.705,2.902c-2.902,0 -6.062,-0.709 -7.996,-1.999l1.096,-3.288c1.612,0.967 4.062,1.87 7.029,1.87c4.449,0 7.738,-2.322 7.738,-8.383l0,-2.709l-0.129,0c-1.354,2.257 -3.934,3.998 -7.609,3.998c-5.933,0 -10.189,-5.03 -10.189,-11.671c0,-8.126 5.288,-12.704 10.834,-12.704c4.127,0 6.448,2.193 7.48,4.127l0.064,0l0.194,-3.611l3.804,0c-0.064,1.741 -0.193,3.676 -0.193,6.577l0,13.929Zm-4.256,-11.091c0,-0.71 -0.065,-1.355 -0.258,-1.999c-0.838,-2.515 -2.902,-4.579 -6.126,-4.579c-4.127,0 -7.158,3.482 -7.158,9.093c0,4.707 2.386,8.641 7.093,8.641c2.709,0 5.095,-1.677 6.062,-4.45c0.258,-0.709 0.322,-1.612 0.322,-2.321l0,-4.385l0.065,0Zm9.802,-2.967c0,-2.45 -0.065,-4.514 -0.194,-6.513l3.869,0l0.258,3.934l0.065,0c1.225,-2.257 3.998,-4.514 7.931,-4.514c3.353,0 8.512,1.999 8.512,10.189l0,14.315l-4.385,0l0,-13.864c0,-3.869 -1.418,-7.093 -5.545,-7.093c-2.902,0 -5.095,1.999 -5.868,4.449c-0.194,0.516 -0.323,1.29 -0.323,1.999l0,14.445l-4.385,0l0,-17.347l0.065,0Zm28.179,6.32c0.065,5.932 3.87,8.318 8.254,8.318c3.16,0 5.03,-0.58 6.642,-1.225l0.71,3.095c-1.548,0.71 -4.127,1.548 -7.996,1.548c-7.416,0 -11.801,-4.901 -11.801,-12.188c0,-7.222 4.256,-12.961 11.285,-12.961c7.867,0 9.93,6.9 9.93,11.285c0,0.903 -0.064,1.612 -0.129,2.063l-16.895,0l0,0.065Zm12.833,-3.16c0.064,-2.773 -1.161,-7.093 -6.062,-7.093c-4.385,0 -6.319,4.062 -6.706,7.093l12.768,0Zm7.867,-2.128c0,-2.837 -0.064,-5.288 -0.193,-7.48l3.804,0l0.129,4.707l0.194,0c1.096,-3.224 3.74,-5.223 6.642,-5.223c0.515,0 0.838,0.065 1.225,0.129l0,4.127c-0.452,-0.064 -0.903,-0.129 -1.483,-0.129c-3.096,0 -5.288,2.321 -5.869,5.61c-0.064,0.581 -0.193,1.29 -0.193,1.999l0,12.833l-4.32,0l0,-16.573l0.064,0Zm51.91,-0.58c0,11.543 -6.964,17.604 -15.476,17.604c-8.835,0 -15.025,-6.835 -15.025,-16.959c0,-10.576 6.577,-17.54 15.541,-17.54c9.092,0 14.96,6.964 14.96,16.895m-25.923,0.58c0,7.158 3.869,13.542 10.64,13.542c6.836,0 10.705,-6.32 10.705,-13.864c0,-6.642 -3.482,-13.607 -10.64,-13.607c-7.094,0 -10.705,6.578 -10.705,13.929m49.783,9.931c0,2.515 0.064,4.643 0.193,6.577l-3.869,0l-0.258,-3.933l-0.065,0c-1.16,1.934 -3.675,4.449 -7.931,4.449c-3.74,0 -8.254,-2.128 -8.254,-10.511l0,-14.058l4.385,0l0,13.284c0,4.579 1.354,7.674 5.352,7.674c2.902,0 4.965,-2.064 5.739,-3.998c0.258,-0.645 0.387,-1.419 0.387,-2.257l0,-14.767l4.385,0l0,17.54l-0.064,0Zm10.704,-23.215l0,5.739l6.255,0l0,3.289l-6.255,0l0,12.962c0,2.966 0.838,4.642 3.289,4.642c1.225,0 1.87,-0.064 2.515,-0.322l0.193,3.289c-0.838,0.322 -2.192,0.645 -3.869,0.645c-2.064,0 -3.676,-0.71 -4.707,-1.87c-1.226,-1.29 -1.677,-3.418 -1.677,-6.255l0,-13.026l-3.74,0l0,-3.289l3.74,0l0,-4.45l4.256,-1.354Zm10.447,-5.416l4.384,0l0,35.208l-4.384,0l0,-35.208Zm12.381,23.988c0.064,5.932 3.869,8.318 8.254,8.318c3.159,0 5.029,-0.58 6.642,-1.225l0.773,3.095c-1.547,0.71 -4.191,1.548 -7.996,1.548c-7.415,0 -11.8,-4.901 -11.8,-12.188c0,-7.222 4.256,-12.961 11.284,-12.961c7.868,0 9.931,6.9 9.931,11.285c0,0.903 -0.064,1.612 -0.129,2.063l-16.959,0l0,0.065Zm12.768,-3.16c0.064,-2.773 -1.161,-7.093 -6.062,-7.093c-4.385,0 -6.32,4.062 -6.706,7.093l12.768,0Zm13.154,-15.412l0,5.739l6.255,0l0,3.289l-6.255,0l0,12.962c0,2.966 0.839,4.642 3.289,4.642c1.225,0 1.87,-0.064 2.515,-0.322l0.194,3.289c-0.839,0.322 -2.193,0.645 -3.87,0.645c-2.063,0 -3.675,-0.71 -4.707,-1.87c-1.225,-1.29 -1.677,-3.418 -1.677,-6.255l0,-13.026l-3.74,0l0,-3.289l3.74,0l0,-4.45l4.256,-1.354Z" style="fill:#fff;fill-rule:nonzero"/>
</svg>
