<svg xmlns="http://www.w3.org/2000/svg" width="273" height="80" viewBox="0 0 273 80">
  <path fill="#261e38" d="M167.28 38.47h-1.24c.14-1.76.21-5.7.21-11.84h1.24c.25 3.34 1.15 6.03 2.7 8.07 1.53 2.04 3.9 3.07 7.1 3.07 1.79 0 3.33-.5 4.62-1.51 1.33-1.04 1.99-2.56 1.99-4.57a5 5 0 0 0-1.02-3.12 9.75 9.75 0 0 0-2.74-2.48 78.14 78.14 0 0 0-4.8-2.69 27.88 27.88 0 0 1-6.72-4.52 7.84 7.84 0 0 1-2.31-5.86c0-2.65.97-4.72 2.9-6.19 2.1-1.5 4.63-2.28 7.21-2.2a10.56 10.56 0 0 1 6.57 1.99c.79.5 1.4.75 1.83.75.32 0 .57-.18.75-.54.18-.4.32-1 .43-1.83h1.24a120.9 120.9 0 0 0-.27 9.9h-1.24a11.6 11.6 0 0 0-2.53-6.56c-1.43-1.8-3.53-2.7-6.3-2.7-1.9 0-3.47.51-4.73 1.52a4.72 4.72 0 0 0-1.83 3.82c0 1.1.27 2.08.81 2.9.57.82 1.3 1.54 2.15 2.15.9.57 2.15 1.3 3.77 2.15l1.77.97c2.23 1.19 4 2.24 5.33 3.18 1.36.93 2.46 2 3.28 3.22a7.07 7.07 0 0 1 1.24 4.15c0 2.9-1.06 5.16-3.18 6.77-2.08 1.58-4.7 2.37-7.85 2.37-1.72 0-3.14-.18-4.25-.54-1.1-.36-2.14-.85-3.12-1.45-.79-.5-1.4-.75-1.83-.75-.32 0-.57.2-.75.59-.18.36-.33.95-.43 1.78zm-73.61-.38h-1.24a8.78 8.78 0 0 0-.48-2.42c-.22-.54-.5-.81-.86-.81-.3 0-.65.16-1.08.48a18.57 18.57 0 0 1-3.98 2.64c-1.3.57-2.87.86-4.73.86-3.2 0-6-.64-8.4-1.94a13.76 13.76 0 0 1-5.6-5.75 19.44 19.44 0 0 1-1.98-9.1c0-3.44.68-6.47 2.04-9.08a14.75 14.75 0 0 1 5.7-6.14c2.44-1.47 5.2-2.2 8.29-2.2 1.76 0 3.24.3 4.46.91 1.22.58 2.5 1.44 3.82 2.58.4.33.74.49 1.03.49.71 0 1.18-1.08 1.4-3.23h1.23c-.18 3.76-.25 7.53-.21 11.3h-1.24c-.24-1.41-.6-2.8-1.08-4.15-.36-.9-.9-1.8-1.61-2.74a9.97 9.97 0 0 0-3.6-3.01 9.54 9.54 0 0 0-4.42-1.08 8.5 8.5 0 0 0-5.54 1.94 12.53 12.53 0 0 0-3.6 5.6 25.8 25.8 0 0 0-1.3 8.6 24 24 0 0 0 1.4 8.66c.8 2.12 2.13 4 3.88 5.44a9.1 9.1 0 0 0 5.54 1.83 10.22 10.22 0 0 0 8.23-4.09c.68-.94 1.18-1.92 1.5-2.96.37-1.04.69-2.53.98-4.47h1.23c0 5.63.08 9.58.22 11.84zm67.62-31.63c-.96 0-1.92.2-2.8.59a2.3 2.3 0 0 0-1.23 1.5c-.21.68-.32 1.7-.32 3.07v11.89c0 2.47-.18 4.59-.54 6.35a13.3 13.3 0 0 1-1.67 4.52 9.17 9.17 0 0 1-3.76 3.28 12.46 12.46 0 0 1-5.55 1.18c-3.69 0-6.52-.79-8.5-2.37-1.57-1.4-2.63-3-3.17-4.78-.54-1.8-.8-4.47-.8-8.02V11.08c0-1.36-.11-2.35-.33-2.96a1.93 1.93 0 0 0-1.24-1.23c-.57-.22-1.5-.36-2.8-.43V5.38c1.51.1 3.8.16 6.9.16 2.86 0 5.14-.05 6.82-.16v1.08c-1.29.07-2.24.21-2.85.43a1.9 1.9 0 0 0-1.18 1.23 9.6 9.6 0 0 0-.32 2.96v13.5c0 2.66.18 4.87.53 6.62a7.73 7.73 0 0 0 2.26 4.2c1.19 1.04 2.9 1.56 5.17 1.56 3.58 0 6.11-1.13 7.58-3.4 1.47-2.25 2.21-5.4 2.21-9.46V11.62c0-1.94-.36-3.26-1.08-3.98-.68-.72-1.95-1.11-3.82-1.18V5.38c1.3.1 3.12.16 5.5.16 2.14 0 3.81-.05 5-.16v1.08h-.01zm65.38 31.9h-.86L213.22 9.9c-.97-2.22-2.2-3.37-3.71-3.44V5.38c1.47.1 3.39.16 5.76.16 3.08 0 5.38-.05 6.88-.16v1.08c-1.01 0-2.01.19-2.96.53-.6.3-.91.78-.91 1.46 0 .57.25 1.41.75 2.53l9.25 20.87 8.02-17.86c.9-1.94 1.34-3.46 1.34-4.58 0-1-.36-1.72-1.07-2.15a6.26 6.26 0 0 0-3.18-.8V5.38c3.19.21 6.39.21 9.58 0v1.08a4.4 4.4 0 0 0-2.42 1.5c-.61.72-1.31 1.97-2.1 3.77l-11.78 26.63zM9.37 19.47V32.4c0 1.36.1 2.35.31 2.95.22.61.61 1.03 1.19 1.24a11 11 0 0 0 2.85.27h3.92c2.23 0 3.91-.29 5.06-.86a5.44 5.44 0 0 0 2.58-2.85c.54-1.33.94-3.26 1.19-5.81h1.23a39 39 0 0 0-.16 3.87c0 2.05.13 4.34.38 6.89a316.7 316.7 0 0 0-12.32-.16c-6.89 0-12.09.05-15.6.16V37a10.1 10.1 0 0 0 2.8-.43 1.93 1.93 0 0 0 1.23-1.24c.22-.6.33-1.6.33-2.95V5.7c0-1.36-.11-2.35-.33-2.96A1.93 1.93 0 0 0 2.8 1.51 10.1 10.1 0 0 0 0 1.08V0a586.6 586.6 0 0 0 26.84 0c-.23 2.1-.36 4.23-.37 6.35 0 1.4.05 2.5.16 3.33h-1.24a24.57 24.57 0 0 0-.97-5.16 4.23 4.23 0 0 0-1.99-2.48c-.93-.53-2.35-.8-4.25-.8h-4.46c-1.3 0-2.24.1-2.85.32-.58.18-.97.57-1.19 1.18-.21.61-.32 1.6-.32 2.96v12.7h3.55c1.26 0 2.22-.29 2.9-.86a4.32 4.32 0 0 0 1.35-2.1c.25-.82.45-1.85.6-3.07l.15-1.07h1.24c-.1 1.5-.16 3.19-.16 5.05v2.59c0 1.83.1 4.37.32 7.64h-1.23l-.33-2.59a5.25 5.25 0 0 0-1.5-3.39 4.64 4.64 0 0 0-3.34-1.13H9.36h.01zm245.07 0V32.4c0 1.36.1 2.35.32 2.95.22.61.61 1.03 1.19 1.24a11 11 0 0 0 2.85.27h3.92c2.23 0 3.91-.29 5.06-.86a5.45 5.45 0 0 0 2.58-2.85c.54-1.33.94-3.26 1.19-5.81h1.24c-.11.97-.17 2.26-.17 3.87 0 2.05.13 4.34.38 6.89-2.44-.11-6.54-.16-12.32-.16-6.88 0-12.09.05-15.6.16V37a10.1 10.1 0 0 0 2.8-.43 1.92 1.92 0 0 0 1.23-1.24c.22-.6.33-1.6.33-2.95V5.7c0-1.36-.11-2.35-.33-2.96a1.92 1.92 0 0 0-1.23-1.23 10.1 10.1 0 0 0-2.8-.43V0a587.14 587.14 0 0 0 26.84 0c-.23 2.1-.36 4.23-.37 6.35 0 1.4.05 2.5.16 3.33h-1.24a24.48 24.48 0 0 0-.97-5.16 4.23 4.23 0 0 0-1.99-2.48c-.93-.53-2.35-.8-4.25-.8h-4.46c-1.3 0-2.24.1-2.85.32-.58.18-.97.57-1.19 1.18-.21.61-.32 1.6-.32 2.96v12.7h3.55c1.26 0 2.22-.29 2.9-.86a4.33 4.33 0 0 0 1.35-2.1c.25-.82.45-1.85.6-3.07l.15-1.07h1.24c-.1 1.5-.16 3.19-.16 5.05v2.59c0 1.83.1 4.37.32 7.64h-1.24l-.32-2.59a5.25 5.25 0 0 0-1.5-3.39 4.64 4.64 0 0 0-3.34-1.13h-3.55zM207.42 6.46c-1.3.07-2.24.21-2.85.43-.58.21-.97.62-1.19 1.23-.21.61-.32 1.6-.32 2.96v21.3c0 1.37.1 2.35.32 2.96.22.61.61 1.03 1.19 1.24.6.22 1.56.36 2.85.43v1.08c-1.65-.11-3.93-.16-6.83-.16-3.09 0-5.38.05-6.89.16V37a10.1 10.1 0 0 0 2.8-.43c.6-.21 1.02-.63 1.24-1.24.21-.6.32-1.6.32-2.95v-21.3c0-1.37-.11-2.36-.32-2.97a1.93 1.93 0 0 0-1.24-1.23 10.1 10.1 0 0 0-2.8-.43V5.38c1.5.1 3.8.16 6.89.16 2.87 0 5.14-.05 6.83-.16v1.08zM59.57 34.26a9.53 9.53 0 0 0 1.73 2c.46.36 1 .6 1.6.7v1.13c-1.45-.1-2.9-.15-4.35-.16-2.15 0-4.68.05-7.58.16v-1.13c1.18 0 2.04-.07 2.58-.22.54-.14.8-.37.8-.7 0-.21-.14-.52-.43-.91l-8.39-11.51-6.78 8.87c-.55.67-.87 1.5-.91 2.37 0 .65.27 1.17.8 1.56.54.4 1.35.6 2.43.6v1.07c-2.05-.11-4.07-.16-6.08-.16-.4 0-1.06.03-2 .1l-1.6.06V37a5.62 5.62 0 0 0 2.58-1.13c1-.72 1.84-1.54 2.52-2.47l8.29-10.82-9.74-13.4c-.51-.76-1.1-1.46-1.77-2.09-.4-.36-.92-.56-1.56-.6v-1.1c1.61.1 3.06.16 4.35.16 2.16 0 4.68-.05 7.59-.16v1.13a11 11 0 0 0-2.58.21c-.54.15-.81.38-.81.7 0 .22.14.52.43.92l7.86 10.76 6.29-8.18c.6-.79.91-1.54.91-2.26 0-.64-.28-1.16-.86-1.56a4.18 4.18 0 0 0-2.53-.64V5.38a125 125 0 0 0 6.08.16c1.55 0 2.75-.05 3.6-.16v1.08c-.78.07-1.64.43-2.57 1.07-.9.65-1.76 1.5-2.59 2.58l-7.69 9.96 10.38 14.2v-.01zm53.39-27.8c-1.3.07-2.24.21-2.85.43-.58.21-.97.62-1.19 1.23-.21.61-.32 1.6-.32 2.96v21.3c0 1.37.1 2.35.32 2.96.22.61.61 1.03 1.19 1.24a11 11 0 0 0 2.85.27h3.39c2.47 0 4.4-.73 5.75-2.2 1.4-1.48 2.25-3.91 2.53-7.32h1.24a58.7 58.7 0 0 0 .22 10.76c-2.34-.11-6.26-.16-11.79-.16-6.63 0-11.65.05-15.06.16V37a10.1 10.1 0 0 0 2.8-.43 1.92 1.92 0 0 0 1.23-1.24c.22-.6.33-1.6.33-2.95v-21.3c0-1.37-.11-2.36-.33-2.97a1.92 1.92 0 0 0-1.23-1.23 10.1 10.1 0 0 0-2.8-.43V5.38c1.5.1 3.8.16 6.89.16 2.86 0 5.14-.05 6.83-.16v1.08z"/>
  <path fill="#d4af37" d="M147.77 50.83h.04c.25.01.49.12.66.3h.01l.01.01 8.43 9.08c.36.39.34 1-.05 1.37l-.03.03-20.07 18.12a.97.97 0 0 1-1.32 0L115.4 61.62l-.03-.03a.97.97 0 0 1-.05-1.37l8.42-9.07.01-.02h.01a.97.97 0 0 1 .29-.2v-.01a.95.95 0 0 1 .37-.09h23.36-.01zM128.92 61.2l7.2 16.42 7.19-16.42h-14.4.01zm-11.1 0l17.2 15.52-6.81-15.52h-10.39zm26.2 0l-6.8 15.52L154.4 61.2H144h.02zm89.96 0h-64.81a.33.33 0 0 1 0-.65h64.81a.33.33 0 0 1 0 .65zm-130.28 0H38.9a.32.32 0 1 1 0-.65h64.81a.33.33 0 0 1 0 .65h-.01zm25.38-.65h14.07l-7.04-7.57-7.03 7.57zm-11.43 0h10.28l-3.3-7.52-6.98 7.52zm26.65 0h10.28l-6.99-7.52-3.3 7.52h.01zm-7.49-7.77l6.92 7.45 3.27-7.45h-10.2.01zm-11.59 0l3.27 7.45 6.92-7.45h-10.19z"/>
</svg>
