<svg xmlns="http://www.w3.org/2000/svg" style="fill-rule:evenodd;clip-rule:evenodd;stroke-linejoin:round;stroke-miterlimit:2" viewBox="0 0 163 73">
  <path d="M22.336,69.733l0,2.941l-11.004,0l0,-15.853l3.159,0l0,12.912l7.845,0Zm9.371,-13.239c4.576,0 8.28,3.65 8.28,8.227c0,4.576 -3.65,8.28 -8.226,8.28c-4.576,0 -8.281,-3.65 -8.281,-8.226c-0.054,-4.467 3.487,-8.172 7.954,-8.226c0.109,-0.055 0.218,-0.055 0.273,-0.055Zm0,13.402c2.941,0 4.957,-2.125 4.957,-5.121c0,-3.051 -2.016,-5.121 -4.957,-5.121c-2.942,0 -4.958,2.07 -4.958,5.121c0,3.051 2.07,5.121 4.958,5.121Zm24.951,-13.075l-6.32,15.853l-3.377,0l-6.32,-15.853l3.432,0l3.65,9.643c0.545,1.525 0.872,2.724 0.872,2.724c0,0 0.327,-1.199 0.926,-2.724l3.65,-9.643l3.487,0Zm14.001,12.912l0,2.941l-11.332,0l0,-15.853l11.223,0l0,2.942l-8.063,0l0,3.378l6.374,0l0,2.778l-6.374,0l0,3.814l8.172,0Zm3.595,-9.044c0.818,-2.887 2.942,-4.195 5.721,-4.195c3.105,0 5.23,2.071 5.23,4.903c0,3.269 -2.452,4.903 -4.25,6.32l-4.794,3.759c0,0 0.981,-0.055 2.615,-0.055l6.374,0l0,1.253l-10.841,0l0,-1.089c2.451,-2.07 4.957,-4.086 7.409,-6.156c1.144,-0.926 2.125,-2.343 2.125,-4.032c0,-2.179 -1.635,-3.759 -3.977,-3.759c-2.343,0 -3.868,1.253 -4.468,3.269l-1.144,-0.218Zm23.426,0.981c-0.327,-1.471 -1.634,-2.452 -3.16,-2.397c-1.471,0 -2.397,0.708 -2.397,1.634c0,1.253 1.798,1.743 3.759,2.397c2.288,0.817 4.958,2.016 4.958,4.849c0,2.833 -2.452,4.848 -6.047,4.848c-3.323,0 -5.612,-1.906 -6.483,-4.739l3.051,-0.817c0.381,1.634 1.852,2.778 3.541,2.778c1.689,0 2.56,-0.817 2.56,-1.907c0,-1.634 -2.124,-2.016 -4.413,-2.778c-1.852,-0.654 -4.249,-1.635 -4.249,-4.413c0,-2.452 2.452,-4.576 5.775,-4.576c2.942,0 5.339,1.798 5.993,4.304l-2.888,0.817Zm18.959,-4.849l0,15.853l-3.16,0l0,-6.537l-6.864,0l0,6.537l-3.106,0l0,-15.853l3.16,0l0,6.374l6.864,0l0,-6.319l3.106,0l0,-0.055Zm11.277,-0.327c4.576,0 8.281,3.65 8.281,8.227c0,4.576 -3.651,8.28 -8.227,8.28c-4.576,0 -8.28,-3.65 -8.28,-8.226c-0.055,-4.467 3.486,-8.172 7.953,-8.226c0.055,-0.055 0.164,-0.055 0.273,-0.055Zm0,13.402c2.942,0 4.957,-2.125 4.957,-5.121c0,-3.051 -2.015,-5.121 -4.957,-5.121c-2.942,0 -4.958,2.07 -4.958,5.121c0,3.051 2.016,5.121 4.958,5.121Zm16.888,-13.075c3.814,0 6.102,2.016 6.102,5.285c0,3.323 -2.288,5.339 -6.102,5.339l-2.506,0l0,5.229l-3.16,0l0,-15.853l5.666,0Zm-0.109,7.682c1.852,0 2.942,-0.926 2.942,-2.397c0,-1.471 -1.09,-2.343 -2.942,-2.343l-2.451,0l0,4.74l2.451,0Z" style="fill:#636466;fill-rule:nonzero"/>
  <path d="M137.885,50.175c13.838,0 25.115,-11.223 25.115,-25.115c0,-13.837 -11.223,-25.06 -25.06,-25.06c-13.838,0 -25.115,11.223 -25.115,25.06c0,13.892 11.223,25.115 25.06,25.115" style="fill:#7dd2ef;fill-rule:nonzero"/>
  <path d="M162.074,31.761l-15.036,-15.526l1.743,22.172c0,0.218 -0.218,0.273 -0.436,0.273l-21.41,0.272l11.332,11.223c11.168,-0.164 20.865,-7.627 23.807,-18.414Z" style="fill:#78b8d2;fill-rule:nonzero"/>
  <path d="M81.446,50.175c13.837,0 25.114,-11.223 25.114,-25.115c0,-13.892 -11.222,-25.06 -25.114,-25.06c-13.893,0 -25.061,11.223 -25.061,25.06c0,13.892 11.223,25.115 25.061,25.115" style="fill:#fac46b;fill-rule:nonzero"/>
  <path d="M105.307,32.905l-15.417,-19.176c0.544,1.035 0.762,2.179 0.762,3.377c0,1.253 -0.218,2.452 -0.653,3.596c-0.545,1.307 -1.253,2.506 -2.125,3.541c-1.035,1.307 -2.234,2.506 -3.487,3.541c-1.797,1.525 -3.541,3.214 -5.175,4.903l-0.327,0.981l11.495,-0.382l0,4.195l-18.305,0.6l11.931,11.93c9.915,-0.98 18.196,-7.736 21.301,-17.106Z" style="fill:#ddb264;fill-rule:nonzero"/>
  <g>
    <path d="M25.115,50.175c13.837,0 25.114,-11.223 25.114,-25.115c-0.054,-13.837 -11.277,-25.06 -25.114,-25.06c-13.838,0 -25.115,11.223 -25.115,25.06c0,13.892 11.223,25.115 25.115,25.115" style="fill:#d67ca4;fill-rule:nonzero"/>
    <path d="M49.957,28.165l-9.479,-13.51l-0.382,1.198c3.16,3.432 2.615,6.211 -0.708,9.534l-4.195,2.397l-4.631,6.973l-5.284,6.32l7.899,7.79c7.464,-2.451 15.527,-9.806 16.78,-20.702Z" style="fill:#b97095;fill-rule:nonzero"/>
  </g>
  <path d="M39.933,14.001c-3.432,-3.432 -8.989,-3.432 -12.421,0l-2.179,2.179l-2.18,-2.179c-3.432,-3.432 -8.989,-3.378 -12.421,0.054c-3.377,3.433 -3.377,8.935 0,12.367l14.601,14.6l6.21,-6.21l6.211,-6.211l2.179,-2.179c3.432,-3.432 3.432,-8.989 0,-12.421Zm108.794,24.897l-21.846,0c-0.164,0 -0.273,-0.164 -0.273,-0.327l1.962,-22.336c0,-0.218 0.163,-0.382 0.381,-0.382l3.813,0l0,-2.07c0,-2.397 2.288,-4.358 5.012,-4.358c2.724,0 4.958,1.961 4.903,4.358l0,2.07l4.032,0c0.218,0.055 0.381,0.164 0.381,0.382l1.961,22.281l0,0.055c0,0.218 -0.163,0.327 -0.326,0.327Zm-68.752,-5.775c1.416,-1.634 2.941,-3.16 4.576,-4.522c1.307,-1.089 2.451,-2.288 3.486,-3.541c0.872,-1.089 1.58,-2.288 2.125,-3.541c0.436,-1.144 0.654,-2.343 0.654,-3.596c0.054,-2.124 -0.817,-4.14 -2.343,-5.556c-1.58,-1.471 -3.759,-2.234 -6.483,-2.234c-2.506,0 -4.63,0.654 -6.265,1.907c-1.906,1.471 -2.833,3.65 -2.996,6.755l5.339,0c0.109,-1.525 0.49,-2.615 1.144,-3.269c0.708,-0.708 1.689,-1.035 2.669,-1.035c0.981,-0.054 1.962,0.273 2.67,0.981c0.654,0.654 0.98,1.58 0.98,2.778c-0.054,1.199 -0.435,2.343 -1.089,3.269c-0.545,0.817 -2.016,2.288 -4.467,4.576c-2.997,2.779 -5.012,5.012 -6.048,6.701c-0.98,1.634 -1.634,3.432 -1.852,5.339l18.795,0l0,-4.958l-10.895,-0.054Zm53.77,-15.79l0,0.373c-0.054,0.272 -0.327,0.435 -0.599,0.381c-0.273,-0.055 -0.436,-0.327 -0.382,-0.599l0,-0.076c-0.293,0.191 -0.49,0.522 -0.49,0.893c0,0.599 0.49,1.035 1.035,1.035c0.49,0 0.872,-0.327 1.035,-0.817c0.098,-0.488 -0.154,-0.976 -0.599,-1.19Zm8.934,0.004l0,0.369c-0.054,0.272 -0.326,0.435 -0.599,0.381c-0.262,-0.052 -0.423,-0.306 -0.386,-0.568c-0.23,0.175 -0.376,0.466 -0.376,0.786c0,0.599 0.49,1.035 1.035,1.035c0.49,0 0.871,-0.327 1.035,-0.817c0.105,-0.527 -0.197,-1.053 -0.709,-1.186Zm-0.98,-1.484l0,-2.07c0,-1.852 -1.798,-3.323 -3.977,-3.323c-2.179,0 -3.977,1.471 -3.977,3.323l0,2.07l7.954,0Z" style="fill:#fff;fill-rule:nonzero"/>
</svg>
