<svg xmlns="http://www.w3.org/2000/svg" style="fill-rule:evenodd;clip-rule:evenodd;stroke-linejoin:round;stroke-miterlimit:2" viewBox="0 0 316 100">
  <path d="M0 0H316V100.001H0z" style="fill:#c22036"/>
  <path d="M148.428,78.793c0,0.615 -0.038,1.067 -0.1,1.381c-0.301,1.404 -1.555,2.308 -3.174,2.308c-0.979,0 -1.868,-0.339 -2.471,-0.954c-0.64,-0.639 -0.827,-1.266 -0.827,-2.735l0,-5.543l1.091,0l0,5.419c0,0.539 0.026,0.902 0.062,1.178c0.164,1.003 0.979,1.63 2.133,1.63c0.703,0 1.33,-0.238 1.693,-0.676c0.402,-0.453 0.503,-0.891 0.503,-2.132l0,-5.419l1.09,0l0,5.543Zm129.337,0c0,0.615 -0.039,1.067 -0.101,1.381c-0.302,1.404 -1.556,2.308 -3.173,2.308c-0.981,0 -1.868,-0.339 -2.471,-0.954c-0.64,-0.639 -0.829,-1.266 -0.829,-2.735l0,-5.543l1.093,0l0,5.419c0,0.539 0.025,0.902 0.062,1.178c0.163,1.003 0.979,1.63 2.13,1.63c0.704,0 1.333,-0.238 1.696,-0.676c0.4,-0.453 0.502,-0.891 0.502,-2.132l0,-5.419l1.091,0l0,5.543Zm-49.246,-5.732c2.696,0 4.753,2.046 4.753,4.717c0,2.671 -2.057,4.704 -4.74,4.704c-2.697,0 -4.767,-2.033 -4.767,-4.704c0,-2.671 2.07,-4.717 4.754,-4.717Zm-97.877,0c2.697,0 4.753,2.046 4.753,4.717c0,2.671 -2.056,4.704 -4.74,4.704c-2.697,0 -4.767,-2.033 -4.767,-4.704c0,-2.671 2.07,-4.717 4.754,-4.717Zm31.233,1.857c-0.2,-0.151 -0.352,-0.264 -0.464,-0.327c-0.502,-0.3 -1.168,-0.476 -1.795,-0.476c-2.056,0 -3.611,1.605 -3.611,3.675c0,2.095 1.542,3.676 3.599,3.676c0.465,0 0.953,-0.101 1.418,-0.288c0.301,-0.127 0.464,-0.227 0.84,-0.515l0.603,0.902c-0.214,0.126 -0.377,0.227 -0.477,0.289c-0.703,0.402 -1.618,0.627 -2.471,0.627c-2.623,0 -4.629,-2.007 -4.629,-4.628c0,-2.723 2.006,-4.754 4.728,-4.754c0.552,0 1.08,0.088 1.569,0.238c0.452,0.151 0.703,0.288 1.291,0.702l-0.601,0.879Zm134.817,5.105c0.526,0.979 1.216,1.443 2.145,1.443c0.992,0 1.793,-0.728 1.793,-1.669c0,-0.401 -0.161,-0.74 -0.464,-0.978c-0.288,-0.213 -0.726,-0.427 -1.466,-0.741c-1.155,-0.477 -1.267,-0.526 -1.645,-0.865c-0.438,-0.402 -0.702,-0.99 -0.702,-1.63c0,-1.43 1.117,-2.471 2.634,-2.471c0.677,0 1.179,0.15 1.681,0.513c0.389,0.29 0.627,0.565 0.891,1.041l-0.929,0.477c-0.325,-0.702 -0.891,-1.078 -1.643,-1.078c-0.852,0 -1.505,0.601 -1.505,1.404c0,0.339 0.14,0.653 0.339,0.866c0.25,0.264 0.428,0.364 1.443,0.766c0.777,0.313 1.241,0.552 1.619,0.84c0.537,0.401 0.865,1.054 0.865,1.769c0,1.618 -1.23,2.759 -2.999,2.759c-1.342,0 -2.295,-0.615 -2.936,-1.869l0.879,-0.577Zm-228.129,-4.278c-0.313,-0.414 -0.451,-0.551 -0.727,-0.777c-0.677,-0.564 -1.456,-0.865 -2.296,-0.865c-1.994,0 -3.6,1.642 -3.6,3.687c0,2.12 1.531,3.662 3.6,3.662c1.757,0 2.935,-1.028 3.187,-2.784l-3.262,0l0,-0.941l4.415,0c0.013,0.127 0.013,0.251 0.013,0.389c0,2.533 -1.819,4.352 -4.378,4.352c-2.71,0 -4.691,-1.956 -4.691,-4.627c0,-2.697 2.057,-4.743 4.766,-4.743c1.092,0 1.971,0.303 2.847,0.979c0.352,0.264 0.528,0.451 0.917,0.915l-0.791,0.753Zm172.261,6.549l-1.091,0l0,-9.045l1.993,0c0.503,0 0.866,0.038 1.142,0.088c1.128,0.276 1.83,1.242 1.83,2.496c0,1.342 -0.724,2.171 -2.167,2.459l2.733,4.002l-1.329,0l-3.111,-4.679l0,4.679Zm-46.261,0l-1.091,0l0,-9.045l1.995,0c0.5,0 0.865,0.038 1.14,0.088c1.129,0.276 1.831,1.242 1.831,2.496c0,1.342 -0.727,2.171 -2.168,2.459l2.733,4.002l-1.329,0l-3.111,-4.679l0,4.679Zm-117.182,-0.001l-1.09,0l0,-9.043l1.09,0l0,9.043Zm210.054,0l-2.896,0l0,-9.043l1.93,0c0.565,0 0.853,0.013 1.067,0.049c1.104,0.202 1.931,1.179 1.931,2.283c0,0.852 -0.363,1.481 -1.104,1.831c1.217,0.239 1.906,1.054 1.906,2.308c0,0.766 -0.286,1.406 -0.852,1.908c-0.528,0.488 -1.054,0.664 -1.982,0.664Zm-26.241,0l-1.091,0l0,-9.043l2.068,0c0.427,0 0.779,0.024 1.043,0.075c1.141,0.251 1.843,1.179 1.843,2.433c0,1.505 -1.016,2.483 -2.583,2.484l-1.28,0l0,4.051Zm-172.799,-8.09l-3.149,0l0,2.671l2.735,0l0,0.942l-2.735,0l0,4.477l-1.091,0l0,-9.044l4.24,0l0,0.954Zm-66.782,0.088l-2.282,0l0,8.002l-1.091,0l0,-8.002l-2.259,0l0,-1.042l5.632,0l0,1.042Zm196.47,-0.088l-3.15,0l0,2.671l2.735,0l0,0.942l-2.735,0l0,4.477l-1.091,0l0,-9.044l4.241,0l0,0.954Zm-100.877,8.09l-0.827,0l-3.349,-9.044l1.179,0l2.321,6.536c0.137,0.35 0.2,0.664 0.262,1.129c0.064,-0.465 0.139,-0.779 0.264,-1.129l2.321,-6.536l1.179,0l-3.35,9.044Zm-71.622,-8.09l-3.538,0l0,2.671l3.036,0l0,0.942l-3.036,0l0,3.524l3.714,0l0,0.953l-4.805,0l0,-9.044l4.629,0l0,0.954Zm124.293,8.09l-1.091,0l0,-9.044l1.091,0l0,3.625l4.517,0l0,-3.625l1.078,0l0,9.044l-1.078,0l0,-4.477l-4.517,0l0,4.477Zm-141.302,0l-1.091,0l0,-9.044l1.091,0l0,3.625l4.515,0l0,-3.625l1.08,0l0,9.044l-1.08,0l0,-4.477l-4.515,0l0,4.477Zm70.694,-8.002l-2.282,0l0,8.002l-1.091,0l0,-8.002l-2.258,0l0,-1.042l5.631,0l0,1.042Zm87.618,-0.088l-3.538,0l0,2.671l3.035,0l0,0.942l-3.035,0l0,3.524l3.713,0l0,0.953l-4.804,0l0,-9.044l4.629,0l0,0.954Zm-59.908,3.575c0,2.082 1.593,3.701 3.676,3.701c2.057,0 3.662,-1.619 3.662,-3.701c0,-2.083 -1.605,-3.701 -3.662,-3.701c-2.083,0 -3.676,1.618 -3.676,3.701Zm97.877,0c0,2.082 1.593,3.701 3.676,3.701c2.056,0 3.662,-1.619 3.662,-3.701c0,-2.083 -1.606,-3.701 -3.662,-3.701c-2.083,0 -3.676,1.618 -3.676,3.701Zm62.178,0.288l-1.405,0l0,3.274l1.542,0c1.294,0 2.019,-0.578 2.019,-1.619c0,-1.103 -0.725,-1.655 -2.156,-1.655Zm-91.567,-3.862l-0.904,0l0,3.373l0.84,0c1.217,0 1.932,-0.653 1.932,-1.744c0,-1.054 -0.64,-1.629 -1.868,-1.629Zm46.259,0l-0.902,0l0,3.373l0.84,0c1.217,0 1.932,-0.653 1.932,-1.744c0,-1.054 -0.64,-1.629 -1.87,-1.629Zm20.434,-0.001l-0.966,0l0,3.085l0.966,0c1.118,0 1.793,-0.577 1.793,-1.556c0,-0.99 -0.625,-1.529 -1.793,-1.529Zm24.399,0l-0.93,0l0,2.909l1.066,0c1.091,0 1.706,-0.526 1.706,-1.466c0,-0.941 -0.615,-1.443 -1.842,-1.443Zm-74.459,-11.19l-9.281,0l0,-7.222c-3.118,5.241 -8.136,8.212 -13.861,8.212c-9.035,0 -16.275,-7.241 -16.275,-16.337c0,-9.222 7.177,-16.586 16.089,-16.586c6.102,0 11.241,3.129 14.047,8.016l0,-7.026l8.664,0l0,3.281c2.103,-3.033 4.577,-4.271 8.538,-4.271c3.28,0 6.375,1.115 8.355,3.095c1.181,1.18 1.947,2.271 2.421,3.673c1.695,-4.002 6.326,-6.83 11.811,-6.83c6.559,0 10.89,3.713 11.447,9.716l-9.033,0c-0.186,-1.546 -0.99,-2.29 -2.662,-2.29c-1.732,0 -2.908,0.806 -2.908,1.982c0,1.484 1.424,2.474 4.703,3.403c6.436,1.795 7.736,2.476 9.406,4.951c0.928,1.3 1.425,2.97 1.425,4.766c0,6.001 -5.51,10.519 -12.811,10.519c-4.879,0 -8.644,-1.898 -10.705,-5.19l0,4.138l-9.282,0l0,-16.833c0,-4.456 -1.484,-6.436 -4.888,-6.436c-3.468,0 -5.2,1.98 -5.2,6.005l0,17.264Zm-128.097,0l-8.85,0l0,-41.215l9.284,0l0,12.748c2.165,-2.351 5.135,-3.529 8.91,-3.529c7.926,0 13.939,5.64 15.042,13.647l0,-13.584l-8.169,0l0,-9.282l26.796,0l0,9.282l-8.045,0l0,13.246c1.463,-7.853 7.983,-13.246 16.461,-13.246c6.947,0 12.644,3.749 15.222,9.425l0,-18.707l9.282,0l0,21.473l8.662,-11.201l10.953,0l-11.634,13.616l11.326,17.327l-10.457,0l-8.85,-14.852l0,14.852l-9.282,0l0,-8.468c-2.571,5.716 -8.251,9.458 -15.222,9.458c-8.478,0 -14.998,-5.249 -16.461,-12.94l0,11.95l-10.582,0l0,-12.856c-1.106,8.307 -7.152,13.846 -15.413,13.846c-3.775,0 -6.311,-1.113 -8.973,-4.271l0,3.281Zm-57.983,0l-10.15,0l0,-41.215l13.491,0c6.622,0 10.025,0.805 12.685,3.033c2.195,1.798 3.735,4.344 4.446,7.239l8.675,0l0,17.205c0,4.332 1.484,6.126 4.95,6.126c3.341,0 5.26,-2.166 5.26,-6.065l0,-17.266l9.282,0l0,30.943l-8.787,0l0,-3.281c-1.486,2.972 -4.085,4.271 -8.169,4.271c-3.774,0 -6.807,-1.238 -9.035,-3.837c-2.166,-2.475 -2.785,-4.64 -2.785,-9.592l0,-9.122c-0.76,1.976 -1.904,3.732 -3.341,5.039c-2.784,2.599 -6.127,3.589 -12.005,3.589l-4.517,0l0,12.933Zm250.896,-13.279c3.489,0 6.427,2.94 6.427,6.454c0,3.514 -2.938,6.43 -6.427,6.43c-3.514,0 -6.429,-2.892 -6.429,-6.406c0,-3.538 2.915,-6.478 6.429,-6.478Zm-6.179,4.011l-1.846,0c-0.947,-1.644 -2.516,-2.591 -4.285,-2.591c-2.792,0 -5.008,2.217 -5.008,5.008c0,2.842 2.193,5.059 4.983,5.059c1.27,0 2.418,-0.448 3.314,-1.296c0.348,-0.323 0.523,-0.548 0.996,-1.196l1.846,0c-0.773,1.521 -1.372,2.193 -2.518,2.916c-1.097,0.673 -2.167,0.972 -3.464,0.972c-3.788,0 -6.729,-2.791 -6.729,-6.406c0,-3.587 2.965,-6.477 6.604,-6.477c2.767,0 5.133,1.545 6.107,4.011Zm-13.881,8.574l-1.669,0l0,-2.816l1.669,0l0,2.816Zm28.231,-0.001l-1.642,0l0,-12.286l1.569,0l0,1.421c0.695,-1.122 1.817,-1.72 3.314,-1.72c1.793,0 3.09,0.723 4.211,2.367c0.697,-1.445 2.318,-2.367 4.136,-2.367c2.815,0 4.96,2.294 4.96,5.307l0,7.278l-1.57,0l0,-7.127c-0.026,-2.393 -1.395,-4.037 -3.415,-4.037c-1.296,0 -2.567,0.822 -3.038,1.943c-0.201,0.449 -0.302,1.196 -0.302,2.094l0,7.127l-1.569,0l0,-7.302c0,-2.218 -1.419,-3.862 -3.389,-3.862c-2.017,0 -3.265,1.471 -3.265,3.862l0,7.302Zm-8.171,-1.097c2.739,0 4.858,-2.244 4.858,-5.108c0,-2.716 -2.191,-4.959 -4.834,-4.959c-2.692,0 -4.857,2.267 -4.857,5.107c0,2.716 2.191,4.96 4.833,4.96Zm-45.446,-7.366l7.549,0c0.248,1.794 1.485,2.784 3.464,2.784c1.797,0 3.22,-1.052 3.22,-2.29c0,-1.424 -1.239,-2.537 -3.589,-3.156l-5.384,-1.423c-2.215,-0.572 -4.08,-2.01 -5.26,-3.885l0,7.97Zm-28.651,-3.466l-21.102,0c0.372,3.528 3.095,5.879 6.745,5.879c2.351,0 3.714,-0.619 5.694,-2.476c0.062,-0.246 0.186,-0.185 0.432,-0.433l8.231,0l0,-2.97Zm-67.326,5.012c4.147,0 7.365,-3.403 7.365,-7.859c0,-4.332 -3.341,-7.798 -7.426,-7.798c-4.147,0 -7.488,3.404 -7.488,7.798c0,4.518 3.218,7.859 7.549,7.859Zm-43.878,0c4.331,0 7.672,-3.404 7.672,-7.86c0,-4.393 -3.278,-7.797 -7.549,-7.797c-4.394,0 -7.735,3.341 -7.735,7.797c0,4.519 3.218,7.86 7.612,7.86Zm97.218,-16.524c-3.589,0 -6.187,1.98 -6.93,5.261l13.924,0c-0.619,-3.095 -3.405,-5.261 -6.994,-5.261Zm-158.978,-7.797l-3.835,0l0,9.654l4.269,0c4.393,0 6.497,-1.547 6.497,-4.827c0,-3.341 -2.103,-4.827 -6.931,-4.827Z" style="fill:#fff"/>
</svg>
