<svg xmlns="http://www.w3.org/2000/svg" style="fill-rule:evenodd;clip-rule:evenodd;stroke-linejoin:round;stroke-miterlimit:2" viewBox="0 0 256 49">
  <path d="M218.341,41.731c-1.541,3.961 -5.966,7.274 -10.711,7.274c-0.805,0 -1.527,0 -2.588,-0.316c-0.792,-0.18 -1.22,-0.66 -1.22,-1.277l0,-3.486c0,-0.431 0.375,-0.853 0.799,-0.853c0.677,0 1.168,0.18 1.906,0.37c4.858,1.35 9.169,-0.19 9.296,-4.722l-11.202,-25.763c-0.248,-0.613 -0.313,-0.79 -0.313,-0.972c0,-0.366 0.185,-0.552 0.551,-0.552l6.726,0c0.544,0 0.79,0.186 0.977,0.675l6.265,16.522l0.372,1.157l0.368,-1.157l6.091,-16.522c0.129,-0.428 0.434,-0.675 0.873,-0.675l2.818,0c0.306,0 0.562,0.247 0.562,0.552c0,0.24 -0.129,0.417 -0.256,0.79l-11.314,28.955Zm-27.761,-2.527l-5.733,0c-0.297,0 -0.592,-0.307 -0.592,-0.736l0,-25.811c0,-0.433 0.295,-0.733 0.592,-0.733l5.552,0c0.408,0 0.711,0.3 0.711,0.733l0.12,3.28c1.139,-1.699 3.823,-4.503 7.133,-4.503c0.776,0 1.5,0 2.641,0.304c0.771,0.186 1.187,0.682 1.187,1.283l0,3.844c0,0.411 -0.356,0.849 -0.785,0.849c-0.643,0 -1.252,-0.253 -2.014,-0.438c-3.235,-0.664 -8.102,-0.481 -8.102,4.759l0,16.433c0,0.429 -0.308,0.736 -0.71,0.736Zm-13.579,-27.77c0.414,0 0.731,0.297 0.731,0.728l0,16.975c0,7.516 -6.123,10.067 -12.256,10.067c-6.075,0 -12.202,-2.551 -12.202,-9.338l0,-17.704c0,-0.431 0.305,-0.728 0.614,-0.728l5.889,0c0.423,0 0.73,0.297 0.73,0.728l0,19.098c0,2.861 1.842,4.609 4.969,4.609c3.812,0 5.029,-2.119 5.029,-6.064l0,-17.643c0,-0.431 0.311,-0.728 0.62,-0.728l5.876,0Zm-37.497,-1.413c6.447,0 10.509,5.638 10.509,13.145c0,9.657 -6.692,16.038 -14.956,16.038c-4.514,0 -7.816,-1.573 -10.003,-3.253c-0.935,-0.688 -1.13,-1.873 -1.13,-2.881l0,-32.326c0,-0.432 0.309,-0.744 0.623,-0.744l5.996,0c0.437,0 0.754,0.312 0.754,0.744l0,12.466c1.19,-0.997 3.943,-3.189 8.207,-3.189Zm-61.27,29.183l-5.875,0c-0.306,0 -0.614,-0.303 -0.614,-0.732l0,-25.704c0,-0.426 0.308,-0.737 0.614,-0.737l5.7,0c0.437,0 0.736,0.311 0.736,0.737l0.128,1.39c1.83,-1.098 5.387,-2.724 8.754,-2.724c5.887,0 8.527,3.394 8.527,8.302l0,18.736c0,0.429 -0.313,0.732 -0.74,0.732l-5.885,0c-0.299,0 -0.603,-0.303 -0.603,-0.732l0,-18.124c0,-2.063 -0.245,-4.495 -4.302,-4.495c-2.08,0 -4.526,1.207 -5.694,1.889l0,20.73c0,0.429 -0.307,0.732 -0.746,0.732Zm-12.273,0l-6.112,0c-0.319,0 -0.64,-0.301 -0.64,-0.732l0,-25.732c0,-0.415 0.321,-0.721 0.64,-0.721l6.112,0c0.439,0 0.756,0.306 0.756,0.721l0,25.732c0,0.431 -0.317,0.732 -0.756,0.732Zm-12.912,-0.631l-5.751,0c-0.313,0 -0.622,-0.306 -0.622,-0.743l-0.141,-1.627c-2.026,1.745 -4.42,3.001 -7.326,3.001c-5.31,0 -9.859,-3.001 -9.859,-8.633c0,-6.828 7.641,-8.312 10.998,-8.756c5.496,-0.694 6.006,-1.062 6.006,-2.506c0,-3.065 -0.568,-5.572 -4.429,-5.572c-3.094,0 -5.429,1.071 -7.777,2.63c-0.378,0.256 -0.942,0.946 -1.7,0.946c-0.372,0 -1.066,-0.384 -1.066,-1.25l0,-2.813c0,-0.573 0.249,-1.137 0.943,-1.51c2.533,-1.246 6.442,-1.939 9.849,-1.939c8.919,0 11.635,3.504 11.635,8.574l0,19.455c0,0.437 -0.328,0.743 -0.76,0.743Zm-46.466,-30.07c0,7.116 19.506,6.374 19.506,17.926c0,12.546 -14.71,15.431 -25.048,10.49c-0.609,-0.383 -0.731,-0.693 -0.731,-1.254l0,-3.176c0,-0.574 0.187,-1.132 1.229,-1.132c0.559,0 0.916,0.324 1.723,0.88c8.556,6.055 15.926,2.43 15.926,-2.758c0,-8.547 -19.188,-5.929 -19.188,-18.555c0,-5.799 4.429,-10.924 12.618,-10.924c4.057,0 7.738,0.804 9.843,1.613c0.553,0.259 0.669,0.576 0.669,1.126l0,3.631c0,0.565 -0.187,1.001 -0.85,1.001c-0.559,0 -0.996,-0.315 -1.668,-0.814c-2.455,-1.809 -4.805,-2.87 -7.878,-2.87c-3.438,0 -6.151,1.932 -6.151,4.816Zm233.607,7.866c0,4.978 15.81,2.716 15.81,12.663c0,11.582 -12.652,11.514 -19.523,8.363c-0.743,-0.371 -0.922,-0.937 -0.922,-1.632l0,-2.449c0,-0.883 0.365,-1.141 0.981,-1.141c0.436,0 0.811,0.198 1.179,0.515c5.313,4.156 12.697,3.698 12.697,-0.629c0,-5.428 -15.609,-3.35 -15.609,-13.358c0,-8.868 10.782,-10.701 18.828,-7.299c0.758,0.301 0.946,0.937 0.946,1.635l0,2.069c0,0.892 -0.374,1.141 -1.002,1.141c-0.316,0 -0.802,-0.249 -1.18,-0.503c-4.456,-3.087 -12.205,-3.468 -12.205,0.625Zm-135.334,0c0,4.978 15.806,2.716 15.806,12.663c0,11.582 -12.659,11.514 -19.521,8.363c-0.762,-0.371 -0.945,-0.937 -0.945,-1.632l0,-2.449c0,-0.883 0.384,-1.141 1,-1.141c0.427,0 0.806,0.198 1.177,0.515c5.336,4.156 12.706,3.698 12.706,-0.629c0,-5.428 -15.614,-3.35 -15.614,-13.358c0,-8.868 10.779,-10.701 18.847,-7.299c0.742,0.301 0.925,0.937 0.925,1.635l0,2.069c0,0.892 -0.366,1.141 -0.981,1.141c-0.313,0 -0.821,-0.249 -1.183,-0.503c-4.472,-3.087 -12.217,-3.468 -12.217,0.625Zm30.693,19.457c4.003,0 6.837,-4.129 6.837,-11.156c0,-2.621 -0.579,-10.015 -6.263,-10.015c-2.261,0 -3.893,1.252 -4.826,1.936l0,16.924c0,0.563 0.118,1.113 0.88,1.621c0.621,0.365 1.56,0.69 3.372,0.69Zm-89.195,-3.375l0,-8.271c-7.019,0 -9.672,3.135 -9.672,6.516c0,2.38 1.262,4.742 4.606,4.742c2.918,0 5.066,-2.178 5.066,-2.987Zm188.064,-21.017l-1.278,0c-0.443,0 -0.744,-0.255 -0.744,-0.576c0,-0.846 0.985,-1.824 0.985,-4.548c0,-2.674 -1.84,-4.616 -1.84,-5.404c0,-0.386 0.124,-0.906 0.788,-0.906l2.891,0c5.314,0 2.075,11.434 -0.802,11.434Zm-175.717,-6.397c0,-1.819 1.335,-3.4 4.125,-3.404l0.026,0c2.664,0.004 4.002,1.585 4.002,3.404c0,2.185 -1.535,3.643 -4.015,3.643c-2.489,0 -4.138,-1.458 -4.138,-3.643Z" style="fill:#f06c00"/>
</svg>
