<svg xmlns="http://www.w3.org/2000/svg" style="fill-rule:evenodd;clip-rule:evenodd;stroke-linejoin:round;stroke-miterlimit:2" viewBox="0 0 86 23">
  <path d="M6.597,19.097l10.522,0c0.085,0 0.085,0.085 0,0.085c-1.272,0.509 -2.97,2.121 -2.97,2.121c-1.187,1.018 -2.121,1.697 -4.073,1.697l-10.012,0c-0.085,0 -0.085,-0.085 0,-0.085c1.103,-0.594 2.715,-2.206 2.715,-2.206c0.679,-0.679 2.036,-1.612 3.818,-1.612Zm68.817,0l10.522,0c0.085,0 0.085,0.085 0,0.085c-1.188,0.509 -2.885,2.121 -2.885,2.121c-1.188,1.018 -2.121,1.697 -4.073,1.697l-10.097,0c-0.085,0 -0.085,-0.085 0,-0.085c1.103,-0.594 2.715,-2.206 2.715,-2.206c0.764,-0.679 2.121,-1.612 3.818,-1.612Zm-51.591,0l10.522,0c0.085,0 0.085,0.085 0,0.085c-1.188,0.509 -2.885,2.121 -2.885,2.121c-1.188,1.018 -2.122,1.697 -4.073,1.697l-10.013,0c-0.085,0 -0.085,-0.085 0,-0.085c1.103,-0.594 2.715,-2.206 2.715,-2.206c0.594,-0.679 1.952,-1.612 3.734,-1.612Zm17.14,0l10.522,0c0.085,0 0.085,0.085 0,0.085c-1.188,0.509 -2.885,2.121 -2.885,2.121c-1.188,1.018 -2.121,1.697 -4.073,1.697l-10.012,0c-0.085,0 -0.085,-0.085 0,-0.085c1.103,-0.594 2.715,-2.206 2.715,-2.206c0.679,-0.679 2.036,-1.612 3.733,-1.612Zm17.226,0l10.522,0c0.085,0 0.085,0.085 0,0.085c-1.188,0.509 -2.885,2.121 -2.885,2.121c-1.188,1.018 -2.122,1.697 -4.073,1.697l-10.013,0c-0.085,0 -0.085,-0.085 0,-0.085c1.103,-0.594 2.715,-2.206 2.715,-2.206c0.679,-0.679 2.037,-1.612 3.734,-1.612Z" style="fill:#0354a0;fill-rule:nonzero"/>
  <path d="M61.074,0.089c-6.619,0 -10.946,3.14 -10.946,7.977c0,4.412 3.988,7.382 10.013,7.382c1.951,0 3.648,-0.255 5.685,-0.764l0,-3.733c-1.443,1.527 -3.14,2.121 -5.007,2.121c-3.563,0 -5.939,-2.206 -5.939,-5.431c0,-3.139 2.545,-5.43 6.024,-5.43c1.952,0 3.479,0.678 4.667,1.866l0,-3.563c-1.273,-0.34 -2.885,-0.425 -4.497,-0.425Zm-49.64,2.546c2.461,0 5.346,0.424 6.619,1.442l0,-3.563l-17.48,0l0,3.563c1.273,-0.933 3.818,-1.357 6.618,-1.357l0,9.673c0,1.443 -0.084,1.782 -0.763,2.546l5.6,0c-0.594,-0.764 -0.764,-1.188 -0.764,-2.546l0,-9.758l0.17,0Zm18.074,3.564c-1.018,0.339 -2.8,0.424 -3.733,0.424l-1.443,0l0,-3.818l1.952,0c1.782,0 4.836,0.339 5.939,1.357l0,-3.648l-12.643,0c0.594,0.763 0.679,1.188 0.679,2.545l0,9.334c0,1.443 -0.085,1.867 -0.679,2.546l13.492,0l0,-3.479c-1.867,1.357 -5.346,1.357 -6.788,1.273l-1.952,0l0,-3.989l1.443,0c1.018,0 2.715,0.085 3.733,0.425l0,-2.97Zm18.753,-5.176c-1.952,-0.594 -4.667,-1.019 -6.619,-1.019c-3.648,0 -7.212,1.104 -7.212,4.752c0,6.28 11.031,2.97 11.031,6.789c0,1.272 -1.952,1.782 -3.479,1.782c-2.8,0 -4.837,-0.425 -7.298,-1.867l0,3.139c1.867,0.594 4.328,0.934 7.128,0.934c3.818,0 7.382,-1.018 7.382,-4.667c0,-6.619 -11.031,-3.649 -11.031,-6.873c0,-1.273 1.782,-1.782 3.31,-1.782c2.63,0 5.43,0.763 6.958,2.206l0,-3.394l-0.17,0Zm22.826,6.788c0,-3.055 1.951,-5.515 4.921,-5.515c2.97,0 4.922,2.46 4.922,5.515c0.085,2.97 -1.867,5.431 -4.837,5.431c-3.055,0 -5.006,-2.461 -5.006,-5.431Zm14.34,-0.17c0,-4.582 -3.564,-7.637 -8.909,-7.637c-5.771,0.085 -9.759,3.31 -9.759,7.977c0,4.497 3.649,7.552 8.995,7.552c5.685,0 9.673,-3.225 9.673,-7.892Z" style="fill:#e52620;fill-rule:nonzero"/>
</svg>
